G75*
%MOIN*%
%OFA0B0*%
%FSLAX24Y24*%
%IPPOS*%
%LPD*%
%AMOC8*
5,1,8,0,0,1.08239X$1,22.5*
%
%ADD10R,0.0395X0.0395*%
%ADD11R,0.0474X0.0513*%
%ADD12C,0.0820*%
%ADD13R,0.0552X0.0395*%
%ADD14R,0.0395X0.0552*%
%ADD15C,0.0296*%
D10*
X006400Y007855D03*
X006400Y008445D03*
X007900Y008445D03*
X007900Y007855D03*
D11*
X008650Y007815D03*
X008650Y008485D03*
X005650Y008485D03*
X005650Y007815D03*
D12*
X000650Y000750D03*
X000650Y001750D03*
X000650Y002750D03*
X000650Y003750D03*
X000650Y004750D03*
X000650Y005750D03*
X000650Y006750D03*
X000650Y007750D03*
X000650Y008750D03*
X000650Y009750D03*
X000650Y010750D03*
X000650Y011750D03*
X000650Y012750D03*
X000650Y013750D03*
X000650Y014750D03*
X000650Y015750D03*
X000650Y016750D03*
X000650Y017750D03*
X000650Y018750D03*
X000650Y019750D03*
X013650Y019750D03*
X013650Y018750D03*
X013650Y017750D03*
X013650Y016750D03*
X013650Y015750D03*
X013650Y014750D03*
X013650Y013750D03*
X013650Y012750D03*
X013650Y011750D03*
X013650Y010750D03*
X013650Y009750D03*
X013650Y008750D03*
X013650Y007750D03*
X013650Y006750D03*
X013650Y005750D03*
X013650Y004750D03*
X013650Y003750D03*
X013650Y002750D03*
X013650Y001750D03*
X013650Y000750D03*
D13*
X009748Y012343D03*
X009748Y012815D03*
X009748Y013288D03*
X009748Y013760D03*
X009748Y014233D03*
X009748Y014705D03*
X009748Y015178D03*
X009748Y015650D03*
X009748Y016122D03*
X009748Y016595D03*
X009748Y017067D03*
X009748Y017540D03*
X009748Y018012D03*
X009748Y018485D03*
X009748Y018957D03*
X009748Y019430D03*
X009748Y019902D03*
X004552Y019902D03*
X004552Y019430D03*
X004552Y018957D03*
X004552Y018485D03*
X004552Y018012D03*
X004552Y017540D03*
X004552Y017067D03*
X004552Y016595D03*
X004552Y016122D03*
X004552Y015650D03*
X004552Y015178D03*
X004552Y014705D03*
X004552Y014233D03*
X004552Y013760D03*
X004552Y013288D03*
X004552Y012815D03*
X004552Y012343D03*
D14*
X004827Y011634D03*
X005496Y011634D03*
X005969Y011634D03*
X006441Y011634D03*
X006914Y011634D03*
X007386Y011634D03*
X007859Y011634D03*
X008331Y011634D03*
X008804Y011634D03*
X009473Y011638D03*
D15*
X008577Y019577D02*
X008577Y019833D01*
X008577Y019577D02*
X008479Y019577D01*
X008479Y019833D01*
X008577Y019833D01*
X008026Y019833D02*
X008026Y019577D01*
X007928Y019577D01*
X007928Y019833D01*
X008026Y019833D01*
X007475Y019833D02*
X007475Y019577D01*
X007377Y019577D01*
X007377Y019833D01*
X007475Y019833D01*
X006923Y019833D02*
X006923Y019577D01*
X006825Y019577D01*
X006825Y019833D01*
X006923Y019833D01*
X006372Y019833D02*
X006372Y019577D01*
X006274Y019577D01*
X006274Y019833D01*
X006372Y019833D01*
X005821Y019833D02*
X005821Y019577D01*
X005723Y019577D01*
X005723Y019833D01*
X005821Y019833D01*
M02*
