%
M48
M72
T01C0.0200
T02C0.0400
%
T01
X6400Y9050
X7900Y9050
X9850Y10950
X7900Y12800
X6400Y12800
X4450Y10950
X7150Y16150
X7150Y5500
T02
X750Y750
X750Y1750
X750Y2750
X750Y3750
X750Y4750
X750Y5750
X750Y6750
X750Y7750
X750Y8750
X750Y9750
X750Y10750
X750Y11750
X750Y12750
X750Y13750
X750Y14750
X750Y15750
X750Y16750
X750Y17750
X750Y18750
X750Y19750
X13550Y19750
X13550Y18750
X13550Y17750
X13550Y16750
X13550Y15750
X13550Y14750
X13550Y13750
X13550Y12750
X13550Y11750
X13550Y10750
X13550Y9750
X13550Y8750
X13550Y7750
X13550Y6750
X13550Y5750
X13550Y4750
X13550Y3750
X13550Y2750
X13550Y1750
X13550Y750
M30
