%
M48
M72
T01C0.0200
T02C0.0400
%
T01
X6400Y9050
X7900Y9050
X9850Y10950
X7900Y12800
X6400Y12800
X4450Y10950
X7150Y16150
X7150Y5500
T02
X650Y750
X650Y1750
X650Y2750
X650Y3750
X650Y4750
X650Y5750
X650Y6750
X650Y7750
X650Y8750
X650Y9750
X650Y10750
X650Y11750
X650Y12750
X650Y13750
X650Y14750
X650Y15750
X650Y16750
X650Y17750
X650Y18750
X650Y19750
X13650Y19750
X13650Y18750
X13650Y17750
X13650Y16750
X13650Y15750
X13650Y14750
X13650Y13750
X13650Y12750
X13650Y11750
X13650Y10750
X13650Y9750
X13650Y8750
X13650Y7750
X13650Y6750
X13650Y5750
X13650Y4750
X13650Y3750
X13650Y2750
X13650Y1750
X13650Y750
M30
