G75*
%MOIN*%
%OFA0B0*%
%FSLAX24Y24*%
%IPPOS*%
%LPD*%
%AMOC8*
5,1,8,0,0,1.08239X$1,22.5*
%
%ADD10R,0.0740X0.0740*%
%ADD11C,0.0740*%
%ADD12C,0.0400*%
%ADD13C,0.0100*%
%ADD14C,0.0120*%
D10*
X016205Y007833D03*
X007205Y026833D03*
D11*
X007205Y007833D03*
X007205Y008833D03*
X007205Y009833D03*
X007205Y010833D03*
X007205Y011833D03*
X007205Y012833D03*
X007205Y013833D03*
X007205Y014833D03*
X007205Y015833D03*
X007205Y016833D03*
X007205Y017833D03*
X007205Y018833D03*
X007205Y019833D03*
X007205Y020833D03*
X007205Y021833D03*
X007205Y022833D03*
X007205Y023833D03*
X007205Y024833D03*
X007205Y025833D03*
X016205Y025833D03*
X016205Y026833D03*
X016205Y024833D03*
X016205Y023833D03*
X016205Y022833D03*
X016205Y021833D03*
X016205Y020833D03*
X016205Y019833D03*
X016205Y018833D03*
X016205Y017833D03*
X016205Y016833D03*
X016205Y015833D03*
X016205Y014833D03*
X016205Y013833D03*
X016205Y012833D03*
X016205Y011833D03*
X016205Y010833D03*
X016205Y009833D03*
X016205Y008833D03*
D12*
X013205Y014033D03*
X011355Y015533D03*
X010305Y013633D03*
X007905Y011333D03*
X013305Y017333D03*
X012955Y019383D03*
X012705Y019933D03*
X013155Y020333D03*
X012705Y020833D03*
X013155Y021333D03*
X013505Y019933D03*
X010955Y019433D03*
X010605Y019883D03*
X010355Y020333D03*
X010605Y020833D03*
X010305Y021333D03*
X009055Y018033D03*
D13*
X009705Y017483D02*
X008055Y015833D01*
X007205Y015833D01*
X007205Y014833D02*
X008055Y014833D01*
X010005Y016783D01*
X010005Y020533D01*
X010305Y020833D01*
X010605Y020833D01*
X010355Y020333D02*
X010255Y020233D01*
X010303Y017280D01*
X010303Y016131D01*
X008005Y013833D01*
X007205Y013833D01*
X007205Y012833D02*
X008005Y012833D01*
X010605Y015433D01*
X010605Y019883D01*
X010955Y019433D02*
X011005Y019383D01*
X011005Y014833D01*
X008005Y011833D01*
X007205Y011833D01*
X011355Y015533D02*
X011505Y015533D01*
X013305Y017333D01*
X014705Y016183D02*
X016055Y014833D01*
X016205Y014833D01*
X016205Y015833D02*
X015905Y015833D01*
X015105Y016633D01*
X015105Y020633D01*
X014905Y020833D01*
X012705Y020833D01*
X013155Y020333D02*
X014455Y020333D01*
X014705Y020083D01*
X014705Y016183D01*
X014205Y015433D02*
X015805Y013833D01*
X016205Y013833D01*
X016205Y012833D02*
X015005Y012833D01*
X013805Y013983D01*
X013805Y019133D01*
X013005Y019933D01*
X012705Y019933D01*
X013505Y019933D02*
X014155Y019933D01*
X014205Y019883D01*
X014205Y015433D01*
X016005Y016833D02*
X015405Y017433D01*
X015405Y021133D01*
X015205Y021333D01*
X013155Y021333D01*
X010305Y021333D02*
X010005Y021333D01*
X009705Y021033D01*
X009705Y017483D01*
X010303Y017280D02*
X010305Y017133D01*
X016005Y016833D02*
X016205Y016833D01*
D14*
X015975Y017333D02*
X015894Y017300D01*
X015879Y017285D01*
X015635Y017529D01*
X015635Y021229D01*
X015500Y021363D01*
X015300Y021563D01*
X013463Y021563D01*
X013370Y021655D01*
X013231Y021713D01*
X013080Y021713D01*
X012940Y021655D01*
X012833Y021549D01*
X012775Y021409D01*
X012775Y021258D01*
X012796Y021207D01*
X012781Y021213D01*
X012630Y021213D01*
X012490Y021155D01*
X012383Y021049D01*
X012325Y020909D01*
X012325Y020758D01*
X012383Y020618D01*
X012490Y020511D01*
X012630Y020453D01*
X012781Y020453D01*
X012796Y020460D01*
X012775Y020409D01*
X012775Y020313D01*
X012630Y020313D01*
X012490Y020255D01*
X012383Y020149D01*
X012325Y020009D01*
X012325Y019858D01*
X012383Y019718D01*
X012490Y019611D01*
X012630Y019553D01*
X012781Y019553D01*
X012920Y019611D01*
X012961Y019652D01*
X013575Y019038D01*
X013575Y017601D01*
X013520Y017655D01*
X013381Y017713D01*
X013230Y017713D01*
X013090Y017655D01*
X012983Y017549D01*
X012925Y017409D01*
X012925Y017279D01*
X011522Y015876D01*
X011431Y015913D01*
X011280Y015913D01*
X011235Y015895D01*
X011235Y019176D01*
X011277Y019218D01*
X011335Y019358D01*
X011335Y019509D01*
X011277Y019649D01*
X011170Y019755D01*
X011031Y019813D01*
X010985Y019813D01*
X010985Y019959D01*
X010927Y020099D01*
X010820Y020205D01*
X010729Y020243D01*
X010735Y020258D01*
X010735Y020409D01*
X010711Y020466D01*
X010820Y020511D01*
X010927Y020618D01*
X010985Y020758D01*
X010985Y020909D01*
X010927Y021049D01*
X010820Y021155D01*
X010681Y021213D01*
X010667Y021213D01*
X010685Y021258D01*
X010685Y021409D01*
X010627Y021549D01*
X010520Y021655D01*
X010381Y021713D01*
X010230Y021713D01*
X010090Y021655D01*
X009998Y021563D01*
X009910Y021563D01*
X009775Y021429D01*
X009475Y021129D01*
X009475Y017579D01*
X007960Y016063D01*
X007705Y016063D01*
X007671Y016145D01*
X007517Y016300D01*
X007435Y016333D01*
X007517Y016367D01*
X007671Y016522D01*
X007755Y016724D01*
X007755Y016943D01*
X007671Y017145D01*
X007517Y017300D01*
X007435Y017333D01*
X007517Y017367D01*
X007671Y017522D01*
X007755Y017724D01*
X007755Y017943D01*
X007671Y018145D01*
X007517Y018300D01*
X007435Y018333D01*
X007517Y018367D01*
X007671Y018522D01*
X007755Y018724D01*
X007755Y018943D01*
X007671Y019145D01*
X007517Y019300D01*
X007435Y019333D01*
X007517Y019367D01*
X007671Y019522D01*
X007755Y019724D01*
X007755Y019943D01*
X007671Y020145D01*
X007517Y020300D01*
X007435Y020333D01*
X007517Y020367D01*
X007671Y020522D01*
X007755Y020724D01*
X007755Y020943D01*
X007671Y021145D01*
X007517Y021300D01*
X007435Y021333D01*
X007517Y021367D01*
X007671Y021522D01*
X007755Y021724D01*
X007755Y021943D01*
X007671Y022145D01*
X007517Y022300D01*
X007435Y022333D01*
X007517Y022367D01*
X007671Y022522D01*
X007755Y022724D01*
X007755Y022943D01*
X007671Y023145D01*
X007517Y023300D01*
X007435Y023333D01*
X007517Y023367D01*
X007671Y023522D01*
X007755Y023724D01*
X007755Y023943D01*
X007671Y024145D01*
X007517Y024300D01*
X007435Y024333D01*
X007517Y024367D01*
X007671Y024522D01*
X007755Y024724D01*
X007755Y024943D01*
X007671Y025145D01*
X007517Y025300D01*
X007435Y025333D01*
X007517Y025367D01*
X007671Y025522D01*
X007755Y025724D01*
X007755Y025943D01*
X007671Y026145D01*
X007533Y026283D01*
X007650Y026283D01*
X007755Y026389D01*
X007755Y027103D01*
X015722Y027103D01*
X015655Y026943D01*
X015655Y026724D01*
X015739Y026522D01*
X015894Y026367D01*
X015975Y026333D01*
X015894Y026300D01*
X015739Y026145D01*
X015655Y025943D01*
X015655Y025724D01*
X015739Y025522D01*
X015894Y025367D01*
X015975Y025333D01*
X015894Y025300D01*
X015739Y025145D01*
X015655Y024943D01*
X015655Y024724D01*
X015739Y024522D01*
X015894Y024367D01*
X015975Y024333D01*
X015894Y024300D01*
X015739Y024145D01*
X015655Y023943D01*
X015655Y023724D01*
X015739Y023522D01*
X015894Y023367D01*
X015975Y023333D01*
X015894Y023300D01*
X015739Y023145D01*
X015655Y022943D01*
X015655Y022724D01*
X015739Y022522D01*
X015894Y022367D01*
X015975Y022333D01*
X015894Y022300D01*
X015739Y022145D01*
X015655Y021943D01*
X015655Y021724D01*
X015739Y021522D01*
X015894Y021367D01*
X015975Y021333D01*
X015894Y021300D01*
X015739Y021145D01*
X015655Y020943D01*
X015655Y020724D01*
X015739Y020522D01*
X015894Y020367D01*
X015975Y020333D01*
X015894Y020300D01*
X015739Y020145D01*
X015655Y019943D01*
X015655Y019724D01*
X015739Y019522D01*
X015894Y019367D01*
X015975Y019333D01*
X015894Y019300D01*
X015739Y019145D01*
X015655Y018943D01*
X015655Y018724D01*
X015739Y018522D01*
X015894Y018367D01*
X015975Y018333D01*
X015894Y018300D01*
X015739Y018145D01*
X015655Y017943D01*
X015655Y017724D01*
X015739Y017522D01*
X015894Y017367D01*
X015975Y017333D01*
X015881Y017287D02*
X015876Y017287D01*
X015855Y017406D02*
X015758Y017406D01*
X015738Y017524D02*
X015639Y017524D01*
X015635Y017643D02*
X015689Y017643D01*
X015655Y017761D02*
X015635Y017761D01*
X015635Y017880D02*
X015655Y017880D01*
X015635Y017998D02*
X015678Y017998D01*
X015635Y018117D02*
X015727Y018117D01*
X015635Y018235D02*
X015829Y018235D01*
X015925Y018354D02*
X015635Y018354D01*
X015635Y018472D02*
X015788Y018472D01*
X015710Y018591D02*
X015635Y018591D01*
X015635Y018709D02*
X015661Y018709D01*
X015655Y018828D02*
X015635Y018828D01*
X015635Y018946D02*
X015657Y018946D01*
X015635Y019065D02*
X015706Y019065D01*
X015635Y019183D02*
X015777Y019183D01*
X015899Y019302D02*
X015635Y019302D01*
X015635Y019420D02*
X015840Y019420D01*
X015732Y019539D02*
X015635Y019539D01*
X015635Y019657D02*
X015683Y019657D01*
X015655Y019776D02*
X015635Y019776D01*
X015635Y019894D02*
X015655Y019894D01*
X015635Y020013D02*
X015684Y020013D01*
X015635Y020131D02*
X015733Y020131D01*
X015635Y020250D02*
X015844Y020250D01*
X015892Y020368D02*
X015635Y020368D01*
X015635Y020487D02*
X015774Y020487D01*
X015704Y020605D02*
X015635Y020605D01*
X015635Y020724D02*
X015655Y020724D01*
X015655Y020842D02*
X015635Y020842D01*
X015635Y020961D02*
X015663Y020961D01*
X015635Y021079D02*
X015712Y021079D01*
X015635Y021198D02*
X015792Y021198D01*
X015934Y021316D02*
X015547Y021316D01*
X015429Y021435D02*
X015826Y021435D01*
X015726Y021553D02*
X015310Y021553D01*
X015677Y021672D02*
X013331Y021672D01*
X012979Y021672D02*
X010481Y021672D01*
X010623Y021553D02*
X012838Y021553D01*
X012786Y021435D02*
X010674Y021435D01*
X010685Y021316D02*
X012775Y021316D01*
X012592Y021198D02*
X010718Y021198D01*
X010897Y021079D02*
X012414Y021079D01*
X012347Y020961D02*
X010964Y020961D01*
X010985Y020842D02*
X012325Y020842D01*
X012339Y020724D02*
X010971Y020724D01*
X010915Y020605D02*
X012396Y020605D01*
X012549Y020487D02*
X010762Y020487D01*
X010735Y020368D02*
X012775Y020368D01*
X012484Y020250D02*
X010732Y020250D01*
X010895Y020131D02*
X012376Y020131D01*
X012327Y020013D02*
X010963Y020013D01*
X010985Y019894D02*
X012325Y019894D01*
X012359Y019776D02*
X011121Y019776D01*
X011269Y019657D02*
X012444Y019657D01*
X013074Y019539D02*
X011323Y019539D01*
X011335Y019420D02*
X013193Y019420D01*
X013311Y019302D02*
X011312Y019302D01*
X011243Y019183D02*
X013430Y019183D01*
X013548Y019065D02*
X011235Y019065D01*
X011235Y018946D02*
X013575Y018946D01*
X013575Y018828D02*
X011235Y018828D01*
X011235Y018709D02*
X013575Y018709D01*
X013575Y018591D02*
X011235Y018591D01*
X011235Y018472D02*
X013575Y018472D01*
X013575Y018354D02*
X011235Y018354D01*
X011235Y018235D02*
X013575Y018235D01*
X013575Y018117D02*
X011235Y018117D01*
X011235Y017998D02*
X013575Y017998D01*
X013575Y017880D02*
X011235Y017880D01*
X011235Y017761D02*
X013575Y017761D01*
X013575Y017643D02*
X013533Y017643D01*
X013077Y017643D02*
X011235Y017643D01*
X011235Y017524D02*
X012973Y017524D01*
X012925Y017406D02*
X011235Y017406D01*
X011235Y017287D02*
X012925Y017287D01*
X012815Y017169D02*
X011235Y017169D01*
X011235Y017050D02*
X012697Y017050D01*
X012578Y016932D02*
X011235Y016932D01*
X011235Y016813D02*
X012460Y016813D01*
X012341Y016695D02*
X011235Y016695D01*
X011235Y016576D02*
X012223Y016576D01*
X012104Y016458D02*
X011235Y016458D01*
X011235Y016339D02*
X011986Y016339D01*
X011867Y016221D02*
X011235Y016221D01*
X011235Y016102D02*
X011749Y016102D01*
X011630Y015984D02*
X011235Y015984D01*
X009421Y017524D02*
X007672Y017524D01*
X007722Y017643D02*
X009475Y017643D01*
X009475Y017761D02*
X007755Y017761D01*
X007755Y017880D02*
X009475Y017880D01*
X009475Y017998D02*
X007732Y017998D01*
X007683Y018117D02*
X009475Y018117D01*
X009475Y018235D02*
X007581Y018235D01*
X007485Y018354D02*
X009475Y018354D01*
X009475Y018472D02*
X007622Y018472D01*
X007700Y018591D02*
X009475Y018591D01*
X009475Y018709D02*
X007749Y018709D01*
X007755Y018828D02*
X009475Y018828D01*
X009475Y018946D02*
X007754Y018946D01*
X007705Y019065D02*
X009475Y019065D01*
X009475Y019183D02*
X007633Y019183D01*
X007511Y019302D02*
X009475Y019302D01*
X009475Y019420D02*
X007570Y019420D01*
X007678Y019539D02*
X009475Y019539D01*
X009475Y019657D02*
X007728Y019657D01*
X007755Y019776D02*
X009475Y019776D01*
X009475Y019894D02*
X007755Y019894D01*
X007726Y020013D02*
X009475Y020013D01*
X009475Y020131D02*
X007677Y020131D01*
X007566Y020250D02*
X009475Y020250D01*
X009475Y020368D02*
X007518Y020368D01*
X007636Y020487D02*
X009475Y020487D01*
X009475Y020605D02*
X007706Y020605D01*
X007755Y020724D02*
X009475Y020724D01*
X009475Y020842D02*
X007755Y020842D01*
X007748Y020961D02*
X009475Y020961D01*
X009475Y021079D02*
X007699Y021079D01*
X007618Y021198D02*
X009544Y021198D01*
X009663Y021316D02*
X007476Y021316D01*
X007584Y021435D02*
X009781Y021435D01*
X009900Y021553D02*
X007684Y021553D01*
X007734Y021672D02*
X010129Y021672D01*
X007755Y021790D02*
X015655Y021790D01*
X015655Y021909D02*
X007755Y021909D01*
X007720Y022027D02*
X015690Y022027D01*
X015740Y022146D02*
X007670Y022146D01*
X007552Y022264D02*
X015858Y022264D01*
X015878Y022383D02*
X007532Y022383D01*
X007651Y022501D02*
X015759Y022501D01*
X015698Y022620D02*
X007712Y022620D01*
X007755Y022738D02*
X015655Y022738D01*
X015655Y022857D02*
X007755Y022857D01*
X007742Y022975D02*
X015669Y022975D01*
X015718Y023094D02*
X007693Y023094D01*
X007604Y023212D02*
X015806Y023212D01*
X015969Y023331D02*
X007441Y023331D01*
X007599Y023449D02*
X015811Y023449D01*
X015720Y023568D02*
X007690Y023568D01*
X007740Y023686D02*
X015671Y023686D01*
X015655Y023805D02*
X007755Y023805D01*
X007755Y023923D02*
X015655Y023923D01*
X015696Y024042D02*
X007714Y024042D01*
X007656Y024160D02*
X015754Y024160D01*
X015873Y024279D02*
X007537Y024279D01*
X007547Y024397D02*
X015863Y024397D01*
X015745Y024516D02*
X007665Y024516D01*
X007718Y024634D02*
X015692Y024634D01*
X015655Y024753D02*
X007755Y024753D01*
X007755Y024871D02*
X015655Y024871D01*
X015675Y024990D02*
X007736Y024990D01*
X007687Y025108D02*
X015724Y025108D01*
X015821Y025227D02*
X007589Y025227D01*
X007464Y025345D02*
X015946Y025345D01*
X015797Y025464D02*
X007613Y025464D01*
X007696Y025582D02*
X015714Y025582D01*
X015665Y025701D02*
X007746Y025701D01*
X007755Y025819D02*
X015655Y025819D01*
X015655Y025938D02*
X007755Y025938D01*
X007708Y026056D02*
X015702Y026056D01*
X015769Y026175D02*
X007641Y026175D01*
X007660Y026293D02*
X015887Y026293D01*
X015849Y026412D02*
X007755Y026412D01*
X007755Y026530D02*
X015735Y026530D01*
X015686Y026649D02*
X007755Y026649D01*
X007755Y026767D02*
X015655Y026767D01*
X015655Y026886D02*
X007755Y026886D01*
X007755Y027004D02*
X015681Y027004D01*
X009302Y017406D02*
X007555Y017406D01*
X007529Y017287D02*
X009184Y017287D01*
X009065Y017169D02*
X007647Y017169D01*
X007711Y017050D02*
X008947Y017050D01*
X008828Y016932D02*
X007755Y016932D01*
X007755Y016813D02*
X008710Y016813D01*
X008591Y016695D02*
X007743Y016695D01*
X007694Y016576D02*
X008473Y016576D01*
X008354Y016458D02*
X007607Y016458D01*
X007450Y016339D02*
X008236Y016339D01*
X008117Y016221D02*
X007595Y016221D01*
X007689Y016102D02*
X007999Y016102D01*
X009963Y013466D02*
X009983Y013418D01*
X010090Y013311D01*
X010230Y013253D01*
X010381Y013253D01*
X010520Y013311D01*
X010603Y013393D01*
X012816Y013393D01*
X012823Y013391D01*
X012863Y013393D01*
X012903Y013393D01*
X012910Y013396D01*
X012919Y013397D01*
X012954Y013415D01*
X012991Y013430D01*
X012997Y013436D01*
X013004Y013439D01*
X013030Y013469D01*
X013059Y013497D01*
X013062Y013505D01*
X013192Y013653D01*
X013281Y013653D01*
X013420Y013711D01*
X013527Y013818D01*
X013575Y013934D01*
X013575Y013888D01*
X013577Y013886D01*
X013577Y013883D01*
X013644Y013819D01*
X013710Y013753D01*
X013713Y013753D01*
X014844Y012669D01*
X014910Y012603D01*
X014913Y012603D01*
X014915Y012601D01*
X015008Y012603D01*
X015705Y012603D01*
X015739Y012522D01*
X015894Y012367D01*
X015975Y012333D01*
X015894Y012300D01*
X015739Y012145D01*
X015655Y011943D01*
X015655Y011724D01*
X015739Y011522D01*
X015894Y011367D01*
X015975Y011333D01*
X015894Y011300D01*
X015739Y011145D01*
X015655Y010943D01*
X015655Y010724D01*
X015739Y010522D01*
X015894Y010367D01*
X015975Y010333D01*
X015894Y010300D01*
X015739Y010145D01*
X015655Y009943D01*
X015655Y009724D01*
X015739Y009522D01*
X015894Y009367D01*
X015975Y009333D01*
X015894Y009300D01*
X015739Y009145D01*
X015655Y008943D01*
X015655Y008724D01*
X015739Y008522D01*
X015894Y008367D01*
X015903Y008363D01*
X015814Y008363D01*
X015773Y008352D01*
X015737Y008331D01*
X015707Y008302D01*
X015686Y008265D01*
X015675Y008224D01*
X015675Y007873D01*
X016165Y007873D01*
X016165Y007793D01*
X015675Y007793D01*
X015675Y007563D01*
X007689Y007563D01*
X007755Y007724D01*
X007755Y007943D01*
X007671Y008145D01*
X007517Y008300D01*
X007435Y008333D01*
X007517Y008367D01*
X007671Y008522D01*
X007755Y008724D01*
X007755Y008943D01*
X007671Y009145D01*
X007517Y009300D01*
X007435Y009333D01*
X007517Y009367D01*
X007671Y009522D01*
X007755Y009724D01*
X007755Y009943D01*
X007671Y010145D01*
X007517Y010300D01*
X007435Y010333D01*
X007517Y010367D01*
X007671Y010522D01*
X007755Y010724D01*
X007755Y010943D01*
X007671Y011145D01*
X007517Y011300D01*
X007435Y011333D01*
X007517Y011367D01*
X007671Y011522D01*
X007705Y011603D01*
X008100Y011603D01*
X009963Y013466D01*
X010024Y013377D02*
X009874Y013377D01*
X009755Y013258D02*
X010217Y013258D01*
X010393Y013258D02*
X014229Y013258D01*
X014353Y013140D02*
X009637Y013140D01*
X009518Y013021D02*
X014477Y013021D01*
X014600Y012903D02*
X009400Y012903D01*
X009281Y012784D02*
X014724Y012784D01*
X014847Y012666D02*
X009163Y012666D01*
X009044Y012547D02*
X015728Y012547D01*
X015832Y012429D02*
X008926Y012429D01*
X008807Y012310D02*
X015920Y012310D01*
X015786Y012192D02*
X008689Y012192D01*
X008570Y012073D02*
X015709Y012073D01*
X015660Y011955D02*
X008452Y011955D01*
X008333Y011836D02*
X015655Y011836D01*
X015658Y011718D02*
X008215Y011718D01*
X007704Y011599D02*
X015707Y011599D01*
X015780Y011481D02*
X007630Y011481D01*
X007505Y011362D02*
X015905Y011362D01*
X015838Y011244D02*
X007572Y011244D01*
X007679Y011125D02*
X015731Y011125D01*
X015682Y011007D02*
X007729Y011007D01*
X007755Y010888D02*
X015655Y010888D01*
X015655Y010770D02*
X007755Y010770D01*
X007725Y010651D02*
X015685Y010651D01*
X015734Y010533D02*
X007676Y010533D01*
X007564Y010414D02*
X015846Y010414D01*
X015890Y010296D02*
X007520Y010296D01*
X007639Y010177D02*
X015771Y010177D01*
X015703Y010059D02*
X007707Y010059D01*
X007755Y009940D02*
X015655Y009940D01*
X015655Y009822D02*
X007755Y009822D01*
X007747Y009703D02*
X015664Y009703D01*
X015713Y009585D02*
X007698Y009585D01*
X007616Y009466D02*
X015794Y009466D01*
X015940Y009348D02*
X007470Y009348D01*
X007587Y009229D02*
X015823Y009229D01*
X015725Y009111D02*
X007686Y009111D01*
X007735Y008992D02*
X015676Y008992D01*
X015655Y008874D02*
X007755Y008874D01*
X007755Y008755D02*
X015655Y008755D01*
X015691Y008637D02*
X007719Y008637D01*
X007668Y008518D02*
X015742Y008518D01*
X015861Y008400D02*
X007549Y008400D01*
X007535Y008281D02*
X015695Y008281D01*
X015675Y008163D02*
X007653Y008163D01*
X007713Y008044D02*
X015675Y008044D01*
X015675Y007926D02*
X007755Y007926D01*
X007755Y007807D02*
X016165Y007807D01*
X015675Y007689D02*
X007741Y007689D01*
X007692Y007570D02*
X015675Y007570D01*
X014106Y013377D02*
X010586Y013377D01*
X010305Y013633D02*
X012855Y013633D01*
X013205Y014033D01*
X013541Y013851D02*
X013611Y013851D01*
X013735Y013732D02*
X013442Y013732D01*
X013157Y013614D02*
X013858Y013614D01*
X013982Y013495D02*
X013057Y013495D01*
M02*
