G75*
%MOIN*%
%OFA0B0*%
%FSLAX24Y24*%
%IPPOS*%
%LPD*%
%AMOC8*
5,1,8,0,0,1.08239X$1,22.5*
%
%ADD10R,0.0395X0.0395*%
%ADD11R,0.0474X0.0513*%
%ADD12R,0.0820X0.0820*%
%ADD13C,0.0820*%
%ADD14R,0.0552X0.0395*%
%ADD15R,0.0395X0.0552*%
%ADD16C,0.0296*%
D10*
X004160Y007805D03*
X004160Y008395D03*
X006160Y008395D03*
X006160Y007805D03*
D11*
X006660Y007615D03*
X006660Y008285D03*
X003660Y008285D03*
X003660Y007615D03*
D12*
X000660Y019700D03*
X009660Y000700D03*
D13*
X000660Y000700D03*
X000660Y001700D03*
X000660Y002700D03*
X000660Y003700D03*
X000660Y004700D03*
X000660Y005700D03*
X000660Y006700D03*
X000660Y007700D03*
X000660Y008700D03*
X000660Y009700D03*
X000660Y010700D03*
X000660Y011700D03*
X000660Y012700D03*
X000660Y013700D03*
X000660Y014700D03*
X000660Y015700D03*
X000660Y016700D03*
X000660Y017700D03*
X000660Y018700D03*
X009660Y018700D03*
X009660Y017700D03*
X009660Y016700D03*
X009660Y015700D03*
X009660Y014700D03*
X009660Y013700D03*
X009660Y012700D03*
X009660Y011700D03*
X009660Y010700D03*
X009660Y009700D03*
X009660Y008700D03*
X009660Y007700D03*
X009660Y006700D03*
X009660Y005700D03*
X009660Y004700D03*
X009660Y003700D03*
X009660Y002700D03*
X009660Y001700D03*
X009660Y019700D03*
D14*
X007758Y019852D03*
X007758Y019380D03*
X007758Y018907D03*
X007758Y018435D03*
X007758Y017962D03*
X007758Y017490D03*
X007758Y017017D03*
X007758Y016545D03*
X007758Y016072D03*
X007758Y015600D03*
X007758Y015128D03*
X007758Y014655D03*
X007758Y014183D03*
X007758Y013710D03*
X007758Y013238D03*
X007758Y012765D03*
X007758Y012293D03*
X002562Y012293D03*
X002562Y012765D03*
X002562Y013238D03*
X002562Y013710D03*
X002562Y014183D03*
X002562Y014655D03*
X002562Y015128D03*
X002562Y015600D03*
X002562Y016072D03*
X002562Y016545D03*
X002562Y017017D03*
X002562Y017490D03*
X002562Y017962D03*
X002562Y018435D03*
X002562Y018907D03*
X002562Y019380D03*
X002562Y019852D03*
D15*
X002837Y011584D03*
X003506Y011584D03*
X003979Y011584D03*
X004451Y011584D03*
X004924Y011584D03*
X005396Y011584D03*
X005869Y011584D03*
X006341Y011584D03*
X006814Y011584D03*
X007483Y011588D03*
D16*
X006587Y019527D02*
X006587Y019783D01*
X006587Y019527D02*
X006489Y019527D01*
X006489Y019783D01*
X006587Y019783D01*
X006036Y019783D02*
X006036Y019527D01*
X005938Y019527D01*
X005938Y019783D01*
X006036Y019783D01*
X005485Y019783D02*
X005485Y019527D01*
X005387Y019527D01*
X005387Y019783D01*
X005485Y019783D01*
X004933Y019783D02*
X004933Y019527D01*
X004835Y019527D01*
X004835Y019783D01*
X004933Y019783D01*
X004382Y019783D02*
X004382Y019527D01*
X004284Y019527D01*
X004284Y019783D01*
X004382Y019783D01*
X003831Y019783D02*
X003831Y019527D01*
X003733Y019527D01*
X003733Y019783D01*
X003831Y019783D01*
M02*
