G75*
%MOIN*%
%OFA0B0*%
%FSLAX24Y24*%
%IPPOS*%
%LPD*%
%AMOC8*
5,1,8,0,0,1.08239X$1,22.5*
%
%ADD10C,0.0100*%
%ADD11C,0.0050*%
%ADD12C,0.0080*%
%ADD13R,0.0300X0.0180*%
%ADD14C,0.0020*%
D10*
X009561Y008171D02*
X009836Y008171D01*
X009928Y008263D01*
X009928Y008354D01*
X009836Y008446D01*
X009561Y008446D01*
X009561Y008171D02*
X009561Y008721D01*
X009836Y008721D01*
X009928Y008630D01*
X009928Y008538D01*
X009836Y008446D01*
X010160Y008354D02*
X010435Y008354D01*
X010527Y008446D01*
X010527Y008630D01*
X010435Y008721D01*
X010160Y008721D01*
X010160Y008171D01*
X010343Y008354D02*
X010527Y008171D01*
X010758Y008171D02*
X011125Y008171D01*
X011357Y008171D02*
X011357Y008538D01*
X011540Y008721D01*
X011724Y008538D01*
X011724Y008171D01*
X011955Y008171D02*
X011955Y008721D01*
X012047Y008446D02*
X012322Y008171D01*
X012554Y008263D02*
X012554Y008630D01*
X012645Y008721D01*
X012829Y008721D01*
X012921Y008630D01*
X012921Y008263D01*
X012829Y008171D01*
X012645Y008171D01*
X012554Y008263D01*
X012322Y008721D02*
X011955Y008354D01*
X011724Y008446D02*
X011357Y008446D01*
X011125Y008721D02*
X010758Y008721D01*
X010758Y008171D01*
X010758Y008446D02*
X010942Y008446D01*
X011257Y009146D02*
X011257Y009696D01*
X011532Y009696D01*
X011624Y009605D01*
X011624Y009421D01*
X011532Y009329D01*
X011257Y009329D01*
X011440Y009329D02*
X011624Y009146D01*
X011855Y009146D02*
X011855Y009696D01*
X012222Y009146D01*
X012222Y009696D01*
X012454Y009421D02*
X012821Y009421D01*
X013052Y009421D02*
X013052Y009696D01*
X013419Y009696D01*
X013328Y009513D02*
X013419Y009421D01*
X013419Y009238D01*
X013328Y009146D01*
X013144Y009146D01*
X013052Y009238D01*
X013052Y009421D02*
X013236Y009513D01*
X013328Y009513D01*
X013651Y009605D02*
X013743Y009696D01*
X013926Y009696D01*
X014018Y009605D01*
X014018Y009513D01*
X013651Y009146D01*
X014018Y009146D01*
X013934Y008721D02*
X013934Y008171D01*
X013519Y008263D02*
X013519Y008721D01*
X013751Y008721D02*
X014118Y008721D01*
X013519Y008263D02*
X013427Y008171D01*
X013244Y008171D01*
X013152Y008263D01*
X013152Y008721D01*
X010443Y009146D02*
X010259Y009146D01*
X010351Y009146D02*
X010351Y009513D01*
X010259Y009513D01*
X010351Y009696D02*
X010351Y009788D01*
X010028Y009513D02*
X010028Y009146D01*
X010028Y009421D02*
X009661Y009421D01*
X009661Y009513D02*
X009844Y009696D01*
X010028Y009513D01*
X009661Y009513D02*
X009661Y009146D01*
D11*
X011430Y007809D02*
X011530Y007608D01*
X011630Y007809D01*
X011752Y007809D02*
X011852Y007909D01*
X011852Y007608D01*
X011752Y007608D02*
X011953Y007608D01*
X012075Y007608D02*
X012125Y007608D01*
X012125Y007658D01*
X012075Y007658D01*
X012075Y007608D01*
X012236Y007608D02*
X012436Y007608D01*
X012336Y007608D02*
X012336Y007909D01*
X012236Y007809D01*
D12*
X007705Y007333D02*
X006705Y007333D01*
X006705Y027333D01*
X007705Y027333D01*
X007705Y007333D01*
X007895Y007543D02*
X007965Y007473D01*
X008105Y007473D01*
X008175Y007543D01*
X008175Y007613D01*
X008105Y007684D01*
X008035Y007684D01*
X008105Y007684D02*
X008175Y007754D01*
X008175Y007824D01*
X008105Y007894D01*
X007965Y007894D01*
X007895Y007824D01*
X008356Y007894D02*
X008356Y007613D01*
X008496Y007473D01*
X008636Y007613D01*
X008636Y007894D01*
X008816Y007824D02*
X008886Y007894D01*
X009026Y007894D01*
X009096Y007824D01*
X009096Y007754D01*
X009026Y007684D01*
X009096Y007613D01*
X009096Y007543D01*
X009026Y007473D01*
X008886Y007473D01*
X008816Y007543D01*
X008956Y007684D02*
X009026Y007684D01*
X010445Y012783D02*
X010865Y012783D01*
X010865Y013064D01*
X010865Y013244D02*
X010865Y013524D01*
X010865Y013704D02*
X010865Y013914D01*
X010795Y013984D01*
X010515Y013984D01*
X010445Y013914D01*
X010445Y013704D01*
X010865Y013704D01*
X010655Y013384D02*
X010655Y013244D01*
X010445Y013244D02*
X010865Y013244D01*
X010445Y013244D02*
X010445Y013524D01*
X010515Y014165D02*
X010445Y014235D01*
X010445Y014375D01*
X010515Y014445D01*
X010795Y014165D01*
X010865Y014235D01*
X010865Y014375D01*
X010795Y014445D01*
X010515Y014445D01*
X010515Y014165D02*
X010795Y014165D01*
X010797Y015178D02*
X010705Y015300D01*
X010524Y015300D01*
X010619Y015178D02*
X010695Y015294D01*
X010705Y015300D02*
X010886Y015300D01*
X010395Y015743D02*
X009975Y015743D01*
X009975Y015953D01*
X010045Y016023D01*
X010185Y016023D01*
X010255Y015953D01*
X010255Y015743D01*
X010255Y015883D02*
X010395Y016023D01*
X010395Y016203D02*
X010395Y016483D01*
X010395Y016343D02*
X009975Y016343D01*
X010115Y016203D01*
X010795Y017723D02*
X010795Y018144D01*
X011005Y018144D01*
X011075Y018074D01*
X011075Y017934D01*
X011005Y017863D01*
X010795Y017863D01*
X010935Y017863D02*
X011075Y017723D01*
X011256Y017723D02*
X011256Y018144D01*
X011536Y017723D01*
X011536Y018144D01*
X011716Y017934D02*
X011996Y017934D01*
X012176Y017934D02*
X012316Y018004D01*
X012386Y018004D01*
X012457Y017934D01*
X012457Y017793D01*
X012386Y017723D01*
X012246Y017723D01*
X012176Y017793D01*
X012176Y017934D02*
X012176Y018144D01*
X012457Y018144D01*
X012637Y018074D02*
X012707Y018144D01*
X012847Y018144D01*
X012917Y018074D01*
X012917Y018004D01*
X012637Y017723D01*
X012917Y017723D01*
X013075Y016453D02*
X013005Y016383D01*
X013005Y016243D01*
X013075Y016173D01*
X013075Y015993D02*
X013215Y015993D01*
X013285Y015923D01*
X013285Y015713D01*
X013285Y015853D02*
X013425Y015993D01*
X013425Y016173D02*
X013145Y016453D01*
X013075Y016453D01*
X013425Y016453D02*
X013425Y016173D01*
X013075Y015993D02*
X013005Y015923D01*
X013005Y015713D01*
X013425Y015713D01*
X012886Y015300D02*
X012705Y015300D01*
X012797Y015178D01*
X012705Y015300D02*
X012524Y015300D01*
X012619Y015178D02*
X012695Y015294D01*
X012885Y014465D02*
X012885Y014185D01*
X012885Y014325D02*
X012465Y014325D01*
X012605Y014185D01*
X012535Y014004D02*
X012465Y013934D01*
X012465Y013724D01*
X012885Y013724D01*
X012885Y013934D01*
X012815Y014004D01*
X012535Y014004D01*
X012465Y013544D02*
X012465Y013264D01*
X012885Y013264D01*
X012885Y013544D01*
X012675Y013404D02*
X012675Y013264D01*
X012885Y013084D02*
X012885Y012803D01*
X012465Y012803D01*
X014415Y007894D02*
X014345Y007824D01*
X014345Y007543D01*
X014415Y007473D01*
X014555Y007473D01*
X014625Y007543D01*
X014625Y007684D01*
X014485Y007684D01*
X014625Y007824D02*
X014555Y007894D01*
X014415Y007894D01*
X014806Y007894D02*
X015086Y007473D01*
X015086Y007894D01*
X015266Y007894D02*
X015476Y007894D01*
X015546Y007824D01*
X015546Y007543D01*
X015476Y007473D01*
X015266Y007473D01*
X015266Y007894D01*
X014806Y007894D02*
X014806Y007473D01*
X015705Y007333D02*
X016705Y007333D01*
X016705Y027333D01*
X015705Y027333D01*
X015705Y007333D01*
D13*
X013205Y015083D03*
X010205Y015083D03*
D14*
X011415Y012187D02*
X011408Y012184D01*
X011401Y012181D01*
X011396Y012178D01*
X011395Y012175D01*
X011394Y012173D01*
X011393Y012170D01*
X011392Y012167D01*
X011392Y012165D01*
X011392Y012162D01*
X011391Y012159D01*
X011391Y012157D01*
X011391Y012154D01*
X011392Y012151D01*
X011392Y012149D01*
X011392Y012146D01*
X011392Y012144D01*
X011393Y012141D01*
X011393Y012139D01*
X011393Y012137D01*
X011394Y012134D01*
X011394Y012132D01*
X011394Y012130D01*
X011394Y012128D01*
X011394Y012126D01*
X011394Y012124D01*
X011393Y012123D01*
X011393Y012121D01*
X011392Y012120D01*
X011391Y012119D01*
X011389Y012117D01*
X011387Y012116D01*
X011385Y012114D01*
X011381Y012113D01*
X011378Y012111D01*
X011374Y012109D01*
X011370Y012107D01*
X011365Y012105D01*
X011361Y012103D01*
X011356Y012101D01*
X011346Y012097D01*
X011341Y012094D01*
X011336Y012092D01*
X011332Y012090D01*
X011327Y012087D01*
X011322Y012085D01*
X011318Y012083D01*
X011314Y012080D01*
X011310Y012078D01*
X011307Y012076D01*
X011304Y012073D01*
X011302Y012071D01*
X011300Y012068D01*
X011298Y012064D01*
X011297Y012059D01*
X011296Y012054D01*
X011295Y012047D01*
X011295Y012039D01*
X011294Y012032D01*
X011294Y012024D01*
X011295Y012015D01*
X011295Y012006D01*
X011295Y011997D01*
X011296Y011988D01*
X011297Y011979D01*
X011298Y011970D01*
X011299Y011961D01*
X011300Y011953D01*
X011301Y011945D01*
X011302Y011937D01*
X011303Y011930D01*
X011303Y011924D01*
X011304Y011919D01*
X011305Y011914D01*
X011306Y011911D01*
X011306Y011909D01*
X011306Y011907D01*
X011306Y011906D01*
X011304Y011903D01*
X011302Y011902D01*
X011300Y011901D01*
X011298Y011900D01*
X011296Y011899D01*
X011293Y011897D01*
X011291Y011896D01*
X011288Y011894D01*
X011285Y011892D01*
X011282Y011890D01*
X011280Y011888D01*
X011277Y011885D01*
X011275Y011882D01*
X011272Y011879D01*
X011271Y011874D01*
X011269Y011870D01*
X011267Y011865D01*
X011266Y011859D01*
X011266Y011853D01*
X011265Y011846D01*
X011266Y011838D01*
X011267Y011830D01*
X011268Y011823D01*
X011270Y011817D01*
X011272Y011811D01*
X011275Y011806D01*
X011278Y011802D01*
X011281Y011799D01*
X011285Y011796D01*
X011288Y011793D01*
X011292Y011791D01*
X011296Y011789D01*
X011300Y011788D01*
X011304Y011787D01*
X011308Y011786D01*
X011312Y011785D01*
X011316Y011784D01*
X011319Y011784D01*
X011326Y011782D01*
X011329Y011781D01*
X011331Y011780D01*
X011334Y011779D01*
X011335Y011777D01*
X011336Y011775D01*
X011337Y011773D01*
X011338Y011769D01*
X011339Y011765D01*
X011340Y011760D01*
X011341Y011754D01*
X011342Y011748D01*
X011342Y011742D01*
X011343Y011735D01*
X011344Y011727D01*
X011346Y011720D01*
X011347Y011712D01*
X011348Y011704D01*
X011350Y011696D01*
X011351Y011688D01*
X011353Y011680D01*
X011355Y011673D01*
X011358Y011665D01*
X011361Y011658D01*
X011363Y011651D01*
X011367Y011645D01*
X011370Y011640D01*
X011374Y011635D01*
X011378Y011630D01*
X011383Y011627D01*
X011386Y011625D01*
X011390Y011624D01*
X011396Y011623D01*
X011401Y011623D01*
X011407Y011623D01*
X011422Y011623D01*
X011430Y011624D01*
X011439Y011625D01*
X011448Y011625D01*
X011458Y011627D01*
X011469Y011628D01*
X011479Y011630D01*
X011491Y011632D01*
X011503Y011634D01*
X011515Y011636D01*
X011528Y011638D01*
X011541Y011640D01*
X011554Y011642D01*
X011568Y011644D01*
X011582Y011646D01*
X011596Y011649D01*
X011611Y011651D01*
X011626Y011653D01*
X011642Y011655D01*
X011658Y011658D01*
X011673Y011660D01*
X011688Y011662D01*
X011703Y011665D01*
X011717Y011667D01*
X011732Y011670D01*
X011746Y011672D01*
X011759Y011675D01*
X011772Y011677D01*
X011784Y011680D01*
X011796Y011682D01*
X011808Y011685D01*
X011819Y011687D01*
X011828Y011690D01*
X011838Y011693D01*
X011847Y011695D01*
X011855Y011697D01*
X011862Y011700D01*
X011869Y011702D01*
X011874Y011705D01*
X011880Y011707D01*
X011883Y011709D01*
X011886Y011711D01*
X011888Y011713D01*
X011890Y011716D01*
X011892Y011718D01*
X011894Y011721D01*
X011895Y011723D01*
X011896Y011727D01*
X011898Y011730D01*
X011899Y011733D01*
X011899Y011736D01*
X011900Y011740D01*
X011901Y011744D01*
X011901Y011748D01*
X011901Y011752D01*
X011901Y011756D01*
X011901Y011760D01*
X011901Y011764D01*
X011901Y011768D01*
X011901Y011777D01*
X011900Y011782D01*
X011900Y011787D01*
X011899Y011791D01*
X011898Y011796D01*
X011898Y011801D01*
X011897Y011806D01*
X011896Y011812D01*
X011895Y011817D01*
X011894Y011823D01*
X011892Y011828D01*
X011891Y011833D01*
X011890Y011838D01*
X011888Y011843D01*
X011887Y011848D01*
X011886Y011853D01*
X011884Y011858D01*
X011883Y011862D01*
X011881Y011866D01*
X011880Y011870D01*
X011878Y011878D01*
X011877Y011881D01*
X011876Y011884D01*
X011875Y011887D01*
X011874Y011889D01*
X011874Y011891D01*
X011874Y011893D01*
X011874Y011894D01*
X011874Y011895D01*
X011874Y011897D01*
X011875Y011898D01*
X011876Y011900D01*
X011878Y011901D01*
X011879Y011903D01*
X011881Y011904D01*
X011883Y011905D01*
X011885Y011907D01*
X011888Y011909D01*
X011890Y011910D01*
X011892Y011913D01*
X011894Y011915D01*
X011896Y011917D01*
X011899Y011920D01*
X011900Y011924D01*
X011902Y011927D01*
X011904Y011931D01*
X011905Y011936D01*
X011907Y011940D01*
X011907Y011946D01*
X011908Y011952D01*
X011908Y011958D01*
X011908Y011965D01*
X011907Y011973D01*
X011906Y011977D01*
X011906Y011981D01*
X011905Y011985D01*
X011904Y011988D01*
X011904Y011991D01*
X011903Y011994D01*
X011902Y011997D01*
X011901Y012000D01*
X011900Y012003D01*
X011900Y012005D01*
X011899Y012008D01*
X011898Y012010D01*
X011897Y012012D01*
X011895Y012014D01*
X011893Y012017D01*
X011892Y012019D01*
X011889Y012022D01*
X011888Y012023D01*
X011887Y012024D01*
X011885Y012025D01*
X011884Y012026D01*
X011882Y012027D01*
X011881Y012028D01*
X011879Y012029D01*
X011877Y012030D01*
X011875Y012030D01*
X011873Y012031D01*
X011871Y012031D01*
X011869Y012031D01*
X011867Y012032D01*
X011865Y012032D01*
X011863Y012032D01*
X011861Y012032D01*
X011859Y012032D01*
X011857Y012032D01*
X011856Y012032D01*
X011854Y012032D01*
X011852Y012032D01*
X011851Y012032D01*
X011849Y012032D01*
X011848Y012033D01*
X011846Y012033D01*
X011845Y012033D01*
X011844Y012034D01*
X011843Y012034D02*
X011843Y012035D01*
X011842Y012036D01*
X011841Y012039D01*
X011839Y012043D01*
X011838Y012048D01*
X011837Y012053D01*
X011836Y012060D01*
X011835Y012067D01*
X011834Y012074D01*
X011832Y012082D01*
X011831Y012090D01*
X011830Y012098D01*
X011828Y012107D01*
X011827Y012115D01*
X011825Y012123D01*
X011835Y012013D01*
X011885Y012013D01*
X011905Y011953D01*
X011855Y011903D01*
X011705Y011903D01*
X011765Y011923D01*
X011795Y011993D01*
X011745Y012083D01*
X011825Y012123D01*
X011823Y012131D01*
X011821Y012139D01*
X011820Y012147D01*
X011818Y012154D01*
X011816Y012161D01*
X011813Y012167D01*
X011811Y012171D01*
X011808Y012176D01*
X011806Y012180D01*
X011803Y012181D01*
X011800Y012183D01*
X011796Y012184D01*
X011791Y012185D01*
X011787Y012186D01*
X011781Y012186D01*
X011775Y012186D01*
X011769Y012186D01*
X011762Y012185D01*
X011756Y012185D01*
X011749Y012184D01*
X011742Y012183D01*
X011735Y012182D01*
X011728Y012181D01*
X011722Y012180D01*
X011716Y012179D01*
X011709Y012179D01*
X011703Y012178D01*
X011693Y012176D01*
X011689Y012176D01*
X011686Y012176D01*
X011683Y012176D01*
X011680Y012176D01*
X011679Y012177D01*
X011678Y012179D01*
X011677Y012180D01*
X011676Y012182D01*
X011676Y012183D01*
X011675Y012186D01*
X011674Y012188D01*
X011674Y012190D01*
X011673Y012193D01*
X011672Y012195D01*
X011671Y012198D01*
X011670Y012201D01*
X011669Y012204D01*
X011668Y012206D01*
X011667Y012209D01*
X011666Y012212D01*
X011664Y012215D01*
X011663Y012217D01*
X011661Y012220D01*
X011659Y012223D01*
X011657Y012225D01*
X011655Y012227D01*
X011653Y012229D01*
X011650Y012231D01*
X011648Y012233D01*
X011642Y012233D01*
X011634Y012233D01*
X011626Y012233D01*
X011615Y012232D01*
X011603Y012231D01*
X011591Y012229D01*
X011578Y012227D01*
X011563Y012225D01*
X011549Y012222D01*
X011534Y012219D01*
X011519Y012216D01*
X011504Y012213D01*
X011489Y012209D01*
X011475Y012205D01*
X011461Y012202D01*
X011447Y012198D01*
X011436Y012194D01*
X011425Y012191D01*
X011415Y012187D01*
X011439Y012180D02*
X011674Y012180D01*
X011679Y012177D02*
X011679Y012177D01*
X011685Y012163D02*
X011795Y012173D01*
X011815Y012133D01*
X011775Y012073D01*
X011655Y012063D01*
X011495Y012063D01*
X011385Y012003D01*
X011375Y011943D01*
X011385Y011853D01*
X011465Y011813D01*
X011575Y011863D01*
X011585Y011883D01*
X011585Y011993D01*
X011485Y012053D01*
X011585Y012083D01*
X011645Y012073D01*
X011625Y011993D01*
X011645Y011933D01*
X011695Y011903D01*
X011585Y011903D01*
X011579Y011906D02*
X011577Y011900D01*
X011575Y011894D01*
X011572Y011888D01*
X011569Y011882D01*
X011565Y011876D01*
X011562Y011871D01*
X011558Y011866D01*
X011553Y011861D01*
X011548Y011857D01*
X011543Y011853D01*
X011538Y011849D01*
X011532Y011845D01*
X011527Y011842D01*
X011521Y011840D01*
X011515Y011837D01*
X011508Y011835D01*
X011502Y011834D01*
X011495Y011832D01*
X011488Y011832D01*
X011474Y011832D01*
X011467Y011832D01*
X011461Y011834D01*
X011454Y011835D01*
X011447Y011837D01*
X011441Y011840D01*
X011435Y011842D01*
X011430Y011845D01*
X011424Y011849D01*
X011419Y011853D01*
X011414Y011857D01*
X011409Y011861D01*
X011404Y011866D01*
X011400Y011871D01*
X011397Y011876D01*
X011393Y011882D01*
X011390Y011888D01*
X011387Y011894D01*
X011385Y011900D01*
X011383Y011906D01*
X011380Y011919D01*
X011379Y011926D01*
X011379Y011940D01*
X011380Y011947D01*
X011381Y011953D01*
X011383Y011960D01*
X011385Y011966D01*
X011387Y011972D01*
X011390Y011978D01*
X011393Y011984D01*
X011397Y011989D01*
X011400Y011995D01*
X011404Y012000D01*
X011409Y012004D01*
X011414Y012009D01*
X011419Y012013D01*
X011424Y012017D01*
X011430Y012020D01*
X011435Y012024D01*
X011441Y012026D01*
X011447Y012029D01*
X011454Y012031D01*
X011461Y012032D01*
X011467Y012033D01*
X011474Y012034D01*
X011488Y012034D01*
X011495Y012033D01*
X011502Y012032D01*
X011508Y012031D01*
X011515Y012029D01*
X011521Y012026D01*
X011527Y012024D01*
X011532Y012020D01*
X011538Y012017D01*
X011543Y012013D01*
X011548Y012009D01*
X011553Y012004D01*
X011558Y012000D01*
X011562Y011995D01*
X011565Y011989D01*
X011569Y011984D01*
X011572Y011978D01*
X011575Y011972D01*
X011577Y011966D01*
X011579Y011960D01*
X011581Y011953D01*
X011582Y011947D01*
X011583Y011940D01*
X011583Y011926D01*
X011582Y011919D01*
X011581Y011913D01*
X011579Y011906D01*
X011585Y011921D02*
X011665Y011921D01*
X011670Y011927D02*
X011666Y011929D01*
X011662Y011932D01*
X011658Y011935D01*
X011655Y011938D01*
X011652Y011942D01*
X011649Y011945D01*
X011646Y011949D01*
X011643Y011953D01*
X011641Y011957D01*
X011639Y011962D01*
X011637Y011966D01*
X011636Y011971D01*
X011635Y011975D01*
X011634Y011980D01*
X011633Y011985D01*
X011633Y011995D01*
X011634Y012000D01*
X011635Y012005D01*
X011636Y012010D01*
X011637Y012014D01*
X011639Y012018D01*
X011641Y012023D01*
X011643Y012027D01*
X011646Y012031D01*
X011649Y012035D01*
X011652Y012038D01*
X011655Y012042D01*
X011658Y012045D01*
X011662Y012048D01*
X011666Y012051D01*
X011670Y012053D01*
X011674Y012056D01*
X011678Y012057D01*
X011683Y012059D01*
X011687Y012061D01*
X011692Y012062D01*
X011697Y012063D01*
X011702Y012063D01*
X011712Y012063D01*
X011717Y012063D01*
X011722Y012062D01*
X011727Y012061D01*
X011731Y012059D01*
X011736Y012057D01*
X011740Y012056D01*
X011744Y012053D01*
X011748Y012051D01*
X011752Y012048D01*
X011756Y012045D01*
X011759Y012042D01*
X011762Y012038D01*
X011765Y012035D01*
X011768Y012031D01*
X011771Y012027D01*
X011773Y012023D01*
X011777Y012014D01*
X011778Y012010D01*
X011779Y012005D01*
X011780Y012000D01*
X011780Y011995D01*
X011780Y011985D01*
X011780Y011980D01*
X011779Y011975D01*
X011778Y011971D01*
X011777Y011966D01*
X011773Y011957D01*
X011771Y011953D01*
X011768Y011949D01*
X011765Y011945D01*
X011762Y011942D01*
X011759Y011938D01*
X011756Y011935D01*
X011752Y011932D01*
X011748Y011929D01*
X011744Y011927D01*
X011740Y011925D01*
X011736Y011923D01*
X011731Y011921D01*
X011727Y011919D01*
X011722Y011918D01*
X011717Y011917D01*
X011712Y011917D01*
X011702Y011917D01*
X011697Y011917D01*
X011692Y011918D01*
X011687Y011919D01*
X011683Y011921D01*
X011678Y011923D01*
X011674Y011925D01*
X011670Y011927D01*
X011643Y011940D02*
X011585Y011940D01*
X011585Y011958D02*
X011637Y011958D01*
X011631Y011977D02*
X011585Y011977D01*
X011582Y011995D02*
X011626Y011995D01*
X011630Y012014D02*
X011551Y012014D01*
X011520Y012032D02*
X011635Y012032D01*
X011640Y012051D02*
X011489Y012051D01*
X011472Y012051D02*
X011305Y012051D01*
X011305Y012053D02*
X011385Y012103D01*
X011415Y012123D01*
X011405Y012163D01*
X011465Y012193D01*
X011535Y012203D01*
X011645Y012223D01*
X011685Y012163D01*
X011661Y012199D02*
X011504Y012199D01*
X011405Y012162D02*
X011801Y012162D01*
X011810Y012143D02*
X011410Y012143D01*
X011415Y012125D02*
X011810Y012125D01*
X011797Y012106D02*
X011827Y012106D01*
X011828Y012088D02*
X011785Y012088D01*
X011791Y012106D02*
X011390Y012106D01*
X011360Y012088D02*
X011754Y012088D01*
X011753Y012069D02*
X011830Y012069D01*
X011832Y012051D02*
X011763Y012051D01*
X011773Y012032D02*
X011833Y012032D01*
X011843Y012034D02*
X011844Y012034D01*
X011835Y012014D02*
X011784Y012014D01*
X011794Y011995D02*
X011891Y011995D01*
X011897Y011977D02*
X011788Y011977D01*
X011780Y011958D02*
X011903Y011958D01*
X011892Y011940D02*
X011772Y011940D01*
X011759Y011921D02*
X011873Y011921D01*
X011855Y011903D02*
X011895Y011783D01*
X011895Y011733D01*
X011775Y011683D01*
X011395Y011633D01*
X011355Y011703D01*
X011345Y011783D01*
X011285Y011813D01*
X011275Y011853D01*
X011305Y011893D01*
X011315Y011903D01*
X011380Y011903D01*
X011378Y011921D02*
X011314Y011921D01*
X011315Y011903D02*
X011305Y012053D01*
X011307Y012032D02*
X011438Y012032D01*
X011404Y012014D02*
X011308Y012014D01*
X011309Y011995D02*
X011384Y011995D01*
X011381Y011977D02*
X011310Y011977D01*
X011311Y011958D02*
X011378Y011958D01*
X011376Y011940D02*
X011313Y011940D01*
X011298Y011884D02*
X011382Y011884D01*
X011384Y011866D02*
X011285Y011866D01*
X011277Y011847D02*
X011397Y011847D01*
X011434Y011829D02*
X011281Y011829D01*
X011291Y011810D02*
X011656Y011810D01*
X011655Y011813D02*
X011665Y011823D01*
X011685Y011743D01*
X011775Y011763D01*
X011755Y011843D01*
X011725Y011833D01*
X011705Y011903D01*
X011695Y011903D02*
X011715Y011823D01*
X011675Y011813D01*
X011585Y011793D01*
X011605Y011723D01*
X011585Y011723D01*
X011565Y011793D01*
X011495Y011773D01*
X011505Y011713D01*
X011515Y011713D01*
X011665Y011743D01*
X011655Y011813D01*
X011662Y011810D02*
X011668Y011810D01*
X011683Y011813D02*
X011691Y011815D01*
X011699Y011816D01*
X011707Y011818D01*
X011715Y011820D01*
X011723Y011821D01*
X011739Y011824D01*
X011747Y011826D01*
X011748Y011818D01*
X011750Y011802D01*
X011751Y011794D01*
X011752Y011787D01*
X011754Y011779D01*
X011755Y011771D01*
X011756Y011763D01*
X011748Y011761D01*
X011740Y011760D01*
X011732Y011759D01*
X011724Y011757D01*
X011716Y011756D01*
X011708Y011754D01*
X011701Y011753D01*
X011693Y011751D01*
X011689Y011774D01*
X011688Y011782D01*
X011687Y011790D01*
X011683Y011813D01*
X011673Y011792D02*
X011658Y011792D01*
X011656Y011794D02*
X011658Y011779D01*
X011659Y011772D01*
X011660Y011765D01*
X011662Y011750D01*
X011663Y011743D01*
X011655Y011742D01*
X011639Y011739D01*
X011632Y011738D01*
X011624Y011737D01*
X011609Y011734D01*
X011601Y011733D01*
X011600Y011740D01*
X011598Y011747D01*
X011597Y011754D01*
X011596Y011761D01*
X011595Y011768D01*
X011593Y011775D01*
X011592Y011782D01*
X011591Y011789D01*
X011599Y011790D01*
X011607Y011792D01*
X011615Y011793D01*
X011623Y011795D01*
X011631Y011797D01*
X011639Y011798D01*
X011647Y011800D01*
X011655Y011801D01*
X011656Y011794D01*
X011661Y011773D02*
X011678Y011773D01*
X011682Y011755D02*
X011663Y011755D01*
X011630Y011736D02*
X011895Y011736D01*
X011895Y011755D02*
X011737Y011755D01*
X011773Y011773D02*
X011895Y011773D01*
X011892Y011792D02*
X011768Y011792D01*
X011763Y011810D02*
X011886Y011810D01*
X011880Y011829D02*
X011759Y011829D01*
X011721Y011847D02*
X011874Y011847D01*
X011868Y011866D02*
X011716Y011866D01*
X011704Y011866D02*
X011576Y011866D01*
X011585Y011884D02*
X011700Y011884D01*
X011711Y011884D02*
X011861Y011884D01*
X011709Y011847D02*
X011540Y011847D01*
X011499Y011829D02*
X011714Y011829D01*
X011586Y011792D02*
X011566Y011792D01*
X011560Y011792D02*
X011328Y011792D01*
X011346Y011773D02*
X011495Y011773D01*
X011503Y011772D02*
X011510Y011773D01*
X011518Y011775D01*
X011526Y011776D01*
X011542Y011779D01*
X011549Y011780D01*
X011557Y011782D01*
X011565Y011783D01*
X011566Y011776D01*
X011567Y011769D01*
X011569Y011762D01*
X011570Y011755D01*
X011571Y011748D01*
X011572Y011741D01*
X011574Y011733D01*
X011575Y011726D01*
X011567Y011725D01*
X011559Y011724D01*
X011551Y011722D01*
X011544Y011721D01*
X011536Y011720D01*
X011520Y011717D01*
X011512Y011715D01*
X011511Y011723D01*
X011510Y011730D01*
X011509Y011737D01*
X011507Y011744D01*
X011506Y011751D01*
X011505Y011758D01*
X011504Y011765D01*
X011503Y011772D01*
X011498Y011755D02*
X011349Y011755D01*
X011351Y011736D02*
X011501Y011736D01*
X011504Y011718D02*
X011353Y011718D01*
X011357Y011699D02*
X011814Y011699D01*
X011858Y011718D02*
X011538Y011718D01*
X011581Y011736D02*
X011601Y011736D01*
X011596Y011755D02*
X011576Y011755D01*
X011571Y011773D02*
X011591Y011773D01*
X011616Y011662D02*
X011379Y011662D01*
X011389Y011644D02*
X011475Y011644D01*
X011483Y011610D02*
X011477Y011609D01*
X011473Y011607D01*
X011469Y011606D01*
X011464Y011604D01*
X011461Y011603D01*
X011458Y011601D01*
X011456Y011599D01*
X011454Y011597D01*
X011453Y011595D01*
X011452Y011593D01*
X011450Y011590D01*
X011449Y011587D01*
X011448Y011584D01*
X011447Y011581D01*
X011446Y011577D01*
X011445Y011574D01*
X011445Y011570D01*
X011444Y011566D01*
X011443Y011562D01*
X011443Y011558D01*
X011442Y011549D01*
X011441Y011544D01*
X011441Y011540D01*
X011441Y011535D01*
X011441Y011530D01*
X011441Y011525D01*
X011441Y011520D01*
X011441Y011515D01*
X011441Y011510D01*
X011441Y011504D01*
X011441Y011499D01*
X011441Y011494D01*
X011442Y011488D01*
X011442Y011482D01*
X011443Y011476D01*
X011443Y011471D01*
X011444Y011465D01*
X011445Y011459D01*
X011446Y011454D01*
X011447Y011448D01*
X011448Y011443D01*
X011449Y011438D01*
X011450Y011433D01*
X011452Y011428D01*
X011453Y011424D01*
X011454Y011419D01*
X011456Y011415D01*
X011458Y011411D01*
X011459Y011408D01*
X011461Y011404D01*
X011463Y011401D01*
X011465Y011398D01*
X011469Y011394D01*
X011472Y011392D01*
X011474Y011391D01*
X011475Y011391D01*
X011478Y011390D01*
X011481Y011390D01*
X011484Y011390D01*
X011488Y011389D01*
X011492Y011389D01*
X011497Y011389D01*
X011502Y011389D01*
X011508Y011389D01*
X011514Y011389D01*
X011521Y011389D01*
X011528Y011390D01*
X011535Y011390D01*
X011543Y011390D01*
X011551Y011391D01*
X011559Y011391D01*
X011567Y011392D01*
X011576Y011393D01*
X011585Y011393D01*
X011594Y011394D01*
X011603Y011395D01*
X011613Y011396D01*
X011622Y011397D01*
X011632Y011398D01*
X011641Y011399D01*
X011651Y011400D01*
X011661Y011401D01*
X011671Y011402D01*
X011681Y011403D01*
X011691Y011404D01*
X011701Y011405D01*
X011711Y011405D01*
X011721Y011406D01*
X011730Y011407D01*
X011740Y011408D01*
X011757Y011410D01*
X011766Y011411D01*
X011774Y011412D01*
X011782Y011413D01*
X011789Y011415D01*
X011796Y011416D01*
X011802Y011417D01*
X011808Y011419D01*
X011813Y011421D01*
X011818Y011423D01*
X011822Y011425D01*
X011824Y011427D01*
X011827Y011429D01*
X011829Y011432D01*
X011831Y011435D01*
X011832Y011438D01*
X011834Y011442D01*
X011835Y011446D01*
X011836Y011450D01*
X011837Y011455D01*
X011837Y011460D01*
X011838Y011465D01*
X011838Y011470D01*
X011838Y011476D01*
X011838Y011481D01*
X011838Y011487D01*
X011838Y011492D01*
X011837Y011498D01*
X011837Y011504D01*
X011836Y011510D01*
X011836Y011515D01*
X011835Y011521D01*
X011834Y011527D01*
X011833Y011532D01*
X011833Y011538D01*
X011832Y011543D01*
X011831Y011549D01*
X011830Y011555D01*
X011829Y011561D01*
X011827Y011566D01*
X011826Y011572D01*
X011825Y011577D01*
X011824Y011582D01*
X011823Y011587D01*
X011821Y011592D01*
X011820Y011597D01*
X011819Y011601D01*
X011817Y011605D01*
X011816Y011609D01*
X011814Y011613D01*
X011813Y011617D01*
X011811Y011621D01*
X011809Y011624D01*
X011807Y011627D01*
X011806Y011630D01*
X011804Y011632D01*
X011802Y011634D01*
X011800Y011636D01*
X011798Y011638D01*
X011795Y011639D01*
X011793Y011641D01*
X011789Y011642D01*
X011784Y011643D01*
X011779Y011644D01*
X011773Y011644D01*
X011767Y011644D01*
X011760Y011644D01*
X011753Y011644D01*
X011745Y011643D01*
X011737Y011643D01*
X011729Y011642D01*
X011720Y011641D01*
X011711Y011640D01*
X011702Y011639D01*
X011692Y011638D01*
X011682Y011637D01*
X011672Y011636D01*
X011662Y011634D01*
X011652Y011633D01*
X011641Y011632D01*
X011631Y011630D01*
X011620Y011629D01*
X011610Y011628D01*
X011600Y011627D01*
X011590Y011626D01*
X011581Y011625D01*
X011572Y011623D01*
X011563Y011622D01*
X011554Y011621D01*
X011546Y011620D01*
X011538Y011619D01*
X011530Y011618D01*
X011522Y011617D01*
X011515Y011616D01*
X011508Y011615D01*
X011501Y011614D01*
X011494Y011612D01*
X011488Y011611D01*
X011483Y011610D01*
X011465Y011593D02*
X011615Y011623D01*
X011625Y011573D01*
X011565Y011523D01*
X011595Y011443D01*
X011695Y011463D01*
X011715Y011543D01*
X011635Y011583D01*
X011625Y011623D01*
X011795Y011633D01*
X011825Y011563D01*
X011835Y011473D01*
X011815Y011433D01*
X011475Y011393D01*
X011445Y011503D01*
X011465Y011593D01*
X011464Y011588D02*
X011622Y011588D01*
X011634Y011588D02*
X011814Y011588D01*
X011822Y011570D02*
X011662Y011570D01*
X011660Y011564D02*
X011663Y011563D01*
X011667Y011561D01*
X011670Y011559D01*
X011673Y011557D01*
X011676Y011555D01*
X011679Y011552D01*
X011681Y011550D01*
X011683Y011547D01*
X011686Y011544D01*
X011688Y011541D01*
X011690Y011538D01*
X011691Y011534D01*
X011693Y011531D01*
X011694Y011527D01*
X011695Y011524D01*
X011696Y011520D01*
X011696Y011516D01*
X011697Y011512D01*
X011697Y011508D01*
X011696Y011504D01*
X011696Y011500D01*
X011695Y011497D01*
X011694Y011493D01*
X011693Y011490D01*
X011691Y011486D01*
X011689Y011483D01*
X011688Y011480D01*
X011686Y011477D01*
X011681Y011471D01*
X011678Y011468D01*
X011675Y011466D01*
X011673Y011464D01*
X011669Y011462D01*
X011663Y011458D01*
X011659Y011457D01*
X011656Y011456D01*
X011652Y011454D01*
X011648Y011454D01*
X011644Y011453D01*
X011640Y011453D01*
X011636Y011453D01*
X011633Y011453D01*
X011629Y011454D01*
X011625Y011455D01*
X011621Y011456D01*
X011618Y011457D01*
X011614Y011458D01*
X011611Y011460D01*
X011608Y011462D01*
X011605Y011464D01*
X011602Y011466D01*
X011599Y011469D01*
X011597Y011471D01*
X011594Y011474D01*
X011592Y011477D01*
X011590Y011480D01*
X011588Y011483D01*
X011586Y011487D01*
X011585Y011490D01*
X011584Y011494D01*
X011583Y011497D01*
X011582Y011501D01*
X011581Y011505D01*
X011581Y011509D01*
X011581Y011513D01*
X011582Y011517D01*
X011582Y011520D01*
X011583Y011524D01*
X011584Y011528D01*
X011585Y011531D01*
X011586Y011535D01*
X011588Y011538D01*
X011590Y011541D01*
X011592Y011544D01*
X011597Y011550D01*
X011599Y011552D01*
X011602Y011555D01*
X011605Y011557D01*
X011608Y011559D01*
X011612Y011561D01*
X011615Y011563D01*
X011618Y011564D01*
X011622Y011565D01*
X011626Y011566D01*
X011630Y011567D01*
X011633Y011568D01*
X011637Y011568D01*
X011641Y011568D01*
X011645Y011567D01*
X011649Y011567D01*
X011653Y011566D01*
X011656Y011565D01*
X011660Y011564D01*
X011621Y011570D02*
X011460Y011570D01*
X011456Y011551D02*
X011599Y011551D01*
X011577Y011533D02*
X011452Y011533D01*
X011448Y011514D02*
X011568Y011514D01*
X011575Y011496D02*
X011447Y011496D01*
X011452Y011477D02*
X011582Y011477D01*
X011589Y011459D02*
X011457Y011459D01*
X011462Y011440D02*
X011819Y011440D01*
X011828Y011459D02*
X011673Y011459D01*
X011699Y011477D02*
X011835Y011477D01*
X011833Y011496D02*
X011703Y011496D01*
X011708Y011514D02*
X011831Y011514D01*
X011829Y011533D02*
X011713Y011533D01*
X011699Y011551D02*
X011826Y011551D01*
X011861Y011556D02*
X011861Y011554D01*
X011862Y011552D01*
X011862Y011550D01*
X011863Y011548D01*
X011863Y011546D01*
X011863Y011544D01*
X011864Y011543D01*
X011864Y011541D01*
X011865Y011539D01*
X011866Y011538D01*
X011867Y011536D01*
X011868Y011532D01*
X011869Y011530D01*
X011870Y011528D01*
X011872Y011527D01*
X011873Y011525D01*
X011874Y011522D01*
X011876Y011520D01*
X011879Y011517D01*
X011884Y011513D01*
X011889Y011509D01*
X011895Y011504D01*
X011910Y011493D01*
X011918Y011487D01*
X011936Y011474D01*
X011945Y011468D01*
X011955Y011461D01*
X011964Y011455D01*
X011974Y011448D01*
X011982Y011442D01*
X011991Y011436D01*
X012000Y011431D01*
X012014Y011422D01*
X012021Y011418D01*
X012026Y011415D01*
X012030Y011412D01*
X012034Y011411D01*
X012035Y011411D01*
X012036Y011410D01*
X012038Y011411D01*
X012040Y011411D01*
X012042Y011412D01*
X012044Y011413D01*
X012046Y011414D01*
X012049Y011416D01*
X012051Y011417D01*
X012054Y011419D01*
X012056Y011421D01*
X012059Y011423D01*
X012064Y011428D01*
X012067Y011430D01*
X012069Y011433D01*
X012072Y011435D01*
X012075Y011438D01*
X012077Y011440D01*
X012079Y011443D01*
X012081Y011446D01*
X012083Y011448D01*
X012085Y011451D01*
X012087Y011453D01*
X012088Y011456D01*
X012090Y011458D01*
X012091Y011461D01*
X012093Y011467D01*
X012095Y011469D01*
X012096Y011472D01*
X012097Y011476D01*
X012098Y011479D01*
X012099Y011482D01*
X012100Y011485D01*
X012101Y011488D01*
X012102Y011491D01*
X012103Y011495D01*
X012103Y011498D01*
X012104Y011501D01*
X012104Y011504D01*
X012105Y011507D01*
X012105Y011510D01*
X012105Y011513D01*
X012105Y011516D01*
X012105Y011519D01*
X012105Y011522D01*
X012104Y011524D01*
X012104Y011526D01*
X012103Y011529D01*
X012102Y011531D01*
X012100Y011533D01*
X012097Y011535D01*
X012095Y011538D01*
X012092Y011539D01*
X012088Y011541D01*
X012085Y011543D01*
X012081Y011545D01*
X012077Y011547D01*
X012073Y011549D01*
X012069Y011551D01*
X012065Y011552D01*
X012061Y011554D01*
X012058Y011556D01*
X012054Y011557D01*
X012050Y011559D01*
X012044Y011562D01*
X012041Y011564D01*
X012039Y011565D01*
X012036Y011567D01*
X012035Y011568D01*
X012034Y011570D01*
X012033Y011571D01*
X012033Y011573D01*
X012032Y011574D01*
X012032Y011576D01*
X012032Y011578D01*
X012032Y011581D01*
X012032Y011582D01*
X012032Y011584D01*
X012032Y011586D01*
X012032Y011587D01*
X012032Y011589D01*
X012033Y011590D01*
X012033Y011592D01*
X012033Y011594D01*
X012033Y011595D01*
X012033Y011597D01*
X012033Y011600D01*
X012033Y011602D01*
X012032Y011604D01*
X012032Y011605D01*
X012031Y011607D01*
X012030Y011608D01*
X012029Y011610D01*
X012028Y011612D01*
X012026Y011613D01*
X012023Y011615D01*
X012021Y011617D01*
X012018Y011618D01*
X012015Y011620D01*
X012012Y011621D01*
X012009Y011622D01*
X012005Y011623D01*
X012002Y011624D01*
X011998Y011625D01*
X011994Y011626D01*
X011991Y011627D01*
X011987Y011628D01*
X011984Y011628D01*
X011980Y011629D01*
X011977Y011629D01*
X011974Y011629D01*
X011971Y011629D01*
X011969Y011629D01*
X011966Y011629D01*
X011964Y011628D01*
X011962Y011627D01*
X011961Y011627D01*
X011960Y011626D01*
X011959Y011625D01*
X011957Y011624D01*
X011957Y011623D01*
X011956Y011622D01*
X011955Y011621D01*
X011954Y011619D01*
X011954Y011618D01*
X011953Y011617D01*
X011953Y011616D01*
X011952Y011613D01*
X011951Y011612D01*
X011951Y011611D01*
X011951Y011610D01*
X011950Y011609D01*
X011949Y011608D01*
X011949Y011607D01*
X011948Y011606D01*
X011947Y011605D01*
X011946Y011604D01*
X011945Y011604D01*
X011943Y011603D01*
X011941Y011603D01*
X011938Y011604D01*
X011936Y011605D01*
X011933Y011606D01*
X011929Y011608D01*
X011925Y011610D01*
X011921Y011612D01*
X011917Y011614D01*
X011912Y011617D01*
X011908Y011619D01*
X011903Y011622D01*
X011899Y011624D01*
X011894Y011626D01*
X011890Y011628D01*
X011885Y011630D01*
X011881Y011632D01*
X011873Y011634D01*
X011869Y011635D01*
X011866Y011635D01*
X011863Y011634D01*
X011861Y011634D01*
X011859Y011632D01*
X011858Y011631D01*
X011857Y011629D01*
X011856Y011628D01*
X011855Y011626D01*
X011855Y011624D01*
X011854Y011622D01*
X011854Y011620D01*
X011854Y011618D01*
X011854Y011615D01*
X011854Y011613D01*
X011854Y011610D01*
X011854Y011608D01*
X011854Y011605D01*
X011854Y011602D01*
X011854Y011599D01*
X011855Y011596D01*
X011855Y011593D01*
X011856Y011590D01*
X011856Y011587D01*
X011857Y011584D01*
X011857Y011581D01*
X011858Y011578D01*
X011858Y011574D01*
X011859Y011571D01*
X011859Y011568D01*
X011860Y011565D01*
X011860Y011563D01*
X011860Y011560D01*
X011861Y011558D01*
X011861Y011556D01*
X011873Y011551D02*
X012043Y011551D01*
X012025Y011563D02*
X012015Y011603D01*
X011965Y011623D01*
X011945Y011593D01*
X011865Y011623D01*
X011875Y011533D01*
X012035Y011423D01*
X012085Y011473D01*
X012085Y011523D01*
X012025Y011563D01*
X012023Y011570D02*
X011871Y011570D01*
X011869Y011588D02*
X012019Y011588D01*
X012006Y011607D02*
X011954Y011607D01*
X011909Y011607D02*
X011867Y011607D01*
X011806Y011607D02*
X011629Y011607D01*
X011618Y011607D02*
X011533Y011607D01*
X011660Y011625D02*
X011799Y011625D01*
X011757Y011681D02*
X011368Y011681D01*
X011380Y011576D02*
X011384Y011576D01*
X011388Y011576D01*
X011389Y011576D01*
X011390Y011575D01*
X011391Y011575D01*
X011392Y011574D01*
X011393Y011572D01*
X011394Y011571D01*
X011394Y011570D01*
X011395Y011568D01*
X011396Y011566D01*
X011396Y011564D01*
X011397Y011562D01*
X011397Y011560D01*
X011398Y011558D01*
X011398Y011555D01*
X011399Y011553D01*
X011399Y011550D01*
X011399Y011548D01*
X011400Y011545D01*
X011400Y011539D01*
X011400Y011536D01*
X011400Y011533D01*
X011400Y011530D01*
X011400Y011527D01*
X011400Y011524D01*
X011400Y011521D01*
X011401Y011517D01*
X011401Y011515D01*
X011401Y011512D01*
X011401Y011509D01*
X011401Y011506D01*
X011400Y011503D01*
X011400Y011500D01*
X011400Y011498D01*
X011400Y011495D01*
X011400Y011493D01*
X011400Y011490D01*
X011400Y011488D01*
X011399Y011485D01*
X011399Y011483D01*
X011399Y011481D01*
X011398Y011479D01*
X011398Y011477D01*
X011397Y011475D01*
X011397Y011473D01*
X011395Y011469D01*
X011394Y011468D01*
X011394Y011466D01*
X011392Y011463D01*
X011388Y011460D01*
X011383Y011456D01*
X011377Y011451D01*
X011369Y011447D01*
X011361Y011441D01*
X011352Y011436D01*
X011342Y011431D01*
X011332Y011425D01*
X011321Y011420D01*
X011310Y011414D01*
X011298Y011409D01*
X011287Y011403D01*
X011276Y011398D01*
X011264Y011393D01*
X011253Y011389D01*
X011243Y011385D01*
X011233Y011381D01*
X011223Y011378D01*
X011215Y011375D01*
X011207Y011373D01*
X011200Y011372D01*
X011194Y011371D01*
X011191Y011372D01*
X011189Y011372D01*
X011187Y011372D01*
X011185Y011373D01*
X011183Y011374D01*
X011181Y011375D01*
X011179Y011376D01*
X011177Y011378D01*
X011175Y011379D01*
X011173Y011381D01*
X011171Y011383D01*
X011169Y011385D01*
X011166Y011387D01*
X011164Y011389D01*
X011162Y011392D01*
X011157Y011397D01*
X011154Y011400D01*
X011152Y011404D01*
X011149Y011407D01*
X011146Y011411D01*
X011143Y011415D01*
X011141Y011419D01*
X011138Y011423D01*
X011135Y011427D01*
X011132Y011431D01*
X011130Y011435D01*
X011128Y011438D01*
X011125Y011442D01*
X011123Y011445D01*
X011121Y011449D01*
X011119Y011452D01*
X011117Y011455D01*
X011115Y011459D01*
X011114Y011462D01*
X011112Y011465D01*
X011109Y011471D01*
X011108Y011474D01*
X011106Y011480D01*
X011106Y011483D01*
X011105Y011486D01*
X011105Y011488D01*
X011105Y011491D01*
X011105Y011494D01*
X011105Y011496D01*
X011106Y011498D01*
X011107Y011501D01*
X011108Y011503D01*
X011109Y011505D01*
X011111Y011506D01*
X011113Y011508D01*
X011115Y011509D01*
X011118Y011511D01*
X011121Y011512D01*
X011124Y011514D01*
X011127Y011515D01*
X011131Y011516D01*
X011134Y011518D01*
X011138Y011519D01*
X011141Y011520D01*
X011145Y011521D01*
X011148Y011522D01*
X011151Y011523D01*
X011155Y011524D01*
X011157Y011525D01*
X011160Y011526D01*
X011163Y011528D01*
X011165Y011529D01*
X011167Y011530D01*
X011169Y011531D01*
X011170Y011532D01*
X011170Y011533D01*
X011171Y011534D01*
X011171Y011535D01*
X011171Y011536D01*
X011171Y011537D01*
X011171Y011539D01*
X011171Y011540D01*
X011171Y011542D01*
X011171Y011544D01*
X011170Y011546D01*
X011170Y011547D01*
X011170Y011549D01*
X011170Y011551D01*
X011169Y011553D01*
X011169Y011556D01*
X011169Y011558D01*
X011169Y011560D01*
X011169Y011562D01*
X011169Y011564D01*
X011169Y011566D01*
X011169Y011568D01*
X011169Y011569D01*
X011170Y011571D01*
X011170Y011573D01*
X011171Y011574D01*
X011171Y011576D01*
X011172Y011577D01*
X011173Y011578D01*
X011174Y011579D01*
X011176Y011580D01*
X011177Y011581D01*
X011178Y011582D01*
X011180Y011583D01*
X011181Y011584D01*
X011183Y011584D01*
X011184Y011585D01*
X011186Y011585D01*
X011187Y011586D01*
X011189Y011586D01*
X011190Y011587D01*
X011192Y011587D01*
X011193Y011587D01*
X011194Y011588D01*
X011196Y011588D01*
X011197Y011588D01*
X011198Y011588D01*
X011199Y011588D01*
X011199Y011588D01*
X011200Y011589D01*
X011201Y011589D01*
X011202Y011589D01*
X011203Y011589D01*
X011204Y011589D01*
X011205Y011589D01*
X011207Y011589D01*
X011208Y011590D01*
X011209Y011590D01*
X011211Y011590D01*
X011212Y011590D01*
X011214Y011590D01*
X011215Y011590D01*
X011216Y011590D01*
X011218Y011590D01*
X011219Y011590D01*
X011220Y011589D01*
X011221Y011589D01*
X011223Y011589D01*
X011224Y011588D01*
X011225Y011588D01*
X011226Y011587D01*
X011227Y011587D01*
X011227Y011586D01*
X011228Y011585D01*
X011228Y011584D01*
X011229Y011583D01*
X011229Y011582D01*
X011230Y011580D01*
X011231Y011577D01*
X011231Y011575D01*
X011232Y011574D01*
X011232Y011572D01*
X011232Y011570D01*
X011233Y011568D01*
X011233Y011566D01*
X011234Y011564D01*
X011234Y011562D01*
X011235Y011560D01*
X011235Y011558D01*
X011236Y011557D01*
X011237Y011555D01*
X011237Y011554D01*
X011238Y011552D01*
X011239Y011551D01*
X011175Y011551D01*
X011175Y011533D02*
X011115Y011503D01*
X011125Y011473D01*
X011165Y011403D01*
X011195Y011383D01*
X011385Y011473D01*
X011395Y011523D01*
X011385Y011563D01*
X011245Y011543D01*
X011215Y011583D01*
X011175Y011573D01*
X011175Y011533D01*
X011174Y011533D02*
X011393Y011533D01*
X011393Y011514D02*
X011137Y011514D01*
X011118Y011496D02*
X011390Y011496D01*
X011386Y011477D02*
X011124Y011477D01*
X011133Y011459D02*
X011355Y011459D01*
X011316Y011440D02*
X011144Y011440D01*
X011155Y011422D02*
X011277Y011422D01*
X011237Y011403D02*
X011165Y011403D01*
X011193Y011385D02*
X011198Y011385D01*
X011241Y011549D02*
X011243Y011549D01*
X011248Y011549D01*
X011252Y011550D01*
X011257Y011551D01*
X011271Y011553D01*
X011278Y011555D01*
X011287Y011557D01*
X011295Y011559D01*
X011304Y011560D01*
X011312Y011562D01*
X011321Y011564D01*
X011330Y011566D01*
X011338Y011568D01*
X011347Y011570D01*
X011355Y011572D01*
X011362Y011573D01*
X011369Y011574D01*
X011375Y011575D01*
X011380Y011576D01*
X011388Y011551D02*
X011302Y011551D01*
X011241Y011549D02*
X011240Y011549D01*
X011239Y011550D01*
X011239Y011551D01*
X011225Y011570D02*
X011175Y011570D01*
X011467Y011422D02*
X011718Y011422D01*
X011721Y011384D02*
X011719Y011384D01*
X011716Y011384D01*
X011714Y011383D01*
X011711Y011383D01*
X011709Y011383D01*
X011707Y011382D01*
X011705Y011382D01*
X011703Y011381D01*
X011701Y011381D01*
X011700Y011380D01*
X011698Y011379D01*
X011697Y011379D01*
X011696Y011378D01*
X011695Y011377D01*
X011694Y011376D01*
X011694Y011376D01*
X011693Y011375D01*
X011693Y011374D01*
X011693Y011372D01*
X011693Y011371D01*
X011693Y011369D01*
X011693Y011368D01*
X011693Y011365D01*
X011694Y011363D01*
X011694Y011361D01*
X011695Y011359D01*
X011695Y011356D01*
X011696Y011353D01*
X011697Y011350D01*
X011698Y011347D01*
X011698Y011344D01*
X011699Y011341D01*
X011700Y011338D01*
X011701Y011334D01*
X011703Y011331D01*
X011704Y011328D01*
X011705Y011324D01*
X011707Y011317D01*
X011709Y011313D01*
X011710Y011310D01*
X011711Y011306D01*
X011713Y011302D01*
X011714Y011299D01*
X011715Y011296D01*
X011717Y011293D01*
X011718Y011290D01*
X011719Y011287D01*
X011720Y011284D01*
X011721Y011281D01*
X011723Y011279D01*
X011724Y011276D01*
X011725Y011274D01*
X011726Y011272D01*
X011727Y011270D01*
X011728Y011268D01*
X011730Y011266D01*
X011731Y011264D01*
X011733Y011261D01*
X011734Y011260D01*
X011735Y011259D01*
X011736Y011258D01*
X011737Y011257D01*
X011739Y011257D01*
X011739Y011256D01*
X011741Y011256D01*
X011743Y011256D01*
X011744Y011256D01*
X011747Y011256D01*
X011749Y011256D01*
X011752Y011256D01*
X011755Y011256D01*
X011758Y011256D01*
X011762Y011257D01*
X011765Y011257D01*
X011773Y011258D01*
X011777Y011259D01*
X011782Y011260D01*
X011786Y011261D01*
X011791Y011261D01*
X011800Y011263D01*
X011805Y011264D01*
X011809Y011265D01*
X011814Y011267D01*
X011819Y011268D01*
X011824Y011269D01*
X011828Y011270D01*
X011832Y011271D01*
X011836Y011272D01*
X011841Y011273D01*
X011845Y011274D01*
X011849Y011276D01*
X011852Y011277D01*
X011856Y011278D01*
X011860Y011279D01*
X011863Y011280D01*
X011867Y011280D01*
X011870Y011281D01*
X011873Y011282D01*
X011876Y011283D01*
X011879Y011284D01*
X011881Y011285D01*
X011884Y011285D01*
X011885Y011286D01*
X011887Y011287D01*
X011889Y011288D01*
X011890Y011288D01*
X011891Y011289D01*
X011892Y011289D01*
X011892Y011290D01*
X011893Y011291D01*
X011894Y011293D01*
X011894Y011295D01*
X011894Y011297D01*
X011894Y011300D01*
X011894Y011303D01*
X011894Y011306D01*
X011893Y011309D01*
X011893Y011313D01*
X011892Y011316D01*
X011892Y011320D01*
X011891Y011324D01*
X011890Y011328D01*
X011889Y011331D01*
X011888Y011335D01*
X011887Y011339D01*
X011886Y011342D01*
X011885Y011345D01*
X011884Y011348D01*
X011883Y011351D01*
X011881Y011355D01*
X011880Y011357D01*
X011879Y011358D01*
X011877Y011359D01*
X011875Y011359D01*
X011872Y011360D01*
X011869Y011360D01*
X011866Y011360D01*
X011862Y011360D01*
X011858Y011360D01*
X011854Y011359D01*
X011850Y011359D01*
X011846Y011359D01*
X011842Y011359D01*
X011837Y011358D01*
X011833Y011358D01*
X011829Y011358D01*
X011825Y011357D01*
X011821Y011357D01*
X011817Y011357D01*
X011814Y011357D01*
X011811Y011357D01*
X011806Y011357D01*
X011804Y011357D01*
X011803Y011357D01*
X011802Y011358D01*
X011801Y011359D01*
X011800Y011359D01*
X011800Y011360D01*
X011799Y011361D01*
X011798Y011362D01*
X011797Y011363D01*
X011797Y011364D01*
X011796Y011365D01*
X011795Y011367D01*
X011794Y011368D01*
X011793Y011369D01*
X011792Y011370D01*
X011792Y011371D01*
X011791Y011372D01*
X011790Y011374D01*
X011789Y011375D01*
X011787Y011376D01*
X011786Y011377D01*
X011785Y011378D01*
X011784Y011379D01*
X011783Y011380D01*
X011782Y011381D01*
X011780Y011382D01*
X011779Y011382D01*
X011777Y011382D01*
X011776Y011383D01*
X011774Y011383D01*
X011773Y011383D01*
X011771Y011384D01*
X011769Y011384D01*
X011768Y011384D01*
X011766Y011384D01*
X011764Y011385D01*
X011762Y011385D01*
X011760Y011385D01*
X011757Y011385D01*
X011755Y011385D01*
X011753Y011385D01*
X011750Y011385D01*
X011748Y011385D01*
X011745Y011385D01*
X011743Y011385D01*
X011740Y011385D01*
X011737Y011385D01*
X011735Y011385D01*
X011732Y011385D01*
X011729Y011385D01*
X011727Y011385D01*
X011724Y011384D01*
X011721Y011384D01*
X011705Y011373D02*
X011775Y011373D01*
X011795Y011343D01*
X011875Y011343D01*
X011885Y011303D01*
X011775Y011263D01*
X011745Y011273D01*
X011705Y011363D01*
X011705Y011373D01*
X011705Y011366D02*
X011780Y011366D01*
X011798Y011362D02*
X011798Y011362D01*
X011802Y011358D02*
X011802Y011358D01*
X011792Y011348D02*
X011712Y011348D01*
X011720Y011329D02*
X011879Y011329D01*
X011883Y011311D02*
X011728Y011311D01*
X011737Y011292D02*
X011855Y011292D01*
X011804Y011274D02*
X011745Y011274D01*
X011640Y011280D02*
X011640Y011275D01*
X011639Y011270D01*
X011639Y011265D01*
X011638Y011262D01*
X011638Y011258D01*
X011637Y011256D01*
X011636Y011255D01*
X011635Y011254D01*
X011634Y011254D01*
X011633Y011253D01*
X011631Y011253D01*
X011629Y011252D01*
X011626Y011251D01*
X011624Y011251D01*
X011620Y011250D01*
X011617Y011249D01*
X011613Y011248D01*
X011609Y011247D01*
X011605Y011246D01*
X011601Y011245D01*
X011596Y011245D01*
X011591Y011244D01*
X011586Y011243D01*
X011581Y011242D01*
X011575Y011241D01*
X011570Y011240D01*
X011564Y011239D01*
X011553Y011238D01*
X011548Y011237D01*
X011542Y011236D01*
X011537Y011236D01*
X011531Y011235D01*
X011526Y011235D01*
X011521Y011234D01*
X011516Y011234D01*
X011506Y011234D01*
X011501Y011234D01*
X011497Y011233D01*
X011492Y011233D01*
X011487Y011233D01*
X011483Y011233D01*
X011479Y011233D01*
X011475Y011233D01*
X011472Y011234D01*
X011468Y011234D01*
X011465Y011234D01*
X011462Y011234D01*
X011460Y011234D01*
X011457Y011235D01*
X011455Y011235D01*
X011454Y011235D01*
X011452Y011235D01*
X011451Y011236D01*
X011450Y011236D01*
X011448Y011238D01*
X011446Y011240D01*
X011445Y011241D01*
X011443Y011244D01*
X011442Y011247D01*
X011441Y011249D01*
X011440Y011252D01*
X011439Y011256D01*
X011438Y011259D01*
X011437Y011262D01*
X011437Y011266D01*
X011436Y011269D01*
X011436Y011273D01*
X011436Y011277D01*
X011436Y011280D01*
X011436Y011284D01*
X011436Y011287D01*
X011436Y011290D01*
X011436Y011293D01*
X011437Y011296D01*
X011438Y011299D01*
X011438Y011301D01*
X011439Y011303D01*
X011440Y011305D01*
X011442Y011306D01*
X011445Y011308D01*
X011447Y011309D01*
X011451Y011310D01*
X011458Y011312D01*
X011463Y011313D01*
X011467Y011314D01*
X011472Y011315D01*
X011476Y011315D01*
X011486Y011317D01*
X011491Y011317D01*
X011495Y011318D01*
X011500Y011319D01*
X011504Y011319D01*
X011512Y011320D01*
X011515Y011321D01*
X011521Y011322D01*
X011523Y011323D01*
X011524Y011324D01*
X011525Y011324D01*
X011525Y011325D01*
X011526Y011327D01*
X011527Y011328D01*
X011527Y011329D01*
X011528Y011332D01*
X011529Y011334D01*
X011529Y011336D01*
X011530Y011338D01*
X011530Y011340D01*
X011530Y011342D01*
X011531Y011344D01*
X011531Y011346D01*
X011531Y011348D01*
X011532Y011350D01*
X011532Y011351D01*
X011533Y011353D01*
X011533Y011355D01*
X011534Y011357D01*
X011534Y011358D01*
X011535Y011360D01*
X011535Y011361D01*
X011536Y011362D01*
X011537Y011363D01*
X011538Y011364D01*
X011539Y011364D01*
X011540Y011365D01*
X011541Y011365D01*
X011542Y011366D01*
X011543Y011367D01*
X011545Y011367D01*
X011546Y011368D01*
X011548Y011368D01*
X011550Y011369D01*
X011551Y011370D01*
X011553Y011370D01*
X011555Y011371D01*
X011557Y011371D01*
X011559Y011372D01*
X011562Y011372D01*
X011564Y011373D01*
X011567Y011373D01*
X011569Y011373D01*
X011572Y011374D01*
X011575Y011374D01*
X011577Y011374D01*
X011581Y011375D01*
X011584Y011375D01*
X011587Y011375D01*
X011590Y011375D01*
X011593Y011375D01*
X011596Y011375D01*
X011599Y011375D01*
X011602Y011375D01*
X011605Y011375D01*
X011608Y011375D01*
X011610Y011375D01*
X011612Y011375D01*
X011615Y011374D01*
X011617Y011374D01*
X011619Y011374D01*
X011621Y011374D01*
X011623Y011373D01*
X011624Y011373D01*
X011626Y011372D01*
X011627Y011372D01*
X011628Y011371D01*
X011629Y011371D01*
X011630Y011370D01*
X011630Y011369D01*
X011631Y011368D01*
X011632Y011365D01*
X011632Y011361D01*
X011633Y011358D01*
X011634Y011353D01*
X011635Y011348D01*
X011636Y011342D01*
X011636Y011336D01*
X011637Y011330D01*
X011638Y011324D01*
X011638Y011317D01*
X011639Y011311D01*
X011639Y011304D01*
X011639Y011298D01*
X011640Y011292D01*
X011640Y011286D01*
X011640Y011280D01*
X011635Y011274D02*
X011449Y011274D01*
X011445Y011292D02*
X011635Y011292D01*
X011635Y011311D02*
X011515Y011311D01*
X011525Y011313D02*
X011545Y011353D01*
X011625Y011363D01*
X011635Y011313D01*
X011635Y011263D01*
X011455Y011243D01*
X011445Y011293D01*
X011525Y011313D01*
X011533Y011329D02*
X011632Y011329D01*
X011628Y011348D02*
X011542Y011348D01*
X011537Y011363D02*
X011537Y011363D01*
X011561Y011403D02*
X011472Y011403D01*
X011453Y011255D02*
X011564Y011255D01*
X011880Y011357D02*
X011880Y011357D01*
X011957Y011477D02*
X012085Y011477D01*
X012085Y011496D02*
X011930Y011496D01*
X011903Y011514D02*
X012085Y011514D01*
X012071Y011533D02*
X011876Y011533D01*
X011983Y011459D02*
X012071Y011459D01*
X012052Y011440D02*
X012010Y011440D01*
X011516Y011902D02*
X011518Y011904D01*
X011520Y011906D01*
X011521Y011909D01*
X011523Y011911D01*
X011524Y011914D01*
X011525Y011917D01*
X011526Y011920D01*
X011526Y011923D01*
X011527Y011926D01*
X011527Y011929D01*
X011527Y011935D01*
X011527Y011938D01*
X011526Y011941D01*
X011526Y011944D01*
X011525Y011947D01*
X011524Y011950D01*
X011523Y011952D01*
X011521Y011955D01*
X011520Y011957D01*
X011518Y011960D01*
X011516Y011962D01*
X011514Y011964D01*
X011512Y011966D01*
X011510Y011968D01*
X011507Y011970D01*
X011505Y011971D01*
X011502Y011973D01*
X011499Y011974D01*
X011497Y011975D01*
X011494Y011976D01*
X011491Y011977D01*
X011488Y011977D01*
X011485Y011977D01*
X011478Y011977D01*
X011475Y011977D01*
X011472Y011977D01*
X011469Y011976D01*
X011466Y011975D01*
X011464Y011974D01*
X011461Y011973D01*
X011458Y011971D01*
X011456Y011970D01*
X011453Y011968D01*
X011451Y011966D01*
X011449Y011964D01*
X011447Y011962D01*
X011445Y011960D01*
X011443Y011957D01*
X011442Y011955D01*
X011440Y011952D01*
X011439Y011950D01*
X011438Y011947D01*
X011437Y011944D01*
X011437Y011941D01*
X011436Y011938D01*
X011436Y011935D01*
X011436Y011929D01*
X011436Y011926D01*
X011437Y011923D01*
X011437Y011920D01*
X011438Y011917D01*
X011439Y011914D01*
X011440Y011911D01*
X011442Y011909D01*
X011443Y011906D01*
X011445Y011904D01*
X011447Y011902D01*
X011451Y011898D01*
X011453Y011896D01*
X011456Y011894D01*
X011458Y011892D01*
X011461Y011891D01*
X011464Y011890D01*
X011466Y011889D01*
X011469Y011888D01*
X011472Y011887D01*
X011475Y011887D01*
X011478Y011886D01*
X011485Y011886D01*
X011488Y011887D01*
X011491Y011887D01*
X011494Y011888D01*
X011497Y011889D01*
X011499Y011890D01*
X011502Y011891D01*
X011505Y011892D01*
X011507Y011894D01*
X011510Y011896D01*
X011512Y011898D01*
X011514Y011900D01*
X011516Y011902D01*
X011539Y012069D02*
X011331Y012069D01*
X011644Y012069D02*
X011728Y012069D01*
X011649Y012217D02*
X011612Y012217D01*
M02*
