G75*
%MOIN*%
%OFA0B0*%
%FSLAX24Y24*%
%IPPOS*%
%LPD*%
%AMOC8*
5,1,8,0,0,1.08239X$1,22.5*
%
%ADD10C,0.0100*%
%ADD11C,0.0050*%
%ADD12C,0.0080*%
D10*
X011705Y016158D02*
X012072Y016158D01*
X012256Y016342D01*
X012072Y016525D01*
X011705Y016525D01*
X011705Y016757D02*
X011705Y016940D01*
X011705Y016848D02*
X012072Y016848D01*
X012072Y016757D01*
X012256Y016848D02*
X012347Y016848D01*
X011980Y016525D02*
X011980Y016158D01*
X011889Y017754D02*
X011889Y018029D01*
X011980Y018121D01*
X012164Y018121D01*
X012256Y018029D01*
X012256Y017754D01*
X011705Y017754D01*
X011889Y017938D02*
X011705Y018121D01*
X011705Y018353D02*
X012256Y018353D01*
X011705Y018720D01*
X012256Y018720D01*
X011980Y018951D02*
X011980Y019318D01*
X011980Y019550D02*
X012072Y019733D01*
X012072Y019825D01*
X011980Y019917D01*
X011797Y019917D01*
X011705Y019825D01*
X011705Y019641D01*
X011797Y019550D01*
X011980Y019550D02*
X012256Y019550D01*
X012256Y019917D01*
X012164Y020148D02*
X012256Y020240D01*
X012256Y020423D01*
X012164Y020515D01*
X012072Y020515D01*
X011705Y020148D01*
X011705Y020515D01*
X011705Y021345D02*
X011705Y021620D01*
X011797Y021712D01*
X011889Y021712D01*
X011980Y021620D01*
X011980Y021345D01*
X011705Y021345D02*
X012256Y021345D01*
X012256Y021620D01*
X012164Y021712D01*
X012072Y021712D01*
X011980Y021620D01*
X011889Y021944D02*
X011889Y022219D01*
X011980Y022311D01*
X012164Y022311D01*
X012256Y022219D01*
X012256Y021944D01*
X011705Y021944D01*
X011889Y022127D02*
X011705Y022311D01*
X011705Y022542D02*
X011705Y022909D01*
X011705Y023141D02*
X012072Y023141D01*
X012256Y023324D01*
X012072Y023508D01*
X011705Y023508D01*
X011705Y023739D02*
X012256Y023739D01*
X011980Y023831D02*
X011705Y024106D01*
X011797Y024338D02*
X011705Y024430D01*
X011705Y024613D01*
X011797Y024705D01*
X012164Y024705D01*
X012256Y024613D01*
X012256Y024430D01*
X012164Y024338D01*
X011797Y024338D01*
X012256Y024106D02*
X011889Y023739D01*
X011980Y023508D02*
X011980Y023141D01*
X012256Y022909D02*
X012256Y022542D01*
X011705Y022542D01*
X011980Y022542D02*
X011980Y022726D01*
X011797Y024936D02*
X011705Y025028D01*
X011705Y025212D01*
X011797Y025303D01*
X012256Y025303D01*
X012256Y025535D02*
X012256Y025902D01*
X012256Y025718D02*
X011705Y025718D01*
X011797Y024936D02*
X012256Y024936D01*
D11*
X011430Y025314D02*
X011280Y025314D01*
X011330Y025414D01*
X011330Y025464D01*
X011280Y025514D01*
X011180Y025514D01*
X011130Y025464D01*
X011130Y025364D01*
X011180Y025314D01*
X011280Y025192D02*
X011280Y024991D01*
X011280Y024869D02*
X011130Y024869D01*
X011280Y024869D02*
X011330Y024819D01*
X011330Y024669D01*
X011130Y024669D01*
X011330Y024551D02*
X011330Y024501D01*
X011230Y024401D01*
X011130Y024401D02*
X011330Y024401D01*
X011430Y024279D02*
X011130Y024078D01*
X011130Y023956D02*
X011280Y023956D01*
X011330Y023906D01*
X011280Y023856D01*
X011130Y023856D01*
X011130Y023756D02*
X011330Y023756D01*
X011330Y023806D01*
X011280Y023856D01*
X011280Y023634D02*
X011180Y023634D01*
X011130Y023584D01*
X011130Y023484D01*
X011180Y023434D01*
X011280Y023434D01*
X011330Y023484D01*
X011330Y023584D01*
X011280Y023634D01*
X011330Y023312D02*
X011330Y023162D01*
X011280Y023112D01*
X011180Y023112D01*
X011130Y023162D01*
X011130Y023312D01*
X011130Y023000D02*
X011130Y022950D01*
X011180Y022950D01*
X011180Y023000D01*
X011130Y023000D01*
X011130Y022828D02*
X011130Y022678D01*
X011180Y022628D01*
X011280Y022628D01*
X011330Y022678D01*
X011330Y022828D01*
X011330Y022463D02*
X011130Y022463D01*
X011130Y022413D02*
X011130Y022513D01*
X011330Y022463D02*
X011330Y022413D01*
X011430Y022463D02*
X011480Y022463D01*
X011330Y022299D02*
X011330Y022198D01*
X011380Y022248D02*
X011180Y022248D01*
X011130Y022299D01*
X011180Y022076D02*
X011280Y022076D01*
X011330Y022026D01*
X011330Y021926D01*
X011280Y021876D01*
X011180Y021876D01*
X011130Y021926D01*
X011130Y022026D01*
X011180Y022076D01*
X011180Y021754D02*
X011280Y021754D01*
X011330Y021704D01*
X011330Y021554D01*
X011430Y021554D02*
X011130Y021554D01*
X011130Y021704D01*
X011180Y021754D01*
X011180Y021432D02*
X011280Y021432D01*
X011330Y021382D01*
X011330Y021282D01*
X011280Y021232D01*
X011180Y021232D01*
X011130Y021282D01*
X011130Y021382D01*
X011180Y021432D01*
X011330Y021113D02*
X011330Y021063D01*
X011230Y020963D01*
X011130Y020963D02*
X011330Y020963D01*
X011330Y020841D02*
X011330Y020691D01*
X011280Y020641D01*
X011180Y020641D01*
X011130Y020691D01*
X011130Y020841D01*
X011130Y020519D02*
X011130Y020369D01*
X011180Y020319D01*
X011230Y020369D01*
X011230Y020519D01*
X011280Y020519D02*
X011130Y020519D01*
X011280Y020519D02*
X011330Y020469D01*
X011330Y020369D01*
X011430Y020196D02*
X011130Y019996D01*
X011130Y019674D02*
X011430Y019874D01*
X011330Y019563D02*
X011280Y019563D01*
X011280Y019513D01*
X011330Y019513D01*
X011330Y019563D01*
X011180Y019563D02*
X011130Y019563D01*
X011130Y019513D01*
X011180Y019513D01*
X011180Y019563D01*
X011180Y019391D02*
X011130Y019341D01*
X011130Y019191D01*
X011030Y019191D02*
X011330Y019191D01*
X011330Y019341D01*
X011280Y019391D01*
X011180Y019391D01*
X011130Y019076D02*
X011180Y019026D01*
X011380Y019026D01*
X011330Y018976D02*
X011330Y019076D01*
X011330Y018861D02*
X011330Y018761D01*
X011380Y018811D02*
X011180Y018811D01*
X011130Y018861D01*
X011130Y018639D02*
X011280Y018639D01*
X011330Y018589D01*
X011330Y018489D01*
X011280Y018439D01*
X011430Y018439D02*
X011130Y018439D01*
X011180Y017086D02*
X011180Y016886D01*
X011180Y016986D02*
X011480Y016986D01*
X011380Y016886D01*
X011230Y016775D02*
X011180Y016775D01*
X011180Y016725D01*
X011230Y016725D01*
X011230Y016775D01*
X011180Y016603D02*
X011180Y016403D01*
X011180Y016503D02*
X011480Y016503D01*
X011380Y016403D01*
X011380Y016281D02*
X011180Y016180D01*
X011380Y016080D01*
X011430Y025314D02*
X011430Y025514D01*
X011380Y025636D02*
X011430Y025686D01*
X011430Y025786D01*
X011380Y025836D01*
X011330Y025836D01*
X011130Y025636D01*
X011130Y025836D01*
D12*
X006705Y027333D02*
X006705Y007333D01*
X007705Y007333D01*
X007705Y027333D01*
X006705Y027333D01*
X007747Y027074D02*
X007747Y027004D01*
X007817Y026934D01*
X007747Y026863D01*
X007747Y026793D01*
X007817Y026723D01*
X007957Y026723D01*
X008027Y026793D01*
X008207Y026793D02*
X008207Y027074D01*
X008277Y027144D01*
X008417Y027144D01*
X008487Y027074D01*
X008487Y026793D01*
X008417Y026723D01*
X008277Y026723D01*
X008207Y026793D01*
X008027Y027074D02*
X007957Y027144D01*
X007817Y027144D01*
X007747Y027074D01*
X007817Y026934D02*
X007887Y026934D01*
X007957Y026144D02*
X008027Y026074D01*
X007957Y026144D02*
X007817Y026144D01*
X007747Y026074D01*
X007747Y026004D01*
X008027Y025723D01*
X007747Y025723D01*
X008207Y025793D02*
X008207Y026074D01*
X008277Y026144D01*
X008417Y026144D01*
X008487Y026074D01*
X008487Y025793D01*
X008417Y025723D01*
X008277Y025723D01*
X008207Y025793D01*
X008654Y025723D02*
X008794Y025723D01*
X008724Y025723D02*
X008724Y026144D01*
X008794Y026144D02*
X008654Y026144D01*
X008975Y026074D02*
X008975Y025934D01*
X009045Y025863D01*
X009255Y025863D01*
X009255Y025723D02*
X009255Y026144D01*
X009045Y026144D01*
X008975Y026074D01*
X009435Y026074D02*
X009505Y026144D01*
X009645Y026144D01*
X009715Y026074D01*
X009715Y025793D01*
X009645Y025723D01*
X009505Y025723D01*
X009435Y025793D01*
X009435Y025934D01*
X009575Y025934D01*
X009575Y025144D02*
X009435Y025004D01*
X009435Y024723D01*
X009255Y024793D02*
X009255Y025074D01*
X009185Y025144D01*
X009045Y025144D01*
X008975Y025074D01*
X008794Y025144D02*
X008654Y025144D01*
X008724Y025144D02*
X008724Y024723D01*
X008794Y024723D02*
X008654Y024723D01*
X008487Y024793D02*
X008487Y025074D01*
X008417Y025144D01*
X008277Y025144D01*
X008207Y025074D01*
X008207Y024793D01*
X008277Y024723D01*
X008417Y024723D01*
X008487Y024793D01*
X008027Y024793D02*
X007747Y025074D01*
X007747Y024793D01*
X007817Y024723D01*
X007957Y024723D01*
X008027Y024793D01*
X008027Y025074D01*
X007957Y025144D01*
X007817Y025144D01*
X007747Y025074D01*
X007817Y024144D02*
X008027Y023934D01*
X007747Y023934D01*
X007817Y024144D02*
X007817Y023723D01*
X008207Y023793D02*
X008207Y024074D01*
X008277Y024144D01*
X008417Y024144D01*
X008487Y024074D01*
X008487Y023793D01*
X008417Y023723D01*
X008277Y023723D01*
X008207Y023793D01*
X008654Y023723D02*
X008794Y023723D01*
X008724Y023723D02*
X008724Y024144D01*
X008794Y024144D02*
X008654Y024144D01*
X008975Y024074D02*
X008975Y023934D01*
X009045Y023863D01*
X009255Y023863D01*
X009255Y023723D02*
X009255Y024144D01*
X009045Y024144D01*
X008975Y024074D01*
X009435Y024074D02*
X009505Y024144D01*
X009645Y024144D01*
X009715Y024074D01*
X009715Y023793D01*
X009645Y023723D01*
X009505Y023723D01*
X009435Y023793D01*
X009435Y023934D01*
X009575Y023934D01*
X009505Y023144D02*
X009645Y023144D01*
X009715Y023074D01*
X009715Y022793D01*
X009645Y022723D01*
X009505Y022723D01*
X009435Y022793D01*
X009435Y022934D01*
X009575Y022934D01*
X009435Y023074D02*
X009505Y023144D01*
X009255Y023144D02*
X009255Y022723D01*
X009255Y022863D02*
X009045Y022863D01*
X008975Y022934D01*
X008975Y023074D01*
X009045Y023144D01*
X009255Y023144D01*
X008794Y023144D02*
X008654Y023144D01*
X008724Y023144D02*
X008724Y022723D01*
X008794Y022723D02*
X008654Y022723D01*
X008487Y022793D02*
X008487Y023074D01*
X008417Y023144D01*
X008277Y023144D01*
X008207Y023074D01*
X008207Y022793D01*
X008277Y022723D01*
X008417Y022723D01*
X008487Y022793D01*
X008027Y022793D02*
X007957Y022723D01*
X007817Y022723D01*
X007747Y022793D01*
X007747Y022934D01*
X007817Y023004D01*
X007887Y023004D01*
X008027Y022934D01*
X008027Y023144D01*
X007747Y023144D01*
X007806Y022144D02*
X007947Y022144D01*
X008017Y022074D01*
X007806Y022144D02*
X007736Y022074D01*
X007736Y022004D01*
X008017Y021723D01*
X007736Y021723D01*
X008197Y021723D02*
X008477Y021723D01*
X008337Y021723D02*
X008337Y022144D01*
X008477Y022004D01*
X008657Y022074D02*
X008727Y022144D01*
X008867Y022144D01*
X008937Y022074D01*
X008937Y021793D01*
X008867Y021723D01*
X008727Y021723D01*
X008657Y021793D01*
X008657Y022074D01*
X009104Y022144D02*
X009244Y022144D01*
X009174Y022144D02*
X009174Y021723D01*
X009244Y021723D02*
X009104Y021723D01*
X009425Y021934D02*
X009495Y021863D01*
X009705Y021863D01*
X009705Y021723D02*
X009705Y022144D01*
X009495Y022144D01*
X009425Y022074D01*
X009425Y021934D01*
X009885Y021934D02*
X010025Y021934D01*
X009885Y021934D02*
X009885Y021793D01*
X009955Y021723D01*
X010095Y021723D01*
X010165Y021793D01*
X010165Y022074D01*
X010095Y022144D01*
X009955Y022144D01*
X009885Y022074D01*
X009955Y021144D02*
X010095Y021144D01*
X010165Y021074D01*
X010165Y020793D01*
X010095Y020723D01*
X009955Y020723D01*
X009885Y020793D01*
X009885Y020934D01*
X010025Y020934D01*
X009885Y021074D02*
X009955Y021144D01*
X009705Y021144D02*
X009705Y020723D01*
X009705Y020863D02*
X009495Y020863D01*
X009425Y020934D01*
X009425Y021074D01*
X009495Y021144D01*
X009705Y021144D01*
X009244Y021144D02*
X009104Y021144D01*
X009174Y021144D02*
X009174Y020723D01*
X009244Y020723D02*
X009104Y020723D01*
X008937Y020793D02*
X008937Y021074D01*
X008867Y021144D01*
X008727Y021144D01*
X008657Y021074D01*
X008657Y020793D01*
X008727Y020723D01*
X008867Y020723D01*
X008937Y020793D01*
X008477Y020723D02*
X008197Y020723D01*
X008337Y020723D02*
X008337Y021144D01*
X008477Y021004D01*
X008017Y021074D02*
X007947Y021144D01*
X007806Y021144D01*
X007736Y021074D01*
X007736Y021004D01*
X007806Y020934D01*
X007736Y020863D01*
X007736Y020793D01*
X007806Y020723D01*
X007947Y020723D01*
X008017Y020793D01*
X007877Y020934D02*
X007806Y020934D01*
X007877Y020144D02*
X007877Y019723D01*
X008017Y019723D02*
X007736Y019723D01*
X008017Y020004D02*
X007877Y020144D01*
X008337Y020144D02*
X008337Y019723D01*
X008477Y019723D02*
X008197Y019723D01*
X008477Y020004D02*
X008337Y020144D01*
X008657Y020074D02*
X008657Y019793D01*
X008727Y019723D01*
X008867Y019723D01*
X008937Y019793D01*
X008937Y020074D01*
X008867Y020144D01*
X008727Y020144D01*
X008657Y020074D01*
X009104Y020144D02*
X009244Y020144D01*
X009174Y020144D02*
X009174Y019723D01*
X009244Y019723D02*
X009104Y019723D01*
X009425Y019934D02*
X009495Y019863D01*
X009705Y019863D01*
X009705Y019723D02*
X009705Y020144D01*
X009495Y020144D01*
X009425Y020074D01*
X009425Y019934D01*
X009885Y019934D02*
X010025Y019934D01*
X009885Y019934D02*
X009885Y019793D01*
X009955Y019723D01*
X010095Y019723D01*
X010165Y019793D01*
X010165Y020074D01*
X010095Y020144D01*
X009955Y020144D01*
X009885Y020074D01*
X009955Y019144D02*
X010095Y019144D01*
X010165Y019074D01*
X010165Y018793D01*
X010095Y018723D01*
X009955Y018723D01*
X009885Y018793D01*
X009885Y018934D01*
X010025Y018934D01*
X009885Y019074D02*
X009955Y019144D01*
X009705Y019144D02*
X009705Y018723D01*
X009705Y018863D02*
X009495Y018863D01*
X009425Y018934D01*
X009425Y019074D01*
X009495Y019144D01*
X009705Y019144D01*
X009244Y019144D02*
X009104Y019144D01*
X009174Y019144D02*
X009174Y018723D01*
X009244Y018723D02*
X009104Y018723D01*
X008937Y018793D02*
X008937Y019074D01*
X008867Y019144D01*
X008727Y019144D01*
X008657Y019074D01*
X008657Y018793D01*
X008727Y018723D01*
X008867Y018723D01*
X008937Y018793D01*
X008477Y018723D02*
X008197Y018723D01*
X008337Y018723D02*
X008337Y019144D01*
X008477Y019004D01*
X008017Y019074D02*
X008017Y018793D01*
X007736Y019074D01*
X007736Y018793D01*
X007806Y018723D01*
X007947Y018723D01*
X008017Y018793D01*
X008017Y019074D02*
X007947Y019144D01*
X007806Y019144D01*
X007736Y019074D01*
X007817Y018144D02*
X007747Y018074D01*
X007747Y017793D01*
X007817Y017723D01*
X007957Y017723D01*
X008027Y017793D01*
X007957Y017934D02*
X007747Y017934D01*
X007957Y017934D02*
X008027Y018004D01*
X008027Y018074D01*
X007957Y018144D01*
X007817Y018144D01*
X008207Y018074D02*
X008207Y017793D01*
X008277Y017723D01*
X008417Y017723D01*
X008487Y017793D01*
X008487Y018074D01*
X008417Y018144D01*
X008277Y018144D01*
X008207Y018074D01*
X008654Y018144D02*
X008794Y018144D01*
X008724Y018144D02*
X008724Y017723D01*
X008794Y017723D02*
X008654Y017723D01*
X008975Y017934D02*
X008975Y018074D01*
X009045Y018144D01*
X009255Y018144D01*
X009255Y017723D01*
X009255Y017863D02*
X009045Y017863D01*
X008975Y017934D01*
X009435Y017934D02*
X009575Y017934D01*
X009435Y017934D02*
X009435Y017793D01*
X009505Y017723D01*
X009645Y017723D01*
X009715Y017793D01*
X009715Y018074D01*
X009645Y018144D01*
X009505Y018144D01*
X009435Y018074D01*
X009335Y017144D02*
X009195Y017144D01*
X009125Y017074D01*
X009195Y016934D02*
X009125Y016863D01*
X009125Y016793D01*
X009195Y016723D01*
X009335Y016723D01*
X009405Y016793D01*
X009335Y016934D02*
X009195Y016934D01*
X009335Y016934D02*
X009405Y017004D01*
X009405Y017074D01*
X009335Y017144D01*
X009585Y017144D02*
X009585Y016793D01*
X009655Y016723D01*
X009795Y016723D01*
X009865Y016793D01*
X009865Y017144D01*
X008944Y017144D02*
X008944Y016723D01*
X008734Y016723D01*
X008664Y016793D01*
X008664Y016863D01*
X008734Y016934D01*
X008944Y016934D01*
X008944Y017144D02*
X008734Y017144D01*
X008664Y017074D01*
X008664Y017004D01*
X008734Y016934D01*
X008484Y017144D02*
X008484Y016723D01*
X008274Y016723D01*
X008204Y016793D01*
X008204Y017074D01*
X008274Y017144D01*
X008484Y017144D01*
X008024Y016934D02*
X007743Y016934D01*
X007883Y016074D02*
X007883Y015793D01*
X007743Y015934D02*
X008024Y015934D01*
X008204Y016074D02*
X008274Y016144D01*
X008484Y016144D01*
X008484Y015723D01*
X008274Y015723D01*
X008204Y015793D01*
X008204Y016074D01*
X008664Y016074D02*
X008664Y016004D01*
X008734Y015934D01*
X008944Y015934D01*
X009125Y015863D02*
X009125Y015793D01*
X009195Y015723D01*
X009335Y015723D01*
X009405Y015793D01*
X009335Y015934D02*
X009195Y015934D01*
X009125Y015863D01*
X009125Y016074D02*
X009195Y016144D01*
X009335Y016144D01*
X009405Y016074D01*
X009405Y016004D01*
X009335Y015934D01*
X009585Y015793D02*
X009585Y016144D01*
X009865Y016144D02*
X009865Y015793D01*
X009795Y015723D01*
X009655Y015723D01*
X009585Y015793D01*
X009604Y015144D02*
X009884Y015144D01*
X009744Y015144D02*
X009744Y014723D01*
X009424Y014653D02*
X009143Y014653D01*
X008963Y014723D02*
X008963Y015144D01*
X008753Y015144D01*
X008683Y015074D01*
X008683Y014934D01*
X008753Y014863D01*
X008963Y014863D01*
X008823Y014863D02*
X008683Y014723D01*
X008363Y014723D02*
X008363Y015144D01*
X008503Y015144D02*
X008223Y015144D01*
X008042Y015074D02*
X008042Y015004D01*
X007972Y014934D01*
X007832Y014934D01*
X007762Y014863D01*
X007762Y014793D01*
X007832Y014723D01*
X007972Y014723D01*
X008042Y014793D01*
X008042Y015074D02*
X007972Y015144D01*
X007832Y015144D01*
X007762Y015074D01*
X007832Y014144D02*
X007762Y014074D01*
X007832Y014144D02*
X007972Y014144D01*
X008042Y014074D01*
X008042Y014004D01*
X007972Y013934D01*
X007832Y013934D01*
X007762Y013863D01*
X007762Y013793D01*
X007832Y013723D01*
X007972Y013723D01*
X008042Y013793D01*
X008223Y014144D02*
X008503Y014144D01*
X008363Y014144D02*
X008363Y013723D01*
X008683Y013793D02*
X008753Y013723D01*
X008893Y013723D01*
X008963Y013793D01*
X008963Y014074D01*
X008893Y014144D01*
X008753Y014144D01*
X008683Y014074D01*
X009143Y013653D02*
X009424Y013653D01*
X009744Y013723D02*
X009744Y014144D01*
X009884Y014144D02*
X009604Y014144D01*
X010064Y014074D02*
X010064Y013934D01*
X010134Y013863D01*
X010344Y013863D01*
X010344Y013723D02*
X010344Y014144D01*
X010134Y014144D01*
X010064Y014074D01*
X010204Y013863D02*
X010064Y013723D01*
X010525Y013723D02*
X010525Y014004D01*
X010665Y014144D01*
X010805Y014004D01*
X010805Y013723D01*
X010985Y013793D02*
X010985Y014144D01*
X010805Y013934D02*
X010525Y013934D01*
X010985Y013793D02*
X011055Y013723D01*
X011195Y013723D01*
X011265Y013793D01*
X011265Y014144D01*
X011195Y014723D02*
X011055Y014723D01*
X010985Y014793D01*
X010985Y015144D01*
X010805Y015004D02*
X010665Y015144D01*
X010525Y015004D01*
X010525Y014723D01*
X010344Y014723D02*
X010344Y015144D01*
X010134Y015144D01*
X010064Y015074D01*
X010064Y014934D01*
X010134Y014863D01*
X010344Y014863D01*
X010204Y014863D02*
X010064Y014723D01*
X010525Y014934D02*
X010805Y014934D01*
X010805Y015004D02*
X010805Y014723D01*
X011195Y014723D02*
X011265Y014793D01*
X011265Y015144D01*
X012456Y015723D02*
X012596Y015723D01*
X012526Y015723D02*
X012526Y016144D01*
X012596Y016144D02*
X012456Y016144D01*
X012776Y016074D02*
X012846Y016144D01*
X012986Y016144D01*
X013056Y016074D01*
X013056Y016004D01*
X012986Y015934D01*
X012846Y015934D01*
X012776Y015863D01*
X012776Y015793D01*
X012846Y015723D01*
X012986Y015723D01*
X013056Y015793D01*
X013236Y015793D02*
X013236Y016074D01*
X013306Y016144D01*
X013447Y016144D01*
X013517Y016074D01*
X013517Y015793D01*
X013447Y015723D01*
X013306Y015723D01*
X013236Y015793D01*
X013697Y015723D02*
X013697Y016144D01*
X013837Y016004D01*
X013977Y016144D01*
X013977Y015723D01*
X014157Y015653D02*
X014437Y015653D01*
X014604Y015723D02*
X014744Y015723D01*
X014674Y015723D02*
X014674Y016144D01*
X014744Y016144D02*
X014604Y016144D01*
X014925Y016074D02*
X014925Y015934D01*
X014995Y015863D01*
X015205Y015863D01*
X015205Y015723D02*
X015205Y016144D01*
X014995Y016144D01*
X014925Y016074D01*
X015385Y016074D02*
X015455Y016144D01*
X015595Y016144D01*
X015665Y016074D01*
X015665Y016004D01*
X015595Y015934D01*
X015455Y015934D01*
X015385Y015863D01*
X015385Y015793D01*
X015455Y015723D01*
X015595Y015723D01*
X015665Y015793D01*
X015595Y015144D02*
X015665Y015074D01*
X015665Y015004D01*
X015595Y014934D01*
X015455Y014934D01*
X015385Y014863D01*
X015385Y014793D01*
X015455Y014723D01*
X015595Y014723D01*
X015665Y014793D01*
X015385Y015074D02*
X015455Y015144D01*
X015595Y015144D01*
X015205Y015144D02*
X014995Y015144D01*
X014925Y015074D01*
X014925Y014934D01*
X014995Y014863D01*
X015205Y014863D01*
X015205Y014723D02*
X015205Y015144D01*
X014744Y015144D02*
X014604Y015144D01*
X014674Y015144D02*
X014674Y014723D01*
X014744Y014723D02*
X014604Y014723D01*
X014437Y014653D02*
X014157Y014653D01*
X013977Y014793D02*
X013907Y014723D01*
X013767Y014723D01*
X013697Y014793D01*
X013517Y014723D02*
X013236Y014723D01*
X013056Y014723D02*
X013056Y015144D01*
X012986Y014934D02*
X012776Y014723D01*
X013056Y014863D02*
X012776Y015144D01*
X013517Y015144D02*
X013517Y014723D01*
X013697Y015074D02*
X013767Y015144D01*
X013907Y015144D01*
X013977Y015074D01*
X013977Y014793D01*
X013977Y014144D02*
X013837Y014004D01*
X013697Y014144D01*
X013697Y013723D01*
X013517Y013723D02*
X013377Y013723D01*
X013447Y013723D02*
X013447Y014144D01*
X013517Y014144D02*
X013377Y014144D01*
X013210Y014074D02*
X013210Y014004D01*
X013140Y013934D01*
X013000Y013934D01*
X012929Y013863D01*
X012929Y013793D01*
X013000Y013723D01*
X013140Y013723D01*
X013210Y013793D01*
X013210Y014074D02*
X013140Y014144D01*
X013000Y014144D01*
X012929Y014074D01*
X012749Y014074D02*
X012749Y013793D01*
X012679Y013723D01*
X012539Y013723D01*
X012469Y013793D01*
X012469Y014074D01*
X012539Y014144D01*
X012679Y014144D01*
X012749Y014074D01*
X013306Y013144D02*
X013447Y013144D01*
X013517Y013074D01*
X013517Y013004D01*
X013447Y012934D01*
X013306Y012934D01*
X013236Y012863D01*
X013236Y012793D01*
X013306Y012723D01*
X013447Y012723D01*
X013517Y012793D01*
X013697Y012793D02*
X013767Y012723D01*
X013907Y012723D01*
X013977Y012793D01*
X013907Y012934D02*
X013977Y013004D01*
X013977Y013074D01*
X013907Y013144D01*
X013767Y013144D01*
X013697Y013074D01*
X013767Y012934D02*
X013697Y012863D01*
X013697Y012793D01*
X013767Y012934D02*
X013907Y012934D01*
X014157Y012653D02*
X014437Y012653D01*
X014604Y012723D02*
X014744Y012723D01*
X014674Y012723D02*
X014674Y013144D01*
X014744Y013144D02*
X014604Y013144D01*
X014925Y013074D02*
X014925Y012934D01*
X014995Y012863D01*
X015205Y012863D01*
X015205Y012723D02*
X015205Y013144D01*
X014995Y013144D01*
X014925Y013074D01*
X015385Y013074D02*
X015455Y013144D01*
X015595Y013144D01*
X015665Y013074D01*
X015665Y013004D01*
X015595Y012934D01*
X015455Y012934D01*
X015385Y012863D01*
X015385Y012793D01*
X015455Y012723D01*
X015595Y012723D01*
X015665Y012793D01*
X015665Y012144D02*
X015455Y012144D01*
X015385Y012074D01*
X015385Y011934D01*
X015455Y011863D01*
X015665Y011863D01*
X015665Y011723D02*
X015665Y012144D01*
X015205Y012074D02*
X015205Y011793D01*
X015135Y011723D01*
X014995Y011723D01*
X014925Y011793D01*
X014744Y011723D02*
X014744Y012144D01*
X014604Y012004D01*
X014464Y012144D01*
X014464Y011723D01*
X014284Y011653D02*
X014004Y011653D01*
X013824Y011793D02*
X013824Y012074D01*
X013754Y012144D01*
X013613Y012144D01*
X013543Y012074D01*
X013363Y012144D02*
X013363Y011723D01*
X013083Y011723D01*
X012903Y011723D02*
X012903Y012144D01*
X012833Y011934D02*
X012623Y011723D01*
X012903Y011863D02*
X012623Y012144D01*
X012623Y011144D02*
X012623Y010723D01*
X012903Y011144D01*
X012903Y010723D01*
X013223Y010723D02*
X013223Y010934D01*
X013083Y011074D01*
X013083Y011144D01*
X013223Y010934D02*
X013363Y011074D01*
X013363Y011144D01*
X013543Y011074D02*
X013613Y011144D01*
X013754Y011144D01*
X013824Y011074D01*
X013824Y011004D01*
X013754Y010934D01*
X013613Y010934D01*
X013543Y010863D01*
X013543Y010793D01*
X013613Y010723D01*
X013754Y010723D01*
X013824Y010793D01*
X014004Y010653D02*
X014284Y010653D01*
X014464Y010723D02*
X014464Y011144D01*
X014604Y011004D01*
X014744Y011144D01*
X014744Y010723D01*
X014925Y010793D02*
X014995Y010723D01*
X015135Y010723D01*
X015205Y010793D01*
X015205Y011074D01*
X015135Y011144D01*
X014995Y011144D01*
X014925Y011074D01*
X015385Y011074D02*
X015385Y010934D01*
X015455Y010863D01*
X015665Y010863D01*
X015665Y010723D02*
X015665Y011144D01*
X015455Y011144D01*
X015385Y011074D01*
X015205Y012074D02*
X015135Y012144D01*
X014995Y012144D01*
X014925Y012074D01*
X013824Y011793D02*
X013754Y011723D01*
X013613Y011723D01*
X013543Y011793D01*
X012442Y011074D02*
X012442Y010793D01*
X012372Y010723D01*
X012232Y010723D01*
X012162Y010793D01*
X012162Y011074D02*
X012232Y011144D01*
X012372Y011144D01*
X012442Y011074D01*
X012623Y010144D02*
X012903Y010144D01*
X012763Y010144D02*
X012763Y009723D01*
X013083Y009793D02*
X013083Y010144D01*
X013363Y010144D02*
X013363Y009793D01*
X013293Y009723D01*
X013153Y009723D01*
X013083Y009793D01*
X013543Y009793D02*
X013543Y010074D01*
X013613Y010144D01*
X013754Y010144D01*
X013824Y010074D01*
X013824Y009793D01*
X013754Y009723D01*
X013613Y009723D01*
X013543Y009793D01*
X014004Y009653D02*
X014284Y009653D01*
X014464Y009723D02*
X014464Y010144D01*
X014604Y010004D01*
X014744Y010144D01*
X014744Y009723D01*
X014925Y009793D02*
X014995Y009723D01*
X015135Y009723D01*
X015205Y009793D01*
X015205Y010074D01*
X015135Y010144D01*
X014995Y010144D01*
X014925Y010074D01*
X015385Y010074D02*
X015385Y009934D01*
X015455Y009863D01*
X015665Y009863D01*
X015665Y009723D02*
X015665Y010144D01*
X015455Y010144D01*
X015385Y010074D01*
X015455Y009144D02*
X015385Y009074D01*
X015385Y008934D01*
X015455Y008863D01*
X015665Y008863D01*
X015665Y008723D02*
X015665Y009144D01*
X015455Y009144D01*
X015205Y009074D02*
X015205Y008793D01*
X015135Y008723D01*
X014995Y008723D01*
X014925Y008793D01*
X014744Y008723D02*
X014744Y009144D01*
X014604Y009004D01*
X014464Y009144D01*
X014464Y008723D01*
X014284Y008653D02*
X014004Y008653D01*
X013824Y008723D02*
X013683Y008723D01*
X013754Y008723D02*
X013754Y009144D01*
X013824Y009144D02*
X013683Y009144D01*
X013517Y009144D02*
X013517Y008723D01*
X013236Y008723D02*
X013236Y009144D01*
X013517Y009144D02*
X013236Y008723D01*
X014464Y008074D02*
X014464Y007793D01*
X014534Y007723D01*
X014744Y007723D01*
X014744Y008144D01*
X014534Y008144D01*
X014464Y008074D01*
X014925Y008144D02*
X014925Y007723D01*
X015205Y008144D01*
X015205Y007723D01*
X015385Y007793D02*
X015385Y007934D01*
X015525Y007934D01*
X015385Y008074D02*
X015455Y008144D01*
X015595Y008144D01*
X015665Y008074D01*
X015665Y007793D01*
X015595Y007723D01*
X015455Y007723D01*
X015385Y007793D01*
X015705Y007333D02*
X016705Y007333D01*
X016705Y027333D01*
X015705Y027333D01*
X015705Y007333D01*
X015205Y009074D02*
X015135Y009144D01*
X014995Y009144D01*
X014925Y009074D01*
X013236Y013074D02*
X013306Y013144D01*
X013977Y013723D02*
X013977Y014144D01*
X014157Y013653D02*
X014437Y013653D01*
X014604Y013723D02*
X014744Y013723D01*
X014674Y013723D02*
X014674Y014144D01*
X014744Y014144D02*
X014604Y014144D01*
X014925Y014074D02*
X014925Y013934D01*
X014995Y013863D01*
X015205Y013863D01*
X015205Y013723D02*
X015205Y014144D01*
X014995Y014144D01*
X014925Y014074D01*
X015385Y014074D02*
X015455Y014144D01*
X015595Y014144D01*
X015665Y014074D01*
X015665Y014004D01*
X015595Y013934D01*
X015455Y013934D01*
X015385Y013863D01*
X015385Y013793D01*
X015455Y013723D01*
X015595Y013723D01*
X015665Y013793D01*
X015665Y016723D02*
X015385Y016723D01*
X015205Y016723D02*
X014925Y016723D01*
X014744Y016723D02*
X014534Y016723D01*
X014464Y016793D01*
X014464Y017074D01*
X014534Y017144D01*
X014744Y017144D01*
X014744Y016723D01*
X015065Y016934D02*
X015205Y016934D01*
X015205Y017144D02*
X014925Y017144D01*
X015205Y017144D02*
X015205Y016723D01*
X015665Y016723D02*
X015665Y017144D01*
X015665Y017723D02*
X015385Y017723D01*
X015205Y017723D02*
X015205Y018144D01*
X014925Y018144D01*
X014744Y018144D02*
X014744Y017723D01*
X014534Y017723D01*
X014464Y017793D01*
X014464Y018074D01*
X014534Y018144D01*
X014744Y018144D01*
X015065Y017934D02*
X015205Y017934D01*
X015205Y017723D02*
X014925Y017723D01*
X014284Y017793D02*
X014004Y018074D01*
X014004Y017793D01*
X014074Y017723D01*
X014214Y017723D01*
X014284Y017793D01*
X014284Y018074D01*
X014214Y018144D01*
X014074Y018144D01*
X014004Y018074D01*
X014157Y018653D02*
X014437Y018653D01*
X014618Y018793D02*
X014688Y018723D01*
X014828Y018723D01*
X014898Y018793D01*
X014898Y019074D01*
X014828Y019144D01*
X014688Y019144D01*
X014618Y019074D01*
X015065Y019144D02*
X015205Y019144D01*
X015135Y019144D02*
X015135Y018723D01*
X015205Y018723D02*
X015065Y018723D01*
X015385Y018723D02*
X015385Y019144D01*
X015525Y019004D01*
X015665Y019144D01*
X015665Y018723D01*
X015665Y018144D02*
X015665Y017723D01*
X014284Y017004D02*
X014144Y017144D01*
X014144Y016723D01*
X014284Y016723D02*
X014004Y016723D01*
X013977Y018723D02*
X013767Y018723D01*
X013697Y018793D01*
X013697Y018863D01*
X013767Y018934D01*
X013977Y018934D01*
X013977Y019144D02*
X013767Y019144D01*
X013697Y019074D01*
X013697Y019004D01*
X013767Y018934D01*
X013977Y019144D02*
X013977Y018723D01*
X013517Y018723D02*
X013377Y018723D01*
X013447Y018723D02*
X013447Y019144D01*
X013517Y019144D02*
X013377Y019144D01*
X013210Y019004D02*
X013070Y019144D01*
X012929Y019004D01*
X012929Y018723D01*
X012749Y018793D02*
X012679Y018723D01*
X012539Y018723D01*
X012469Y018793D01*
X012469Y018863D01*
X012539Y018934D01*
X012679Y018934D01*
X012749Y019004D01*
X012749Y019074D01*
X012679Y019144D01*
X012539Y019144D01*
X012469Y019074D01*
X012929Y018934D02*
X013210Y018934D01*
X013210Y019004D02*
X013210Y018723D01*
X013697Y019723D02*
X013977Y019723D01*
X013977Y020144D01*
X013517Y019934D02*
X013236Y019934D01*
X013377Y020074D02*
X013377Y019793D01*
X014157Y019653D02*
X014437Y019653D01*
X014618Y019793D02*
X014688Y019723D01*
X014828Y019723D01*
X014898Y019793D01*
X014898Y020074D01*
X014828Y020144D01*
X014688Y020144D01*
X014618Y020074D01*
X015065Y020144D02*
X015205Y020144D01*
X015135Y020144D02*
X015135Y019723D01*
X015205Y019723D02*
X015065Y019723D01*
X015385Y019723D02*
X015385Y020144D01*
X015525Y020004D01*
X015665Y020144D01*
X015665Y019723D01*
X015665Y020723D02*
X015665Y021144D01*
X015525Y021004D01*
X015385Y021144D01*
X015385Y020723D01*
X015205Y020723D02*
X015065Y020723D01*
X015135Y020723D02*
X015135Y021144D01*
X015205Y021144D02*
X015065Y021144D01*
X014898Y021074D02*
X014898Y020793D01*
X014828Y020723D01*
X014688Y020723D01*
X014618Y020793D01*
X014437Y020653D02*
X014157Y020653D01*
X013977Y020723D02*
X013977Y021144D01*
X013767Y021144D01*
X013697Y021074D01*
X013697Y020934D01*
X013767Y020863D01*
X013977Y020863D01*
X013837Y020863D02*
X013697Y020723D01*
X013517Y020934D02*
X013236Y020934D01*
X013377Y021074D02*
X013377Y020793D01*
X013697Y021723D02*
X013977Y021723D01*
X013977Y022144D01*
X013517Y021934D02*
X013236Y021934D01*
X013697Y022723D02*
X013837Y022863D01*
X013767Y022863D02*
X013977Y022863D01*
X013977Y022723D02*
X013977Y023144D01*
X013767Y023144D01*
X013697Y023074D01*
X013697Y022934D01*
X013767Y022863D01*
X013517Y022934D02*
X013236Y022934D01*
X013543Y023723D02*
X013683Y023863D01*
X013613Y023863D02*
X013824Y023863D01*
X013824Y023723D02*
X013824Y024144D01*
X013613Y024144D01*
X013543Y024074D01*
X013543Y023934D01*
X013613Y023863D01*
X013363Y023934D02*
X013083Y023934D01*
X013543Y024723D02*
X013824Y024723D01*
X013824Y025144D01*
X013363Y024934D02*
X013083Y024934D01*
X013223Y025793D02*
X013223Y026074D01*
X013363Y025934D02*
X013083Y025934D01*
X013543Y025934D02*
X013613Y025863D01*
X013824Y025863D01*
X013824Y025723D02*
X013824Y026144D01*
X013613Y026144D01*
X013543Y026074D01*
X013543Y025934D01*
X013683Y025863D02*
X013543Y025723D01*
X014004Y025653D02*
X014284Y025653D01*
X014464Y025723D02*
X014674Y025934D01*
X014744Y025863D02*
X014464Y026144D01*
X014744Y026144D02*
X014744Y025723D01*
X014925Y025934D02*
X014995Y025863D01*
X015205Y025863D01*
X015205Y025723D02*
X015205Y026144D01*
X014995Y026144D01*
X014925Y026074D01*
X014925Y025934D01*
X015385Y025863D02*
X015385Y025793D01*
X015455Y025723D01*
X015595Y025723D01*
X015665Y025793D01*
X015595Y025934D02*
X015455Y025934D01*
X015385Y025863D01*
X015385Y026074D02*
X015455Y026144D01*
X015595Y026144D01*
X015665Y026074D01*
X015665Y026004D01*
X015595Y025934D01*
X015595Y026723D02*
X015665Y026793D01*
X015595Y026723D02*
X015455Y026723D01*
X015385Y026793D01*
X015385Y026863D01*
X015455Y026934D01*
X015595Y026934D01*
X015665Y027004D01*
X015665Y027074D01*
X015595Y027144D01*
X015455Y027144D01*
X015385Y027074D01*
X015205Y027144D02*
X015205Y026723D01*
X015205Y026863D02*
X014995Y026863D01*
X014925Y026934D01*
X014925Y027074D01*
X014995Y027144D01*
X015205Y027144D01*
X014744Y027144D02*
X014744Y026723D01*
X014744Y026863D02*
X014464Y027144D01*
X014674Y026934D02*
X014464Y026723D01*
X014284Y026653D02*
X014004Y026653D01*
X013824Y026723D02*
X013543Y026723D01*
X013363Y026934D02*
X013083Y026934D01*
X013223Y027074D02*
X013223Y026793D01*
X013824Y026723D02*
X013824Y027144D01*
X014464Y025144D02*
X014744Y024863D01*
X014674Y024934D02*
X014464Y024723D01*
X014284Y024653D02*
X014004Y024653D01*
X014464Y024144D02*
X014744Y023863D01*
X014674Y023934D02*
X014464Y023723D01*
X014284Y023653D02*
X014004Y023653D01*
X014618Y023074D02*
X014688Y023144D01*
X014828Y023144D01*
X014898Y023074D01*
X014898Y022793D01*
X014828Y022723D01*
X014688Y022723D01*
X014618Y022793D01*
X014437Y022653D02*
X014157Y022653D01*
X014688Y022144D02*
X014618Y022074D01*
X014688Y022144D02*
X014828Y022144D01*
X014898Y022074D01*
X014898Y021793D01*
X014828Y021723D01*
X014688Y021723D01*
X014618Y021793D01*
X014437Y021653D02*
X014157Y021653D01*
X014688Y021144D02*
X014618Y021074D01*
X014688Y021144D02*
X014828Y021144D01*
X014898Y021074D01*
X015065Y021723D02*
X015205Y021723D01*
X015135Y021723D02*
X015135Y022144D01*
X015205Y022144D02*
X015065Y022144D01*
X015385Y022144D02*
X015385Y021723D01*
X015665Y021723D02*
X015665Y022144D01*
X015525Y022004D01*
X015385Y022144D01*
X015385Y022723D02*
X015385Y023144D01*
X015525Y023004D01*
X015665Y023144D01*
X015665Y022723D01*
X015205Y022723D02*
X015065Y022723D01*
X015135Y022723D02*
X015135Y023144D01*
X015205Y023144D02*
X015065Y023144D01*
X015205Y023723D02*
X015205Y024144D01*
X014995Y024144D01*
X014925Y024074D01*
X014925Y023934D01*
X014995Y023863D01*
X015205Y023863D01*
X015385Y023863D02*
X015385Y023793D01*
X015455Y023723D01*
X015595Y023723D01*
X015665Y023793D01*
X015595Y023934D02*
X015665Y024004D01*
X015665Y024074D01*
X015595Y024144D01*
X015455Y024144D01*
X015385Y024074D01*
X015455Y023934D02*
X015385Y023863D01*
X015455Y023934D02*
X015595Y023934D01*
X015595Y024723D02*
X015665Y024793D01*
X015595Y024723D02*
X015455Y024723D01*
X015385Y024793D01*
X015385Y024863D01*
X015455Y024934D01*
X015595Y024934D01*
X015665Y025004D01*
X015665Y025074D01*
X015595Y025144D01*
X015455Y025144D01*
X015385Y025074D01*
X015205Y025144D02*
X015205Y024723D01*
X015205Y024863D02*
X014995Y024863D01*
X014925Y024934D01*
X014925Y025074D01*
X014995Y025144D01*
X015205Y025144D01*
X014744Y025144D02*
X014744Y024723D01*
X014744Y024144D02*
X014744Y023723D01*
X009715Y024723D02*
X009715Y025004D01*
X009575Y025144D01*
X009715Y024934D02*
X009435Y024934D01*
X009255Y024793D02*
X009185Y024723D01*
X009045Y024723D01*
X008975Y024793D01*
X008794Y026723D02*
X008654Y026723D01*
X008724Y026723D02*
X008724Y027144D01*
X008794Y027144D02*
X008654Y027144D01*
X008975Y027074D02*
X008975Y026934D01*
X009045Y026863D01*
X009255Y026863D01*
X009255Y026723D02*
X009255Y027144D01*
X009045Y027144D01*
X008975Y027074D01*
X009435Y027074D02*
X009505Y027144D01*
X009645Y027144D01*
X009715Y027074D01*
X009715Y026793D01*
X009645Y026723D01*
X009505Y026723D01*
X009435Y026793D01*
X009435Y026934D01*
X009575Y026934D01*
X008944Y016144D02*
X008734Y016144D01*
X008664Y016074D01*
X008734Y015934D02*
X008664Y015863D01*
X008664Y015793D01*
X008734Y015723D01*
X008944Y015723D01*
X008944Y016144D01*
X009154Y013144D02*
X009434Y013144D01*
X009294Y013144D02*
X009294Y012723D01*
X009614Y012723D02*
X009754Y012863D01*
X009684Y012863D02*
X009894Y012863D01*
X009894Y012723D02*
X009894Y013144D01*
X009684Y013144D01*
X009614Y013074D01*
X009614Y012934D01*
X009684Y012863D01*
X010075Y012934D02*
X010355Y012934D01*
X010355Y013004D02*
X010215Y013144D01*
X010075Y013004D01*
X010075Y012723D01*
X010355Y012723D02*
X010355Y013004D01*
X010535Y013144D02*
X010535Y012793D01*
X010605Y012723D01*
X010745Y012723D01*
X010815Y012793D01*
X010815Y013144D01*
X010765Y012144D02*
X010765Y011793D01*
X010695Y011723D01*
X010555Y011723D01*
X010485Y011793D01*
X010485Y012144D01*
X010305Y012004D02*
X010165Y012144D01*
X010025Y012004D01*
X010025Y011723D01*
X009844Y011723D02*
X009844Y012144D01*
X009634Y012144D01*
X009564Y012074D01*
X009564Y011934D01*
X009634Y011863D01*
X009844Y011863D01*
X009704Y011863D02*
X009564Y011723D01*
X009384Y012144D02*
X009104Y012144D01*
X009244Y012144D02*
X009244Y011723D01*
X008924Y011653D02*
X008643Y011653D01*
X008463Y011723D02*
X008463Y012144D01*
X008253Y012144D01*
X008183Y012074D01*
X008183Y011934D01*
X008253Y011863D01*
X008463Y011863D01*
X008323Y011863D02*
X008183Y011723D01*
X008003Y011723D02*
X007723Y012144D01*
X008003Y012144D02*
X007723Y011723D01*
X007697Y011144D02*
X007697Y011074D01*
X007977Y010793D01*
X007977Y010723D01*
X008157Y010793D02*
X008157Y011074D01*
X008227Y011144D01*
X008367Y011144D01*
X008437Y011074D01*
X008437Y010793D01*
X008367Y010723D01*
X008227Y010723D01*
X008157Y010793D01*
X007977Y011144D02*
X007697Y011144D01*
X008604Y011144D02*
X008744Y011144D01*
X008674Y011144D02*
X008674Y010723D01*
X008744Y010723D02*
X008604Y010723D01*
X008925Y010934D02*
X008995Y010863D01*
X009205Y010863D01*
X009205Y010723D02*
X009205Y011144D01*
X008995Y011144D01*
X008925Y011074D01*
X008925Y010934D01*
X009385Y010934D02*
X009525Y010934D01*
X009385Y010934D02*
X009385Y010793D01*
X009455Y010723D01*
X009595Y010723D01*
X009665Y010793D01*
X009665Y011074D01*
X009595Y011144D01*
X009455Y011144D01*
X009385Y011074D01*
X010025Y011934D02*
X010305Y011934D01*
X010305Y012004D02*
X010305Y011723D01*
X008974Y012653D02*
X008693Y012653D01*
X008373Y012723D02*
X008373Y013144D01*
X008513Y013144D02*
X008233Y013144D01*
X008053Y013144D02*
X007773Y012723D01*
X008053Y012723D02*
X007773Y013144D01*
X007697Y010144D02*
X007837Y010074D01*
X007977Y009934D01*
X007767Y009934D01*
X007697Y009863D01*
X007697Y009793D01*
X007767Y009723D01*
X007907Y009723D01*
X007977Y009793D01*
X007977Y009934D01*
X008157Y009793D02*
X008157Y010074D01*
X008227Y010144D01*
X008367Y010144D01*
X008437Y010074D01*
X008437Y009793D01*
X008367Y009723D01*
X008227Y009723D01*
X008157Y009793D01*
X008604Y009723D02*
X008744Y009723D01*
X008674Y009723D02*
X008674Y010144D01*
X008744Y010144D02*
X008604Y010144D01*
X008925Y010074D02*
X008925Y009934D01*
X008995Y009863D01*
X009205Y009863D01*
X009205Y009723D02*
X009205Y010144D01*
X008995Y010144D01*
X008925Y010074D01*
X009385Y010074D02*
X009455Y010144D01*
X009595Y010144D01*
X009665Y010074D01*
X009665Y009793D01*
X009595Y009723D01*
X009455Y009723D01*
X009385Y009793D01*
X009385Y009934D01*
X009525Y009934D01*
X009605Y009144D02*
X009535Y009074D01*
X009535Y008934D01*
X009605Y008863D01*
X009815Y008863D01*
X009815Y008723D02*
X009815Y009144D01*
X009605Y009144D01*
X009355Y009144D02*
X009355Y008723D01*
X009215Y008863D01*
X009075Y008723D01*
X009075Y009144D01*
X008894Y009144D02*
X008894Y008723D01*
X008894Y008863D02*
X008684Y008863D01*
X008614Y008934D01*
X008614Y009074D01*
X008684Y009144D01*
X008894Y009144D01*
X008754Y008863D02*
X008614Y008723D01*
X008434Y008723D02*
X008434Y009144D01*
X008154Y009144D01*
X007974Y009144D02*
X007974Y008723D01*
X008154Y008723D02*
X008434Y008723D01*
X008434Y008934D02*
X008294Y008934D01*
X007974Y009144D02*
X007693Y008723D01*
X007693Y009144D01*
X007784Y008144D02*
X007714Y008074D01*
X007714Y008004D01*
X007784Y007934D01*
X007714Y007863D01*
X007714Y007793D01*
X007784Y007723D01*
X007924Y007723D01*
X007994Y007793D01*
X008175Y007863D02*
X008175Y008144D01*
X007994Y008074D02*
X007924Y008144D01*
X007784Y008144D01*
X007784Y007934D02*
X007854Y007934D01*
X008175Y007863D02*
X008315Y007723D01*
X008455Y007863D01*
X008455Y008144D01*
X008635Y008074D02*
X008635Y008004D01*
X008705Y007934D01*
X008635Y007863D01*
X008635Y007793D01*
X008705Y007723D01*
X008845Y007723D01*
X008915Y007793D01*
X008775Y007934D02*
X008705Y007934D01*
X008635Y008074D02*
X008705Y008144D01*
X008845Y008144D01*
X008915Y008074D01*
M02*
