G75*
%MOIN*%
%OFA0B0*%
%FSLAX24Y24*%
%IPPOS*%
%LPD*%
%AMOC8*
5,1,8,0,0,1.08239X$1,22.5*
%
%ADD10R,0.0315X0.0315*%
%ADD11R,0.0394X0.0433*%
%ADD12R,0.0472X0.0315*%
%ADD13R,0.0315X0.0472*%
%ADD14C,0.0236*%
D10*
X004160Y007805D03*
X004160Y008395D03*
X006160Y008395D03*
X006160Y007805D03*
D11*
X003660Y007615D03*
X003660Y008285D03*
X006660Y008285D03*
X006660Y007615D03*
D12*
X007758Y012293D03*
X007758Y012765D03*
X007758Y013238D03*
X007758Y013710D03*
X007758Y014183D03*
X007758Y014655D03*
X007758Y015128D03*
X007758Y015600D03*
X007758Y016072D03*
X007758Y016545D03*
X007758Y017017D03*
X007758Y017490D03*
X007758Y017962D03*
X007758Y018435D03*
X007758Y018907D03*
X007758Y019380D03*
X007758Y019852D03*
X002562Y019852D03*
X002562Y019380D03*
X002562Y018907D03*
X002562Y018435D03*
X002562Y017962D03*
X002562Y017490D03*
X002562Y017017D03*
X002562Y016545D03*
X002562Y016072D03*
X002562Y015600D03*
X002562Y015128D03*
X002562Y014655D03*
X002562Y014183D03*
X002562Y013710D03*
X002562Y013238D03*
X002562Y012765D03*
X002562Y012293D03*
D13*
X002837Y011584D03*
X003506Y011584D03*
X003979Y011584D03*
X004451Y011584D03*
X004924Y011584D03*
X005396Y011584D03*
X005869Y011584D03*
X006341Y011584D03*
X006814Y011584D03*
X007483Y011588D03*
D14*
X006577Y019537D02*
X006577Y019773D01*
X006577Y019537D02*
X006499Y019537D01*
X006499Y019773D01*
X006577Y019773D01*
X006577Y019772D02*
X006499Y019772D01*
X006026Y019773D02*
X006026Y019537D01*
X005948Y019537D01*
X005948Y019773D01*
X006026Y019773D01*
X006026Y019772D02*
X005948Y019772D01*
X005475Y019773D02*
X005475Y019537D01*
X005397Y019537D01*
X005397Y019773D01*
X005475Y019773D01*
X005475Y019772D02*
X005397Y019772D01*
X004923Y019773D02*
X004923Y019537D01*
X004845Y019537D01*
X004845Y019773D01*
X004923Y019773D01*
X004923Y019772D02*
X004845Y019772D01*
X004372Y019773D02*
X004372Y019537D01*
X004294Y019537D01*
X004294Y019773D01*
X004372Y019773D01*
X004372Y019772D02*
X004294Y019772D01*
X003821Y019773D02*
X003821Y019537D01*
X003743Y019537D01*
X003743Y019773D01*
X003821Y019773D01*
X003821Y019772D02*
X003743Y019772D01*
M02*
