G75*
%MOIN*%
%OFA0B0*%
%FSLAX24Y24*%
%IPPOS*%
%LPD*%
%AMOC8*
5,1,8,0,0,1.08239X$1,22.5*
%
%ADD10C,0.0100*%
%ADD11C,0.0050*%
%ADD12C,0.0080*%
D10*
X005160Y009025D02*
X005527Y009025D01*
X005710Y009208D01*
X005527Y009392D01*
X005160Y009392D01*
X005160Y009623D02*
X005160Y009807D01*
X005160Y009715D02*
X005527Y009715D01*
X005527Y009623D01*
X005435Y009392D02*
X005435Y009025D01*
X005710Y009715D02*
X005802Y009715D01*
X005710Y010621D02*
X005710Y010896D01*
X005619Y010988D01*
X005435Y010988D01*
X005343Y010896D01*
X005343Y010621D01*
X005160Y010621D02*
X005710Y010621D01*
X005710Y011219D02*
X005160Y011586D01*
X005710Y011586D01*
X005710Y011219D02*
X005160Y011219D01*
X005160Y010988D02*
X005343Y010804D01*
X005435Y011818D02*
X005435Y012185D01*
X005435Y012416D02*
X005527Y012600D01*
X005527Y012692D01*
X005435Y012783D01*
X005252Y012783D01*
X005160Y012692D01*
X005160Y012508D01*
X005252Y012416D01*
X005435Y012416D02*
X005710Y012416D01*
X005710Y012783D01*
X005619Y013015D02*
X005710Y013107D01*
X005710Y013290D01*
X005619Y013382D01*
X005527Y013382D01*
X005160Y013015D01*
X005160Y013382D01*
X005160Y014212D02*
X005160Y014487D01*
X005252Y014579D01*
X005343Y014579D01*
X005435Y014487D01*
X005435Y014212D01*
X005160Y014212D02*
X005710Y014212D01*
X005710Y014487D01*
X005619Y014579D01*
X005527Y014579D01*
X005435Y014487D01*
X005343Y014810D02*
X005343Y015086D01*
X005435Y015177D01*
X005619Y015177D01*
X005710Y015086D01*
X005710Y014810D01*
X005160Y014810D01*
X005343Y014994D02*
X005160Y015177D01*
X005160Y015409D02*
X005160Y015776D01*
X005160Y016007D02*
X005527Y016007D01*
X005710Y016191D01*
X005527Y016374D01*
X005160Y016374D01*
X005160Y016606D02*
X005710Y016606D01*
X005343Y016606D02*
X005710Y016973D01*
X005619Y017204D02*
X005252Y017204D01*
X005160Y017296D01*
X005160Y017480D01*
X005252Y017571D01*
X005619Y017571D01*
X005710Y017480D01*
X005710Y017296D01*
X005619Y017204D01*
X005160Y016973D02*
X005435Y016698D01*
X005435Y016374D02*
X005435Y016007D01*
X005435Y015592D02*
X005435Y015409D01*
X005710Y015409D02*
X005160Y015409D01*
X005710Y015409D02*
X005710Y015776D01*
X005710Y017803D02*
X005252Y017803D01*
X005160Y017895D01*
X005160Y018078D01*
X005252Y018170D01*
X005710Y018170D01*
X005710Y018401D02*
X005710Y018768D01*
X005710Y018585D02*
X005160Y018585D01*
D11*
X004885Y018553D02*
X004835Y018503D01*
X004885Y018553D02*
X004885Y018653D01*
X004835Y018703D01*
X004785Y018703D01*
X004585Y018503D01*
X004585Y018703D01*
X004635Y018381D02*
X004585Y018331D01*
X004585Y018230D01*
X004635Y018180D01*
X004735Y018180D02*
X004785Y018281D01*
X004785Y018331D01*
X004735Y018381D01*
X004635Y018381D01*
X004735Y018180D02*
X004885Y018180D01*
X004885Y018381D01*
X004735Y018058D02*
X004735Y017858D01*
X004735Y017736D02*
X004585Y017736D01*
X004735Y017736D02*
X004785Y017686D01*
X004785Y017536D01*
X004585Y017536D01*
X004785Y017417D02*
X004785Y017367D01*
X004685Y017267D01*
X004585Y017267D02*
X004785Y017267D01*
X004885Y017145D02*
X004585Y016945D01*
X004585Y016823D02*
X004735Y016823D01*
X004785Y016773D01*
X004735Y016723D01*
X004585Y016723D01*
X004585Y016623D02*
X004785Y016623D01*
X004785Y016673D01*
X004735Y016723D01*
X004735Y016501D02*
X004635Y016501D01*
X004585Y016451D01*
X004585Y016351D01*
X004635Y016300D01*
X004735Y016300D01*
X004785Y016351D01*
X004785Y016451D01*
X004735Y016501D01*
X004785Y016178D02*
X004785Y016028D01*
X004735Y015978D01*
X004635Y015978D01*
X004585Y016028D01*
X004585Y016178D01*
X004585Y015867D02*
X004585Y015817D01*
X004635Y015817D01*
X004635Y015867D01*
X004585Y015867D01*
X004585Y015695D02*
X004585Y015545D01*
X004635Y015495D01*
X004735Y015495D01*
X004785Y015545D01*
X004785Y015695D01*
X004785Y015330D02*
X004585Y015330D01*
X004585Y015280D02*
X004585Y015380D01*
X004585Y015165D02*
X004635Y015115D01*
X004835Y015115D01*
X004785Y015065D02*
X004785Y015165D01*
X004785Y015280D02*
X004785Y015330D01*
X004885Y015330D02*
X004935Y015330D01*
X004735Y014943D02*
X004785Y014893D01*
X004785Y014793D01*
X004735Y014743D01*
X004635Y014743D01*
X004585Y014793D01*
X004585Y014893D01*
X004635Y014943D01*
X004735Y014943D01*
X004735Y014621D02*
X004635Y014621D01*
X004585Y014571D01*
X004585Y014421D01*
X004885Y014421D01*
X004785Y014421D02*
X004785Y014571D01*
X004735Y014621D01*
X004735Y014298D02*
X004635Y014298D01*
X004585Y014248D01*
X004585Y014148D01*
X004635Y014098D01*
X004735Y014098D01*
X004785Y014148D01*
X004785Y014248D01*
X004735Y014298D01*
X004785Y013980D02*
X004785Y013930D01*
X004685Y013830D01*
X004585Y013830D02*
X004785Y013830D01*
X004785Y013708D02*
X004785Y013557D01*
X004735Y013507D01*
X004635Y013507D01*
X004585Y013557D01*
X004585Y013708D01*
X004585Y013385D02*
X004585Y013235D01*
X004635Y013185D01*
X004685Y013235D01*
X004685Y013385D01*
X004735Y013385D02*
X004585Y013385D01*
X004735Y013385D02*
X004785Y013335D01*
X004785Y013235D01*
X004885Y013063D02*
X004585Y012863D01*
X004585Y012541D02*
X004885Y012741D01*
X004785Y012430D02*
X004735Y012430D01*
X004735Y012379D01*
X004785Y012379D01*
X004785Y012430D01*
X004735Y012257D02*
X004785Y012207D01*
X004785Y012057D01*
X004485Y012057D01*
X004585Y012057D02*
X004585Y012207D01*
X004635Y012257D01*
X004735Y012257D01*
X004635Y012379D02*
X004585Y012379D01*
X004585Y012430D01*
X004635Y012430D01*
X004635Y012379D01*
X004585Y011942D02*
X004635Y011892D01*
X004835Y011892D01*
X004785Y011842D02*
X004785Y011942D01*
X004785Y011728D02*
X004785Y011628D01*
X004835Y011678D02*
X004635Y011678D01*
X004585Y011728D01*
X004585Y011505D02*
X004735Y011505D01*
X004785Y011455D01*
X004785Y011355D01*
X004735Y011305D01*
X004885Y011305D02*
X004585Y011305D01*
X004635Y009953D02*
X004635Y009753D01*
X004635Y009853D02*
X004935Y009853D01*
X004835Y009753D01*
X004685Y009642D02*
X004685Y009592D01*
X004635Y009592D01*
X004635Y009642D01*
X004685Y009642D01*
X004635Y009469D02*
X004635Y009269D01*
X004635Y009369D02*
X004935Y009369D01*
X004835Y009269D01*
X004835Y009147D02*
X004635Y009047D01*
X004835Y008947D01*
D12*
X001169Y000660D02*
X001239Y000590D01*
X001379Y000590D01*
X001449Y000660D01*
X001629Y000730D02*
X001629Y001010D01*
X001449Y000940D02*
X001379Y001010D01*
X001239Y001010D01*
X001169Y000940D01*
X001169Y000870D01*
X001239Y000800D01*
X001169Y000730D01*
X001169Y000660D01*
X001239Y000800D02*
X001309Y000800D01*
X001629Y000730D02*
X001769Y000590D01*
X001910Y000730D01*
X001910Y001010D01*
X002090Y000940D02*
X002090Y000870D01*
X002160Y000800D01*
X002090Y000730D01*
X002090Y000660D01*
X002160Y000590D01*
X002300Y000590D01*
X002370Y000660D01*
X002230Y000800D02*
X002160Y000800D01*
X002090Y000940D02*
X002160Y001010D01*
X002300Y001010D01*
X002370Y000940D01*
X002349Y001590D02*
X002349Y002010D01*
X002139Y002010D01*
X002069Y001940D01*
X002069Y001800D01*
X002139Y001730D01*
X002349Y001730D01*
X002209Y001730D02*
X002069Y001590D01*
X001889Y001590D02*
X001889Y002010D01*
X001609Y002010D01*
X001749Y001800D02*
X001889Y001800D01*
X001889Y001590D02*
X001609Y001590D01*
X001428Y001590D02*
X001428Y002010D01*
X001148Y001590D01*
X001148Y002010D01*
X001222Y002590D02*
X001152Y002660D01*
X001152Y002730D01*
X001222Y002800D01*
X001432Y002800D01*
X001432Y002660D01*
X001362Y002590D01*
X001222Y002590D01*
X001432Y002800D02*
X001292Y002940D01*
X001152Y003010D01*
X001432Y003590D02*
X001432Y003660D01*
X001152Y003940D01*
X001152Y004010D01*
X001432Y004010D01*
X001612Y003940D02*
X001612Y003660D01*
X001682Y003590D01*
X001822Y003590D01*
X001892Y003660D01*
X001892Y003940D01*
X001822Y004010D01*
X001682Y004010D01*
X001612Y003940D01*
X001638Y004590D02*
X001778Y004730D01*
X001708Y004730D02*
X001918Y004730D01*
X001918Y004590D02*
X001918Y005010D01*
X001708Y005010D01*
X001638Y004940D01*
X001638Y004800D01*
X001708Y004730D01*
X001458Y004590D02*
X001177Y005010D01*
X001458Y005010D02*
X001177Y004590D01*
X001227Y005590D02*
X001508Y006010D01*
X001688Y006010D02*
X001968Y006010D01*
X001828Y006010D02*
X001828Y005590D01*
X001508Y005590D02*
X001227Y006010D01*
X001287Y006590D02*
X001217Y006660D01*
X001217Y006730D01*
X001287Y006800D01*
X001427Y006800D01*
X001497Y006870D01*
X001497Y006940D01*
X001427Y007010D01*
X001287Y007010D01*
X001217Y006940D01*
X001287Y006590D02*
X001427Y006590D01*
X001497Y006660D01*
X001677Y007010D02*
X001958Y007010D01*
X001818Y007010D02*
X001818Y006590D01*
X002138Y006660D02*
X002208Y006590D01*
X002348Y006590D01*
X002418Y006660D01*
X002418Y006940D01*
X002348Y007010D01*
X002208Y007010D01*
X002138Y006940D01*
X002138Y007590D02*
X002278Y007730D01*
X002208Y007730D02*
X002418Y007730D01*
X002418Y007590D02*
X002418Y008010D01*
X002208Y008010D01*
X002138Y007940D01*
X002138Y007800D01*
X002208Y007730D01*
X001958Y008010D02*
X001677Y008010D01*
X001818Y008010D02*
X001818Y007590D01*
X001497Y007660D02*
X001427Y007590D01*
X001287Y007590D01*
X001217Y007660D01*
X001217Y007730D01*
X001287Y007800D01*
X001427Y007800D01*
X001497Y007870D01*
X001497Y007940D01*
X001427Y008010D01*
X001287Y008010D01*
X001217Y007940D01*
X001338Y008660D02*
X001338Y008940D01*
X001478Y008800D02*
X001198Y008800D01*
X001198Y009800D02*
X001478Y009800D01*
X001659Y009660D02*
X001729Y009590D01*
X001939Y009590D01*
X001939Y010010D01*
X001729Y010010D01*
X001659Y009940D01*
X001659Y009660D01*
X001729Y009010D02*
X001939Y009010D01*
X001939Y008590D01*
X001729Y008590D01*
X001659Y008660D01*
X001659Y008940D01*
X001729Y009010D01*
X002119Y008940D02*
X002119Y008870D01*
X002189Y008800D01*
X002399Y008800D01*
X002579Y008730D02*
X002579Y008660D01*
X002649Y008590D01*
X002790Y008590D01*
X002860Y008660D01*
X002790Y008800D02*
X002649Y008800D01*
X002579Y008730D01*
X002579Y008940D02*
X002649Y009010D01*
X002790Y009010D01*
X002860Y008940D01*
X002860Y008870D01*
X002790Y008800D01*
X003040Y008660D02*
X003040Y009010D01*
X003040Y008660D02*
X003110Y008590D01*
X003250Y008590D01*
X003320Y008660D01*
X003320Y009010D01*
X003250Y009590D02*
X003110Y009590D01*
X003040Y009660D01*
X003040Y010010D01*
X002860Y009940D02*
X002860Y009870D01*
X002790Y009800D01*
X002649Y009800D01*
X002579Y009730D01*
X002579Y009660D01*
X002649Y009590D01*
X002790Y009590D01*
X002860Y009660D01*
X002860Y009940D02*
X002790Y010010D01*
X002649Y010010D01*
X002579Y009940D01*
X002399Y010010D02*
X002189Y010010D01*
X002119Y009940D01*
X002119Y009870D01*
X002189Y009800D01*
X002399Y009800D01*
X002399Y009590D02*
X002189Y009590D01*
X002119Y009660D01*
X002119Y009730D01*
X002189Y009800D01*
X002399Y009590D02*
X002399Y010010D01*
X002249Y010590D02*
X002109Y010590D01*
X002179Y010590D02*
X002179Y011010D01*
X002249Y011010D02*
X002109Y011010D01*
X001942Y010940D02*
X001942Y010660D01*
X001872Y010590D01*
X001732Y010590D01*
X001662Y010660D01*
X001662Y010940D01*
X001732Y011010D01*
X001872Y011010D01*
X001942Y010940D01*
X001932Y011590D02*
X001652Y011590D01*
X001792Y011590D02*
X001792Y012010D01*
X001932Y011870D01*
X002112Y011940D02*
X002112Y011660D01*
X002182Y011590D01*
X002322Y011590D01*
X002392Y011660D01*
X002392Y011940D01*
X002322Y012010D01*
X002182Y012010D01*
X002112Y011940D01*
X002182Y012590D02*
X002112Y012660D01*
X002112Y012940D01*
X002182Y013010D01*
X002322Y013010D01*
X002392Y012940D01*
X002392Y012660D01*
X002322Y012590D01*
X002182Y012590D01*
X001932Y012590D02*
X001652Y012590D01*
X001792Y012590D02*
X001792Y013010D01*
X001932Y012870D01*
X001472Y012870D02*
X001331Y013010D01*
X001331Y012590D01*
X001191Y012590D02*
X001472Y012590D01*
X001401Y012010D02*
X001261Y012010D01*
X001191Y011940D01*
X001472Y011660D01*
X001401Y011590D01*
X001261Y011590D01*
X001191Y011660D01*
X001191Y011940D01*
X001401Y012010D02*
X001472Y011940D01*
X001472Y011660D01*
X001412Y011010D02*
X001272Y011010D01*
X001202Y010940D01*
X001202Y010660D01*
X001272Y010590D01*
X001412Y010590D01*
X001482Y010660D01*
X001412Y010800D02*
X001202Y010800D01*
X001412Y010800D02*
X001482Y010870D01*
X001482Y010940D01*
X001412Y011010D01*
X002189Y009010D02*
X002119Y008940D01*
X002189Y009010D02*
X002399Y009010D01*
X002399Y008590D01*
X002189Y008590D01*
X002119Y008660D01*
X002119Y008730D01*
X002189Y008800D01*
X002598Y007520D02*
X002878Y007520D01*
X003059Y008010D02*
X003339Y008010D01*
X003199Y008010D02*
X003199Y007590D01*
X003199Y007010D02*
X003199Y006590D01*
X003339Y007010D02*
X003059Y007010D01*
X002878Y006520D02*
X002598Y006520D01*
X002609Y006010D02*
X002889Y006010D01*
X002749Y006010D02*
X002749Y005590D01*
X003069Y005590D02*
X003209Y005730D01*
X003139Y005730D02*
X003349Y005730D01*
X003349Y005590D02*
X003349Y006010D01*
X003139Y006010D01*
X003069Y005940D01*
X003069Y005800D01*
X003139Y005730D01*
X003529Y005800D02*
X003810Y005800D01*
X003810Y005870D02*
X003669Y006010D01*
X003529Y005870D01*
X003529Y005590D01*
X003810Y005590D02*
X003810Y005870D01*
X003990Y006010D02*
X003990Y005660D01*
X004060Y005590D01*
X004200Y005590D01*
X004270Y005660D01*
X004270Y006010D01*
X004260Y006590D02*
X004260Y006870D01*
X004119Y007010D01*
X003979Y006870D01*
X003979Y006590D01*
X003979Y006800D02*
X004260Y006800D01*
X004440Y006660D02*
X004440Y007010D01*
X004720Y007010D02*
X004720Y006660D01*
X004650Y006590D01*
X004510Y006590D01*
X004440Y006660D01*
X004510Y007590D02*
X004440Y007660D01*
X004440Y008010D01*
X004260Y007870D02*
X004260Y007590D01*
X004260Y007800D02*
X003979Y007800D01*
X003979Y007870D02*
X003979Y007590D01*
X003979Y007870D02*
X004119Y008010D01*
X004260Y007870D01*
X004510Y007590D02*
X004650Y007590D01*
X004720Y007660D01*
X004720Y008010D01*
X003799Y008010D02*
X003799Y007590D01*
X003799Y007730D02*
X003589Y007730D01*
X003519Y007800D01*
X003519Y007940D01*
X003589Y008010D01*
X003799Y008010D01*
X003659Y007730D02*
X003519Y007590D01*
X003589Y007010D02*
X003519Y006940D01*
X003519Y006800D01*
X003589Y006730D01*
X003799Y006730D01*
X003659Y006730D02*
X003519Y006590D01*
X003799Y006590D02*
X003799Y007010D01*
X003589Y007010D01*
X003619Y005010D02*
X003479Y004870D01*
X003479Y004590D01*
X003479Y004800D02*
X003760Y004800D01*
X003760Y004870D02*
X003619Y005010D01*
X003760Y004870D02*
X003760Y004590D01*
X003940Y004660D02*
X003940Y005010D01*
X003940Y004660D02*
X004010Y004590D01*
X004150Y004590D01*
X004220Y004660D01*
X004220Y005010D01*
X003299Y005010D02*
X003299Y004590D01*
X003299Y004730D02*
X003089Y004730D01*
X003019Y004800D01*
X003019Y004940D01*
X003089Y005010D01*
X003299Y005010D01*
X003159Y004730D02*
X003019Y004590D01*
X002839Y005010D02*
X002559Y005010D01*
X002699Y005010D02*
X002699Y004590D01*
X002660Y004010D02*
X002449Y004010D01*
X002379Y003940D01*
X002379Y003800D01*
X002449Y003730D01*
X002660Y003730D01*
X002660Y003590D02*
X002660Y004010D01*
X002840Y003940D02*
X002910Y004010D01*
X003050Y004010D01*
X003120Y003940D01*
X003120Y003660D01*
X003050Y003590D01*
X002910Y003590D01*
X002840Y003660D01*
X002840Y003800D01*
X002980Y003800D01*
X002910Y003010D02*
X003050Y003010D01*
X003120Y002940D01*
X003120Y002660D01*
X003050Y002590D01*
X002910Y002590D01*
X002840Y002660D01*
X002840Y002800D01*
X002980Y002800D01*
X002840Y002940D02*
X002910Y003010D01*
X002660Y003010D02*
X002660Y002590D01*
X002660Y002730D02*
X002449Y002730D01*
X002379Y002800D01*
X002379Y002940D01*
X002449Y003010D01*
X002660Y003010D01*
X002199Y003010D02*
X002059Y003010D01*
X002129Y003010D02*
X002129Y002590D01*
X002199Y002590D02*
X002059Y002590D01*
X001892Y002660D02*
X001822Y002590D01*
X001682Y002590D01*
X001612Y002660D01*
X001612Y002940D01*
X001682Y003010D01*
X001822Y003010D01*
X001892Y002940D01*
X001892Y002660D01*
X002059Y003590D02*
X002199Y003590D01*
X002129Y003590D02*
X002129Y004010D01*
X002199Y004010D02*
X002059Y004010D01*
X002098Y004520D02*
X002378Y004520D01*
X002428Y005520D02*
X002148Y005520D01*
X002529Y002010D02*
X002529Y001590D01*
X002669Y001730D01*
X002810Y001590D01*
X002810Y002010D01*
X002990Y001940D02*
X002990Y001800D01*
X003060Y001730D01*
X003270Y001730D01*
X003270Y001590D02*
X003270Y002010D01*
X003060Y002010D01*
X002990Y001940D01*
X005617Y003660D02*
X005687Y003590D01*
X005827Y003590D01*
X005897Y003660D01*
X005897Y003940D01*
X005827Y004010D01*
X005687Y004010D01*
X005617Y003940D01*
X006077Y004010D02*
X006077Y003590D01*
X006358Y004010D01*
X006358Y003590D01*
X006678Y003800D02*
X006538Y003940D01*
X006538Y004010D01*
X006678Y003800D02*
X006678Y003590D01*
X006678Y003800D02*
X006818Y003940D01*
X006818Y004010D01*
X006998Y003940D02*
X007068Y004010D01*
X007208Y004010D01*
X007278Y003940D01*
X007278Y003870D01*
X007208Y003800D01*
X007068Y003800D01*
X006998Y003730D01*
X006998Y003660D01*
X007068Y003590D01*
X007208Y003590D01*
X007278Y003660D01*
X007459Y003520D02*
X007739Y003520D01*
X007919Y003590D02*
X007919Y004010D01*
X008059Y003870D01*
X008199Y004010D01*
X008199Y003590D01*
X008379Y003660D02*
X008449Y003590D01*
X008590Y003590D01*
X008660Y003660D01*
X008660Y003940D01*
X008590Y004010D01*
X008449Y004010D01*
X008379Y003940D01*
X008449Y004590D02*
X008379Y004660D01*
X008449Y004590D02*
X008590Y004590D01*
X008660Y004660D01*
X008660Y004940D01*
X008590Y005010D01*
X008449Y005010D01*
X008379Y004940D01*
X008199Y005010D02*
X008199Y004590D01*
X008059Y004870D02*
X007919Y005010D01*
X007919Y004590D01*
X007739Y004520D02*
X007459Y004520D01*
X007278Y004660D02*
X007278Y004940D01*
X007208Y005010D01*
X007068Y005010D01*
X006998Y004940D01*
X006818Y005010D02*
X006818Y004590D01*
X006538Y004590D01*
X006358Y004590D02*
X006358Y005010D01*
X006288Y004800D02*
X006077Y004590D01*
X006358Y004730D02*
X006077Y005010D01*
X006691Y005660D02*
X006761Y005590D01*
X006901Y005590D01*
X006972Y005660D01*
X006901Y005800D02*
X006761Y005800D01*
X006691Y005730D01*
X006691Y005660D01*
X006901Y005800D02*
X006972Y005870D01*
X006972Y005940D01*
X006901Y006010D01*
X006761Y006010D01*
X006691Y005940D01*
X006595Y006590D02*
X006454Y006590D01*
X006384Y006660D01*
X006384Y006730D01*
X006454Y006800D01*
X006595Y006800D01*
X006665Y006870D01*
X006665Y006940D01*
X006595Y007010D01*
X006454Y007010D01*
X006384Y006940D01*
X006204Y006940D02*
X006204Y006660D01*
X006134Y006590D01*
X005994Y006590D01*
X005924Y006660D01*
X005924Y006940D01*
X005994Y007010D01*
X006134Y007010D01*
X006204Y006940D01*
X006595Y006590D02*
X006665Y006660D01*
X006831Y006590D02*
X006972Y006590D01*
X006901Y006590D02*
X006901Y007010D01*
X006831Y007010D02*
X006972Y007010D01*
X007152Y007010D02*
X007152Y006590D01*
X007292Y006870D02*
X007152Y007010D01*
X007292Y006870D02*
X007432Y007010D01*
X007432Y006590D01*
X007612Y006520D02*
X007892Y006520D01*
X008059Y006590D02*
X008199Y006590D01*
X008129Y006590D02*
X008129Y007010D01*
X008199Y007010D02*
X008059Y007010D01*
X007892Y007520D02*
X007612Y007520D01*
X007432Y007660D02*
X007362Y007590D01*
X007222Y007590D01*
X007152Y007660D01*
X007152Y007940D02*
X007222Y008010D01*
X007362Y008010D01*
X007432Y007940D01*
X007432Y007660D01*
X007612Y008520D02*
X007892Y008520D01*
X008059Y008590D02*
X008199Y008590D01*
X008129Y008590D02*
X008129Y009010D01*
X008199Y009010D02*
X008059Y009010D01*
X007989Y009590D02*
X007919Y009660D01*
X007919Y009940D01*
X007989Y010010D01*
X008199Y010010D01*
X008199Y009590D01*
X007989Y009590D01*
X007739Y009590D02*
X007459Y009590D01*
X007599Y009590D02*
X007599Y010010D01*
X007739Y009870D01*
X007669Y010590D02*
X007529Y010590D01*
X007459Y010660D01*
X007459Y010940D01*
X007739Y010660D01*
X007669Y010590D01*
X007739Y010660D02*
X007739Y010940D01*
X007669Y011010D01*
X007529Y011010D01*
X007459Y010940D01*
X007612Y011520D02*
X007892Y011520D01*
X008072Y011660D02*
X008143Y011590D01*
X008283Y011590D01*
X008353Y011660D01*
X008353Y011940D01*
X008283Y012010D01*
X008143Y012010D01*
X008072Y011940D01*
X007892Y012520D02*
X007612Y012520D01*
X007432Y012590D02*
X007152Y012590D01*
X006972Y012800D02*
X006691Y012800D01*
X006831Y012940D02*
X006831Y012660D01*
X006831Y012010D02*
X006972Y012010D01*
X006901Y012010D02*
X006901Y011590D01*
X006831Y011590D02*
X006972Y011590D01*
X007152Y011660D02*
X007222Y011590D01*
X007432Y011590D01*
X007432Y012010D01*
X007222Y012010D01*
X007152Y011940D01*
X007152Y011870D01*
X007222Y011800D01*
X007432Y011800D01*
X007222Y011800D02*
X007152Y011730D01*
X007152Y011660D01*
X007432Y012590D02*
X007432Y013010D01*
X007612Y013520D02*
X007892Y013520D01*
X008072Y013660D02*
X008143Y013590D01*
X008283Y013590D01*
X008353Y013660D01*
X008353Y013940D01*
X008283Y014010D01*
X008143Y014010D01*
X008072Y013940D01*
X007892Y014520D02*
X007612Y014520D01*
X007432Y014590D02*
X007152Y014590D01*
X006972Y014800D02*
X006691Y014800D01*
X006831Y013940D02*
X006831Y013660D01*
X006691Y013800D02*
X006972Y013800D01*
X007152Y013800D02*
X007222Y013730D01*
X007432Y013730D01*
X007432Y013590D02*
X007432Y014010D01*
X007222Y014010D01*
X007152Y013940D01*
X007152Y013800D01*
X007292Y013730D02*
X007152Y013590D01*
X007432Y014590D02*
X007432Y015010D01*
X007612Y015520D02*
X007892Y015520D01*
X008072Y015660D02*
X008143Y015590D01*
X008283Y015590D01*
X008353Y015660D01*
X008353Y015940D01*
X008283Y016010D01*
X008143Y016010D01*
X008072Y015940D01*
X008199Y016590D02*
X008199Y017010D01*
X008129Y016800D02*
X007919Y016590D01*
X007739Y016520D02*
X007459Y016520D01*
X007278Y016590D02*
X007278Y017010D01*
X007068Y017010D01*
X006998Y016940D01*
X006998Y016800D01*
X007068Y016730D01*
X007278Y016730D01*
X007138Y016730D02*
X006998Y016590D01*
X006818Y016800D02*
X006538Y016800D01*
X006998Y017590D02*
X007278Y017590D01*
X007278Y018010D01*
X007459Y017520D02*
X007739Y017520D01*
X007919Y017590D02*
X008129Y017800D01*
X008199Y017730D02*
X007919Y018010D01*
X007739Y018520D02*
X007459Y018520D01*
X007278Y018590D02*
X007278Y019010D01*
X007068Y019010D01*
X006998Y018940D01*
X006998Y018800D01*
X007068Y018730D01*
X007278Y018730D01*
X007138Y018730D02*
X006998Y018590D01*
X006818Y018800D02*
X006538Y018800D01*
X006678Y018940D02*
X006678Y018660D01*
X006818Y017800D02*
X006538Y017800D01*
X006998Y019590D02*
X007278Y019590D01*
X007278Y020010D01*
X007459Y019520D02*
X007739Y019520D01*
X007919Y019590D02*
X008129Y019800D01*
X008199Y019730D02*
X007919Y020010D01*
X008199Y020010D02*
X008199Y019590D01*
X008379Y019800D02*
X008379Y019940D01*
X008449Y020010D01*
X008660Y020010D01*
X008660Y019590D01*
X008660Y019730D02*
X008449Y019730D01*
X008379Y019800D01*
X008840Y019730D02*
X008840Y019660D01*
X008910Y019590D01*
X009050Y019590D01*
X009120Y019660D01*
X009050Y019800D02*
X008910Y019800D01*
X008840Y019730D01*
X008840Y019940D02*
X008910Y020010D01*
X009050Y020010D01*
X009120Y019940D01*
X009120Y019870D01*
X009050Y019800D01*
X009050Y019010D02*
X008910Y019010D01*
X008840Y018940D01*
X008910Y018800D02*
X008840Y018730D01*
X008840Y018660D01*
X008910Y018590D01*
X009050Y018590D01*
X009120Y018660D01*
X009050Y018800D02*
X009120Y018870D01*
X009120Y018940D01*
X009050Y019010D01*
X009050Y018800D02*
X008910Y018800D01*
X008660Y018730D02*
X008449Y018730D01*
X008379Y018800D01*
X008379Y018940D01*
X008449Y019010D01*
X008660Y019010D01*
X008660Y018590D01*
X008660Y018010D02*
X008449Y018010D01*
X008379Y017940D01*
X008379Y017800D01*
X008449Y017730D01*
X008660Y017730D01*
X008660Y017590D02*
X008660Y018010D01*
X008840Y017940D02*
X008910Y018010D01*
X009050Y018010D01*
X009120Y017940D01*
X009120Y017870D01*
X009050Y017800D01*
X008910Y017800D01*
X008840Y017730D01*
X008840Y017660D01*
X008910Y017590D01*
X009050Y017590D01*
X009120Y017660D01*
X009050Y017010D02*
X008910Y017010D01*
X008840Y016940D01*
X008910Y016800D02*
X008840Y016730D01*
X008840Y016660D01*
X008910Y016590D01*
X009050Y016590D01*
X009120Y016660D01*
X009050Y016800D02*
X009120Y016870D01*
X009120Y016940D01*
X009050Y017010D01*
X009050Y016800D02*
X008910Y016800D01*
X008660Y016730D02*
X008449Y016730D01*
X008379Y016800D01*
X008379Y016940D01*
X008449Y017010D01*
X008660Y017010D01*
X008660Y016590D01*
X008660Y016010D02*
X008519Y016010D01*
X008590Y016010D02*
X008590Y015590D01*
X008660Y015590D02*
X008519Y015590D01*
X008840Y015590D02*
X008840Y016010D01*
X008980Y015870D01*
X009120Y016010D01*
X009120Y015590D01*
X009120Y015010D02*
X008980Y014870D01*
X008840Y015010D01*
X008840Y014590D01*
X008660Y014590D02*
X008519Y014590D01*
X008590Y014590D02*
X008590Y015010D01*
X008660Y015010D02*
X008519Y015010D01*
X008353Y014940D02*
X008353Y014660D01*
X008283Y014590D01*
X008143Y014590D01*
X008072Y014660D01*
X008072Y014940D02*
X008143Y015010D01*
X008283Y015010D01*
X008353Y014940D01*
X008519Y014010D02*
X008660Y014010D01*
X008590Y014010D02*
X008590Y013590D01*
X008660Y013590D02*
X008519Y013590D01*
X008840Y013590D02*
X008840Y014010D01*
X008980Y013870D01*
X009120Y014010D01*
X009120Y013590D01*
X009120Y013010D02*
X008980Y012870D01*
X008840Y013010D01*
X008840Y012590D01*
X008660Y012590D02*
X008519Y012590D01*
X008590Y012590D02*
X008590Y013010D01*
X008660Y013010D02*
X008519Y013010D01*
X008353Y012940D02*
X008353Y012660D01*
X008283Y012590D01*
X008143Y012590D01*
X008072Y012660D01*
X008072Y012940D02*
X008143Y013010D01*
X008283Y013010D01*
X008353Y012940D01*
X008519Y012010D02*
X008660Y012010D01*
X008590Y012010D02*
X008590Y011590D01*
X008660Y011590D02*
X008519Y011590D01*
X008379Y011010D02*
X008660Y011010D01*
X008660Y010590D01*
X008379Y010590D01*
X008519Y010800D02*
X008660Y010800D01*
X008840Y010590D02*
X009120Y010590D01*
X009120Y011010D01*
X009120Y011590D02*
X009120Y012010D01*
X008980Y011870D01*
X008840Y012010D01*
X008840Y011590D01*
X009120Y012590D02*
X009120Y013010D01*
X009120Y014590D02*
X009120Y015010D01*
X008199Y016730D02*
X007919Y017010D01*
X008199Y017590D02*
X008199Y018010D01*
X008199Y018590D02*
X008199Y019010D01*
X008129Y018800D02*
X007919Y018590D01*
X008199Y018730D02*
X007919Y019010D01*
X006818Y019800D02*
X006538Y019800D01*
X006678Y019940D02*
X006678Y019660D01*
X007222Y016010D02*
X007152Y015940D01*
X007152Y015800D01*
X007222Y015730D01*
X007432Y015730D01*
X007432Y015590D02*
X007432Y016010D01*
X007222Y016010D01*
X007292Y015730D02*
X007152Y015590D01*
X006972Y015800D02*
X006691Y015800D01*
X006524Y012010D02*
X006384Y011870D01*
X006384Y011590D01*
X006204Y011660D02*
X006134Y011590D01*
X005994Y011590D01*
X005924Y011660D01*
X005924Y011730D01*
X005994Y011800D01*
X006134Y011800D01*
X006204Y011870D01*
X006204Y011940D01*
X006134Y012010D01*
X005994Y012010D01*
X005924Y011940D01*
X006384Y011800D02*
X006665Y011800D01*
X006665Y011870D02*
X006524Y012010D01*
X006665Y011870D02*
X006665Y011590D01*
X006761Y009010D02*
X006691Y008940D01*
X006691Y008660D01*
X006761Y008590D01*
X006901Y008590D01*
X006972Y008660D01*
X006972Y008940D01*
X006901Y009010D01*
X006761Y009010D01*
X006511Y008940D02*
X006511Y008870D01*
X006441Y008800D01*
X006301Y008800D01*
X006231Y008730D01*
X006231Y008660D01*
X006301Y008590D01*
X006441Y008590D01*
X006511Y008660D01*
X006511Y008940D02*
X006441Y009010D01*
X006301Y009010D01*
X006231Y008940D01*
X006051Y009010D02*
X005911Y009010D01*
X005981Y009010D02*
X005981Y008590D01*
X006051Y008590D02*
X005911Y008590D01*
X006231Y008010D02*
X006511Y007730D01*
X006441Y007800D02*
X006231Y007590D01*
X006511Y007590D02*
X006511Y008010D01*
X006691Y007590D02*
X006972Y007590D01*
X006972Y008010D01*
X007152Y008590D02*
X007152Y009010D01*
X007292Y008870D01*
X007432Y009010D01*
X007432Y008590D01*
X008059Y008010D02*
X008199Y008010D01*
X008129Y008010D02*
X008129Y007590D01*
X008199Y007590D02*
X008059Y007590D01*
X008379Y007800D02*
X008449Y007730D01*
X008660Y007730D01*
X008660Y007590D02*
X008660Y008010D01*
X008449Y008010D01*
X008379Y007940D01*
X008379Y007800D01*
X008449Y007010D02*
X008379Y006940D01*
X008379Y006800D01*
X008449Y006730D01*
X008660Y006730D01*
X008660Y006590D02*
X008660Y007010D01*
X008449Y007010D01*
X008840Y006940D02*
X008910Y007010D01*
X009050Y007010D01*
X009120Y006940D01*
X009120Y006870D01*
X009050Y006800D01*
X008910Y006800D01*
X008840Y006730D01*
X008840Y006660D01*
X008910Y006590D01*
X009050Y006590D01*
X009120Y006660D01*
X009050Y006010D02*
X008910Y006010D01*
X008840Y005940D01*
X008910Y005800D02*
X008840Y005730D01*
X008840Y005660D01*
X008910Y005590D01*
X009050Y005590D01*
X009120Y005660D01*
X009050Y005800D02*
X008910Y005800D01*
X009050Y005800D02*
X009120Y005870D01*
X009120Y005940D01*
X009050Y006010D01*
X008660Y006010D02*
X008660Y005590D01*
X008660Y005730D02*
X008449Y005730D01*
X008379Y005800D01*
X008379Y005940D01*
X008449Y006010D01*
X008660Y006010D01*
X008199Y006010D02*
X008059Y006010D01*
X008129Y006010D02*
X008129Y005590D01*
X008199Y005590D02*
X008059Y005590D01*
X007892Y005520D02*
X007612Y005520D01*
X007432Y005660D02*
X007362Y005590D01*
X007222Y005590D01*
X007152Y005660D01*
X007152Y005730D01*
X007222Y005800D01*
X007362Y005800D01*
X007432Y005870D01*
X007432Y005940D01*
X007362Y006010D01*
X007222Y006010D01*
X007152Y005940D01*
X007278Y004660D02*
X007208Y004590D01*
X007068Y004590D01*
X006998Y004660D01*
X007068Y003010D02*
X006998Y002940D01*
X006998Y002660D01*
X007068Y002590D01*
X007208Y002590D01*
X007278Y002660D01*
X007278Y002940D01*
X007208Y003010D01*
X007068Y003010D01*
X006818Y003010D02*
X006818Y002660D01*
X006748Y002590D01*
X006608Y002590D01*
X006538Y002660D01*
X006538Y003010D01*
X006358Y003010D02*
X006077Y003010D01*
X006218Y003010D02*
X006218Y002590D01*
X006691Y002010D02*
X006691Y001590D01*
X006972Y002010D01*
X006972Y001590D01*
X007138Y001590D02*
X007278Y001590D01*
X007208Y001590D02*
X007208Y002010D01*
X007278Y002010D02*
X007138Y002010D01*
X007459Y001520D02*
X007739Y001520D01*
X007919Y001590D02*
X007919Y002010D01*
X008059Y001870D01*
X008199Y002010D01*
X008199Y001590D01*
X008379Y001660D02*
X008449Y001590D01*
X008590Y001590D01*
X008660Y001660D01*
X008660Y001940D01*
X008590Y002010D01*
X008449Y002010D01*
X008379Y001940D01*
X008449Y002590D02*
X008379Y002660D01*
X008449Y002590D02*
X008590Y002590D01*
X008660Y002660D01*
X008660Y002940D01*
X008590Y003010D01*
X008449Y003010D01*
X008379Y002940D01*
X008199Y003010D02*
X008199Y002590D01*
X008059Y002870D02*
X007919Y003010D01*
X007919Y002590D01*
X007739Y002520D02*
X007459Y002520D01*
X008059Y002870D02*
X008199Y003010D01*
X008840Y002940D02*
X008840Y002800D01*
X008910Y002730D01*
X009120Y002730D01*
X009120Y002590D02*
X009120Y003010D01*
X008910Y003010D01*
X008840Y002940D01*
X009120Y003590D02*
X009120Y004010D01*
X008910Y004010D01*
X008840Y003940D01*
X008840Y003800D01*
X008910Y003730D01*
X009120Y003730D01*
X009120Y004590D02*
X009120Y005010D01*
X008910Y005010D01*
X008840Y004940D01*
X008840Y004800D01*
X008910Y004730D01*
X009120Y004730D01*
X008199Y005010D02*
X008059Y004870D01*
X008910Y007590D02*
X009050Y007590D01*
X009120Y007660D01*
X009050Y007800D02*
X009120Y007870D01*
X009120Y007940D01*
X009050Y008010D01*
X008910Y008010D01*
X008840Y007940D01*
X008910Y007800D02*
X008840Y007730D01*
X008840Y007660D01*
X008910Y007590D01*
X008910Y007800D02*
X009050Y007800D01*
X009050Y008590D02*
X008910Y008590D01*
X008840Y008660D01*
X008840Y008730D01*
X008910Y008800D01*
X009050Y008800D01*
X009120Y008870D01*
X009120Y008940D01*
X009050Y009010D01*
X008910Y009010D01*
X008840Y008940D01*
X008660Y009010D02*
X008660Y008590D01*
X008660Y008730D02*
X008449Y008730D01*
X008379Y008800D01*
X008379Y008940D01*
X008449Y009010D01*
X008660Y009010D01*
X008660Y009590D02*
X008379Y009590D01*
X008519Y009800D02*
X008660Y009800D01*
X008660Y010010D02*
X008660Y009590D01*
X008840Y009590D02*
X009120Y009590D01*
X009120Y010010D01*
X008660Y010010D02*
X008379Y010010D01*
X008199Y010590D02*
X007989Y010590D01*
X007919Y010660D01*
X007919Y010940D01*
X007989Y011010D01*
X008199Y011010D01*
X008199Y010590D01*
X009120Y008660D02*
X009050Y008590D01*
X009120Y002010D02*
X008910Y002010D01*
X008840Y001940D01*
X008840Y001800D01*
X008910Y001730D01*
X009120Y001730D01*
X009120Y001590D02*
X009120Y002010D01*
X009050Y001010D02*
X008910Y001010D01*
X008840Y000940D01*
X008840Y000800D02*
X008980Y000800D01*
X009120Y000660D02*
X009050Y000590D01*
X008910Y000590D01*
X008840Y000660D01*
X008840Y000800D01*
X008660Y000590D02*
X008660Y001010D01*
X008379Y000590D01*
X008379Y001010D01*
X008199Y001010D02*
X008199Y000590D01*
X007989Y000590D01*
X007919Y000660D01*
X007919Y000940D01*
X007989Y001010D01*
X008199Y001010D01*
X009050Y001010D02*
X009120Y000940D01*
X009120Y000660D01*
X003550Y011590D02*
X003620Y011660D01*
X003620Y011940D01*
X003550Y012010D01*
X003410Y012010D01*
X003340Y011940D01*
X003340Y011800D02*
X003480Y011800D01*
X003340Y011800D02*
X003340Y011660D01*
X003410Y011590D01*
X003550Y011590D01*
X003160Y011590D02*
X003160Y012010D01*
X002949Y012010D01*
X002879Y011940D01*
X002879Y011800D01*
X002949Y011730D01*
X003160Y011730D01*
X003100Y011010D02*
X002960Y011010D01*
X002890Y010940D01*
X002890Y010800D02*
X003030Y010800D01*
X002890Y010800D02*
X002890Y010660D01*
X002960Y010590D01*
X003100Y010590D01*
X003170Y010660D01*
X003170Y010940D01*
X003100Y011010D01*
X002710Y011010D02*
X002710Y010590D01*
X002710Y010730D02*
X002499Y010730D01*
X002429Y010800D01*
X002429Y010940D01*
X002499Y011010D01*
X002710Y011010D01*
X002699Y011590D02*
X002559Y011590D01*
X002629Y011590D02*
X002629Y012010D01*
X002699Y012010D02*
X002559Y012010D01*
X002559Y012590D02*
X002699Y012590D01*
X002629Y012590D02*
X002629Y013010D01*
X002699Y013010D02*
X002559Y013010D01*
X002879Y012940D02*
X002879Y012800D01*
X002949Y012730D01*
X003160Y012730D01*
X003160Y012590D02*
X003160Y013010D01*
X002949Y013010D01*
X002879Y012940D01*
X002699Y013590D02*
X002559Y013590D01*
X002629Y013590D02*
X002629Y014010D01*
X002699Y014010D02*
X002559Y014010D01*
X002392Y013940D02*
X002392Y013660D01*
X002322Y013590D01*
X002182Y013590D01*
X002112Y013660D01*
X002112Y013940D01*
X002182Y014010D01*
X002322Y014010D01*
X002392Y013940D01*
X002322Y014590D02*
X002182Y014590D01*
X002112Y014660D01*
X002112Y014940D01*
X002182Y015010D01*
X002322Y015010D01*
X002392Y014940D01*
X002392Y014660D01*
X002322Y014590D01*
X002559Y014590D02*
X002699Y014590D01*
X002629Y014590D02*
X002629Y015010D01*
X002699Y015010D02*
X002559Y015010D01*
X002879Y014940D02*
X002879Y014800D01*
X002949Y014730D01*
X003160Y014730D01*
X003160Y014590D02*
X003160Y015010D01*
X002949Y015010D01*
X002879Y014940D01*
X002960Y015590D02*
X002890Y015660D01*
X002890Y015800D01*
X003030Y015800D01*
X003170Y015660D02*
X003100Y015590D01*
X002960Y015590D01*
X002890Y015940D02*
X002960Y016010D01*
X003100Y016010D01*
X003170Y015940D01*
X003170Y015660D01*
X003410Y015010D02*
X003340Y014940D01*
X003410Y015010D02*
X003550Y015010D01*
X003620Y014940D01*
X003620Y014660D01*
X003550Y014590D01*
X003410Y014590D01*
X003340Y014660D01*
X003340Y014800D01*
X003480Y014800D01*
X003410Y014010D02*
X003550Y014010D01*
X003620Y013940D01*
X003620Y013660D01*
X003550Y013590D01*
X003410Y013590D01*
X003340Y013660D01*
X003340Y013800D01*
X003480Y013800D01*
X003340Y013940D02*
X003410Y014010D01*
X003160Y014010D02*
X003160Y013590D01*
X003160Y013730D02*
X002949Y013730D01*
X002879Y013800D01*
X002879Y013940D01*
X002949Y014010D01*
X003160Y014010D01*
X003410Y013010D02*
X003340Y012940D01*
X003410Y013010D02*
X003550Y013010D01*
X003620Y012940D01*
X003620Y012660D01*
X003550Y012590D01*
X003410Y012590D01*
X003340Y012660D01*
X003340Y012800D01*
X003480Y012800D01*
X003320Y010010D02*
X003320Y009660D01*
X003250Y009590D01*
X001932Y013590D02*
X001652Y013590D01*
X001792Y013590D02*
X001792Y014010D01*
X001932Y013870D01*
X001932Y014590D02*
X001652Y014590D01*
X001792Y014590D02*
X001792Y015010D01*
X001932Y014870D01*
X001472Y014940D02*
X001401Y015010D01*
X001261Y015010D01*
X001191Y014940D01*
X001191Y014870D01*
X001472Y014590D01*
X001191Y014590D01*
X001261Y014010D02*
X001191Y013940D01*
X001191Y013870D01*
X001261Y013800D01*
X001191Y013730D01*
X001191Y013660D01*
X001261Y013590D01*
X001401Y013590D01*
X001472Y013660D01*
X001472Y013940D02*
X001401Y014010D01*
X001261Y014010D01*
X001261Y013800D02*
X001331Y013800D01*
X001272Y015590D02*
X001202Y015660D01*
X001202Y015800D01*
X001272Y015870D01*
X001342Y015870D01*
X001482Y015800D01*
X001482Y016010D01*
X001202Y016010D01*
X001272Y015590D02*
X001412Y015590D01*
X001482Y015660D01*
X001662Y015660D02*
X001662Y015940D01*
X001732Y016010D01*
X001872Y016010D01*
X001942Y015940D01*
X001942Y015660D01*
X001872Y015590D01*
X001732Y015590D01*
X001662Y015660D01*
X002109Y015590D02*
X002249Y015590D01*
X002179Y015590D02*
X002179Y016010D01*
X002249Y016010D02*
X002109Y016010D01*
X002109Y016590D02*
X002249Y016590D01*
X002179Y016590D02*
X002179Y017010D01*
X002249Y017010D02*
X002109Y017010D01*
X001942Y016940D02*
X001942Y016660D01*
X001872Y016590D01*
X001732Y016590D01*
X001662Y016660D01*
X001662Y016940D01*
X001732Y017010D01*
X001872Y017010D01*
X001942Y016940D01*
X001872Y017590D02*
X001732Y017590D01*
X001662Y017660D01*
X001662Y017940D01*
X001732Y018010D01*
X001872Y018010D01*
X001942Y017940D01*
X001942Y017660D01*
X001872Y017590D01*
X002109Y017590D02*
X002249Y017590D01*
X002179Y017590D02*
X002179Y018010D01*
X002249Y018010D02*
X002109Y018010D01*
X002109Y018590D02*
X002249Y018590D01*
X002179Y018590D02*
X002179Y019010D01*
X002249Y019010D02*
X002109Y019010D01*
X001942Y018940D02*
X001942Y018660D01*
X001872Y018590D01*
X001732Y018590D01*
X001662Y018660D01*
X001662Y018940D01*
X001732Y019010D01*
X001872Y019010D01*
X001942Y018940D01*
X001872Y019590D02*
X001732Y019590D01*
X001662Y019660D01*
X001662Y019940D01*
X001732Y020010D01*
X001872Y020010D01*
X001942Y019940D01*
X001942Y019660D01*
X001872Y019590D01*
X002109Y019590D02*
X002249Y019590D01*
X002179Y019590D02*
X002179Y020010D01*
X002249Y020010D02*
X002109Y020010D01*
X002429Y019940D02*
X002429Y019800D01*
X002499Y019730D01*
X002710Y019730D01*
X002710Y019590D02*
X002710Y020010D01*
X002499Y020010D01*
X002429Y019940D01*
X002890Y019940D02*
X002960Y020010D01*
X003100Y020010D01*
X003170Y019940D01*
X003170Y019660D01*
X003100Y019590D01*
X002960Y019590D01*
X002890Y019660D01*
X002890Y019800D01*
X003030Y019800D01*
X002960Y019010D02*
X003100Y019010D01*
X003170Y018940D01*
X003170Y018660D01*
X003100Y018590D01*
X002960Y018590D01*
X002890Y018660D01*
X002890Y018800D01*
X003030Y018800D01*
X002890Y018940D02*
X002960Y019010D01*
X002710Y019010D02*
X002710Y018590D01*
X002710Y018730D02*
X002499Y018730D01*
X002429Y018800D01*
X002429Y018940D01*
X002499Y019010D01*
X002710Y019010D01*
X002640Y018010D02*
X002499Y018010D01*
X002429Y017940D01*
X002429Y017660D02*
X002499Y017590D01*
X002640Y017590D01*
X002710Y017660D01*
X002710Y017940D01*
X002640Y018010D01*
X002890Y017870D02*
X002890Y017590D01*
X002890Y017800D02*
X003170Y017800D01*
X003170Y017870D02*
X003030Y018010D01*
X002890Y017870D01*
X003170Y017870D02*
X003170Y017590D01*
X003100Y017010D02*
X002960Y017010D01*
X002890Y016940D01*
X002890Y016800D02*
X003030Y016800D01*
X002890Y016800D02*
X002890Y016660D01*
X002960Y016590D01*
X003100Y016590D01*
X003170Y016660D01*
X003170Y016940D01*
X003100Y017010D01*
X002710Y017010D02*
X002710Y016590D01*
X002710Y016730D02*
X002499Y016730D01*
X002429Y016800D01*
X002429Y016940D01*
X002499Y017010D01*
X002710Y017010D01*
X002710Y016010D02*
X002499Y016010D01*
X002429Y015940D01*
X002429Y015800D01*
X002499Y015730D01*
X002710Y015730D01*
X002710Y015590D02*
X002710Y016010D01*
X001482Y016800D02*
X001202Y016800D01*
X001272Y016590D02*
X001272Y017010D01*
X001482Y016800D01*
X001412Y017590D02*
X001272Y017590D01*
X001202Y017660D01*
X001202Y017940D01*
X001482Y017660D01*
X001412Y017590D01*
X001482Y017660D02*
X001482Y017940D01*
X001412Y018010D01*
X001272Y018010D01*
X001202Y017940D01*
X001202Y018590D02*
X001482Y018590D01*
X001202Y018870D01*
X001202Y018940D01*
X001272Y019010D01*
X001412Y019010D01*
X001482Y018940D01*
X001412Y019590D02*
X001272Y019590D01*
X001202Y019660D01*
X001202Y019730D01*
X001272Y019800D01*
X001342Y019800D01*
X001272Y019800D02*
X001202Y019870D01*
X001202Y019940D01*
X001272Y020010D01*
X001412Y020010D01*
X001482Y019940D01*
X001482Y019660D02*
X001412Y019590D01*
M02*
