G75*
%MOIN*%
%OFA0B0*%
%FSLAX24Y24*%
%IPPOS*%
%LPD*%
%AMOC8*
5,1,8,0,0,1.08239X$1,22.5*
%
%ADD10C,0.0100*%
%ADD11C,0.0050*%
%ADD12C,0.0080*%
D10*
X007000Y005825D02*
X007367Y005825D01*
X007550Y006008D01*
X007367Y006192D01*
X007000Y006192D01*
X007000Y006423D02*
X007000Y006607D01*
X007000Y006515D02*
X007367Y006515D01*
X007367Y006423D01*
X007550Y006515D02*
X007642Y006515D01*
X007275Y006192D02*
X007275Y005825D01*
X007183Y007421D02*
X007183Y007696D01*
X007275Y007788D01*
X007459Y007788D01*
X007550Y007696D01*
X007550Y007421D01*
X007000Y007421D01*
X007183Y007604D02*
X007000Y007788D01*
X007000Y008019D02*
X007550Y008019D01*
X007000Y008386D01*
X007550Y008386D01*
X007275Y008618D02*
X007275Y008985D01*
X007275Y009216D02*
X007367Y009400D01*
X007367Y009492D01*
X007275Y009583D01*
X007092Y009583D01*
X007000Y009492D01*
X007000Y009308D01*
X007092Y009216D01*
X007275Y009216D02*
X007550Y009216D01*
X007550Y009583D01*
X007459Y009815D02*
X007550Y009907D01*
X007550Y010090D01*
X007459Y010182D01*
X007367Y010182D01*
X007000Y009815D01*
X007000Y010182D01*
X007000Y011012D02*
X007000Y011287D01*
X007092Y011379D01*
X007183Y011379D01*
X007275Y011287D01*
X007275Y011012D01*
X007275Y011287D02*
X007367Y011379D01*
X007459Y011379D01*
X007550Y011287D01*
X007550Y011012D01*
X007000Y011012D01*
X007000Y011610D02*
X007550Y011610D01*
X007550Y011886D01*
X007459Y011977D01*
X007275Y011977D01*
X007183Y011886D01*
X007183Y011610D01*
X007183Y011794D02*
X007000Y011977D01*
X007000Y012209D02*
X007000Y012576D01*
X007000Y012807D02*
X007367Y012807D01*
X007550Y012991D01*
X007367Y013174D01*
X007000Y013174D01*
X007000Y013406D02*
X007550Y013406D01*
X007183Y013406D02*
X007550Y013773D01*
X007459Y014004D02*
X007092Y014004D01*
X007000Y014096D01*
X007000Y014280D01*
X007092Y014371D01*
X007459Y014371D01*
X007550Y014280D01*
X007550Y014096D01*
X007459Y014004D01*
X007000Y013773D02*
X007275Y013498D01*
X007275Y013174D02*
X007275Y012807D01*
X007550Y012576D02*
X007550Y012209D01*
X007000Y012209D01*
X007275Y012209D02*
X007275Y012392D01*
X007092Y014603D02*
X007000Y014695D01*
X007000Y014878D01*
X007092Y014970D01*
X007550Y014970D01*
X007550Y015201D02*
X007550Y015568D01*
X007550Y015385D02*
X007000Y015385D01*
X007092Y014603D02*
X007550Y014603D01*
D11*
X006725Y014919D02*
X006425Y014919D01*
X006425Y014819D02*
X006425Y015019D01*
X006425Y015142D02*
X006425Y015192D01*
X006475Y015192D01*
X006475Y015142D01*
X006425Y015142D01*
X006475Y015303D02*
X006425Y015353D01*
X006425Y015453D01*
X006475Y015503D01*
X006675Y015503D01*
X006475Y015303D01*
X006675Y015303D01*
X006725Y015353D01*
X006725Y015453D01*
X006675Y015503D01*
X006725Y014919D02*
X006625Y014819D01*
X006625Y014697D02*
X006425Y014597D01*
X006625Y014497D01*
X005925Y014980D02*
X005775Y014980D01*
X005825Y015081D01*
X005825Y015131D01*
X005775Y015181D01*
X005675Y015181D01*
X005625Y015131D01*
X005625Y015030D01*
X005675Y014980D01*
X005775Y014858D02*
X005775Y014658D01*
X005775Y014536D02*
X005625Y014536D01*
X005775Y014536D02*
X005825Y014486D01*
X005825Y014336D01*
X005625Y014336D01*
X005825Y014217D02*
X005825Y014167D01*
X005725Y014067D01*
X005625Y014067D02*
X005825Y014067D01*
X005925Y013945D02*
X005625Y013745D01*
X005625Y013630D02*
X005675Y013580D01*
X005875Y013580D01*
X005825Y013530D02*
X005825Y013630D01*
X005825Y013408D02*
X005625Y013408D01*
X005625Y013258D01*
X005675Y013208D01*
X005825Y013208D01*
X005775Y013086D02*
X005675Y013086D01*
X005625Y013036D01*
X005625Y012936D01*
X005675Y012886D01*
X005775Y012886D01*
X005825Y012936D01*
X005825Y013036D01*
X005775Y013086D01*
X005825Y012767D02*
X005725Y012617D01*
X005625Y012767D01*
X005625Y012617D02*
X005925Y012617D01*
X005775Y012495D02*
X005625Y012495D01*
X005625Y012345D01*
X005675Y012295D01*
X005725Y012345D01*
X005725Y012495D01*
X005775Y012495D02*
X005825Y012445D01*
X005825Y012345D01*
X005775Y012173D02*
X005725Y012173D01*
X005725Y011973D01*
X005675Y011973D02*
X005775Y011973D01*
X005825Y012023D01*
X005825Y012123D01*
X005775Y012173D01*
X005625Y012123D02*
X005625Y012023D01*
X005675Y011973D01*
X005825Y011854D02*
X005825Y011804D01*
X005725Y011704D01*
X005625Y011704D02*
X005825Y011704D01*
X005775Y011582D02*
X005675Y011582D01*
X005625Y011532D01*
X005625Y011382D01*
X005925Y011382D01*
X005825Y011382D02*
X005825Y011532D01*
X005775Y011582D01*
X005925Y011260D02*
X005625Y011059D01*
X005625Y010937D02*
X005775Y010937D01*
X005825Y010887D01*
X005775Y010837D01*
X005625Y010837D01*
X005625Y010737D02*
X005825Y010737D01*
X005825Y010787D01*
X005775Y010837D01*
X005775Y010615D02*
X005675Y010615D01*
X005625Y010565D01*
X005625Y010465D01*
X005675Y010415D01*
X005775Y010415D01*
X005825Y010465D01*
X005825Y010565D01*
X005775Y010615D01*
X005825Y010293D02*
X005825Y010143D01*
X005775Y010093D01*
X005675Y010093D01*
X005625Y010143D01*
X005625Y010293D01*
X005625Y009981D02*
X005625Y009931D01*
X005675Y009931D01*
X005675Y009981D01*
X005625Y009981D01*
X005625Y009809D02*
X005625Y009659D01*
X005675Y009609D01*
X005775Y009609D01*
X005825Y009659D01*
X005825Y009809D01*
X005825Y009444D02*
X005625Y009444D01*
X005625Y009394D02*
X005625Y009494D01*
X005825Y009444D02*
X005825Y009394D01*
X005925Y009444D02*
X005975Y009444D01*
X005825Y009280D02*
X005825Y009179D01*
X005875Y009230D02*
X005675Y009230D01*
X005625Y009280D01*
X005675Y009057D02*
X005775Y009057D01*
X005825Y009007D01*
X005825Y008907D01*
X005775Y008857D01*
X005675Y008857D01*
X005625Y008907D01*
X005625Y009007D01*
X005675Y009057D01*
X005675Y008735D02*
X005775Y008735D01*
X005825Y008685D01*
X005825Y008535D01*
X005925Y008535D02*
X005625Y008535D01*
X005625Y008685D01*
X005675Y008735D01*
X005675Y008413D02*
X005775Y008413D01*
X005825Y008363D01*
X005825Y008263D01*
X005775Y008213D01*
X005675Y008213D01*
X005625Y008263D01*
X005625Y008363D01*
X005675Y008413D01*
X005825Y008094D02*
X005825Y008044D01*
X005725Y007944D01*
X005625Y007944D02*
X005825Y007944D01*
X005825Y007822D02*
X005825Y007672D01*
X005775Y007622D01*
X005675Y007622D01*
X005625Y007672D01*
X005625Y007822D01*
X005625Y007500D02*
X005625Y007350D01*
X005675Y007300D01*
X005725Y007350D01*
X005725Y007500D01*
X005775Y007500D02*
X005625Y007500D01*
X005775Y007500D02*
X005825Y007450D01*
X005825Y007350D01*
X005925Y007177D02*
X005625Y006977D01*
X005625Y006655D02*
X005925Y006855D01*
X005825Y006544D02*
X005775Y006544D01*
X005775Y006494D01*
X005825Y006494D01*
X005825Y006544D01*
X005675Y006544D02*
X005625Y006544D01*
X005625Y006494D01*
X005675Y006494D01*
X005675Y006544D01*
X005675Y006372D02*
X005625Y006322D01*
X005625Y006172D01*
X005525Y006172D02*
X005825Y006172D01*
X005825Y006322D01*
X005775Y006372D01*
X005675Y006372D01*
X005625Y006057D02*
X005675Y006007D01*
X005875Y006007D01*
X005825Y005957D02*
X005825Y006057D01*
X005825Y005842D02*
X005825Y005742D01*
X005875Y005792D02*
X005675Y005792D01*
X005625Y005842D01*
X005625Y005620D02*
X005775Y005620D01*
X005825Y005570D01*
X005825Y005470D01*
X005775Y005420D01*
X005925Y005420D02*
X005625Y005420D01*
X005925Y014980D02*
X005925Y015181D01*
X005875Y015303D02*
X005925Y015353D01*
X005925Y015453D01*
X005875Y015503D01*
X005825Y015503D01*
X005625Y015303D01*
X005625Y015503D01*
D12*
X001459Y000610D02*
X001529Y000540D01*
X001669Y000540D01*
X001739Y000610D01*
X001919Y000680D02*
X001919Y000960D01*
X001739Y000890D02*
X001669Y000960D01*
X001529Y000960D01*
X001459Y000890D01*
X001459Y000820D01*
X001529Y000750D01*
X001459Y000680D01*
X001459Y000610D01*
X001529Y000750D02*
X001599Y000750D01*
X001919Y000680D02*
X002059Y000540D01*
X002200Y000680D01*
X002200Y000960D01*
X002380Y000890D02*
X002380Y000820D01*
X002450Y000750D01*
X002380Y000680D01*
X002380Y000610D01*
X002450Y000540D01*
X002590Y000540D01*
X002660Y000610D01*
X002520Y000750D02*
X002450Y000750D01*
X002380Y000890D02*
X002450Y000960D01*
X002590Y000960D01*
X002660Y000890D01*
X002639Y001540D02*
X002639Y001960D01*
X002429Y001960D01*
X002359Y001890D01*
X002359Y001750D01*
X002429Y001680D01*
X002639Y001680D01*
X002499Y001680D02*
X002359Y001540D01*
X002179Y001540D02*
X002179Y001960D01*
X001899Y001960D01*
X001718Y001960D02*
X001718Y001540D01*
X001899Y001540D02*
X002179Y001540D01*
X002179Y001750D02*
X002039Y001750D01*
X001718Y001960D02*
X001438Y001540D01*
X001438Y001960D01*
X001512Y002540D02*
X001442Y002610D01*
X001442Y002680D01*
X001512Y002750D01*
X001722Y002750D01*
X001722Y002610D01*
X001652Y002540D01*
X001512Y002540D01*
X001722Y002750D02*
X001582Y002890D01*
X001442Y002960D01*
X001902Y002890D02*
X001902Y002610D01*
X001972Y002540D01*
X002112Y002540D01*
X002182Y002610D01*
X002182Y002890D01*
X002112Y002960D01*
X001972Y002960D01*
X001902Y002890D01*
X002349Y002960D02*
X002489Y002960D01*
X002419Y002960D02*
X002419Y002540D01*
X002489Y002540D02*
X002349Y002540D01*
X002669Y002750D02*
X002669Y002890D01*
X002739Y002960D01*
X002950Y002960D01*
X002950Y002540D01*
X002950Y002680D02*
X002739Y002680D01*
X002669Y002750D01*
X003130Y002750D02*
X003130Y002610D01*
X003200Y002540D01*
X003340Y002540D01*
X003410Y002610D01*
X003410Y002890D01*
X003340Y002960D01*
X003200Y002960D01*
X003130Y002890D01*
X003130Y002750D02*
X003270Y002750D01*
X003340Y003540D02*
X003200Y003540D01*
X003130Y003610D01*
X003130Y003750D01*
X003270Y003750D01*
X003410Y003610D02*
X003340Y003540D01*
X003410Y003610D02*
X003410Y003890D01*
X003340Y003960D01*
X003200Y003960D01*
X003130Y003890D01*
X002950Y003960D02*
X002950Y003540D01*
X002950Y003680D02*
X002739Y003680D01*
X002669Y003750D01*
X002669Y003890D01*
X002739Y003960D01*
X002950Y003960D01*
X002939Y004540D02*
X002939Y004960D01*
X003079Y004960D02*
X002799Y004960D01*
X002618Y004470D02*
X002338Y004470D01*
X002158Y004540D02*
X002158Y004960D01*
X001948Y004960D01*
X001878Y004890D01*
X001878Y004750D01*
X001948Y004680D01*
X002158Y004680D01*
X002018Y004680D02*
X001878Y004540D01*
X001698Y004540D02*
X001417Y004960D01*
X001698Y004960D02*
X001417Y004540D01*
X001442Y003960D02*
X001442Y003890D01*
X001722Y003610D01*
X001722Y003540D01*
X001902Y003610D02*
X001902Y003890D01*
X001972Y003960D01*
X002112Y003960D01*
X002182Y003890D01*
X002182Y003610D01*
X002112Y003540D01*
X001972Y003540D01*
X001902Y003610D01*
X001722Y003960D02*
X001442Y003960D01*
X002349Y003960D02*
X002489Y003960D01*
X002419Y003960D02*
X002419Y003540D01*
X002489Y003540D02*
X002349Y003540D01*
X003259Y004540D02*
X003399Y004680D01*
X003329Y004680D02*
X003539Y004680D01*
X003539Y004540D02*
X003539Y004960D01*
X003329Y004960D01*
X003259Y004890D01*
X003259Y004750D01*
X003329Y004680D01*
X003719Y004750D02*
X004000Y004750D01*
X004000Y004820D02*
X003859Y004960D01*
X003719Y004820D01*
X003719Y004540D01*
X004000Y004540D02*
X004000Y004820D01*
X004180Y004960D02*
X004180Y004610D01*
X004250Y004540D01*
X004390Y004540D01*
X004460Y004610D01*
X004460Y004960D01*
X004440Y005540D02*
X004300Y005540D01*
X004230Y005610D01*
X004230Y005960D01*
X004050Y005820D02*
X003909Y005960D01*
X003769Y005820D01*
X003769Y005540D01*
X003589Y005540D02*
X003589Y005960D01*
X003379Y005960D01*
X003309Y005890D01*
X003309Y005750D01*
X003379Y005680D01*
X003589Y005680D01*
X003449Y005680D02*
X003309Y005540D01*
X003129Y005960D02*
X002849Y005960D01*
X002989Y005960D02*
X002989Y005540D01*
X002668Y005470D02*
X002388Y005470D01*
X002068Y005540D02*
X002068Y005960D01*
X002208Y005960D02*
X001928Y005960D01*
X001748Y005960D02*
X001467Y005540D01*
X001748Y005540D02*
X001467Y005960D01*
X001527Y006540D02*
X001667Y006540D01*
X001737Y006610D01*
X001667Y006750D02*
X001737Y006820D01*
X001737Y006890D01*
X001667Y006960D01*
X001527Y006960D01*
X001457Y006890D01*
X001527Y006750D02*
X001457Y006680D01*
X001457Y006610D01*
X001527Y006540D01*
X001527Y006750D02*
X001667Y006750D01*
X001917Y006960D02*
X002198Y006960D01*
X002058Y006960D02*
X002058Y006540D01*
X002378Y006610D02*
X002448Y006540D01*
X002588Y006540D01*
X002658Y006610D01*
X002658Y006890D01*
X002588Y006960D01*
X002448Y006960D01*
X002378Y006890D01*
X002838Y006470D02*
X003118Y006470D01*
X003299Y006960D02*
X003579Y006960D01*
X003439Y006960D02*
X003439Y006540D01*
X003759Y006540D02*
X003899Y006680D01*
X003829Y006680D02*
X004039Y006680D01*
X004039Y006540D02*
X004039Y006960D01*
X003829Y006960D01*
X003759Y006890D01*
X003759Y006750D01*
X003829Y006680D01*
X004219Y006750D02*
X004500Y006750D01*
X004500Y006820D02*
X004359Y006960D01*
X004219Y006820D01*
X004219Y006540D01*
X004500Y006540D02*
X004500Y006820D01*
X004680Y006960D02*
X004680Y006610D01*
X004750Y006540D01*
X004890Y006540D01*
X004960Y006610D01*
X004960Y006960D01*
X004890Y007540D02*
X004750Y007540D01*
X004680Y007610D01*
X004680Y007960D01*
X004500Y007820D02*
X004359Y007960D01*
X004219Y007820D01*
X004219Y007540D01*
X004039Y007540D02*
X004039Y007960D01*
X003829Y007960D01*
X003759Y007890D01*
X003759Y007750D01*
X003829Y007680D01*
X004039Y007680D01*
X003899Y007680D02*
X003759Y007540D01*
X003439Y007540D02*
X003439Y007960D01*
X003579Y007960D02*
X003299Y007960D01*
X003118Y007470D02*
X002838Y007470D01*
X002658Y007540D02*
X002658Y007960D01*
X002448Y007960D01*
X002378Y007890D01*
X002378Y007750D01*
X002448Y007680D01*
X002658Y007680D01*
X002518Y007680D02*
X002378Y007540D01*
X002058Y007540D02*
X002058Y007960D01*
X002198Y007960D02*
X001917Y007960D01*
X001737Y007890D02*
X001737Y007820D01*
X001667Y007750D01*
X001527Y007750D01*
X001457Y007680D01*
X001457Y007610D01*
X001527Y007540D01*
X001667Y007540D01*
X001737Y007610D01*
X001737Y007890D02*
X001667Y007960D01*
X001527Y007960D01*
X001457Y007890D01*
X001969Y008540D02*
X001899Y008610D01*
X001899Y008890D01*
X001969Y008960D01*
X002179Y008960D01*
X002179Y008540D01*
X001969Y008540D01*
X001718Y008750D02*
X001438Y008750D01*
X001578Y008890D02*
X001578Y008610D01*
X001969Y009540D02*
X001899Y009610D01*
X001899Y009890D01*
X001969Y009960D01*
X002179Y009960D01*
X002179Y009540D01*
X001969Y009540D01*
X001718Y009750D02*
X001438Y009750D01*
X001512Y010540D02*
X001442Y010610D01*
X001442Y010890D01*
X001512Y010960D01*
X001652Y010960D01*
X001722Y010890D01*
X001722Y010820D01*
X001652Y010750D01*
X001442Y010750D01*
X001512Y010540D02*
X001652Y010540D01*
X001722Y010610D01*
X001902Y010610D02*
X001902Y010890D01*
X001972Y010960D01*
X002112Y010960D01*
X002182Y010890D01*
X002182Y010610D01*
X002112Y010540D01*
X001972Y010540D01*
X001902Y010610D01*
X002349Y010540D02*
X002489Y010540D01*
X002419Y010540D02*
X002419Y010960D01*
X002489Y010960D02*
X002349Y010960D01*
X002669Y010890D02*
X002669Y010750D01*
X002739Y010680D01*
X002950Y010680D01*
X002950Y010540D02*
X002950Y010960D01*
X002739Y010960D01*
X002669Y010890D01*
X003130Y010890D02*
X003200Y010960D01*
X003340Y010960D01*
X003410Y010890D01*
X003410Y010610D01*
X003340Y010540D01*
X003200Y010540D01*
X003130Y010610D01*
X003130Y010750D01*
X003270Y010750D01*
X003400Y011540D02*
X003400Y011960D01*
X003189Y011960D01*
X003119Y011890D01*
X003119Y011750D01*
X003189Y011680D01*
X003400Y011680D01*
X003580Y011610D02*
X003580Y011750D01*
X003720Y011750D01*
X003860Y011610D02*
X003790Y011540D01*
X003650Y011540D01*
X003580Y011610D01*
X003860Y011610D02*
X003860Y011890D01*
X003790Y011960D01*
X003650Y011960D01*
X003580Y011890D01*
X003650Y012540D02*
X003580Y012610D01*
X003580Y012750D01*
X003720Y012750D01*
X003860Y012890D02*
X003860Y012610D01*
X003790Y012540D01*
X003650Y012540D01*
X003580Y012890D02*
X003650Y012960D01*
X003790Y012960D01*
X003860Y012890D01*
X003400Y012960D02*
X003400Y012540D01*
X003400Y012680D02*
X003189Y012680D01*
X003119Y012750D01*
X003119Y012890D01*
X003189Y012960D01*
X003400Y012960D01*
X003400Y013540D02*
X003400Y013960D01*
X003189Y013960D01*
X003119Y013890D01*
X003119Y013750D01*
X003189Y013680D01*
X003400Y013680D01*
X003580Y013610D02*
X003650Y013540D01*
X003790Y013540D01*
X003860Y013610D01*
X003860Y013890D01*
X003790Y013960D01*
X003650Y013960D01*
X003580Y013890D01*
X003580Y013750D02*
X003720Y013750D01*
X003580Y013750D02*
X003580Y013610D01*
X003650Y014540D02*
X003580Y014610D01*
X003580Y014750D01*
X003720Y014750D01*
X003860Y014890D02*
X003860Y014610D01*
X003790Y014540D01*
X003650Y014540D01*
X003580Y014890D02*
X003650Y014960D01*
X003790Y014960D01*
X003860Y014890D01*
X003400Y014960D02*
X003400Y014540D01*
X003400Y014680D02*
X003189Y014680D01*
X003119Y014750D01*
X003119Y014890D01*
X003189Y014960D01*
X003400Y014960D01*
X003340Y015540D02*
X003200Y015540D01*
X003130Y015610D01*
X003130Y015750D01*
X003270Y015750D01*
X003410Y015610D02*
X003340Y015540D01*
X003410Y015610D02*
X003410Y015890D01*
X003340Y015960D01*
X003200Y015960D01*
X003130Y015890D01*
X002950Y015960D02*
X002739Y015960D01*
X002669Y015890D01*
X002669Y015750D01*
X002739Y015680D01*
X002950Y015680D01*
X002950Y015540D02*
X002950Y015960D01*
X002489Y015960D02*
X002349Y015960D01*
X002419Y015960D02*
X002419Y015540D01*
X002489Y015540D02*
X002349Y015540D01*
X002182Y015610D02*
X002112Y015540D01*
X001972Y015540D01*
X001902Y015610D01*
X001902Y015890D01*
X001972Y015960D01*
X002112Y015960D01*
X002182Y015890D01*
X002182Y015610D01*
X001722Y015610D02*
X001652Y015540D01*
X001512Y015540D01*
X001442Y015610D01*
X001442Y015750D01*
X001512Y015820D01*
X001582Y015820D01*
X001722Y015750D01*
X001722Y015960D01*
X001442Y015960D01*
X001512Y016540D02*
X001512Y016960D01*
X001722Y016750D01*
X001442Y016750D01*
X001902Y016610D02*
X001902Y016890D01*
X001972Y016960D01*
X002112Y016960D01*
X002182Y016890D01*
X002182Y016610D01*
X002112Y016540D01*
X001972Y016540D01*
X001902Y016610D01*
X002349Y016540D02*
X002489Y016540D01*
X002419Y016540D02*
X002419Y016960D01*
X002489Y016960D02*
X002349Y016960D01*
X002669Y016890D02*
X002669Y016750D01*
X002739Y016680D01*
X002950Y016680D01*
X002950Y016540D02*
X002950Y016960D01*
X002739Y016960D01*
X002669Y016890D01*
X002739Y017540D02*
X002669Y017610D01*
X002739Y017540D02*
X002880Y017540D01*
X002950Y017610D01*
X002950Y017890D01*
X002880Y017960D01*
X002739Y017960D01*
X002669Y017890D01*
X002489Y017960D02*
X002349Y017960D01*
X002419Y017960D02*
X002419Y017540D01*
X002489Y017540D02*
X002349Y017540D01*
X002182Y017610D02*
X002112Y017540D01*
X001972Y017540D01*
X001902Y017610D01*
X001902Y017890D01*
X001972Y017960D01*
X002112Y017960D01*
X002182Y017890D01*
X002182Y017610D01*
X001722Y017610D02*
X001442Y017890D01*
X001442Y017610D01*
X001512Y017540D01*
X001652Y017540D01*
X001722Y017610D01*
X001722Y017890D01*
X001652Y017960D01*
X001512Y017960D01*
X001442Y017890D01*
X001442Y018540D02*
X001722Y018540D01*
X001442Y018820D01*
X001442Y018890D01*
X001512Y018960D01*
X001652Y018960D01*
X001722Y018890D01*
X001902Y018890D02*
X001972Y018960D01*
X002112Y018960D01*
X002182Y018890D01*
X002182Y018610D01*
X002112Y018540D01*
X001972Y018540D01*
X001902Y018610D01*
X001902Y018890D01*
X002349Y018960D02*
X002489Y018960D01*
X002419Y018960D02*
X002419Y018540D01*
X002489Y018540D02*
X002349Y018540D01*
X002669Y018750D02*
X002669Y018890D01*
X002739Y018960D01*
X002950Y018960D01*
X002950Y018540D01*
X002950Y018680D02*
X002739Y018680D01*
X002669Y018750D01*
X003130Y018750D02*
X003130Y018610D01*
X003200Y018540D01*
X003340Y018540D01*
X003410Y018610D01*
X003410Y018890D01*
X003340Y018960D01*
X003200Y018960D01*
X003130Y018890D01*
X003130Y018750D02*
X003270Y018750D01*
X003270Y017960D02*
X003130Y017820D01*
X003130Y017540D01*
X003130Y017750D02*
X003410Y017750D01*
X003410Y017820D02*
X003270Y017960D01*
X003410Y017820D02*
X003410Y017540D01*
X003340Y016960D02*
X003200Y016960D01*
X003130Y016890D01*
X003130Y016750D02*
X003270Y016750D01*
X003130Y016750D02*
X003130Y016610D01*
X003200Y016540D01*
X003340Y016540D01*
X003410Y016610D01*
X003410Y016890D01*
X003340Y016960D01*
X002939Y014960D02*
X002799Y014960D01*
X002869Y014960D02*
X002869Y014540D01*
X002939Y014540D02*
X002799Y014540D01*
X002632Y014610D02*
X002632Y014890D01*
X002562Y014960D01*
X002422Y014960D01*
X002352Y014890D01*
X002352Y014610D01*
X002422Y014540D01*
X002562Y014540D01*
X002632Y014610D01*
X002172Y014540D02*
X001892Y014540D01*
X002032Y014540D02*
X002032Y014960D01*
X002172Y014820D01*
X001712Y014890D02*
X001641Y014960D01*
X001501Y014960D01*
X001431Y014890D01*
X001431Y014820D01*
X001712Y014540D01*
X001431Y014540D01*
X001501Y013960D02*
X001431Y013890D01*
X001431Y013820D01*
X001501Y013750D01*
X001431Y013680D01*
X001431Y013610D01*
X001501Y013540D01*
X001641Y013540D01*
X001712Y013610D01*
X001571Y013750D02*
X001501Y013750D01*
X001501Y013960D02*
X001641Y013960D01*
X001712Y013890D01*
X001892Y013540D02*
X002172Y013540D01*
X002032Y013540D02*
X002032Y013960D01*
X002172Y013820D01*
X002352Y013890D02*
X002352Y013610D01*
X002422Y013540D01*
X002562Y013540D01*
X002632Y013610D01*
X002632Y013890D01*
X002562Y013960D01*
X002422Y013960D01*
X002352Y013890D01*
X002799Y013960D02*
X002939Y013960D01*
X002869Y013960D02*
X002869Y013540D01*
X002939Y013540D02*
X002799Y013540D01*
X002799Y012960D02*
X002939Y012960D01*
X002869Y012960D02*
X002869Y012540D01*
X002939Y012540D02*
X002799Y012540D01*
X002632Y012610D02*
X002632Y012890D01*
X002562Y012960D01*
X002422Y012960D01*
X002352Y012890D01*
X002352Y012610D01*
X002422Y012540D01*
X002562Y012540D01*
X002632Y012610D01*
X002172Y012540D02*
X001892Y012540D01*
X002032Y012540D02*
X002032Y012960D01*
X002172Y012820D01*
X001712Y012820D02*
X001571Y012960D01*
X001571Y012540D01*
X001431Y012540D02*
X001712Y012540D01*
X001641Y011960D02*
X001501Y011960D01*
X001431Y011890D01*
X001712Y011610D01*
X001641Y011540D01*
X001501Y011540D01*
X001431Y011610D01*
X001431Y011890D01*
X001641Y011960D02*
X001712Y011890D01*
X001712Y011610D01*
X001892Y011540D02*
X002172Y011540D01*
X002032Y011540D02*
X002032Y011960D01*
X002172Y011820D01*
X002352Y011890D02*
X002352Y011610D01*
X002422Y011540D01*
X002562Y011540D01*
X002632Y011610D01*
X002632Y011890D01*
X002562Y011960D01*
X002422Y011960D01*
X002352Y011890D01*
X002799Y011960D02*
X002939Y011960D01*
X002869Y011960D02*
X002869Y011540D01*
X002939Y011540D02*
X002799Y011540D01*
X002889Y009960D02*
X002819Y009890D01*
X002889Y009960D02*
X003030Y009960D01*
X003100Y009890D01*
X003100Y009820D01*
X003030Y009750D01*
X002889Y009750D01*
X002819Y009680D01*
X002819Y009610D01*
X002889Y009540D01*
X003030Y009540D01*
X003100Y009610D01*
X003280Y009610D02*
X003280Y009960D01*
X003560Y009960D02*
X003560Y009610D01*
X003490Y009540D01*
X003350Y009540D01*
X003280Y009610D01*
X003280Y008960D02*
X003280Y008610D01*
X003350Y008540D01*
X003490Y008540D01*
X003560Y008610D01*
X003560Y008960D01*
X003100Y008890D02*
X003100Y008820D01*
X003030Y008750D01*
X002889Y008750D01*
X002819Y008680D01*
X002819Y008610D01*
X002889Y008540D01*
X003030Y008540D01*
X003100Y008610D01*
X003100Y008890D02*
X003030Y008960D01*
X002889Y008960D01*
X002819Y008890D01*
X002639Y008960D02*
X002429Y008960D01*
X002359Y008890D01*
X002359Y008820D01*
X002429Y008750D01*
X002639Y008750D01*
X002639Y008540D02*
X002429Y008540D01*
X002359Y008610D01*
X002359Y008680D01*
X002429Y008750D01*
X002639Y008540D02*
X002639Y008960D01*
X002639Y009540D02*
X002429Y009540D01*
X002359Y009610D01*
X002359Y009680D01*
X002429Y009750D01*
X002639Y009750D01*
X002639Y009540D02*
X002639Y009960D01*
X002429Y009960D01*
X002359Y009890D01*
X002359Y009820D01*
X002429Y009750D01*
X004219Y007750D02*
X004500Y007750D01*
X004500Y007820D02*
X004500Y007540D01*
X004890Y007540D02*
X004960Y007610D01*
X004960Y007960D01*
X004510Y005960D02*
X004510Y005610D01*
X004440Y005540D01*
X004050Y005540D02*
X004050Y005820D01*
X004050Y005750D02*
X003769Y005750D01*
X003560Y001960D02*
X003350Y001960D01*
X003280Y001890D01*
X003280Y001750D01*
X003350Y001680D01*
X003560Y001680D01*
X003560Y001540D02*
X003560Y001960D01*
X003100Y001960D02*
X003100Y001540D01*
X002959Y001680D01*
X002819Y001540D01*
X002819Y001960D01*
X009357Y003610D02*
X009427Y003540D01*
X009567Y003540D01*
X009637Y003610D01*
X009637Y003890D01*
X009567Y003960D01*
X009427Y003960D01*
X009357Y003890D01*
X009817Y003960D02*
X009817Y003540D01*
X010098Y003960D01*
X010098Y003540D01*
X010418Y003750D02*
X010278Y003890D01*
X010278Y003960D01*
X010418Y003750D02*
X010418Y003540D01*
X010418Y003750D02*
X010558Y003890D01*
X010558Y003960D01*
X010738Y003890D02*
X010808Y003960D01*
X010948Y003960D01*
X011018Y003890D01*
X011018Y003820D01*
X010948Y003750D01*
X010808Y003750D01*
X010738Y003680D01*
X010738Y003610D01*
X010808Y003540D01*
X010948Y003540D01*
X011018Y003610D01*
X011199Y003470D02*
X011479Y003470D01*
X011659Y003540D02*
X011659Y003960D01*
X011799Y003820D01*
X011939Y003960D01*
X011939Y003540D01*
X012119Y003610D02*
X012189Y003540D01*
X012330Y003540D01*
X012400Y003610D01*
X012400Y003890D01*
X012330Y003960D01*
X012189Y003960D01*
X012119Y003890D01*
X012580Y003890D02*
X012580Y003750D01*
X012650Y003680D01*
X012860Y003680D01*
X012860Y003540D02*
X012860Y003960D01*
X012650Y003960D01*
X012580Y003890D01*
X012330Y004540D02*
X012189Y004540D01*
X012119Y004610D01*
X011939Y004540D02*
X011939Y004960D01*
X011799Y004820D01*
X011659Y004960D01*
X011659Y004540D01*
X011479Y004470D02*
X011199Y004470D01*
X011018Y004610D02*
X010948Y004540D01*
X010808Y004540D01*
X010738Y004610D01*
X010738Y004890D02*
X010808Y004960D01*
X010948Y004960D01*
X011018Y004890D01*
X011018Y004610D01*
X011352Y005470D02*
X011632Y005470D01*
X011799Y005540D02*
X011939Y005540D01*
X011869Y005540D02*
X011869Y005960D01*
X011939Y005960D02*
X011799Y005960D01*
X012119Y005890D02*
X012119Y005750D01*
X012189Y005680D01*
X012400Y005680D01*
X012400Y005540D02*
X012400Y005960D01*
X012189Y005960D01*
X012119Y005890D01*
X012580Y005890D02*
X012650Y005960D01*
X012790Y005960D01*
X012860Y005890D01*
X012860Y005820D01*
X012790Y005750D01*
X012650Y005750D01*
X012580Y005680D01*
X012580Y005610D01*
X012650Y005540D01*
X012790Y005540D01*
X012860Y005610D01*
X012860Y004960D02*
X012650Y004960D01*
X012580Y004890D01*
X012580Y004750D01*
X012650Y004680D01*
X012860Y004680D01*
X012860Y004540D02*
X012860Y004960D01*
X012400Y004890D02*
X012400Y004610D01*
X012330Y004540D01*
X012400Y004890D02*
X012330Y004960D01*
X012189Y004960D01*
X012119Y004890D01*
X011172Y005610D02*
X011102Y005540D01*
X010962Y005540D01*
X010892Y005610D01*
X010892Y005680D01*
X010962Y005750D01*
X011102Y005750D01*
X011172Y005820D01*
X011172Y005890D01*
X011102Y005960D01*
X010962Y005960D01*
X010892Y005890D01*
X010712Y005890D02*
X010712Y005820D01*
X010641Y005750D01*
X010501Y005750D01*
X010431Y005680D01*
X010431Y005610D01*
X010501Y005540D01*
X010641Y005540D01*
X010712Y005610D01*
X010712Y005890D02*
X010641Y005960D01*
X010501Y005960D01*
X010431Y005890D01*
X010335Y006540D02*
X010194Y006540D01*
X010124Y006610D01*
X010124Y006680D01*
X010194Y006750D01*
X010335Y006750D01*
X010405Y006820D01*
X010405Y006890D01*
X010335Y006960D01*
X010194Y006960D01*
X010124Y006890D01*
X009944Y006890D02*
X009944Y006610D01*
X009874Y006540D01*
X009734Y006540D01*
X009664Y006610D01*
X009664Y006890D01*
X009734Y006960D01*
X009874Y006960D01*
X009944Y006890D01*
X010335Y006540D02*
X010405Y006610D01*
X010571Y006540D02*
X010712Y006540D01*
X010641Y006540D02*
X010641Y006960D01*
X010571Y006960D02*
X010712Y006960D01*
X010892Y006960D02*
X010892Y006540D01*
X011172Y006540D02*
X011172Y006960D01*
X011032Y006820D01*
X010892Y006960D01*
X010962Y007540D02*
X010892Y007610D01*
X010962Y007540D02*
X011102Y007540D01*
X011172Y007610D01*
X011172Y007890D01*
X011102Y007960D01*
X010962Y007960D01*
X010892Y007890D01*
X010712Y007960D02*
X010712Y007540D01*
X010431Y007540D01*
X010251Y007540D02*
X010251Y007960D01*
X010181Y007750D02*
X009971Y007540D01*
X010251Y007680D02*
X009971Y007960D01*
X010041Y008540D02*
X010181Y008540D01*
X010251Y008610D01*
X010181Y008750D02*
X010041Y008750D01*
X009971Y008680D01*
X009971Y008610D01*
X010041Y008540D01*
X010181Y008750D02*
X010251Y008820D01*
X010251Y008890D01*
X010181Y008960D01*
X010041Y008960D01*
X009971Y008890D01*
X009791Y008960D02*
X009651Y008960D01*
X009721Y008960D02*
X009721Y008540D01*
X009791Y008540D02*
X009651Y008540D01*
X010431Y008610D02*
X010431Y008890D01*
X010501Y008960D01*
X010641Y008960D01*
X010712Y008890D01*
X010712Y008610D01*
X010641Y008540D01*
X010501Y008540D01*
X010431Y008610D01*
X010892Y008540D02*
X010892Y008960D01*
X011032Y008820D01*
X011172Y008960D01*
X011172Y008540D01*
X011352Y008470D02*
X011632Y008470D01*
X011799Y008540D02*
X011939Y008540D01*
X011869Y008540D02*
X011869Y008960D01*
X011939Y008960D02*
X011799Y008960D01*
X012119Y008890D02*
X012119Y008750D01*
X012189Y008680D01*
X012400Y008680D01*
X012400Y008540D02*
X012400Y008960D01*
X012189Y008960D01*
X012119Y008890D01*
X012580Y008890D02*
X012650Y008960D01*
X012790Y008960D01*
X012860Y008890D01*
X012860Y008820D01*
X012790Y008750D01*
X012650Y008750D01*
X012580Y008680D01*
X012580Y008610D01*
X012650Y008540D01*
X012790Y008540D01*
X012860Y008610D01*
X012790Y007960D02*
X012650Y007960D01*
X012580Y007890D01*
X012650Y007750D02*
X012580Y007680D01*
X012580Y007610D01*
X012650Y007540D01*
X012790Y007540D01*
X012860Y007610D01*
X012790Y007750D02*
X012650Y007750D01*
X012790Y007750D02*
X012860Y007820D01*
X012860Y007890D01*
X012790Y007960D01*
X012400Y007960D02*
X012400Y007540D01*
X012400Y007680D02*
X012189Y007680D01*
X012119Y007750D01*
X012119Y007890D01*
X012189Y007960D01*
X012400Y007960D01*
X011939Y007960D02*
X011799Y007960D01*
X011869Y007960D02*
X011869Y007540D01*
X011939Y007540D02*
X011799Y007540D01*
X011632Y007470D02*
X011352Y007470D01*
X011799Y006960D02*
X011939Y006960D01*
X011869Y006960D02*
X011869Y006540D01*
X011939Y006540D02*
X011799Y006540D01*
X011632Y006470D02*
X011352Y006470D01*
X012119Y006750D02*
X012189Y006680D01*
X012400Y006680D01*
X012400Y006540D02*
X012400Y006960D01*
X012189Y006960D01*
X012119Y006890D01*
X012119Y006750D01*
X012580Y006680D02*
X012580Y006610D01*
X012650Y006540D01*
X012790Y006540D01*
X012860Y006610D01*
X012790Y006750D02*
X012650Y006750D01*
X012580Y006680D01*
X012580Y006890D02*
X012650Y006960D01*
X012790Y006960D01*
X012860Y006890D01*
X012860Y006820D01*
X012790Y006750D01*
X012860Y009540D02*
X012580Y009540D01*
X012400Y009540D02*
X012119Y009540D01*
X011939Y009540D02*
X011729Y009540D01*
X011659Y009610D01*
X011659Y009890D01*
X011729Y009960D01*
X011939Y009960D01*
X011939Y009540D01*
X012259Y009750D02*
X012400Y009750D01*
X012400Y009960D02*
X012400Y009540D01*
X012400Y009960D02*
X012119Y009960D01*
X012119Y010540D02*
X012400Y010540D01*
X012400Y010960D01*
X012119Y010960D01*
X011939Y010960D02*
X011939Y010540D01*
X011729Y010540D01*
X011659Y010610D01*
X011659Y010890D01*
X011729Y010960D01*
X011939Y010960D01*
X012259Y010750D02*
X012400Y010750D01*
X012580Y010540D02*
X012860Y010540D01*
X012860Y010960D01*
X012860Y011540D02*
X012860Y011960D01*
X012720Y011820D01*
X012580Y011960D01*
X012580Y011540D01*
X012400Y011470D02*
X012119Y011470D01*
X011939Y011540D02*
X011729Y011540D01*
X011659Y011610D01*
X011659Y011680D01*
X011729Y011750D01*
X011939Y011750D01*
X011729Y011750D02*
X011659Y011820D01*
X011659Y011890D01*
X011729Y011960D01*
X011939Y011960D01*
X011939Y011540D01*
X011479Y011540D02*
X011339Y011540D01*
X011409Y011540D02*
X011409Y011960D01*
X011479Y011960D02*
X011339Y011960D01*
X011172Y011820D02*
X011032Y011960D01*
X010892Y011820D01*
X010892Y011540D01*
X010892Y011750D02*
X011172Y011750D01*
X011172Y011820D02*
X011172Y011540D01*
X011269Y010960D02*
X011199Y010890D01*
X011479Y010610D01*
X011409Y010540D01*
X011269Y010540D01*
X011199Y010610D01*
X011199Y010890D01*
X011269Y010960D02*
X011409Y010960D01*
X011479Y010890D01*
X011479Y010610D01*
X011339Y009960D02*
X011339Y009540D01*
X011479Y009540D02*
X011199Y009540D01*
X011479Y009820D02*
X011339Y009960D01*
X010641Y011540D02*
X010501Y011540D01*
X010431Y011610D01*
X010431Y011680D01*
X010501Y011750D01*
X010641Y011750D01*
X010712Y011820D01*
X010712Y011890D01*
X010641Y011960D01*
X010501Y011960D01*
X010431Y011890D01*
X010712Y011610D02*
X010641Y011540D01*
X010892Y012540D02*
X011172Y012540D01*
X011172Y012960D01*
X011352Y013470D02*
X011632Y013470D01*
X011812Y013610D02*
X011883Y013540D01*
X012023Y013540D01*
X012093Y013610D01*
X012093Y013890D01*
X012023Y013960D01*
X011883Y013960D01*
X011812Y013890D01*
X011632Y014470D02*
X011352Y014470D01*
X011172Y014540D02*
X010892Y014540D01*
X010712Y014750D02*
X010431Y014750D01*
X010571Y013890D02*
X010571Y013610D01*
X010431Y013750D02*
X010712Y013750D01*
X010892Y013750D02*
X010962Y013680D01*
X011172Y013680D01*
X011172Y013540D02*
X011172Y013960D01*
X010962Y013960D01*
X010892Y013890D01*
X010892Y013750D01*
X011032Y013680D02*
X010892Y013540D01*
X010571Y012890D02*
X010571Y012610D01*
X010431Y012750D02*
X010712Y012750D01*
X011352Y012470D02*
X011632Y012470D01*
X011812Y012610D02*
X011883Y012540D01*
X012023Y012540D01*
X012093Y012610D01*
X012093Y012890D01*
X012023Y012960D01*
X011883Y012960D01*
X011812Y012890D01*
X012259Y012960D02*
X012400Y012960D01*
X012330Y012960D02*
X012330Y012540D01*
X012400Y012540D02*
X012259Y012540D01*
X012580Y012540D02*
X012580Y012960D01*
X012720Y012820D01*
X012860Y012960D01*
X012860Y012540D01*
X012860Y013540D02*
X012860Y013960D01*
X012720Y013820D01*
X012580Y013960D01*
X012580Y013540D01*
X012400Y013540D02*
X012259Y013540D01*
X012330Y013540D02*
X012330Y013960D01*
X012400Y013960D02*
X012259Y013960D01*
X012259Y014540D02*
X012400Y014540D01*
X012330Y014540D02*
X012330Y014960D01*
X012400Y014960D02*
X012259Y014960D01*
X012093Y014890D02*
X012093Y014610D01*
X012023Y014540D01*
X011883Y014540D01*
X011812Y014610D01*
X011812Y014890D02*
X011883Y014960D01*
X012023Y014960D01*
X012093Y014890D01*
X012580Y014960D02*
X012580Y014540D01*
X012720Y014820D02*
X012580Y014960D01*
X012720Y014820D02*
X012860Y014960D01*
X012860Y014540D01*
X012860Y015540D02*
X012860Y015960D01*
X012720Y015820D01*
X012580Y015960D01*
X012580Y015540D01*
X012400Y015540D02*
X012259Y015540D01*
X012330Y015540D02*
X012330Y015960D01*
X012400Y015960D02*
X012259Y015960D01*
X012093Y015890D02*
X012093Y015610D01*
X012023Y015540D01*
X011883Y015540D01*
X011812Y015610D01*
X011632Y015470D02*
X011352Y015470D01*
X011172Y015540D02*
X011172Y015960D01*
X010962Y015960D01*
X010892Y015890D01*
X010892Y015750D01*
X010962Y015680D01*
X011172Y015680D01*
X011032Y015680D02*
X010892Y015540D01*
X010712Y015750D02*
X010431Y015750D01*
X010738Y016540D02*
X010878Y016680D01*
X010808Y016680D02*
X011018Y016680D01*
X011018Y016540D02*
X011018Y016960D01*
X010808Y016960D01*
X010738Y016890D01*
X010738Y016750D01*
X010808Y016680D01*
X010558Y016750D02*
X010278Y016750D01*
X010738Y017540D02*
X011018Y017540D01*
X011018Y017960D01*
X011199Y017470D02*
X011479Y017470D01*
X011659Y017540D02*
X011869Y017750D01*
X011939Y017680D02*
X011659Y017960D01*
X011939Y017960D02*
X011939Y017540D01*
X012119Y017750D02*
X012189Y017680D01*
X012400Y017680D01*
X012400Y017540D02*
X012400Y017960D01*
X012189Y017960D01*
X012119Y017890D01*
X012119Y017750D01*
X012580Y017680D02*
X012580Y017610D01*
X012650Y017540D01*
X012790Y017540D01*
X012860Y017610D01*
X012790Y017750D02*
X012650Y017750D01*
X012580Y017680D01*
X012580Y017890D02*
X012650Y017960D01*
X012790Y017960D01*
X012860Y017890D01*
X012860Y017820D01*
X012790Y017750D01*
X012790Y016960D02*
X012650Y016960D01*
X012580Y016890D01*
X012650Y016750D02*
X012580Y016680D01*
X012580Y016610D01*
X012650Y016540D01*
X012790Y016540D01*
X012860Y016610D01*
X012790Y016750D02*
X012650Y016750D01*
X012790Y016750D02*
X012860Y016820D01*
X012860Y016890D01*
X012790Y016960D01*
X012400Y016960D02*
X012400Y016540D01*
X012400Y016680D02*
X012189Y016680D01*
X012119Y016750D01*
X012119Y016890D01*
X012189Y016960D01*
X012400Y016960D01*
X011939Y016960D02*
X011939Y016540D01*
X011939Y016680D02*
X011659Y016960D01*
X011869Y016750D02*
X011659Y016540D01*
X011479Y016470D02*
X011199Y016470D01*
X011812Y015890D02*
X011883Y015960D01*
X012023Y015960D01*
X012093Y015890D01*
X011172Y014960D02*
X011172Y014540D01*
X010558Y017750D02*
X010278Y017750D01*
X010418Y018610D02*
X010418Y018890D01*
X010558Y018750D02*
X010278Y018750D01*
X010738Y018750D02*
X010808Y018680D01*
X011018Y018680D01*
X010878Y018680D02*
X010738Y018540D01*
X010738Y018750D02*
X010738Y018890D01*
X010808Y018960D01*
X011018Y018960D01*
X011018Y018540D01*
X011199Y018470D02*
X011479Y018470D01*
X011659Y018540D02*
X011869Y018750D01*
X011939Y018680D02*
X011659Y018960D01*
X011939Y018960D02*
X011939Y018540D01*
X012119Y018750D02*
X012189Y018680D01*
X012400Y018680D01*
X012400Y018540D02*
X012400Y018960D01*
X012189Y018960D01*
X012119Y018890D01*
X012119Y018750D01*
X012580Y018680D02*
X012580Y018610D01*
X012650Y018540D01*
X012790Y018540D01*
X012860Y018610D01*
X012790Y018750D02*
X012650Y018750D01*
X012580Y018680D01*
X012580Y018890D02*
X012650Y018960D01*
X012790Y018960D01*
X012860Y018890D01*
X012860Y018820D01*
X012790Y018750D01*
X012790Y019540D02*
X012650Y019540D01*
X012580Y019610D01*
X012580Y019680D01*
X012650Y019750D01*
X012790Y019750D01*
X012860Y019820D01*
X012860Y019890D01*
X012790Y019960D01*
X012650Y019960D01*
X012580Y019890D01*
X012400Y019960D02*
X012400Y019540D01*
X012400Y019680D02*
X012189Y019680D01*
X012119Y019750D01*
X012119Y019890D01*
X012189Y019960D01*
X012400Y019960D01*
X011939Y019960D02*
X011939Y019540D01*
X011939Y019680D02*
X011659Y019960D01*
X011869Y019750D02*
X011659Y019540D01*
X011479Y019470D02*
X011199Y019470D01*
X011018Y019540D02*
X010738Y019540D01*
X010558Y019750D02*
X010278Y019750D01*
X010418Y019890D02*
X010418Y019610D01*
X011018Y019540D02*
X011018Y019960D01*
X012790Y019540D02*
X012860Y019610D01*
X012860Y009960D02*
X012860Y009540D01*
X010558Y004960D02*
X010558Y004540D01*
X010278Y004540D01*
X010098Y004540D02*
X010098Y004960D01*
X010028Y004750D02*
X009817Y004540D01*
X010098Y004680D02*
X009817Y004960D01*
X009817Y002960D02*
X010098Y002960D01*
X009958Y002960D02*
X009958Y002540D01*
X010278Y002610D02*
X010278Y002960D01*
X010558Y002960D02*
X010558Y002610D01*
X010488Y002540D01*
X010348Y002540D01*
X010278Y002610D01*
X010431Y001960D02*
X010431Y001540D01*
X010712Y001960D01*
X010712Y001540D01*
X010878Y001540D02*
X011018Y001540D01*
X010948Y001540D02*
X010948Y001960D01*
X011018Y001960D02*
X010878Y001960D01*
X011199Y001470D02*
X011479Y001470D01*
X011659Y001540D02*
X011659Y001960D01*
X011799Y001820D01*
X011939Y001960D01*
X011939Y001540D01*
X012119Y001610D02*
X012189Y001540D01*
X012330Y001540D01*
X012400Y001610D01*
X012400Y001890D01*
X012330Y001960D01*
X012189Y001960D01*
X012119Y001890D01*
X012580Y001890D02*
X012580Y001750D01*
X012650Y001680D01*
X012860Y001680D01*
X012860Y001540D02*
X012860Y001960D01*
X012650Y001960D01*
X012580Y001890D01*
X012330Y002540D02*
X012189Y002540D01*
X012119Y002610D01*
X011939Y002540D02*
X011939Y002960D01*
X011799Y002820D01*
X011659Y002960D01*
X011659Y002540D01*
X011479Y002470D02*
X011199Y002470D01*
X011018Y002610D02*
X010948Y002540D01*
X010808Y002540D01*
X010738Y002610D01*
X010738Y002890D01*
X010808Y002960D01*
X010948Y002960D01*
X011018Y002890D01*
X011018Y002610D01*
X012119Y002890D02*
X012189Y002960D01*
X012330Y002960D01*
X012400Y002890D01*
X012400Y002610D01*
X012330Y002540D01*
X012580Y002750D02*
X012650Y002680D01*
X012860Y002680D01*
X012860Y002540D02*
X012860Y002960D01*
X012650Y002960D01*
X012580Y002890D01*
X012580Y002750D01*
X012650Y000960D02*
X012580Y000890D01*
X012650Y000960D02*
X012790Y000960D01*
X012860Y000890D01*
X012860Y000610D01*
X012790Y000540D01*
X012650Y000540D01*
X012580Y000610D01*
X012580Y000750D01*
X012720Y000750D01*
X012400Y000540D02*
X012400Y000960D01*
X012119Y000540D01*
X012119Y000960D01*
X011939Y000960D02*
X011729Y000960D01*
X011659Y000890D01*
X011659Y000610D01*
X011729Y000540D01*
X011939Y000540D01*
X011939Y000960D01*
X003340Y019540D02*
X003200Y019540D01*
X003130Y019610D01*
X003130Y019750D01*
X003270Y019750D01*
X003410Y019610D02*
X003340Y019540D01*
X003410Y019610D02*
X003410Y019890D01*
X003340Y019960D01*
X003200Y019960D01*
X003130Y019890D01*
X002950Y019960D02*
X002950Y019540D01*
X002950Y019680D02*
X002739Y019680D01*
X002669Y019750D01*
X002669Y019890D01*
X002739Y019960D01*
X002950Y019960D01*
X002489Y019960D02*
X002349Y019960D01*
X002419Y019960D02*
X002419Y019540D01*
X002489Y019540D02*
X002349Y019540D01*
X002182Y019610D02*
X002182Y019890D01*
X002112Y019960D01*
X001972Y019960D01*
X001902Y019890D01*
X001902Y019610D01*
X001972Y019540D01*
X002112Y019540D01*
X002182Y019610D01*
X001722Y019610D02*
X001652Y019540D01*
X001512Y019540D01*
X001442Y019610D01*
X001442Y019680D01*
X001512Y019750D01*
X001582Y019750D01*
X001512Y019750D02*
X001442Y019820D01*
X001442Y019890D01*
X001512Y019960D01*
X001652Y019960D01*
X001722Y019890D01*
M02*
