%
M48
M72
T01C0.0200
T02C0.0400
%
T01
X1360Y4200
X3760Y6500
X4810Y8400
X6410Y12250
X6160Y12800
X6160Y13700
X6610Y13200
X6960Y12800
X6610Y14200
X6760Y10200
X6660Y6900
X4410Y12300
X4060Y12750
X3810Y13200
X4060Y13700
X3760Y14200
X2510Y10900
T02
X660Y700
X660Y1700
X660Y2700
X660Y3700
X660Y4700
X660Y5700
X660Y6700
X660Y7700
X660Y8700
X660Y9700
X660Y10700
X660Y11700
X660Y12700
X660Y13700
X660Y14700
X660Y15700
X660Y16700
X660Y17700
X660Y18700
X660Y19700
X9660Y19700
X9660Y18700
X9660Y17700
X9660Y16700
X9660Y15700
X9660Y14700
X9660Y13700
X9660Y12700
X9660Y11700
X9660Y10700
X9660Y9700
X9660Y8700
X9660Y7700
X9660Y6700
X9660Y5700
X9660Y4700
X9660Y3700
X9660Y2700
X9660Y1700
X9660Y700
M30
