%
M48
M72
T01C0.0200
T02C0.0400
%
T01
X7905Y11333
X10305Y13633
X11355Y15533
X13205Y14033
X13305Y17333
X12955Y19383
X12705Y19933
X13155Y20333
X12705Y20833
X13155Y21333
X13505Y19933
X10955Y19433
X10605Y19883
X10355Y20333
X10605Y20833
X10305Y21333
X9055Y18033
T02
X7205Y7833
X7205Y8833
X7205Y9833
X7205Y10833
X7205Y11833
X7205Y12833
X7205Y13833
X7205Y14833
X7205Y15833
X7205Y16833
X7205Y17833
X7205Y18833
X7205Y19833
X7205Y20833
X7205Y21833
X7205Y22833
X7205Y23833
X7205Y24833
X7205Y25833
X7205Y26833
X16205Y26833
X16205Y25833
X16205Y24833
X16205Y23833
X16205Y22833
X16205Y21833
X16205Y20833
X16205Y19833
X16205Y18833
X16205Y17833
X16205Y16833
X16205Y15833
X16205Y14833
X16205Y13833
X16205Y12833
X16205Y11833
X16205Y10833
X16205Y9833
X16205Y8833
X16205Y7833
M30
