G75*
%MOIN*%
%OFA0B0*%
%FSLAX24Y24*%
%IPPOS*%
%LPD*%
%AMOC8*
5,1,8,0,0,1.08239X$1,22.5*
%
%ADD10C,0.0100*%
%ADD11R,0.0315X0.0315*%
%ADD12R,0.0394X0.0433*%
%ADD13C,0.0740*%
%ADD14R,0.0472X0.0315*%
%ADD15R,0.0315X0.0472*%
%ADD16C,0.0236*%
%ADD17C,0.0400*%
D10*
X000150Y000150D02*
X000150Y020350D01*
X014150Y020350D01*
X014150Y000150D01*
X000150Y000150D01*
X000750Y000750D02*
X001700Y000750D01*
X004750Y003800D01*
X004750Y009100D01*
X004764Y009100D01*
X006914Y011250D01*
X006914Y010124D01*
X005650Y008860D01*
X005650Y008485D01*
X005390Y008911D02*
X005366Y008911D01*
X005243Y008788D01*
X005243Y008181D01*
X005274Y008150D01*
X005243Y008119D01*
X005243Y007512D01*
X005366Y007389D01*
X005934Y007389D01*
X006057Y007512D01*
X006057Y007555D01*
X006087Y007555D01*
X006156Y007487D01*
X006644Y007487D01*
X006767Y007610D01*
X006767Y008099D01*
X006717Y008150D01*
X006767Y008201D01*
X006767Y008690D01*
X006694Y008764D01*
X006748Y008818D01*
X007552Y008818D01*
X007606Y008764D01*
X007533Y008690D01*
X007533Y008201D01*
X007583Y008150D01*
X007533Y008099D01*
X007533Y007610D01*
X007656Y007487D01*
X008144Y007487D01*
X008243Y007586D01*
X008243Y007512D01*
X008366Y007389D01*
X008934Y007389D01*
X009057Y007512D01*
X009057Y008119D01*
X009026Y008150D01*
X009057Y008181D01*
X009057Y008788D01*
X008934Y008911D01*
X008910Y008911D01*
X008910Y009372D01*
X009290Y008992D01*
X009290Y004898D01*
X009330Y004803D01*
X009403Y004730D01*
X012603Y001530D01*
X012698Y001490D01*
X013030Y001490D01*
X013058Y001421D01*
X013221Y001258D01*
X013321Y001217D01*
X013277Y001195D01*
X013211Y001147D01*
X013153Y001089D01*
X013105Y001023D01*
X013068Y000950D01*
X013043Y000872D01*
X013031Y000800D01*
X013500Y000800D01*
X013500Y000700D01*
X013031Y000700D01*
X013043Y000628D01*
X013068Y000550D01*
X013105Y000477D01*
X013153Y000411D01*
X013155Y000410D01*
X001230Y000410D01*
X001242Y000421D01*
X001270Y000490D01*
X001752Y000490D01*
X001847Y000530D01*
X001920Y000603D01*
X004970Y003653D01*
X005010Y003748D01*
X005010Y008979D01*
X006654Y010622D01*
X006654Y010231D01*
X005503Y009080D01*
X005430Y009007D01*
X005390Y008912D01*
X005390Y008911D01*
X005392Y008917D02*
X005010Y008917D01*
X005010Y008818D02*
X005273Y008818D01*
X005243Y008720D02*
X005010Y008720D01*
X005010Y008621D02*
X005243Y008621D01*
X005243Y008523D02*
X005010Y008523D01*
X005010Y008424D02*
X005243Y008424D01*
X005243Y008326D02*
X005010Y008326D01*
X005010Y008227D02*
X005243Y008227D01*
X005253Y008129D02*
X005010Y008129D01*
X005010Y008030D02*
X005243Y008030D01*
X005243Y007932D02*
X005010Y007932D01*
X005010Y007833D02*
X005243Y007833D01*
X005243Y007735D02*
X005010Y007735D01*
X005010Y007636D02*
X005243Y007636D01*
X005243Y007538D02*
X005010Y007538D01*
X005010Y007439D02*
X005316Y007439D01*
X005010Y007341D02*
X009290Y007341D01*
X009290Y007439D02*
X008984Y007439D01*
X009057Y007538D02*
X009290Y007538D01*
X009290Y007636D02*
X009057Y007636D01*
X009057Y007735D02*
X009290Y007735D01*
X009290Y007833D02*
X009057Y007833D01*
X009057Y007932D02*
X009290Y007932D01*
X009290Y008030D02*
X009057Y008030D01*
X009047Y008129D02*
X009290Y008129D01*
X009290Y008227D02*
X009057Y008227D01*
X009057Y008326D02*
X009290Y008326D01*
X009290Y008424D02*
X009057Y008424D01*
X009057Y008523D02*
X009290Y008523D01*
X009290Y008621D02*
X009057Y008621D01*
X009057Y008720D02*
X009290Y008720D01*
X009290Y008818D02*
X009027Y008818D01*
X008910Y008917D02*
X009290Y008917D01*
X009267Y009015D02*
X008910Y009015D01*
X008910Y009114D02*
X009169Y009114D01*
X009070Y009212D02*
X008910Y009212D01*
X008910Y009311D02*
X008972Y009311D01*
X008650Y009514D02*
X008650Y008485D01*
X008390Y008911D02*
X008366Y008911D01*
X008243Y008788D01*
X008243Y008714D01*
X008194Y008764D01*
X008248Y008818D01*
X008273Y008818D01*
X008248Y008818D02*
X008310Y008968D01*
X008310Y009132D01*
X008248Y009282D01*
X008132Y009398D01*
X007982Y009460D01*
X007818Y009460D01*
X007668Y009398D01*
X007552Y009282D01*
X007490Y009132D01*
X007490Y008968D01*
X007552Y008818D01*
X007562Y008720D02*
X006738Y008720D01*
X006748Y008818D02*
X006810Y008968D01*
X006810Y009132D01*
X006748Y009282D01*
X006632Y009398D01*
X006578Y009420D01*
X007134Y009977D01*
X007174Y010072D01*
X007174Y010622D01*
X008390Y009406D01*
X008390Y008911D01*
X008390Y008917D02*
X008288Y008917D01*
X008310Y009015D02*
X008390Y009015D01*
X008390Y009114D02*
X008310Y009114D01*
X008277Y009212D02*
X008390Y009212D01*
X008390Y009311D02*
X008219Y009311D01*
X008105Y009409D02*
X008387Y009409D01*
X008289Y009508D02*
X006665Y009508D01*
X006605Y009409D02*
X007695Y009409D01*
X007581Y009311D02*
X006719Y009311D01*
X006777Y009212D02*
X007523Y009212D01*
X007490Y009114D02*
X006810Y009114D01*
X006810Y009015D02*
X007490Y009015D01*
X007512Y008917D02*
X006788Y008917D01*
X006767Y008621D02*
X007533Y008621D01*
X007533Y008523D02*
X006767Y008523D01*
X006767Y008424D02*
X007533Y008424D01*
X007533Y008326D02*
X006767Y008326D01*
X006767Y008227D02*
X007533Y008227D01*
X007562Y008129D02*
X006738Y008129D01*
X006767Y008030D02*
X007533Y008030D01*
X007533Y007932D02*
X006767Y007932D01*
X006767Y007833D02*
X007533Y007833D01*
X007533Y007735D02*
X006767Y007735D01*
X006767Y007636D02*
X007533Y007636D01*
X007605Y007538D02*
X006695Y007538D01*
X006361Y007815D02*
X006400Y007855D01*
X006361Y007815D02*
X005650Y007815D01*
X005984Y007439D02*
X008316Y007439D01*
X008243Y007538D02*
X008195Y007538D01*
X007900Y007855D02*
X008611Y007855D01*
X008650Y007815D01*
X009290Y007242D02*
X005010Y007242D01*
X005010Y007144D02*
X009290Y007144D01*
X009290Y007045D02*
X005010Y007045D01*
X005010Y006947D02*
X009290Y006947D01*
X009290Y006848D02*
X005010Y006848D01*
X005010Y006750D02*
X009290Y006750D01*
X009290Y006651D02*
X005010Y006651D01*
X005010Y006553D02*
X009290Y006553D01*
X009290Y006454D02*
X005010Y006454D01*
X005010Y006356D02*
X009290Y006356D01*
X009290Y006257D02*
X005010Y006257D01*
X005010Y006159D02*
X009290Y006159D01*
X009290Y006060D02*
X005010Y006060D01*
X005010Y005962D02*
X009290Y005962D01*
X009290Y005863D02*
X005010Y005863D01*
X005010Y005765D02*
X009290Y005765D01*
X009290Y005666D02*
X005010Y005666D01*
X005010Y005568D02*
X009290Y005568D01*
X009290Y005469D02*
X005010Y005469D01*
X005010Y005371D02*
X009290Y005371D01*
X009290Y005272D02*
X005010Y005272D01*
X005010Y005174D02*
X009290Y005174D01*
X009290Y005075D02*
X005010Y005075D01*
X005010Y004977D02*
X009290Y004977D01*
X009298Y004878D02*
X005010Y004878D01*
X005010Y004780D02*
X009353Y004780D01*
X009451Y004681D02*
X005010Y004681D01*
X005010Y004583D02*
X009550Y004583D01*
X009648Y004484D02*
X005010Y004484D01*
X005010Y004386D02*
X009747Y004386D01*
X009845Y004287D02*
X005010Y004287D01*
X005010Y004189D02*
X009944Y004189D01*
X010042Y004090D02*
X005010Y004090D01*
X005010Y003992D02*
X010141Y003992D01*
X010239Y003893D02*
X005010Y003893D01*
X005010Y003795D02*
X010338Y003795D01*
X010436Y003696D02*
X004988Y003696D01*
X004915Y003598D02*
X010535Y003598D01*
X010633Y003499D02*
X004817Y003499D01*
X004718Y003401D02*
X010732Y003401D01*
X010830Y003302D02*
X004620Y003302D01*
X004521Y003204D02*
X010929Y003204D01*
X011027Y003105D02*
X004423Y003105D01*
X004324Y003007D02*
X011126Y003007D01*
X011224Y002908D02*
X004226Y002908D01*
X004127Y002810D02*
X011323Y002810D01*
X011421Y002711D02*
X004029Y002711D01*
X003930Y002613D02*
X011520Y002613D01*
X011618Y002514D02*
X003832Y002514D01*
X003733Y002416D02*
X011717Y002416D01*
X011815Y002317D02*
X003635Y002317D01*
X003536Y002219D02*
X011914Y002219D01*
X012012Y002120D02*
X003438Y002120D01*
X003339Y002022D02*
X012111Y002022D01*
X012209Y001923D02*
X003241Y001923D01*
X003142Y001825D02*
X012308Y001825D01*
X012406Y001726D02*
X003044Y001726D01*
X002945Y001628D02*
X012505Y001628D01*
X012604Y001529D02*
X002847Y001529D01*
X002748Y001431D02*
X013055Y001431D01*
X013148Y001332D02*
X002650Y001332D01*
X002551Y001234D02*
X013281Y001234D01*
X013200Y001135D02*
X002453Y001135D01*
X002354Y001037D02*
X013115Y001037D01*
X013064Y000938D02*
X002256Y000938D01*
X002157Y000840D02*
X013038Y000840D01*
X013041Y000643D02*
X001960Y000643D01*
X002059Y000741D02*
X013500Y000741D01*
X013071Y000544D02*
X001862Y000544D01*
X001252Y000446D02*
X013128Y000446D01*
X012750Y001750D02*
X009550Y004950D01*
X009550Y009100D01*
X007386Y011264D01*
X007386Y011634D01*
X006914Y011634D02*
X006914Y011250D01*
X008650Y009514D01*
X008190Y009606D02*
X006764Y009606D01*
X006862Y009705D02*
X008092Y009705D01*
X007993Y009803D02*
X006961Y009803D01*
X007059Y009902D02*
X007895Y009902D01*
X007796Y010000D02*
X007144Y010000D01*
X007174Y010099D02*
X007698Y010099D01*
X007599Y010197D02*
X007174Y010197D01*
X007174Y010296D02*
X007501Y010296D01*
X007402Y010394D02*
X007174Y010394D01*
X007174Y010493D02*
X007304Y010493D01*
X007205Y010591D02*
X007174Y010591D01*
X006654Y010591D02*
X006622Y010591D01*
X006654Y010493D02*
X006524Y010493D01*
X006425Y010394D02*
X006654Y010394D01*
X006654Y010296D02*
X006327Y010296D01*
X006228Y010197D02*
X006619Y010197D01*
X006521Y010099D02*
X006130Y010099D01*
X006031Y010000D02*
X006422Y010000D01*
X006324Y009902D02*
X005933Y009902D01*
X005834Y009803D02*
X006225Y009803D01*
X006127Y009705D02*
X005736Y009705D01*
X005637Y009606D02*
X006028Y009606D01*
X005930Y009508D02*
X005539Y009508D01*
X005440Y009409D02*
X005831Y009409D01*
X005733Y009311D02*
X005342Y009311D01*
X005243Y009212D02*
X005634Y009212D01*
X005536Y009114D02*
X005145Y009114D01*
X005046Y009015D02*
X005437Y009015D01*
X005503Y009080D02*
X005503Y009080D01*
X006400Y009050D02*
X006400Y008445D01*
X006105Y007538D02*
X006057Y007538D01*
X004550Y009400D02*
X004550Y004750D01*
X001550Y001750D01*
X000750Y001750D01*
X000750Y002750D02*
X001350Y002750D01*
X004350Y005750D01*
X004350Y009650D01*
X005969Y011269D01*
X005969Y011634D01*
X005496Y011634D02*
X005496Y011296D01*
X004150Y009950D01*
X004150Y006450D01*
X001450Y003750D01*
X000750Y003750D01*
X000750Y004750D02*
X001650Y004750D01*
X003950Y007050D01*
X003950Y012250D01*
X004043Y012343D01*
X004552Y012343D01*
X004563Y011975D02*
X004228Y011975D01*
X004210Y011994D01*
X004210Y010378D01*
X005136Y011304D01*
X005129Y011311D01*
X005129Y011357D01*
X005124Y011340D01*
X005105Y011306D01*
X005077Y011278D01*
X005043Y011258D01*
X005004Y011248D01*
X004856Y011248D01*
X004856Y011606D01*
X004798Y011606D01*
X004520Y011606D01*
X004520Y011378D01*
X004530Y011340D01*
X004550Y011306D01*
X004578Y011278D01*
X004612Y011258D01*
X004650Y011248D01*
X004798Y011248D01*
X004798Y011606D01*
X004798Y011663D01*
X004520Y011663D01*
X004520Y011890D01*
X004530Y011928D01*
X004550Y011963D01*
X004563Y011975D01*
X004557Y011970D02*
X004210Y011970D01*
X004210Y011872D02*
X004520Y011872D01*
X004520Y011773D02*
X004210Y011773D01*
X004210Y011675D02*
X004520Y011675D01*
X004520Y011576D02*
X004210Y011576D01*
X004210Y011478D02*
X004520Y011478D01*
X004520Y011379D02*
X004210Y011379D01*
X004210Y011281D02*
X004575Y011281D01*
X004798Y011281D02*
X004856Y011281D01*
X004856Y011379D02*
X004798Y011379D01*
X004798Y011478D02*
X004856Y011478D01*
X004856Y011576D02*
X004798Y011576D01*
X005079Y011281D02*
X005113Y011281D01*
X005014Y011182D02*
X004210Y011182D01*
X004210Y011084D02*
X004916Y011084D01*
X004817Y010985D02*
X004210Y010985D01*
X004210Y010887D02*
X004719Y010887D01*
X004620Y010788D02*
X004210Y010788D01*
X004210Y010690D02*
X004522Y010690D01*
X004423Y010591D02*
X004210Y010591D01*
X004210Y010493D02*
X004325Y010493D01*
X004226Y010394D02*
X004210Y010394D01*
X004550Y009400D02*
X006441Y011291D01*
X006441Y011634D01*
X006482Y012390D02*
X006318Y012390D01*
X006168Y012452D01*
X006052Y012568D01*
X005990Y012718D01*
X005990Y012882D01*
X006052Y013032D01*
X006168Y013148D01*
X006318Y013210D01*
X006442Y013210D01*
X008158Y014926D01*
X008253Y014965D01*
X009302Y014965D01*
X009302Y017312D01*
X009362Y017372D01*
X009362Y017511D01*
X009720Y017511D01*
X009720Y017569D01*
X009362Y017569D01*
X009362Y017708D01*
X009302Y017768D01*
X009302Y019674D01*
X009362Y019734D01*
X009362Y019873D01*
X009720Y019873D01*
X009720Y019931D01*
X009362Y019931D01*
X009362Y020079D01*
X009365Y020090D01*
X008600Y020090D01*
X008646Y020081D01*
X008694Y020061D01*
X008738Y020031D01*
X008776Y019994D01*
X008805Y019950D01*
X008825Y019901D01*
X008835Y019850D01*
X009362Y019850D01*
X009362Y019752D02*
X008835Y019752D01*
X008835Y019734D02*
X008835Y019850D01*
X008806Y019949D02*
X009362Y019949D01*
X009362Y020047D02*
X008715Y020047D01*
X008835Y019734D02*
X008557Y019734D01*
X008557Y019676D01*
X008835Y019676D01*
X008835Y019561D01*
X008825Y019509D01*
X008805Y019460D01*
X008776Y019416D01*
X008738Y019379D01*
X008694Y019349D01*
X008646Y019329D01*
X008594Y019319D01*
X008557Y019319D01*
X008557Y019676D01*
X008499Y019676D01*
X008499Y019319D01*
X008462Y019319D01*
X008410Y019329D01*
X008362Y019349D01*
X008318Y019379D01*
X008280Y019416D01*
X008252Y019458D01*
X008224Y019416D01*
X008187Y019379D01*
X008143Y019349D01*
X008094Y019329D01*
X008043Y019319D01*
X008006Y019319D01*
X008006Y019676D01*
X008006Y019734D01*
X008499Y019734D01*
X008499Y019676D01*
X008284Y019676D01*
X008006Y019676D01*
X007948Y019676D01*
X007948Y019319D01*
X007911Y019319D01*
X007859Y019329D01*
X007810Y019349D01*
X007766Y019379D01*
X007729Y019416D01*
X007701Y019458D01*
X007673Y019416D01*
X007636Y019379D01*
X007592Y019349D01*
X007543Y019329D01*
X007491Y019319D01*
X007454Y019319D01*
X007454Y019676D01*
X007397Y019676D01*
X007397Y019319D01*
X007360Y019319D01*
X007308Y019329D01*
X007259Y019349D01*
X007215Y019379D01*
X007178Y019416D01*
X007150Y019458D01*
X007122Y019416D01*
X007085Y019379D01*
X007041Y019349D01*
X006992Y019329D01*
X006940Y019319D01*
X006903Y019319D01*
X006903Y019676D01*
X006846Y019676D01*
X006846Y019319D01*
X006809Y019319D01*
X006757Y019329D01*
X006708Y019349D01*
X006664Y019379D01*
X006627Y019416D01*
X006599Y019458D01*
X006571Y019416D01*
X006534Y019379D01*
X006490Y019349D01*
X006441Y019329D01*
X006389Y019319D01*
X006352Y019319D01*
X006352Y019676D01*
X006294Y019676D01*
X006016Y019676D01*
X005801Y019676D01*
X005801Y019319D01*
X005838Y019319D01*
X005890Y019329D01*
X005938Y019349D01*
X005982Y019379D01*
X006020Y019416D01*
X006048Y019458D01*
X006076Y019416D01*
X006113Y019379D01*
X006157Y019349D01*
X006206Y019329D01*
X006257Y019319D01*
X006294Y019319D01*
X006294Y019676D01*
X006294Y019734D01*
X005801Y019734D01*
X005801Y019676D01*
X005743Y019676D01*
X005465Y019676D01*
X005465Y019561D01*
X005475Y019509D01*
X005495Y019460D01*
X005524Y019416D01*
X005562Y019379D01*
X005606Y019349D01*
X005654Y019329D01*
X005706Y019319D01*
X005743Y019319D01*
X005743Y019676D01*
X005743Y019734D01*
X005465Y019734D01*
X005465Y019850D01*
X004938Y019850D01*
X004938Y019873D02*
X004580Y019873D01*
X004580Y019931D01*
X004938Y019931D01*
X004938Y020079D01*
X004935Y020090D01*
X005700Y020090D01*
X005654Y020081D01*
X005606Y020061D01*
X005562Y020031D01*
X005524Y019994D01*
X005495Y019950D01*
X005475Y019901D01*
X005465Y019850D01*
X005465Y019752D02*
X004938Y019752D01*
X004938Y019734D02*
X004938Y019873D01*
X004938Y019949D02*
X005494Y019949D01*
X005585Y020047D02*
X004938Y020047D01*
X004938Y019734D02*
X004998Y019674D01*
X004998Y012098D01*
X004920Y012020D01*
X005004Y012020D01*
X005043Y012010D01*
X005077Y011991D01*
X005105Y011963D01*
X005124Y011928D01*
X005129Y011911D01*
X005129Y011957D01*
X005252Y012080D01*
X009048Y012080D01*
X009171Y011957D01*
X009171Y011915D01*
X009176Y011932D01*
X009195Y011967D01*
X009223Y011994D01*
X009257Y012014D01*
X009296Y012024D01*
X009376Y012024D01*
X009302Y012098D01*
X009302Y013835D01*
X008310Y012842D01*
X008310Y012718D01*
X008248Y012568D01*
X008132Y012452D01*
X007982Y012390D01*
X007818Y012390D01*
X007668Y012452D01*
X007552Y012568D01*
X007490Y012718D01*
X007490Y012882D01*
X007552Y013032D01*
X007668Y013148D01*
X007818Y013210D01*
X007942Y013210D01*
X009177Y014445D01*
X008413Y014445D01*
X006810Y012842D01*
X006810Y012718D01*
X006748Y012568D01*
X006632Y012452D01*
X006482Y012390D01*
X006642Y012463D02*
X007658Y012463D01*
X007559Y012561D02*
X006741Y012561D01*
X006786Y012660D02*
X007514Y012660D01*
X007490Y012758D02*
X006810Y012758D01*
X006824Y012857D02*
X007490Y012857D01*
X007520Y012955D02*
X006923Y012955D01*
X007021Y013054D02*
X007574Y013054D01*
X007679Y013152D02*
X007120Y013152D01*
X007218Y013251D02*
X007983Y013251D01*
X008081Y013349D02*
X007317Y013349D01*
X007415Y013448D02*
X008180Y013448D01*
X008278Y013546D02*
X007514Y013546D01*
X007612Y013645D02*
X008377Y013645D01*
X008475Y013743D02*
X007711Y013743D01*
X007809Y013842D02*
X008574Y013842D01*
X008672Y013940D02*
X007908Y013940D01*
X008006Y014039D02*
X008771Y014039D01*
X008869Y014137D02*
X008105Y014137D01*
X008203Y014236D02*
X008968Y014236D01*
X009066Y014334D02*
X008302Y014334D01*
X008400Y014433D02*
X009165Y014433D01*
X009333Y014233D02*
X007900Y012800D01*
X008286Y012660D02*
X009302Y012660D01*
X009302Y012758D02*
X008310Y012758D01*
X008324Y012857D02*
X009302Y012857D01*
X009302Y012955D02*
X008423Y012955D01*
X008521Y013054D02*
X009302Y013054D01*
X009302Y013152D02*
X008620Y013152D01*
X008718Y013251D02*
X009302Y013251D01*
X009302Y013349D02*
X008817Y013349D01*
X008915Y013448D02*
X009302Y013448D01*
X009302Y013546D02*
X009014Y013546D01*
X009112Y013645D02*
X009302Y013645D01*
X009302Y013743D02*
X009211Y013743D01*
X009333Y014233D02*
X009748Y014233D01*
X011067Y014233D01*
X011150Y014150D01*
X011150Y011450D01*
X012850Y009750D01*
X013550Y009750D01*
X013550Y008750D02*
X012800Y008750D01*
X010950Y010600D01*
X010950Y013650D01*
X010840Y013760D01*
X009748Y013760D01*
X009748Y013288D02*
X010662Y013288D01*
X010750Y013200D01*
X010750Y009800D01*
X012800Y007750D01*
X013550Y007750D01*
X013550Y006750D02*
X012700Y006750D01*
X010550Y008900D01*
X010550Y012700D01*
X010435Y012815D01*
X009748Y012815D01*
X009748Y012343D02*
X010257Y012343D01*
X010350Y012250D01*
X010350Y008250D01*
X012850Y005750D01*
X013550Y005750D01*
X013550Y004750D02*
X012650Y004750D01*
X010150Y007250D01*
X010150Y009950D01*
X008804Y011296D01*
X008804Y011634D01*
X009060Y012069D02*
X009332Y012069D01*
X009302Y012167D02*
X004998Y012167D01*
X004998Y012266D02*
X009302Y012266D01*
X009302Y012364D02*
X004998Y012364D01*
X004998Y012463D02*
X006158Y012463D01*
X006059Y012561D02*
X004998Y012561D01*
X004998Y012660D02*
X006014Y012660D01*
X005990Y012758D02*
X004998Y012758D01*
X004998Y012857D02*
X005990Y012857D01*
X006020Y012955D02*
X004998Y012955D01*
X004998Y013054D02*
X006074Y013054D01*
X006179Y013152D02*
X004998Y013152D01*
X004998Y013251D02*
X006483Y013251D01*
X006581Y013349D02*
X004998Y013349D01*
X004998Y013448D02*
X006680Y013448D01*
X006778Y013546D02*
X004998Y013546D01*
X004998Y013645D02*
X006877Y013645D01*
X006975Y013743D02*
X004998Y013743D01*
X004998Y013842D02*
X007074Y013842D01*
X007172Y013940D02*
X004998Y013940D01*
X004998Y014039D02*
X007271Y014039D01*
X007369Y014137D02*
X004998Y014137D01*
X004998Y014236D02*
X007468Y014236D01*
X007566Y014334D02*
X004998Y014334D01*
X004998Y014433D02*
X007665Y014433D01*
X007763Y014531D02*
X004998Y014531D01*
X004998Y014630D02*
X007862Y014630D01*
X007960Y014728D02*
X004998Y014728D01*
X004998Y014827D02*
X008059Y014827D01*
X008157Y014925D02*
X004998Y014925D01*
X004998Y015024D02*
X009302Y015024D01*
X009302Y015122D02*
X004998Y015122D01*
X004998Y015221D02*
X009302Y015221D01*
X009302Y015319D02*
X004998Y015319D01*
X004998Y015418D02*
X009302Y015418D01*
X009302Y015516D02*
X004998Y015516D01*
X004998Y015615D02*
X009302Y015615D01*
X009302Y015713D02*
X004998Y015713D01*
X004998Y015812D02*
X009302Y015812D01*
X009302Y015910D02*
X004998Y015910D01*
X004998Y016009D02*
X009302Y016009D01*
X009302Y016107D02*
X004998Y016107D01*
X004998Y016206D02*
X009302Y016206D01*
X009302Y016304D02*
X004998Y016304D01*
X004998Y016403D02*
X009302Y016403D01*
X009302Y016501D02*
X004998Y016501D01*
X004998Y016600D02*
X009302Y016600D01*
X009302Y016698D02*
X004998Y016698D01*
X004998Y016797D02*
X009302Y016797D01*
X009302Y016895D02*
X004998Y016895D01*
X004998Y016994D02*
X009302Y016994D01*
X009302Y017092D02*
X004998Y017092D01*
X004998Y017191D02*
X009302Y017191D01*
X009302Y017289D02*
X004998Y017289D01*
X004998Y017388D02*
X009362Y017388D01*
X009362Y017486D02*
X004998Y017486D01*
X004998Y017585D02*
X009362Y017585D01*
X009362Y017683D02*
X004998Y017683D01*
X004998Y017782D02*
X009302Y017782D01*
X009302Y017880D02*
X004998Y017880D01*
X004998Y017979D02*
X009302Y017979D01*
X009302Y018077D02*
X004998Y018077D01*
X004998Y018176D02*
X009302Y018176D01*
X009302Y018274D02*
X004998Y018274D01*
X004998Y018373D02*
X009302Y018373D01*
X009302Y018471D02*
X004998Y018471D01*
X004998Y018570D02*
X009302Y018570D01*
X009302Y018668D02*
X004998Y018668D01*
X004998Y018767D02*
X009302Y018767D01*
X009302Y018865D02*
X004998Y018865D01*
X004998Y018964D02*
X009302Y018964D01*
X009302Y019062D02*
X004998Y019062D01*
X004998Y019161D02*
X009302Y019161D01*
X009302Y019259D02*
X004998Y019259D01*
X004998Y019358D02*
X005594Y019358D01*
X005498Y019456D02*
X004998Y019456D01*
X004998Y019555D02*
X005466Y019555D01*
X005465Y019653D02*
X004998Y019653D01*
X004552Y019430D02*
X001070Y019430D01*
X000750Y019750D01*
X001255Y020047D02*
X004165Y020047D01*
X004165Y020079D02*
X004165Y019931D01*
X004523Y019931D01*
X004523Y019873D01*
X004165Y019873D01*
X004165Y019734D01*
X004121Y019690D01*
X001330Y019690D01*
X001330Y019865D01*
X001242Y020079D01*
X001230Y020090D01*
X004168Y020090D01*
X004165Y020079D01*
X004165Y019949D02*
X001296Y019949D01*
X001330Y019850D02*
X004165Y019850D01*
X004165Y019752D02*
X001330Y019752D01*
X000957Y018957D02*
X000750Y018750D01*
X000957Y018957D02*
X004552Y018957D01*
X004536Y018500D02*
X001490Y018500D01*
X001350Y018360D01*
X001350Y017850D01*
X001250Y017750D01*
X000750Y017750D01*
X000750Y016750D02*
X001450Y016750D01*
X001550Y016850D01*
X001550Y017900D01*
X001662Y018012D01*
X004552Y018012D01*
X004552Y018485D02*
X004536Y018500D01*
X004552Y017540D02*
X001840Y017540D01*
X001750Y017450D01*
X001750Y015900D01*
X001600Y015750D01*
X000750Y015750D01*
X000750Y014750D02*
X001400Y014750D01*
X001950Y015300D01*
X001950Y016950D01*
X002067Y017067D01*
X004552Y017067D01*
X004552Y016595D02*
X002245Y016595D01*
X002150Y016500D01*
X002150Y014450D01*
X001450Y013750D01*
X000750Y013750D01*
X000750Y012750D02*
X001300Y012750D01*
X002350Y013800D01*
X002350Y016000D01*
X002472Y016122D01*
X004552Y016122D01*
X004552Y015650D02*
X002650Y015650D01*
X002550Y015550D01*
X002550Y012900D01*
X001400Y011750D01*
X000750Y011750D01*
X000750Y010750D02*
X001650Y010750D01*
X002750Y011850D01*
X002750Y015100D01*
X002828Y015178D01*
X004552Y015178D01*
X004552Y014705D02*
X003055Y014705D01*
X002950Y014600D01*
X002950Y011250D01*
X001450Y009750D01*
X000750Y009750D01*
X000750Y008750D02*
X001500Y008750D01*
X003150Y010400D01*
X003150Y014150D01*
X003233Y014233D01*
X004552Y014233D01*
X004552Y013760D02*
X003460Y013760D01*
X003350Y013650D01*
X003350Y009600D01*
X001500Y007750D01*
X000750Y007750D01*
X000750Y006750D02*
X001600Y006750D01*
X003550Y008700D01*
X003550Y013200D01*
X003638Y013288D01*
X004552Y013288D01*
X004552Y012815D02*
X003865Y012815D01*
X003750Y012700D01*
X003750Y008050D01*
X001450Y005750D01*
X000750Y005750D01*
X004968Y012069D02*
X005240Y012069D01*
X005142Y011970D02*
X005097Y011970D01*
X006400Y012800D02*
X008305Y014705D01*
X009748Y014705D01*
X011245Y014705D01*
X011350Y014600D01*
X011350Y012050D01*
X012650Y010750D01*
X013550Y010750D01*
X013550Y011750D02*
X012900Y011750D01*
X011550Y013100D01*
X011550Y015100D01*
X011472Y015178D01*
X009748Y015178D01*
X009748Y015650D02*
X011650Y015650D01*
X011750Y015550D01*
X011750Y014000D01*
X013000Y012750D01*
X013550Y012750D01*
X013550Y013750D02*
X012850Y013750D01*
X011950Y014650D01*
X011950Y016000D01*
X011828Y016122D01*
X009748Y016122D01*
X009748Y016595D02*
X012055Y016595D01*
X012150Y016500D01*
X012150Y015500D01*
X012900Y014750D01*
X013550Y014750D01*
X013550Y015750D02*
X012700Y015750D01*
X012550Y015900D01*
X012550Y016950D01*
X012433Y017067D01*
X009748Y017067D01*
X009777Y017511D02*
X009777Y017569D01*
X010135Y017569D01*
X010135Y017708D01*
X010179Y017752D01*
X012490Y017752D01*
X012490Y017325D01*
X012484Y017327D01*
X010179Y017327D01*
X010135Y017372D01*
X010135Y017511D01*
X009777Y017511D01*
X010135Y017486D02*
X012490Y017486D01*
X012490Y017388D02*
X010135Y017388D01*
X010135Y017585D02*
X012490Y017585D01*
X012490Y017683D02*
X010135Y017683D01*
X009748Y018012D02*
X012638Y018012D01*
X012750Y017900D01*
X012750Y016850D01*
X012850Y016750D01*
X013550Y016750D01*
X013550Y017750D02*
X013050Y017750D01*
X012950Y017850D01*
X012950Y018350D01*
X012815Y018485D01*
X009748Y018485D01*
X009748Y018957D02*
X013343Y018957D01*
X013550Y018750D01*
X013230Y019430D02*
X013550Y019750D01*
X013230Y019430D02*
X009748Y019430D01*
X009777Y019873D02*
X009777Y019931D01*
X010135Y019931D01*
X010135Y020079D01*
X010132Y020090D01*
X013070Y020090D01*
X013058Y020079D01*
X012970Y019865D01*
X012970Y019690D01*
X010179Y019690D01*
X010135Y019734D01*
X010135Y019873D01*
X009777Y019873D01*
X010135Y019850D02*
X012970Y019850D01*
X012970Y019752D02*
X010135Y019752D01*
X010135Y019949D02*
X013004Y019949D01*
X013045Y020047D02*
X010135Y020047D01*
X009302Y019653D02*
X008835Y019653D01*
X008834Y019555D02*
X009302Y019555D01*
X009302Y019456D02*
X008802Y019456D01*
X008706Y019358D02*
X009302Y019358D01*
X008557Y019358D02*
X008499Y019358D01*
X008499Y019456D02*
X008557Y019456D01*
X008557Y019555D02*
X008499Y019555D01*
X008499Y019653D02*
X008557Y019653D01*
X008349Y019358D02*
X008155Y019358D01*
X008251Y019456D02*
X008254Y019456D01*
X008006Y019456D02*
X007948Y019456D01*
X007948Y019358D02*
X008006Y019358D01*
X008006Y019555D02*
X007948Y019555D01*
X007948Y019653D02*
X008006Y019653D01*
X007948Y019676D02*
X007669Y019676D01*
X007454Y019676D01*
X007454Y019734D01*
X007948Y019734D01*
X007948Y019676D01*
X007798Y019358D02*
X007604Y019358D01*
X007700Y019456D02*
X007702Y019456D01*
X007454Y019456D02*
X007397Y019456D01*
X007397Y019358D02*
X007454Y019358D01*
X007454Y019555D02*
X007397Y019555D01*
X007397Y019653D02*
X007454Y019653D01*
X007397Y019676D02*
X007118Y019676D01*
X006903Y019676D01*
X006903Y019734D01*
X007397Y019734D01*
X007397Y019676D01*
X007151Y019456D02*
X007149Y019456D01*
X007053Y019358D02*
X007247Y019358D01*
X006903Y019358D02*
X006846Y019358D01*
X006846Y019456D02*
X006903Y019456D01*
X006903Y019555D02*
X006846Y019555D01*
X006846Y019653D02*
X006903Y019653D01*
X006846Y019676D02*
X006567Y019676D01*
X006352Y019676D01*
X006352Y019734D01*
X006846Y019734D01*
X006846Y019676D01*
X006600Y019456D02*
X006598Y019456D01*
X006502Y019358D02*
X006696Y019358D01*
X006352Y019358D02*
X006294Y019358D01*
X006294Y019456D02*
X006352Y019456D01*
X006352Y019555D02*
X006294Y019555D01*
X006294Y019653D02*
X006352Y019653D01*
X006145Y019358D02*
X005951Y019358D01*
X006046Y019456D02*
X006049Y019456D01*
X005801Y019456D02*
X005743Y019456D01*
X005743Y019358D02*
X005801Y019358D01*
X005801Y019555D02*
X005743Y019555D01*
X005743Y019653D02*
X005801Y019653D01*
X008241Y012561D02*
X009302Y012561D01*
X009302Y012463D02*
X008142Y012463D01*
X008331Y011634D02*
X008331Y011269D01*
X009950Y009650D01*
X009950Y006650D01*
X012850Y003750D01*
X013550Y003750D01*
X013550Y002750D02*
X012950Y002750D01*
X009750Y005950D01*
X009750Y009400D01*
X007859Y011291D01*
X007859Y011634D01*
X009171Y011361D02*
X009176Y011344D01*
X009195Y011310D01*
X009223Y011282D01*
X009257Y011262D01*
X009296Y011252D01*
X009444Y011252D01*
X009444Y011609D01*
X009502Y011609D01*
X009502Y011667D01*
X009780Y011667D01*
X009780Y011894D01*
X009770Y011932D01*
X009750Y011967D01*
X009741Y011975D01*
X010072Y011975D01*
X010090Y011994D01*
X010090Y010378D01*
X009164Y011304D01*
X009171Y011311D01*
X009171Y011361D01*
X009187Y011281D02*
X009226Y011281D01*
X009286Y011182D02*
X010090Y011182D01*
X010090Y011084D02*
X009384Y011084D01*
X009483Y010985D02*
X010090Y010985D01*
X010090Y010887D02*
X009581Y010887D01*
X009680Y010788D02*
X010090Y010788D01*
X010090Y010690D02*
X009778Y010690D01*
X009877Y010591D02*
X010090Y010591D01*
X010090Y010493D02*
X009975Y010493D01*
X010074Y010394D02*
X010090Y010394D01*
X009850Y010950D02*
X009500Y011300D01*
X009500Y011611D01*
X009502Y011609D02*
X009502Y011252D01*
X009650Y011252D01*
X009688Y011262D01*
X009722Y011282D01*
X009750Y011310D01*
X009770Y011344D01*
X009780Y011382D01*
X009780Y011609D01*
X009502Y011609D01*
X009502Y011576D02*
X009444Y011576D01*
X009444Y011478D02*
X009502Y011478D01*
X009502Y011379D02*
X009444Y011379D01*
X009444Y011281D02*
X009502Y011281D01*
X009720Y011281D02*
X010090Y011281D01*
X010090Y011379D02*
X009779Y011379D01*
X009780Y011478D02*
X010090Y011478D01*
X010090Y011576D02*
X009780Y011576D01*
X009780Y011675D02*
X010090Y011675D01*
X010090Y011773D02*
X009780Y011773D01*
X009780Y011872D02*
X010090Y011872D01*
X010090Y011970D02*
X009747Y011970D01*
X009199Y011970D02*
X009158Y011970D01*
X007900Y009050D02*
X007900Y008445D01*
X008238Y008720D02*
X008243Y008720D01*
X012750Y001750D02*
X013550Y001750D01*
D11*
X007900Y007855D03*
X007900Y008445D03*
X006400Y008445D03*
X006400Y007855D03*
D12*
X005650Y007815D03*
X005650Y008485D03*
X008650Y008485D03*
X008650Y007815D03*
D13*
X013550Y007750D03*
X013550Y008750D03*
X013550Y009750D03*
X013550Y010750D03*
X013550Y011750D03*
X013550Y012750D03*
X013550Y013750D03*
X013550Y014750D03*
X013550Y015750D03*
X013550Y016750D03*
X013550Y017750D03*
X013550Y018750D03*
X013550Y019750D03*
X013550Y006750D03*
X013550Y005750D03*
X013550Y004750D03*
X013550Y003750D03*
X013550Y002750D03*
X013550Y001750D03*
X013550Y000750D03*
X000750Y000750D03*
X000750Y001750D03*
X000750Y002750D03*
X000750Y003750D03*
X000750Y004750D03*
X000750Y005750D03*
X000750Y006750D03*
X000750Y007750D03*
X000750Y008750D03*
X000750Y009750D03*
X000750Y010750D03*
X000750Y011750D03*
X000750Y012750D03*
X000750Y013750D03*
X000750Y014750D03*
X000750Y015750D03*
X000750Y016750D03*
X000750Y017750D03*
X000750Y018750D03*
X000750Y019750D03*
D14*
X004552Y019902D03*
X004552Y019430D03*
X004552Y018957D03*
X004552Y018485D03*
X004552Y018012D03*
X004552Y017540D03*
X004552Y017067D03*
X004552Y016595D03*
X004552Y016122D03*
X004552Y015650D03*
X004552Y015178D03*
X004552Y014705D03*
X004552Y014233D03*
X004552Y013760D03*
X004552Y013288D03*
X004552Y012815D03*
X004552Y012343D03*
X009748Y012343D03*
X009748Y012815D03*
X009748Y013288D03*
X009748Y013760D03*
X009748Y014233D03*
X009748Y014705D03*
X009748Y015178D03*
X009748Y015650D03*
X009748Y016122D03*
X009748Y016595D03*
X009748Y017067D03*
X009748Y017540D03*
X009748Y018012D03*
X009748Y018485D03*
X009748Y018957D03*
X009748Y019430D03*
X009748Y019902D03*
D15*
X009473Y011638D03*
X008804Y011634D03*
X008331Y011634D03*
X007859Y011634D03*
X007386Y011634D03*
X006914Y011634D03*
X006441Y011634D03*
X005969Y011634D03*
X005496Y011634D03*
X004827Y011634D03*
D16*
X005811Y019587D02*
X005811Y019823D01*
X005811Y019587D02*
X005733Y019587D01*
X005733Y019823D01*
X005811Y019823D01*
X005811Y019822D02*
X005733Y019822D01*
X006362Y019823D02*
X006362Y019587D01*
X006284Y019587D01*
X006284Y019823D01*
X006362Y019823D01*
X006362Y019822D02*
X006284Y019822D01*
X006913Y019823D02*
X006913Y019587D01*
X006835Y019587D01*
X006835Y019823D01*
X006913Y019823D01*
X006913Y019822D02*
X006835Y019822D01*
X007465Y019823D02*
X007465Y019587D01*
X007387Y019587D01*
X007387Y019823D01*
X007465Y019823D01*
X007465Y019822D02*
X007387Y019822D01*
X008016Y019823D02*
X008016Y019587D01*
X007938Y019587D01*
X007938Y019823D01*
X008016Y019823D01*
X008016Y019822D02*
X007938Y019822D01*
X008567Y019823D02*
X008567Y019587D01*
X008489Y019587D01*
X008489Y019823D01*
X008567Y019823D01*
X008567Y019822D02*
X008489Y019822D01*
D17*
X007150Y016150D03*
X006400Y012800D03*
X007900Y012800D03*
X009850Y010950D03*
X007900Y009050D03*
X006400Y009050D03*
X004450Y010950D03*
X007150Y005500D03*
M02*
