G75*
%MOIN*%
%OFA0B0*%
%FSLAX24Y24*%
%IPPOS*%
%LPD*%
%AMOC8*
5,1,8,0,0,1.08239X$1,22.5*
%
%ADD10C,0.0100*%
%ADD11C,0.0050*%
%ADD12C,0.0080*%
%ADD13R,0.0300X0.0180*%
%ADD14R,0.0674X0.0001*%
%ADD15R,0.0674X0.0001*%
%ADD16R,0.0687X0.0001*%
%ADD17R,0.0687X0.0001*%
%ADD18R,0.0695X0.0001*%
%ADD19R,0.0694X0.0001*%
%ADD20R,0.0701X0.0001*%
%ADD21R,0.0700X0.0001*%
%ADD22R,0.0705X0.0001*%
%ADD23R,0.0710X0.0001*%
%ADD24R,0.0709X0.0001*%
%ADD25R,0.0713X0.0001*%
%ADD26R,0.0717X0.0001*%
%ADD27R,0.0717X0.0001*%
%ADD28R,0.0720X0.0001*%
%ADD29R,0.0723X0.0001*%
%ADD30R,0.0726X0.0001*%
%ADD31R,0.0725X0.0001*%
%ADD32R,0.0729X0.0001*%
%ADD33R,0.0728X0.0001*%
%ADD34R,0.0731X0.0001*%
%ADD35R,0.0733X0.0001*%
%ADD36R,0.0735X0.0001*%
%ADD37R,0.0737X0.0001*%
%ADD38R,0.0737X0.0001*%
%ADD39R,0.0739X0.0001*%
%ADD40R,0.0741X0.0001*%
%ADD41R,0.0743X0.0001*%
%ADD42R,0.0745X0.0001*%
%ADD43R,0.0744X0.0001*%
%ADD44R,0.0746X0.0001*%
%ADD45R,0.0748X0.0001*%
%ADD46R,0.0747X0.0001*%
%ADD47R,0.0749X0.0001*%
%ADD48R,0.0751X0.0001*%
%ADD49R,0.0750X0.0001*%
%ADD50R,0.0753X0.0001*%
%ADD51R,0.0754X0.0001*%
%ADD52R,0.0755X0.0001*%
%ADD53R,0.0756X0.0001*%
%ADD54R,0.0757X0.0001*%
%ADD55R,0.0757X0.0001*%
%ADD56R,0.0758X0.0001*%
%ADD57R,0.0759X0.0001*%
%ADD58R,0.0761X0.0001*%
%ADD59R,0.0760X0.0001*%
%ADD60R,0.0762X0.0001*%
%ADD61R,0.0763X0.0001*%
%ADD62R,0.0764X0.0001*%
%ADD63R,0.0764X0.0001*%
%ADD64R,0.0765X0.0001*%
%ADD65R,0.0766X0.0001*%
%ADD66R,0.0752X0.0001*%
%ADD67R,0.0747X0.0001*%
%ADD68R,0.0742X0.0001*%
%ADD69R,0.0740X0.0001*%
%ADD70R,0.0738X0.0001*%
%ADD71R,0.0736X0.0001*%
%ADD72R,0.0734X0.0001*%
%ADD73R,0.0732X0.0001*%
%ADD74R,0.0727X0.0001*%
%ADD75R,0.0724X0.0001*%
%ADD76R,0.0721X0.0001*%
%ADD77R,0.0718X0.0001*%
%ADD78R,0.0714X0.0001*%
%ADD79R,0.0711X0.0001*%
%ADD80R,0.0730X0.0001*%
%ADD81R,0.0707X0.0001*%
%ADD82R,0.0702X0.0001*%
%ADD83R,0.0696X0.0001*%
%ADD84R,0.0690X0.0001*%
%ADD85R,0.0680X0.0001*%
%ADD86R,0.0516X0.0001*%
%ADD87R,0.0515X0.0001*%
%ADD88R,0.0514X0.0001*%
%ADD89R,0.0675X0.0001*%
%ADD90R,0.0479X0.0001*%
%ADD91R,0.0513X0.0001*%
%ADD92R,0.0478X0.0001*%
%ADD93R,0.0512X0.0001*%
%ADD94R,0.0511X0.0001*%
%ADD95R,0.0477X0.0001*%
%ADD96R,0.0510X0.0001*%
%ADD97R,0.0476X0.0001*%
%ADD98R,0.0509X0.0001*%
%ADD99R,0.0475X0.0001*%
%ADD100R,0.0508X0.0001*%
%ADD101R,0.0474X0.0001*%
%ADD102R,0.0507X0.0001*%
%ADD103R,0.0506X0.0001*%
%ADD104R,0.0473X0.0001*%
%ADD105R,0.0505X0.0001*%
%ADD106R,0.0472X0.0001*%
%ADD107R,0.0504X0.0001*%
%ADD108R,0.0471X0.0001*%
%ADD109R,0.0503X0.0001*%
%ADD110R,0.0470X0.0001*%
%ADD111R,0.0502X0.0001*%
%ADD112R,0.0469X0.0001*%
%ADD113R,0.0501X0.0001*%
%ADD114R,0.0500X0.0001*%
%ADD115R,0.0468X0.0001*%
%ADD116R,0.0499X0.0001*%
%ADD117R,0.0467X0.0001*%
%ADD118R,0.0498X0.0001*%
%ADD119R,0.0466X0.0001*%
%ADD120R,0.0497X0.0001*%
%ADD121R,0.0465X0.0001*%
%ADD122R,0.0496X0.0001*%
%ADD123R,0.0495X0.0001*%
%ADD124R,0.0464X0.0001*%
%ADD125R,0.0494X0.0001*%
%ADD126R,0.0463X0.0001*%
%ADD127R,0.0493X0.0001*%
%ADD128R,0.0462X0.0001*%
%ADD129R,0.0492X0.0001*%
%ADD130R,0.0461X0.0001*%
%ADD131R,0.0491X0.0001*%
%ADD132R,0.0490X0.0001*%
%ADD133R,0.0460X0.0001*%
%ADD134R,0.0489X0.0001*%
%ADD135R,0.0459X0.0001*%
%ADD136R,0.0488X0.0001*%
%ADD137R,0.0458X0.0001*%
%ADD138R,0.0487X0.0001*%
%ADD139R,0.0457X0.0001*%
%ADD140R,0.0486X0.0001*%
%ADD141R,0.0485X0.0001*%
%ADD142R,0.0456X0.0001*%
%ADD143R,0.0484X0.0001*%
%ADD144R,0.0455X0.0001*%
%ADD145R,0.0483X0.0001*%
%ADD146R,0.0454X0.0001*%
%ADD147R,0.0482X0.0001*%
%ADD148R,0.0453X0.0001*%
%ADD149R,0.0481X0.0001*%
%ADD150R,0.0452X0.0001*%
%ADD151R,0.0480X0.0001*%
%ADD152R,0.0451X0.0001*%
%ADD153R,0.0450X0.0001*%
%ADD154R,0.0449X0.0001*%
%ADD155R,0.0448X0.0001*%
%ADD156R,0.0447X0.0001*%
%ADD157R,0.0446X0.0001*%
%ADD158R,0.0445X0.0001*%
%ADD159R,0.0444X0.0001*%
%ADD160R,0.0443X0.0001*%
%ADD161R,0.0442X0.0001*%
%ADD162R,0.0441X0.0001*%
%ADD163R,0.0440X0.0001*%
%ADD164R,0.0439X0.0001*%
%ADD165R,0.0438X0.0001*%
%ADD166R,0.0437X0.0001*%
%ADD167R,0.0436X0.0001*%
%ADD168R,0.0435X0.0001*%
%ADD169R,0.0434X0.0001*%
%ADD170R,0.0433X0.0001*%
%ADD171R,0.0432X0.0001*%
%ADD172R,0.0431X0.0001*%
%ADD173R,0.0430X0.0001*%
%ADD174R,0.0429X0.0001*%
%ADD175R,0.0428X0.0001*%
%ADD176R,0.0427X0.0001*%
%ADD177R,0.0426X0.0001*%
%ADD178R,0.0425X0.0001*%
%ADD179R,0.0424X0.0001*%
%ADD180R,0.0423X0.0001*%
%ADD181R,0.0422X0.0001*%
%ADD182R,0.0421X0.0001*%
%ADD183R,0.0420X0.0001*%
%ADD184R,0.0419X0.0001*%
%ADD185R,0.0418X0.0001*%
%ADD186R,0.0417X0.0001*%
%ADD187R,0.0416X0.0001*%
%ADD188R,0.0415X0.0001*%
%ADD189R,0.0414X0.0001*%
%ADD190R,0.0413X0.0001*%
%ADD191R,0.0412X0.0001*%
%ADD192R,0.0411X0.0001*%
%ADD193R,0.0410X0.0001*%
%ADD194R,0.0409X0.0001*%
%ADD195R,0.0408X0.0001*%
%ADD196R,0.0407X0.0001*%
%ADD197R,0.0406X0.0001*%
%ADD198R,0.0405X0.0001*%
%ADD199R,0.0404X0.0001*%
%ADD200R,0.0403X0.0001*%
%ADD201R,0.0402X0.0001*%
%ADD202R,0.0401X0.0001*%
%ADD203R,0.0400X0.0001*%
%ADD204R,0.0399X0.0001*%
%ADD205R,0.0398X0.0001*%
%ADD206R,0.0397X0.0001*%
%ADD207R,0.0396X0.0001*%
%ADD208R,0.0395X0.0001*%
%ADD209R,0.0394X0.0001*%
%ADD210R,0.0393X0.0001*%
%ADD211R,0.0392X0.0001*%
%ADD212R,0.0391X0.0001*%
%ADD213R,0.0390X0.0001*%
%ADD214R,0.0389X0.0001*%
%ADD215R,0.0388X0.0001*%
%ADD216R,0.0387X0.0001*%
%ADD217R,0.0386X0.0001*%
%ADD218R,0.0385X0.0001*%
%ADD219R,0.0384X0.0001*%
%ADD220R,0.0383X0.0001*%
%ADD221R,0.0382X0.0001*%
%ADD222R,0.0381X0.0001*%
%ADD223R,0.0380X0.0001*%
%ADD224R,0.0379X0.0001*%
%ADD225R,0.0378X0.0001*%
%ADD226R,0.0377X0.0001*%
%ADD227R,0.0376X0.0001*%
%ADD228R,0.0375X0.0001*%
%ADD229R,0.0374X0.0001*%
%ADD230R,0.0373X0.0001*%
%ADD231R,0.0372X0.0001*%
%ADD232R,0.0371X0.0001*%
%ADD233R,0.0370X0.0001*%
%ADD234R,0.0369X0.0001*%
%ADD235R,0.0368X0.0001*%
%ADD236R,0.0367X0.0001*%
%ADD237R,0.0366X0.0001*%
%ADD238R,0.0365X0.0001*%
%ADD239R,0.0364X0.0001*%
%ADD240R,0.0363X0.0001*%
%ADD241R,0.0362X0.0001*%
%ADD242R,0.0361X0.0001*%
%ADD243R,0.0360X0.0001*%
%ADD244R,0.0359X0.0001*%
%ADD245R,0.0358X0.0001*%
%ADD246R,0.0357X0.0001*%
%ADD247R,0.0356X0.0001*%
%ADD248R,0.0355X0.0001*%
%ADD249R,0.0354X0.0001*%
%ADD250R,0.0353X0.0001*%
%ADD251R,0.0352X0.0001*%
%ADD252R,0.0351X0.0001*%
%ADD253R,0.0350X0.0001*%
%ADD254R,0.0349X0.0001*%
%ADD255R,0.0348X0.0001*%
%ADD256R,0.0347X0.0001*%
%ADD257R,0.0346X0.0001*%
%ADD258R,0.0345X0.0001*%
%ADD259R,0.0344X0.0001*%
%ADD260R,0.0343X0.0001*%
%ADD261R,0.0342X0.0001*%
%ADD262R,0.0341X0.0001*%
%ADD263R,0.0340X0.0001*%
%ADD264R,0.0339X0.0001*%
%ADD265R,0.0338X0.0001*%
%ADD266R,0.0337X0.0001*%
%ADD267R,0.0336X0.0001*%
%ADD268R,0.0335X0.0001*%
%ADD269R,0.0334X0.0001*%
%ADD270R,0.0333X0.0001*%
%ADD271R,0.0332X0.0001*%
%ADD272R,0.0331X0.0001*%
%ADD273R,0.0330X0.0001*%
%ADD274R,0.0329X0.0001*%
%ADD275R,0.0328X0.0001*%
%ADD276R,0.0327X0.0001*%
%ADD277R,0.0326X0.0001*%
%ADD278R,0.0325X0.0001*%
%ADD279R,0.0324X0.0001*%
%ADD280R,0.0323X0.0001*%
%ADD281R,0.0322X0.0001*%
%ADD282R,0.0321X0.0001*%
%ADD283R,0.0320X0.0001*%
%ADD284R,0.0319X0.0001*%
%ADD285R,0.0318X0.0001*%
%ADD286R,0.0317X0.0001*%
%ADD287R,0.0316X0.0001*%
%ADD288R,0.0315X0.0001*%
%ADD289R,0.0314X0.0001*%
%ADD290R,0.0313X0.0001*%
%ADD291R,0.0312X0.0001*%
%ADD292R,0.0311X0.0001*%
%ADD293R,0.0310X0.0001*%
%ADD294R,0.0309X0.0001*%
%ADD295R,0.0308X0.0001*%
%ADD296R,0.0307X0.0001*%
%ADD297R,0.0306X0.0001*%
%ADD298R,0.0305X0.0001*%
%ADD299R,0.0304X0.0001*%
%ADD300R,0.0303X0.0001*%
%ADD301R,0.0302X0.0001*%
%ADD302R,0.0301X0.0001*%
%ADD303R,0.0300X0.0001*%
%ADD304R,0.0299X0.0001*%
%ADD305R,0.0298X0.0001*%
%ADD306R,0.0297X0.0001*%
%ADD307R,0.0296X0.0001*%
%ADD308R,0.0519X0.0001*%
%ADD309R,0.1736X0.0001*%
%ADD310R,0.0643X0.0001*%
%ADD311R,0.0611X0.0001*%
%ADD312R,0.1735X0.0001*%
%ADD313R,0.1734X0.0001*%
%ADD314R,0.1733X0.0001*%
%ADD315R,0.1732X0.0001*%
%ADD316R,0.1731X0.0001*%
%ADD317R,0.1730X0.0001*%
%ADD318R,0.1729X0.0001*%
%ADD319R,0.1728X0.0001*%
%ADD320R,0.1727X0.0001*%
%ADD321R,0.1726X0.0001*%
%ADD322R,0.1725X0.0001*%
%ADD323R,0.1724X0.0001*%
%ADD324R,0.1723X0.0001*%
%ADD325R,0.1722X0.0001*%
%ADD326R,0.1720X0.0001*%
%ADD327R,0.1718X0.0001*%
%ADD328R,0.1716X0.0001*%
%ADD329R,0.1714X0.0001*%
%ADD330R,0.1712X0.0001*%
%ADD331R,0.1711X0.0001*%
%ADD332R,0.1710X0.0001*%
%ADD333R,0.1709X0.0001*%
%ADD334R,0.1708X0.0001*%
%ADD335R,0.1707X0.0001*%
%ADD336R,0.1706X0.0001*%
%ADD337R,0.1705X0.0001*%
%ADD338R,0.1704X0.0001*%
%ADD339R,0.1703X0.0001*%
%ADD340R,0.1702X0.0001*%
%ADD341R,0.1701X0.0001*%
%ADD342R,0.1700X0.0001*%
%ADD343R,0.1699X0.0001*%
%ADD344R,0.1698X0.0001*%
%ADD345R,0.1697X0.0001*%
%ADD346R,0.1696X0.0001*%
%ADD347R,0.1695X0.0001*%
%ADD348R,0.1694X0.0001*%
%ADD349R,0.1693X0.0001*%
%ADD350R,0.1692X0.0001*%
%ADD351R,0.1691X0.0001*%
%ADD352R,0.1690X0.0001*%
%ADD353R,0.1689X0.0001*%
%ADD354R,0.1687X0.0001*%
%ADD355R,0.1685X0.0001*%
%ADD356R,0.1682X0.0001*%
%ADD357R,0.1680X0.0001*%
%ADD358R,0.1678X0.0001*%
%ADD359R,0.1676X0.0001*%
%ADD360R,0.1674X0.0001*%
%ADD361R,0.1672X0.0001*%
%ADD362R,0.1670X0.0001*%
%ADD363R,0.1668X0.0001*%
%ADD364R,0.1666X0.0001*%
%ADD365R,0.1664X0.0001*%
%ADD366R,0.1662X0.0001*%
%ADD367R,0.1660X0.0001*%
%ADD368R,0.1658X0.0001*%
%ADD369R,0.1656X0.0001*%
%ADD370R,0.1654X0.0001*%
%ADD371R,0.1652X0.0001*%
%ADD372R,0.1650X0.0001*%
%ADD373R,0.1648X0.0001*%
%ADD374R,0.1646X0.0001*%
%ADD375R,0.1644X0.0001*%
%ADD376R,0.1642X0.0001*%
%ADD377R,0.1640X0.0001*%
%ADD378R,0.1638X0.0001*%
%ADD379R,0.1636X0.0001*%
%ADD380R,0.1634X0.0001*%
%ADD381R,0.1632X0.0001*%
%ADD382R,0.1630X0.0001*%
%ADD383R,0.1628X0.0001*%
%ADD384R,0.1626X0.0001*%
%ADD385R,0.1624X0.0001*%
%ADD386R,0.1622X0.0001*%
%ADD387R,0.1620X0.0001*%
%ADD388R,0.1617X0.0001*%
%ADD389R,0.1615X0.0001*%
%ADD390R,0.1613X0.0001*%
%ADD391R,0.1611X0.0001*%
%ADD392R,0.1609X0.0001*%
%ADD393R,0.1607X0.0001*%
%ADD394R,0.1605X0.0001*%
%ADD395R,0.1603X0.0001*%
%ADD396R,0.1601X0.0001*%
%ADD397R,0.1599X0.0001*%
%ADD398R,0.1597X0.0001*%
%ADD399R,0.1595X0.0001*%
%ADD400R,0.1593X0.0001*%
%ADD401R,0.1591X0.0001*%
%ADD402R,0.1589X0.0001*%
%ADD403R,0.1587X0.0001*%
%ADD404R,0.1585X0.0001*%
%ADD405R,0.1582X0.0001*%
%ADD406R,0.1580X0.0001*%
%ADD407R,0.1578X0.0001*%
%ADD408R,0.1576X0.0001*%
%ADD409R,0.1574X0.0001*%
%ADD410R,0.1572X0.0001*%
%ADD411R,0.1570X0.0001*%
%ADD412R,0.1568X0.0001*%
%ADD413R,0.1566X0.0001*%
%ADD414R,0.1564X0.0001*%
%ADD415R,0.1562X0.0001*%
%ADD416R,0.1560X0.0001*%
%ADD417R,0.1558X0.0001*%
%ADD418R,0.1556X0.0001*%
%ADD419R,0.1554X0.0001*%
%ADD420R,0.1552X0.0001*%
%ADD421R,0.1550X0.0001*%
%ADD422R,0.1548X0.0001*%
%ADD423R,0.1546X0.0001*%
%ADD424R,0.1544X0.0001*%
%ADD425R,0.1542X0.0001*%
%ADD426R,0.1540X0.0001*%
%ADD427R,0.1538X0.0001*%
%ADD428R,0.1536X0.0001*%
%ADD429R,0.1534X0.0001*%
%ADD430R,0.1532X0.0001*%
%ADD431R,0.1530X0.0001*%
%ADD432R,0.1528X0.0001*%
%ADD433R,0.1526X0.0001*%
%ADD434R,0.1524X0.0001*%
%ADD435R,0.1522X0.0001*%
%ADD436R,0.1520X0.0001*%
%ADD437R,0.1517X0.0001*%
%ADD438R,0.1515X0.0001*%
%ADD439R,0.1513X0.0001*%
%ADD440R,0.1511X0.0001*%
%ADD441R,0.1509X0.0001*%
%ADD442R,0.1507X0.0001*%
%ADD443R,0.1505X0.0001*%
%ADD444R,0.1503X0.0001*%
%ADD445R,0.1501X0.0001*%
%ADD446R,0.1499X0.0001*%
%ADD447R,0.1497X0.0001*%
%ADD448R,0.1495X0.0001*%
%ADD449R,0.1493X0.0001*%
%ADD450R,0.1491X0.0001*%
%ADD451R,0.1489X0.0001*%
%ADD452R,0.1487X0.0001*%
%ADD453R,0.1485X0.0001*%
%ADD454R,0.1482X0.0001*%
%ADD455R,0.1480X0.0001*%
%ADD456R,0.1478X0.0001*%
%ADD457R,0.1476X0.0001*%
%ADD458R,0.1474X0.0001*%
%ADD459R,0.1472X0.0001*%
%ADD460R,0.1470X0.0001*%
%ADD461R,0.1468X0.0001*%
%ADD462R,0.1466X0.0001*%
%ADD463R,0.1464X0.0001*%
%ADD464R,0.1462X0.0001*%
%ADD465R,0.1460X0.0001*%
%ADD466R,0.1458X0.0001*%
%ADD467R,0.1456X0.0001*%
%ADD468R,0.1454X0.0001*%
%ADD469R,0.1452X0.0001*%
%ADD470R,0.1450X0.0001*%
%ADD471R,0.1448X0.0001*%
%ADD472R,0.1446X0.0001*%
%ADD473R,0.1444X0.0001*%
%ADD474R,0.1442X0.0001*%
%ADD475R,0.1440X0.0001*%
%ADD476R,0.1438X0.0001*%
%ADD477R,0.1436X0.0001*%
%ADD478R,0.1434X0.0001*%
%ADD479R,0.1432X0.0001*%
%ADD480R,0.1430X0.0001*%
%ADD481R,0.1428X0.0001*%
%ADD482R,0.1426X0.0001*%
%ADD483R,0.1424X0.0001*%
%ADD484R,0.1422X0.0001*%
%ADD485R,0.1420X0.0001*%
%ADD486R,0.1418X0.0001*%
%ADD487R,0.1415X0.0001*%
%ADD488R,0.1413X0.0001*%
%ADD489R,0.1411X0.0001*%
%ADD490R,0.1409X0.0001*%
%ADD491R,0.1407X0.0001*%
%ADD492R,0.1405X0.0001*%
%ADD493R,0.1403X0.0001*%
%ADD494R,0.1401X0.0001*%
%ADD495R,0.1399X0.0001*%
%ADD496R,0.1397X0.0001*%
%ADD497R,0.1395X0.0001*%
%ADD498R,0.1393X0.0001*%
%ADD499R,0.1391X0.0001*%
%ADD500R,0.1389X0.0001*%
%ADD501R,0.1387X0.0001*%
%ADD502R,0.1384X0.0001*%
%ADD503R,0.1382X0.0001*%
%ADD504R,0.1380X0.0001*%
%ADD505R,0.1378X0.0001*%
%ADD506R,0.1376X0.0001*%
%ADD507R,0.1374X0.0001*%
%ADD508R,0.1372X0.0001*%
%ADD509R,0.1370X0.0001*%
%ADD510R,0.1368X0.0001*%
%ADD511R,0.1366X0.0001*%
%ADD512R,0.1364X0.0001*%
%ADD513R,0.1362X0.0001*%
%ADD514R,0.1360X0.0001*%
%ADD515R,0.1358X0.0001*%
%ADD516R,0.1356X0.0001*%
%ADD517R,0.1354X0.0001*%
%ADD518R,0.1352X0.0001*%
%ADD519R,0.1350X0.0001*%
%ADD520R,0.1348X0.0001*%
%ADD521R,0.1346X0.0001*%
%ADD522R,0.1344X0.0001*%
%ADD523R,0.1342X0.0001*%
%ADD524R,0.1340X0.0001*%
%ADD525R,0.1338X0.0001*%
%ADD526R,0.1336X0.0001*%
%ADD527R,0.1334X0.0001*%
%ADD528R,0.1332X0.0001*%
%ADD529R,0.1330X0.0001*%
%ADD530R,0.1328X0.0001*%
%ADD531R,0.1326X0.0001*%
%ADD532R,0.1324X0.0001*%
%ADD533R,0.1322X0.0001*%
%ADD534R,0.1320X0.0001*%
%ADD535R,0.1318X0.0001*%
%ADD536R,0.1315X0.0001*%
%ADD537R,0.1313X0.0001*%
%ADD538R,0.1311X0.0001*%
%ADD539R,0.1309X0.0001*%
%ADD540R,0.1307X0.0001*%
%ADD541R,0.1305X0.0001*%
%ADD542R,0.1303X0.0001*%
%ADD543R,0.1301X0.0001*%
%ADD544R,0.1299X0.0001*%
%ADD545R,0.1297X0.0001*%
%ADD546R,0.1295X0.0001*%
%ADD547R,0.1293X0.0001*%
%ADD548R,0.1291X0.0001*%
%ADD549R,0.1289X0.0001*%
%ADD550R,0.1287X0.0001*%
%ADD551R,0.1284X0.0001*%
%ADD552R,0.1282X0.0001*%
%ADD553R,0.1280X0.0001*%
%ADD554R,0.1278X0.0001*%
%ADD555R,0.1276X0.0001*%
%ADD556R,0.1274X0.0001*%
%ADD557R,0.1272X0.0001*%
%ADD558R,0.1270X0.0001*%
%ADD559R,0.1268X0.0001*%
%ADD560R,0.1266X0.0001*%
%ADD561R,0.1264X0.0001*%
%ADD562R,0.1262X0.0001*%
%ADD563R,0.1260X0.0001*%
%ADD564R,0.1258X0.0001*%
%ADD565R,0.1256X0.0001*%
%ADD566R,0.1254X0.0001*%
%ADD567R,0.1252X0.0001*%
%ADD568R,0.1250X0.0001*%
%ADD569R,0.1248X0.0001*%
%ADD570R,0.1246X0.0001*%
%ADD571R,0.1244X0.0001*%
%ADD572R,0.1242X0.0001*%
%ADD573R,0.1240X0.0001*%
%ADD574R,0.1238X0.0001*%
%ADD575R,0.1236X0.0001*%
%ADD576R,0.1234X0.0001*%
%ADD577R,0.1232X0.0001*%
%ADD578R,0.1230X0.0001*%
%ADD579R,0.1228X0.0001*%
%ADD580R,0.1226X0.0001*%
%ADD581R,0.1224X0.0001*%
%ADD582R,0.1222X0.0001*%
%ADD583R,0.1220X0.0001*%
%ADD584R,0.1218X0.0001*%
%ADD585R,0.1215X0.0001*%
%ADD586R,0.1213X0.0001*%
%ADD587R,0.1211X0.0001*%
%ADD588R,0.1209X0.0001*%
%ADD589R,0.1207X0.0001*%
%ADD590R,0.1205X0.0001*%
%ADD591R,0.1203X0.0001*%
%ADD592R,0.1201X0.0001*%
%ADD593R,0.1199X0.0001*%
%ADD594R,0.1197X0.0001*%
%ADD595R,0.1195X0.0001*%
%ADD596R,0.1193X0.0001*%
%ADD597R,0.1191X0.0001*%
%ADD598R,0.1189X0.0001*%
%ADD599R,0.1187X0.0001*%
%ADD600R,0.1184X0.0001*%
%ADD601R,0.1182X0.0001*%
%ADD602R,0.1180X0.0001*%
%ADD603R,0.1178X0.0001*%
%ADD604R,0.1176X0.0001*%
%ADD605R,0.1174X0.0001*%
%ADD606R,0.1172X0.0001*%
%ADD607R,0.1170X0.0001*%
%ADD608R,0.1168X0.0001*%
%ADD609R,0.1166X0.0001*%
%ADD610R,0.1164X0.0001*%
%ADD611R,0.1162X0.0001*%
%ADD612R,0.1160X0.0001*%
%ADD613R,0.1158X0.0001*%
%ADD614R,0.1156X0.0001*%
%ADD615R,0.1154X0.0001*%
%ADD616R,0.1152X0.0001*%
%ADD617R,0.1150X0.0001*%
%ADD618R,0.1148X0.0001*%
%ADD619R,0.1146X0.0001*%
%ADD620R,0.1142X0.0001*%
%ADD621R,0.1136X0.0001*%
%ADD622R,0.1131X0.0001*%
%ADD623R,0.1126X0.0001*%
%ADD624R,0.1120X0.0001*%
%ADD625R,0.1114X0.0001*%
%ADD626R,0.1108X0.0001*%
%ADD627R,0.1102X0.0001*%
%ADD628R,0.1095X0.0001*%
%ADD629R,0.1089X0.0001*%
%ADD630R,0.1083X0.0001*%
%ADD631R,0.1075X0.0001*%
%ADD632R,0.1067X0.0001*%
%ADD633R,0.1060X0.0001*%
%ADD634R,0.1052X0.0001*%
%ADD635R,0.1044X0.0001*%
%ADD636R,0.1036X0.0001*%
%ADD637R,0.1026X0.0001*%
%ADD638R,0.1016X0.0001*%
%ADD639R,0.1005X0.0001*%
%ADD640R,0.0993X0.0001*%
%ADD641R,0.0977X0.0001*%
%ADD642R,0.0954X0.0001*%
%ADD643C,0.0000*%
D10*
X005006Y001088D02*
X005281Y001088D01*
X005373Y001179D01*
X005373Y001271D01*
X005281Y001363D01*
X005006Y001363D01*
X005006Y001638D02*
X005281Y001638D01*
X005373Y001546D01*
X005373Y001454D01*
X005281Y001363D01*
X005006Y001088D02*
X005006Y001638D01*
X005106Y002063D02*
X005106Y002429D01*
X005289Y002613D01*
X005473Y002429D01*
X005473Y002063D01*
X005704Y002063D02*
X005888Y002063D01*
X005796Y002063D02*
X005796Y002429D01*
X005704Y002429D01*
X005796Y002613D02*
X005796Y002705D01*
X005473Y002338D02*
X005106Y002338D01*
X005604Y001638D02*
X005880Y001638D01*
X005971Y001546D01*
X005971Y001363D01*
X005880Y001271D01*
X005604Y001271D01*
X005604Y001088D02*
X005604Y001638D01*
X005788Y001271D02*
X005971Y001088D01*
X006203Y001088D02*
X006570Y001088D01*
X006801Y001088D02*
X006801Y001454D01*
X006985Y001638D01*
X007168Y001454D01*
X007168Y001088D01*
X007400Y001088D02*
X007400Y001638D01*
X007492Y001363D02*
X007767Y001088D01*
X007999Y001179D02*
X008090Y001088D01*
X008274Y001088D01*
X008365Y001179D01*
X008365Y001546D01*
X008274Y001638D01*
X008090Y001638D01*
X007999Y001546D01*
X007999Y001179D01*
X007767Y001638D02*
X007400Y001271D01*
X007168Y001363D02*
X006801Y001363D01*
X006570Y001638D02*
X006203Y001638D01*
X006203Y001088D01*
X006203Y001363D02*
X006386Y001363D01*
X006702Y002063D02*
X006702Y002613D01*
X006977Y002613D01*
X007069Y002521D01*
X007069Y002338D01*
X006977Y002246D01*
X006702Y002246D01*
X006885Y002246D02*
X007069Y002063D01*
X007300Y002063D02*
X007300Y002613D01*
X007667Y002063D01*
X007667Y002613D01*
X007899Y002338D02*
X008266Y002338D01*
X008497Y002338D02*
X008681Y002429D01*
X008773Y002429D01*
X008864Y002338D01*
X008864Y002154D01*
X008773Y002063D01*
X008589Y002063D01*
X008497Y002154D01*
X008497Y002338D02*
X008497Y002613D01*
X008864Y002613D01*
X009096Y002521D02*
X009188Y002613D01*
X009371Y002613D01*
X009463Y002521D01*
X009463Y002429D01*
X009096Y002063D01*
X009463Y002063D01*
X009379Y001638D02*
X009379Y001088D01*
X008964Y001179D02*
X008964Y001638D01*
X009196Y001638D02*
X009563Y001638D01*
X008964Y001179D02*
X008872Y001088D01*
X008689Y001088D01*
X008597Y001179D01*
X008597Y001638D01*
D11*
X008947Y000875D02*
X008847Y000775D01*
X008725Y000775D02*
X008625Y000575D01*
X008525Y000775D01*
X008847Y000575D02*
X009047Y000575D01*
X008947Y000575D02*
X008947Y000875D01*
X009170Y000625D02*
X009220Y000625D01*
X009220Y000575D01*
X009170Y000575D01*
X009170Y000625D01*
X009331Y000625D02*
X009331Y000825D01*
X009381Y000875D01*
X009481Y000875D01*
X009531Y000825D01*
X009331Y000625D01*
X009381Y000575D01*
X009481Y000575D01*
X009531Y000625D01*
X009531Y000825D01*
X009827Y011556D02*
X009827Y020020D01*
X004473Y020020D02*
X004473Y011556D01*
D12*
X000150Y000500D02*
X000400Y000250D01*
X000900Y000250D01*
X001150Y000500D01*
X001150Y001000D01*
X000900Y001250D01*
X001150Y001500D01*
X001150Y002000D01*
X000900Y002250D01*
X001150Y002500D01*
X001150Y003000D01*
X000900Y003250D01*
X001150Y003500D01*
X001150Y004000D01*
X000900Y004250D01*
X001150Y004500D01*
X001150Y005000D01*
X000900Y005250D01*
X001150Y005500D01*
X001150Y006000D01*
X000900Y006250D01*
X001150Y006500D01*
X001150Y007000D01*
X000900Y007250D01*
X001150Y007500D01*
X001150Y008000D01*
X000900Y008250D01*
X001150Y008500D01*
X001150Y009000D01*
X000900Y009250D01*
X001150Y009500D01*
X001150Y010000D01*
X000900Y010250D01*
X001150Y010500D01*
X001150Y011000D01*
X000900Y011250D01*
X001150Y011500D01*
X001150Y012000D01*
X000900Y012250D01*
X001150Y012500D01*
X001150Y013000D01*
X000900Y013250D01*
X001150Y013500D01*
X001150Y014000D01*
X000900Y014250D01*
X001150Y014500D01*
X001150Y015000D01*
X000900Y015250D01*
X001150Y015500D01*
X001150Y016000D01*
X000900Y016250D01*
X001150Y016500D01*
X001150Y017000D01*
X000900Y017250D01*
X001150Y017500D01*
X001150Y018000D01*
X000900Y018250D01*
X001150Y018500D01*
X001150Y019000D01*
X000900Y019250D01*
X001150Y019500D01*
X001150Y020000D01*
X000900Y020250D01*
X000400Y020250D01*
X000150Y020000D01*
X000150Y019500D01*
X000400Y019250D01*
X000150Y019000D01*
X000150Y018500D01*
X000400Y018250D01*
X000150Y018000D01*
X000150Y017500D01*
X000400Y017250D01*
X000150Y017000D01*
X000150Y016500D01*
X000400Y016250D01*
X000150Y016000D01*
X000150Y015500D01*
X000400Y015250D01*
X000150Y015000D01*
X000150Y014500D01*
X000400Y014250D01*
X000150Y014000D01*
X000150Y013500D01*
X000400Y013250D01*
X000150Y013000D01*
X000150Y012500D01*
X000400Y012250D01*
X000150Y012000D01*
X000150Y011500D01*
X000400Y011250D01*
X000150Y011000D01*
X000150Y010500D01*
X000400Y010250D01*
X000150Y010000D01*
X000150Y009500D01*
X000400Y009250D01*
X000150Y009000D01*
X000150Y008500D01*
X000400Y008250D01*
X000150Y008000D01*
X000150Y007500D01*
X000400Y007250D01*
X000150Y007000D01*
X000150Y006500D01*
X000400Y006250D01*
X000150Y006000D01*
X000150Y005500D01*
X000400Y005250D01*
X000150Y005000D01*
X000150Y004500D01*
X000400Y004250D01*
X000150Y004000D01*
X000150Y003500D01*
X000400Y003250D01*
X000150Y003000D01*
X000150Y002500D01*
X000400Y002250D01*
X000150Y002000D01*
X000150Y001500D01*
X000400Y001250D01*
X000150Y001000D01*
X000150Y000500D01*
X001440Y000610D02*
X001510Y000540D01*
X001650Y000540D01*
X001720Y000610D01*
X001720Y000680D01*
X001650Y000750D01*
X001580Y000750D01*
X001650Y000750D02*
X001720Y000820D01*
X001720Y000890D01*
X001650Y000960D01*
X001510Y000960D01*
X001440Y000890D01*
X001900Y000960D02*
X001900Y000680D01*
X002041Y000540D01*
X002181Y000680D01*
X002181Y000960D01*
X002361Y000890D02*
X002431Y000960D01*
X002571Y000960D01*
X002641Y000890D01*
X002641Y000820D01*
X002571Y000750D01*
X002641Y000680D01*
X002641Y000610D01*
X002571Y000540D01*
X002431Y000540D01*
X002361Y000610D01*
X002501Y000750D02*
X002571Y000750D01*
X002641Y001540D02*
X002501Y001680D01*
X002571Y001680D02*
X002361Y001680D01*
X002361Y001540D02*
X002361Y001960D01*
X002571Y001960D01*
X002641Y001890D01*
X002641Y001750D01*
X002571Y001680D01*
X002821Y001750D02*
X002961Y001750D01*
X002821Y001960D02*
X002821Y001540D01*
X003101Y001540D01*
X003282Y001540D02*
X003282Y001960D01*
X003562Y001540D01*
X003562Y001960D01*
X003101Y001960D02*
X002821Y001960D01*
X002878Y002540D02*
X002738Y002540D01*
X002668Y002610D01*
X002668Y002890D01*
X002738Y002960D01*
X002878Y002960D01*
X002948Y002890D01*
X002948Y002610D01*
X002878Y002540D01*
X003128Y002610D02*
X003128Y002750D01*
X003338Y002750D01*
X003408Y002680D01*
X003408Y002610D01*
X003338Y002540D01*
X003198Y002540D01*
X003128Y002610D01*
X003128Y002750D02*
X003268Y002890D01*
X003408Y002960D01*
X003128Y003540D02*
X003128Y003610D01*
X003408Y003890D01*
X003408Y003960D01*
X003128Y003960D01*
X002948Y003890D02*
X002878Y003960D01*
X002738Y003960D01*
X002668Y003890D01*
X002668Y003610D01*
X002738Y003540D01*
X002878Y003540D01*
X002948Y003610D01*
X002948Y003890D01*
X002501Y003960D02*
X002361Y003960D01*
X002431Y003960D02*
X002431Y003540D01*
X002361Y003540D02*
X002501Y003540D01*
X002181Y003750D02*
X002111Y003680D01*
X001900Y003680D01*
X001900Y003540D02*
X001900Y003960D01*
X002111Y003960D01*
X002181Y003890D01*
X002181Y003750D01*
X001720Y003750D02*
X001720Y003610D01*
X001650Y003540D01*
X001510Y003540D01*
X001440Y003610D01*
X001440Y003890D01*
X001510Y003960D01*
X001650Y003960D01*
X001720Y003890D01*
X001720Y003750D02*
X001580Y003750D01*
X001510Y004540D02*
X001650Y004540D01*
X001720Y004610D01*
X001720Y004960D01*
X001900Y004820D02*
X002041Y004960D01*
X002181Y004820D01*
X002181Y004540D01*
X002361Y004540D02*
X002361Y004960D01*
X002571Y004960D01*
X002641Y004890D01*
X002641Y004750D01*
X002571Y004680D01*
X002361Y004680D01*
X002501Y004680D02*
X002641Y004540D01*
X002961Y004540D02*
X002961Y004960D01*
X002821Y004960D02*
X003101Y004960D01*
X003282Y004470D02*
X003562Y004470D01*
X003742Y004540D02*
X003742Y004960D01*
X003952Y004960D01*
X004022Y004890D01*
X004022Y004750D01*
X003952Y004680D01*
X003742Y004680D01*
X003882Y004680D02*
X004022Y004540D01*
X004202Y004540D02*
X004483Y004960D01*
X004202Y004960D02*
X004483Y004540D01*
X004483Y005540D02*
X004202Y005960D01*
X004022Y005960D02*
X003742Y005960D01*
X003882Y005960D02*
X003882Y005540D01*
X004202Y005540D02*
X004483Y005960D01*
X004342Y006540D02*
X004342Y006960D01*
X004202Y006960D02*
X004483Y006960D01*
X004663Y006890D02*
X004663Y006820D01*
X004733Y006750D01*
X004873Y006750D01*
X004943Y006680D01*
X004943Y006610D01*
X004873Y006540D01*
X004733Y006540D01*
X004663Y006610D01*
X004663Y006890D02*
X004733Y006960D01*
X004873Y006960D01*
X004943Y006890D01*
X004873Y007540D02*
X004733Y007540D01*
X004663Y007610D01*
X004733Y007750D02*
X004663Y007820D01*
X004663Y007890D01*
X004733Y007960D01*
X004873Y007960D01*
X004943Y007890D01*
X004873Y007750D02*
X004943Y007680D01*
X004943Y007610D01*
X004873Y007540D01*
X004873Y007750D02*
X004733Y007750D01*
X004483Y007960D02*
X004202Y007960D01*
X004342Y007960D02*
X004342Y007540D01*
X004022Y007540D02*
X003882Y007680D01*
X003952Y007680D02*
X003742Y007680D01*
X003742Y007540D02*
X003742Y007960D01*
X003952Y007960D01*
X004022Y007890D01*
X004022Y007750D01*
X003952Y007680D01*
X003562Y007470D02*
X003282Y007470D01*
X002961Y007540D02*
X002961Y007960D01*
X002821Y007960D02*
X003101Y007960D01*
X003031Y008540D02*
X002821Y008540D01*
X002821Y008960D01*
X003031Y008960D01*
X003101Y008890D01*
X003101Y008610D01*
X003031Y008540D01*
X003282Y008750D02*
X003562Y008750D01*
X003422Y008890D02*
X003422Y008610D01*
X003031Y009540D02*
X002821Y009540D01*
X002821Y009960D01*
X003031Y009960D01*
X003101Y009890D01*
X003101Y009610D01*
X003031Y009540D01*
X003282Y009750D02*
X003562Y009750D01*
X003338Y010540D02*
X003198Y010540D01*
X003128Y010610D01*
X003198Y010750D02*
X003128Y010820D01*
X003128Y010890D01*
X003198Y010960D01*
X003338Y010960D01*
X003408Y010890D01*
X003408Y010610D01*
X003338Y010540D01*
X003408Y010750D02*
X003198Y010750D01*
X002948Y010610D02*
X002948Y010890D01*
X002878Y010960D01*
X002738Y010960D01*
X002668Y010890D01*
X002668Y010610D01*
X002738Y010540D01*
X002878Y010540D01*
X002948Y010610D01*
X002501Y010540D02*
X002361Y010540D01*
X002431Y010540D02*
X002431Y010960D01*
X002361Y010960D02*
X002501Y010960D01*
X002181Y010890D02*
X002181Y010750D01*
X002111Y010680D01*
X001900Y010680D01*
X001900Y010540D02*
X001900Y010960D01*
X002111Y010960D01*
X002181Y010890D01*
X001720Y010890D02*
X001650Y010960D01*
X001510Y010960D01*
X001440Y010890D01*
X001440Y010610D01*
X001510Y010540D01*
X001650Y010540D01*
X001720Y010610D01*
X001720Y010750D01*
X001580Y010750D01*
X001510Y011540D02*
X001650Y011540D01*
X001720Y011610D01*
X001720Y011750D01*
X001580Y011750D01*
X001440Y011610D02*
X001510Y011540D01*
X001440Y011610D02*
X001440Y011890D01*
X001510Y011960D01*
X001650Y011960D01*
X001720Y011890D01*
X001900Y011960D02*
X002111Y011960D01*
X002181Y011890D01*
X002181Y011750D01*
X002111Y011680D01*
X001900Y011680D01*
X001900Y011540D02*
X001900Y011960D01*
X002361Y011960D02*
X002501Y011960D01*
X002431Y011960D02*
X002431Y011540D01*
X002361Y011540D02*
X002501Y011540D01*
X002668Y011610D02*
X002738Y011540D01*
X002878Y011540D01*
X002948Y011610D01*
X002948Y011890D01*
X002878Y011960D01*
X002738Y011960D01*
X002668Y011890D01*
X002668Y011610D01*
X003128Y011540D02*
X003408Y011540D01*
X003268Y011540D02*
X003268Y011960D01*
X003128Y011820D01*
X003588Y011890D02*
X003588Y011610D01*
X003869Y011890D01*
X003869Y011610D01*
X003799Y011540D01*
X003659Y011540D01*
X003588Y011610D01*
X003588Y011890D02*
X003659Y011960D01*
X003799Y011960D01*
X003869Y011890D01*
X003869Y012540D02*
X003588Y012540D01*
X003729Y012540D02*
X003729Y012960D01*
X003588Y012820D01*
X003408Y012540D02*
X003128Y012540D01*
X003268Y012540D02*
X003268Y012960D01*
X003128Y012820D01*
X002948Y012890D02*
X002948Y012610D01*
X002878Y012540D01*
X002738Y012540D01*
X002668Y012610D01*
X002668Y012890D01*
X002738Y012960D01*
X002878Y012960D01*
X002948Y012890D01*
X002501Y012960D02*
X002361Y012960D01*
X002431Y012960D02*
X002431Y012540D01*
X002361Y012540D02*
X002501Y012540D01*
X002181Y012750D02*
X002111Y012680D01*
X001900Y012680D01*
X001900Y012540D02*
X001900Y012960D01*
X002111Y012960D01*
X002181Y012890D01*
X002181Y012750D01*
X001720Y012750D02*
X001720Y012610D01*
X001650Y012540D01*
X001510Y012540D01*
X001440Y012610D01*
X001440Y012890D01*
X001510Y012960D01*
X001650Y012960D01*
X001720Y012890D01*
X001720Y012750D02*
X001580Y012750D01*
X001510Y013540D02*
X001650Y013540D01*
X001720Y013610D01*
X001720Y013750D01*
X001580Y013750D01*
X001440Y013610D02*
X001510Y013540D01*
X001440Y013610D02*
X001440Y013890D01*
X001510Y013960D01*
X001650Y013960D01*
X001720Y013890D01*
X001900Y013960D02*
X002111Y013960D01*
X002181Y013890D01*
X002181Y013750D01*
X002111Y013680D01*
X001900Y013680D01*
X001900Y013540D02*
X001900Y013960D01*
X002361Y013960D02*
X002501Y013960D01*
X002431Y013960D02*
X002431Y013540D01*
X002361Y013540D02*
X002501Y013540D01*
X002668Y013610D02*
X002738Y013540D01*
X002878Y013540D01*
X002948Y013610D01*
X002948Y013890D01*
X002878Y013960D01*
X002738Y013960D01*
X002668Y013890D01*
X002668Y013610D01*
X003128Y013540D02*
X003408Y013540D01*
X003268Y013540D02*
X003268Y013960D01*
X003128Y013820D01*
X003128Y014540D02*
X003408Y014540D01*
X003268Y014540D02*
X003268Y014960D01*
X003128Y014820D01*
X002948Y014890D02*
X002948Y014610D01*
X002878Y014540D01*
X002738Y014540D01*
X002668Y014610D01*
X002668Y014890D01*
X002738Y014960D01*
X002878Y014960D01*
X002948Y014890D01*
X002501Y014960D02*
X002361Y014960D01*
X002431Y014960D02*
X002431Y014540D01*
X002361Y014540D02*
X002501Y014540D01*
X002181Y014750D02*
X002111Y014680D01*
X001900Y014680D01*
X001900Y014540D02*
X001900Y014960D01*
X002111Y014960D01*
X002181Y014890D01*
X002181Y014750D01*
X001720Y014750D02*
X001720Y014610D01*
X001650Y014540D01*
X001510Y014540D01*
X001440Y014610D01*
X001440Y014890D01*
X001510Y014960D01*
X001650Y014960D01*
X001720Y014890D01*
X001720Y014750D02*
X001580Y014750D01*
X001510Y015540D02*
X001650Y015540D01*
X001720Y015610D01*
X001720Y015750D01*
X001580Y015750D01*
X001440Y015610D02*
X001510Y015540D01*
X001440Y015610D02*
X001440Y015890D01*
X001510Y015960D01*
X001650Y015960D01*
X001720Y015890D01*
X001900Y015960D02*
X002111Y015960D01*
X002181Y015890D01*
X002181Y015750D01*
X002111Y015680D01*
X001900Y015680D01*
X001900Y015540D02*
X001900Y015960D01*
X002361Y015960D02*
X002501Y015960D01*
X002431Y015960D02*
X002431Y015540D01*
X002361Y015540D02*
X002501Y015540D01*
X002668Y015610D02*
X002738Y015540D01*
X002878Y015540D01*
X002948Y015610D01*
X002948Y015890D01*
X002878Y015960D01*
X002738Y015960D01*
X002668Y015890D01*
X002668Y015610D01*
X003128Y015610D02*
X003198Y015540D01*
X003338Y015540D01*
X003408Y015610D01*
X003408Y015750D01*
X003338Y015820D01*
X003268Y015820D01*
X003128Y015750D01*
X003128Y015960D01*
X003408Y015960D01*
X003338Y016540D02*
X003338Y016960D01*
X003128Y016750D01*
X003408Y016750D01*
X002948Y016610D02*
X002948Y016890D01*
X002878Y016960D01*
X002738Y016960D01*
X002668Y016890D01*
X002668Y016610D01*
X002738Y016540D01*
X002878Y016540D01*
X002948Y016610D01*
X002501Y016540D02*
X002361Y016540D01*
X002431Y016540D02*
X002431Y016960D01*
X002361Y016960D02*
X002501Y016960D01*
X002181Y016890D02*
X002181Y016750D01*
X002111Y016680D01*
X001900Y016680D01*
X001900Y016540D02*
X001900Y016960D01*
X002111Y016960D01*
X002181Y016890D01*
X002277Y017540D02*
X002418Y017540D01*
X002488Y017610D01*
X002488Y017890D01*
X002418Y017960D01*
X002277Y017960D01*
X002207Y017890D01*
X002207Y017610D01*
X002277Y017540D01*
X002041Y017540D02*
X001900Y017540D01*
X001970Y017540D02*
X001970Y017960D01*
X001900Y017960D02*
X002041Y017960D01*
X001720Y017820D02*
X001720Y017540D01*
X001720Y017750D02*
X001440Y017750D01*
X001440Y017820D02*
X001440Y017540D01*
X001440Y017820D02*
X001580Y017960D01*
X001720Y017820D01*
X001650Y018540D02*
X001510Y018540D01*
X001440Y018610D01*
X001440Y018890D01*
X001510Y018960D01*
X001650Y018960D01*
X001720Y018890D01*
X001720Y018750D02*
X001580Y018750D01*
X001720Y018750D02*
X001720Y018610D01*
X001650Y018540D01*
X001900Y018540D02*
X001900Y018960D01*
X002111Y018960D01*
X002181Y018890D01*
X002181Y018750D01*
X002111Y018680D01*
X001900Y018680D01*
X002361Y018540D02*
X002501Y018540D01*
X002431Y018540D02*
X002431Y018960D01*
X002361Y018960D02*
X002501Y018960D01*
X002668Y018890D02*
X002668Y018610D01*
X002738Y018540D01*
X002878Y018540D01*
X002948Y018610D01*
X002948Y018890D01*
X002878Y018960D01*
X002738Y018960D01*
X002668Y018890D01*
X003128Y018890D02*
X003198Y018960D01*
X003338Y018960D01*
X003408Y018890D01*
X003408Y018820D01*
X003128Y018540D01*
X003408Y018540D01*
X002878Y017960D02*
X002948Y017890D01*
X002668Y017610D01*
X002738Y017540D01*
X002878Y017540D01*
X002948Y017610D01*
X002948Y017890D01*
X002878Y017960D02*
X002738Y017960D01*
X002668Y017890D01*
X002668Y017610D01*
X001720Y016890D02*
X001650Y016960D01*
X001510Y016960D01*
X001440Y016890D01*
X001440Y016610D01*
X001510Y016540D01*
X001650Y016540D01*
X001720Y016610D01*
X001720Y016750D01*
X001580Y016750D01*
X001510Y019540D02*
X001650Y019540D01*
X001720Y019610D01*
X001720Y019750D01*
X001580Y019750D01*
X001440Y019610D02*
X001510Y019540D01*
X001440Y019610D02*
X001440Y019890D01*
X001510Y019960D01*
X001650Y019960D01*
X001720Y019890D01*
X001900Y019960D02*
X001900Y019540D01*
X001900Y019680D02*
X002111Y019680D01*
X002181Y019750D01*
X002181Y019890D01*
X002111Y019960D01*
X001900Y019960D01*
X002361Y019960D02*
X002501Y019960D01*
X002431Y019960D02*
X002431Y019540D01*
X002361Y019540D02*
X002501Y019540D01*
X002668Y019610D02*
X002668Y019890D01*
X002738Y019960D01*
X002878Y019960D01*
X002948Y019890D01*
X002948Y019610D01*
X002878Y019540D01*
X002738Y019540D01*
X002668Y019610D01*
X003128Y019610D02*
X003198Y019540D01*
X003338Y019540D01*
X003408Y019610D01*
X003408Y019680D01*
X003338Y019750D01*
X003268Y019750D01*
X003338Y019750D02*
X003408Y019820D01*
X003408Y019890D01*
X003338Y019960D01*
X003198Y019960D01*
X003128Y019890D01*
X004473Y021398D02*
X004473Y021792D01*
X004867Y021792D01*
X009433Y021792D02*
X009827Y021792D01*
X009827Y021398D01*
X010360Y019960D02*
X010290Y019890D01*
X010290Y019820D01*
X010360Y019750D01*
X010500Y019750D01*
X010570Y019680D01*
X010570Y019610D01*
X010500Y019540D01*
X010360Y019540D01*
X010290Y019610D01*
X010360Y019960D02*
X010500Y019960D01*
X010570Y019890D01*
X010750Y019960D02*
X010750Y019540D01*
X010750Y019680D02*
X010961Y019680D01*
X011031Y019750D01*
X011031Y019890D01*
X010961Y019960D01*
X010750Y019960D01*
X011211Y019960D02*
X011211Y019540D01*
X011211Y019680D02*
X011491Y019960D01*
X011281Y019750D02*
X011491Y019540D01*
X011671Y019470D02*
X011951Y019470D01*
X012132Y019540D02*
X012412Y019540D01*
X012592Y019750D02*
X012872Y019750D01*
X012732Y019890D02*
X012732Y019610D01*
X013150Y019500D02*
X013150Y020000D01*
X013400Y020250D01*
X013900Y020250D01*
X014150Y020000D01*
X014150Y019500D01*
X013900Y019250D01*
X014150Y019000D01*
X014150Y018500D01*
X013900Y018250D01*
X014150Y018000D01*
X014150Y017500D01*
X013900Y017250D01*
X014150Y017000D01*
X014150Y016500D01*
X013900Y016250D01*
X014150Y016000D01*
X014150Y015500D01*
X013900Y015250D01*
X014150Y015000D01*
X014150Y014500D01*
X013900Y014250D01*
X014150Y014000D01*
X014150Y013500D01*
X013900Y013250D01*
X014150Y013000D01*
X014150Y012500D01*
X013900Y012250D01*
X014150Y012000D01*
X014150Y011500D01*
X013900Y011250D01*
X014150Y011000D01*
X014150Y010500D01*
X013900Y010250D01*
X014150Y010000D01*
X014150Y009500D01*
X013900Y009250D01*
X014150Y009000D01*
X014150Y008500D01*
X013900Y008250D01*
X014150Y008000D01*
X014150Y007500D01*
X013900Y007250D01*
X014150Y007000D01*
X014150Y006500D01*
X013900Y006250D01*
X014150Y006000D01*
X014150Y005500D01*
X013900Y005250D01*
X014150Y005000D01*
X014150Y004500D01*
X013900Y004250D01*
X014150Y004000D01*
X014150Y003500D01*
X013900Y003250D01*
X014150Y003000D01*
X014150Y002500D01*
X013900Y002250D01*
X014150Y002000D01*
X014150Y001500D01*
X013900Y001250D01*
X014150Y001000D01*
X014150Y000500D01*
X013900Y000250D01*
X013400Y000250D01*
X013150Y000500D01*
X013150Y001000D01*
X013400Y001250D01*
X013150Y001500D01*
X013150Y002000D01*
X013400Y002250D01*
X013150Y002500D01*
X013150Y003000D01*
X013400Y003250D01*
X013150Y003500D01*
X013150Y004000D01*
X013400Y004250D01*
X013150Y004500D01*
X013150Y005000D01*
X013400Y005250D01*
X013150Y005500D01*
X013150Y006000D01*
X013400Y006250D01*
X013150Y006500D01*
X013150Y007000D01*
X013400Y007250D01*
X013150Y007500D01*
X013150Y008000D01*
X013400Y008250D01*
X013150Y008500D01*
X013150Y009000D01*
X013400Y009250D01*
X013150Y009500D01*
X013150Y010000D01*
X013400Y010250D01*
X013150Y010500D01*
X013150Y011000D01*
X013400Y011250D01*
X013150Y011500D01*
X013150Y012000D01*
X013400Y012250D01*
X013150Y012500D01*
X013150Y013000D01*
X013400Y013250D01*
X013150Y013500D01*
X013150Y014000D01*
X013400Y014250D01*
X013150Y014500D01*
X013150Y015000D01*
X013400Y015250D01*
X013150Y015500D01*
X013150Y016000D01*
X013400Y016250D01*
X013150Y016500D01*
X013150Y017000D01*
X013400Y017250D01*
X013150Y017500D01*
X013150Y018000D01*
X013400Y018250D01*
X013150Y018500D01*
X013150Y019000D01*
X013400Y019250D01*
X013150Y019500D01*
X012732Y018890D02*
X012732Y018610D01*
X012592Y018750D02*
X012872Y018750D01*
X012412Y018750D02*
X012342Y018680D01*
X012132Y018680D01*
X012272Y018680D02*
X012412Y018540D01*
X012412Y018750D02*
X012412Y018890D01*
X012342Y018960D01*
X012132Y018960D01*
X012132Y018540D01*
X011951Y018470D02*
X011671Y018470D01*
X011491Y018540D02*
X011281Y018750D01*
X011211Y018680D02*
X011491Y018960D01*
X011211Y018960D02*
X011211Y018540D01*
X011031Y018750D02*
X010961Y018680D01*
X010750Y018680D01*
X010750Y018540D02*
X010750Y018960D01*
X010961Y018960D01*
X011031Y018890D01*
X011031Y018750D01*
X010570Y018680D02*
X010570Y018610D01*
X010500Y018540D01*
X010360Y018540D01*
X010290Y018610D01*
X010360Y018750D02*
X010290Y018820D01*
X010290Y018890D01*
X010360Y018960D01*
X010500Y018960D01*
X010570Y018890D01*
X010500Y018750D02*
X010360Y018750D01*
X010500Y018750D02*
X010570Y018680D01*
X010500Y017960D02*
X010360Y017960D01*
X010290Y017890D01*
X010290Y017820D01*
X010360Y017750D01*
X010500Y017750D01*
X010570Y017680D01*
X010570Y017610D01*
X010500Y017540D01*
X010360Y017540D01*
X010290Y017610D01*
X010570Y017890D02*
X010500Y017960D01*
X010750Y017960D02*
X010750Y017540D01*
X010750Y017680D02*
X010961Y017680D01*
X011031Y017750D01*
X011031Y017890D01*
X010961Y017960D01*
X010750Y017960D01*
X011211Y017960D02*
X011211Y017540D01*
X011211Y017680D02*
X011491Y017960D01*
X011281Y017750D02*
X011491Y017540D01*
X011671Y017470D02*
X011951Y017470D01*
X012132Y017540D02*
X012412Y017540D01*
X012592Y017750D02*
X012872Y017750D01*
X012342Y016960D02*
X012412Y016890D01*
X012412Y016750D01*
X012342Y016680D01*
X012132Y016680D01*
X012272Y016680D02*
X012412Y016540D01*
X012592Y016750D02*
X012872Y016750D01*
X012342Y016960D02*
X012132Y016960D01*
X012132Y016540D01*
X011951Y016470D02*
X011671Y016470D01*
X011491Y016540D02*
X011281Y016750D01*
X011211Y016680D02*
X011491Y016960D01*
X011211Y016960D02*
X011211Y016540D01*
X011031Y016750D02*
X010961Y016680D01*
X010750Y016680D01*
X010750Y016540D02*
X010750Y016960D01*
X010961Y016960D01*
X011031Y016890D01*
X011031Y016750D01*
X010570Y016680D02*
X010570Y016610D01*
X010500Y016540D01*
X010360Y016540D01*
X010290Y016610D01*
X010360Y016750D02*
X010290Y016820D01*
X010290Y016890D01*
X010360Y016960D01*
X010500Y016960D01*
X010570Y016890D01*
X010500Y016750D02*
X010360Y016750D01*
X010500Y016750D02*
X010570Y016680D01*
X010440Y015960D02*
X010580Y015820D01*
X010720Y015960D01*
X010720Y015540D01*
X010440Y015540D02*
X010440Y015960D01*
X010900Y015960D02*
X011041Y015960D01*
X010970Y015960D02*
X010970Y015540D01*
X010900Y015540D02*
X011041Y015540D01*
X011207Y015610D02*
X011277Y015540D01*
X011418Y015540D01*
X011488Y015610D01*
X011668Y015470D02*
X011948Y015470D01*
X012128Y015540D02*
X012128Y015960D01*
X012338Y015960D01*
X012408Y015890D01*
X012408Y015750D01*
X012338Y015680D01*
X012128Y015680D01*
X012268Y015680D02*
X012408Y015540D01*
X012588Y015750D02*
X012869Y015750D01*
X012869Y014750D02*
X012588Y014750D01*
X012408Y014540D02*
X012128Y014540D01*
X012128Y014960D01*
X011948Y014470D02*
X011668Y014470D01*
X011488Y014610D02*
X011418Y014540D01*
X011277Y014540D01*
X011207Y014610D01*
X011207Y014890D01*
X011277Y014960D01*
X011418Y014960D01*
X011488Y014890D01*
X011041Y014960D02*
X010900Y014960D01*
X010970Y014960D02*
X010970Y014540D01*
X010900Y014540D02*
X011041Y014540D01*
X010720Y014540D02*
X010720Y014960D01*
X010580Y014820D01*
X010440Y014960D01*
X010440Y014540D01*
X010440Y013960D02*
X010580Y013820D01*
X010720Y013960D01*
X010720Y013540D01*
X010440Y013540D02*
X010440Y013960D01*
X010900Y013960D02*
X011041Y013960D01*
X010970Y013960D02*
X010970Y013540D01*
X010900Y013540D02*
X011041Y013540D01*
X011207Y013610D02*
X011277Y013540D01*
X011418Y013540D01*
X011488Y013610D01*
X011668Y013470D02*
X011948Y013470D01*
X012128Y013540D02*
X012128Y013960D01*
X012338Y013960D01*
X012408Y013890D01*
X012408Y013750D01*
X012338Y013680D01*
X012128Y013680D01*
X012268Y013680D02*
X012408Y013540D01*
X012588Y013750D02*
X012869Y013750D01*
X012729Y013890D02*
X012729Y013610D01*
X012729Y012890D02*
X012729Y012610D01*
X012869Y012750D02*
X012588Y012750D01*
X012408Y012540D02*
X012128Y012540D01*
X012128Y012960D01*
X011948Y012470D02*
X011668Y012470D01*
X011488Y012610D02*
X011418Y012540D01*
X011277Y012540D01*
X011207Y012610D01*
X011207Y012890D01*
X011277Y012960D01*
X011418Y012960D01*
X011488Y012890D01*
X011041Y012960D02*
X010900Y012960D01*
X010970Y012960D02*
X010970Y012540D01*
X010900Y012540D02*
X011041Y012540D01*
X010720Y012540D02*
X010720Y012960D01*
X010580Y012820D01*
X010440Y012960D01*
X010440Y012540D01*
X010440Y011960D02*
X010580Y011820D01*
X010720Y011960D01*
X010720Y011540D01*
X010440Y011540D02*
X010440Y011960D01*
X010900Y011470D02*
X011181Y011470D01*
X011361Y011540D02*
X011571Y011540D01*
X011641Y011610D01*
X011641Y011680D01*
X011571Y011750D01*
X011361Y011750D01*
X011571Y011750D02*
X011641Y011820D01*
X011641Y011890D01*
X011571Y011960D01*
X011361Y011960D01*
X011361Y011540D01*
X011821Y011540D02*
X011961Y011540D01*
X011891Y011540D02*
X011891Y011960D01*
X011821Y011960D02*
X011961Y011960D01*
X012128Y011820D02*
X012268Y011960D01*
X012408Y011820D01*
X012408Y011540D01*
X012408Y011750D02*
X012128Y011750D01*
X012128Y011820D02*
X012128Y011540D01*
X012111Y010960D02*
X012321Y010960D01*
X012391Y010890D01*
X012391Y010610D01*
X012321Y010540D01*
X012111Y010540D01*
X012111Y010960D01*
X011931Y010960D02*
X011650Y010960D01*
X011650Y010540D01*
X011931Y010540D01*
X011791Y010750D02*
X011650Y010750D01*
X011470Y010540D02*
X011190Y010540D01*
X011190Y010960D01*
X011190Y009960D02*
X011190Y009540D01*
X011470Y009540D01*
X011650Y009540D02*
X011931Y009540D01*
X012111Y009540D02*
X012321Y009540D01*
X012391Y009610D01*
X012391Y009890D01*
X012321Y009960D01*
X012111Y009960D01*
X012111Y009540D01*
X011791Y009750D02*
X011650Y009750D01*
X011650Y009960D02*
X011650Y009540D01*
X011650Y009960D02*
X011931Y009960D01*
X012571Y009820D02*
X012711Y009960D01*
X012711Y009540D01*
X012571Y009540D02*
X012851Y009540D01*
X012849Y008960D02*
X012709Y008960D01*
X012779Y008960D02*
X012779Y008540D01*
X012709Y008540D02*
X012849Y008540D01*
X012529Y008610D02*
X012459Y008540D01*
X012319Y008540D01*
X012249Y008610D01*
X012319Y008750D02*
X012249Y008820D01*
X012249Y008890D01*
X012319Y008960D01*
X012459Y008960D01*
X012529Y008890D01*
X012459Y008750D02*
X012319Y008750D01*
X012459Y008750D02*
X012529Y008680D01*
X012529Y008610D01*
X012069Y008610D02*
X012069Y008890D01*
X011999Y008960D01*
X011859Y008960D01*
X011788Y008890D01*
X011788Y008610D01*
X011859Y008540D01*
X011999Y008540D01*
X012069Y008610D01*
X011608Y008540D02*
X011608Y008960D01*
X011468Y008820D01*
X011328Y008960D01*
X011328Y008540D01*
X011148Y008470D02*
X010868Y008470D01*
X010701Y008540D02*
X010561Y008540D01*
X010631Y008540D02*
X010631Y008960D01*
X010561Y008960D02*
X010701Y008960D01*
X010381Y008890D02*
X010381Y008750D01*
X010311Y008680D01*
X010100Y008680D01*
X010100Y008540D02*
X010100Y008960D01*
X010311Y008960D01*
X010381Y008890D01*
X009920Y008890D02*
X009850Y008960D01*
X009710Y008960D01*
X009640Y008890D01*
X009640Y008820D01*
X009710Y008750D01*
X009850Y008750D01*
X009920Y008680D01*
X009920Y008610D01*
X009850Y008540D01*
X009710Y008540D01*
X009640Y008610D01*
X010060Y007960D02*
X009990Y007890D01*
X009990Y007820D01*
X010060Y007750D01*
X010200Y007750D01*
X010270Y007680D01*
X010270Y007610D01*
X010200Y007540D01*
X010060Y007540D01*
X009990Y007610D01*
X010060Y007960D02*
X010200Y007960D01*
X010270Y007890D01*
X010450Y007960D02*
X010450Y007540D01*
X010450Y007680D02*
X010661Y007680D01*
X010731Y007750D01*
X010731Y007890D01*
X010661Y007960D01*
X010450Y007960D01*
X010911Y007960D02*
X011051Y007960D01*
X010981Y007960D02*
X010981Y007540D01*
X010911Y007540D02*
X011051Y007540D01*
X011218Y007470D02*
X011498Y007470D01*
X011678Y007610D02*
X011678Y007890D01*
X011748Y007960D01*
X011888Y007960D01*
X011958Y007890D01*
X012138Y007960D02*
X012138Y007540D01*
X012419Y007540D01*
X012599Y007540D02*
X012599Y007960D01*
X012669Y007750D02*
X012879Y007540D01*
X012599Y007680D02*
X012879Y007960D01*
X012766Y006960D02*
X012626Y006960D01*
X012556Y006890D01*
X012556Y006610D01*
X012626Y006540D01*
X012766Y006540D01*
X012836Y006610D01*
X012836Y006890D01*
X012766Y006960D01*
X012376Y006890D02*
X012306Y006960D01*
X012165Y006960D01*
X012095Y006890D01*
X012095Y006820D01*
X012165Y006750D01*
X012306Y006750D01*
X012376Y006680D01*
X012376Y006610D01*
X012306Y006540D01*
X012165Y006540D01*
X012095Y006610D01*
X011929Y006540D02*
X011788Y006540D01*
X011859Y006540D02*
X011859Y006960D01*
X011929Y006960D02*
X011788Y006960D01*
X011608Y006960D02*
X011608Y006540D01*
X011328Y006540D02*
X011328Y006960D01*
X011468Y006820D01*
X011608Y006960D01*
X011748Y007540D02*
X011678Y007610D01*
X011748Y007540D02*
X011888Y007540D01*
X011958Y007610D01*
X011148Y006470D02*
X010868Y006470D01*
X010701Y006540D02*
X010561Y006540D01*
X010631Y006540D02*
X010631Y006960D01*
X010561Y006960D02*
X010701Y006960D01*
X010381Y006890D02*
X010381Y006750D01*
X010311Y006680D01*
X010100Y006680D01*
X010100Y006540D02*
X010100Y006960D01*
X010311Y006960D01*
X010381Y006890D01*
X009920Y006890D02*
X009850Y006960D01*
X009710Y006960D01*
X009640Y006890D01*
X009640Y006820D01*
X009710Y006750D01*
X009850Y006750D01*
X009920Y006680D01*
X009920Y006610D01*
X009850Y006540D01*
X009710Y006540D01*
X009640Y006610D01*
X008850Y006680D02*
X008430Y006680D01*
X008430Y006890D01*
X008500Y006960D01*
X008640Y006960D01*
X008710Y006890D01*
X008710Y006680D01*
X008710Y006820D02*
X008850Y006960D01*
X008850Y007140D02*
X008570Y007421D01*
X008500Y007421D01*
X008430Y007351D01*
X008430Y007210D01*
X008500Y007140D01*
X008850Y007140D02*
X008850Y007421D01*
X008080Y007381D02*
X008080Y007101D01*
X008080Y007241D02*
X007660Y007241D01*
X007800Y007101D01*
X007730Y006921D02*
X007660Y006851D01*
X007660Y006641D01*
X008080Y006641D01*
X008080Y006851D01*
X008010Y006921D01*
X007730Y006921D01*
X007660Y006461D02*
X007660Y006180D01*
X008080Y006180D01*
X008080Y006461D01*
X007870Y006321D02*
X007870Y006180D01*
X008080Y006000D02*
X008080Y005720D01*
X007660Y005720D01*
X006560Y005700D02*
X006560Y005980D01*
X006560Y006160D02*
X006560Y006441D01*
X006560Y006621D02*
X006560Y006831D01*
X006490Y006901D01*
X006210Y006901D01*
X006140Y006831D01*
X006140Y006621D01*
X006560Y006621D01*
X006350Y006301D02*
X006350Y006160D01*
X006140Y006160D02*
X006560Y006160D01*
X006140Y006160D02*
X006140Y006441D01*
X005880Y006650D02*
X005460Y006650D01*
X005460Y006860D01*
X005530Y006930D01*
X005670Y006930D01*
X005740Y006860D01*
X005740Y006650D01*
X005740Y006790D02*
X005880Y006930D01*
X005880Y007110D02*
X005880Y007391D01*
X005880Y007251D02*
X005460Y007251D01*
X005600Y007110D01*
X006140Y007151D02*
X006140Y007291D01*
X006210Y007361D01*
X006490Y007081D01*
X006560Y007151D01*
X006560Y007291D01*
X006490Y007361D01*
X006210Y007361D01*
X006140Y007151D02*
X006210Y007081D01*
X006490Y007081D01*
X006492Y008095D02*
X006400Y008217D01*
X006219Y008217D01*
X006314Y008095D02*
X006390Y008211D01*
X006400Y008217D02*
X006581Y008217D01*
X007719Y008217D02*
X007900Y008217D01*
X007992Y008095D01*
X008081Y008217D02*
X007900Y008217D01*
X007890Y008211D02*
X007814Y008095D01*
X006560Y005700D02*
X006140Y005700D01*
X004022Y006610D02*
X003952Y006540D01*
X003812Y006540D01*
X003742Y006610D01*
X003742Y006890D01*
X003812Y006960D01*
X003952Y006960D01*
X004022Y006890D01*
X003562Y006470D02*
X003282Y006470D01*
X002961Y006540D02*
X002961Y006960D01*
X002821Y006960D02*
X003101Y006960D01*
X002641Y006890D02*
X002641Y006750D01*
X002571Y006680D01*
X002361Y006680D01*
X002501Y006680D02*
X002641Y006540D01*
X002361Y006540D02*
X002361Y006960D01*
X002571Y006960D01*
X002641Y006890D01*
X002181Y006820D02*
X002181Y006540D01*
X002181Y006750D02*
X001900Y006750D01*
X001900Y006820D02*
X001900Y006540D01*
X001720Y006610D02*
X001720Y006960D01*
X001900Y006820D02*
X002041Y006960D01*
X002181Y006820D01*
X001720Y006610D02*
X001650Y006540D01*
X001510Y006540D01*
X001440Y006610D01*
X001440Y006960D01*
X001510Y007540D02*
X001650Y007540D01*
X001720Y007610D01*
X001720Y007960D01*
X001900Y007820D02*
X002041Y007960D01*
X002181Y007820D01*
X002181Y007540D01*
X002361Y007540D02*
X002361Y007960D01*
X002571Y007960D01*
X002641Y007890D01*
X002641Y007750D01*
X002571Y007680D01*
X002361Y007680D01*
X002501Y007680D02*
X002641Y007540D01*
X002181Y007750D02*
X001900Y007750D01*
X001900Y007820D02*
X001900Y007540D01*
X001510Y007540D02*
X001440Y007610D01*
X001440Y007960D01*
X001510Y008540D02*
X001650Y008540D01*
X001720Y008610D01*
X001720Y008960D01*
X001900Y008890D02*
X001900Y008820D01*
X001970Y008750D01*
X002111Y008750D01*
X002181Y008680D01*
X002181Y008610D01*
X002111Y008540D01*
X001970Y008540D01*
X001900Y008610D01*
X001900Y008890D02*
X001970Y008960D01*
X002111Y008960D01*
X002181Y008890D01*
X002361Y008960D02*
X002571Y008960D01*
X002641Y008890D01*
X002641Y008820D01*
X002571Y008750D01*
X002361Y008750D01*
X002571Y008750D02*
X002641Y008680D01*
X002641Y008610D01*
X002571Y008540D01*
X002361Y008540D01*
X002361Y008960D01*
X002361Y009540D02*
X002571Y009540D01*
X002641Y009610D01*
X002641Y009680D01*
X002571Y009750D01*
X002361Y009750D01*
X002181Y009680D02*
X002181Y009610D01*
X002111Y009540D01*
X001970Y009540D01*
X001900Y009610D01*
X001970Y009750D02*
X002111Y009750D01*
X002181Y009680D01*
X002181Y009890D02*
X002111Y009960D01*
X001970Y009960D01*
X001900Y009890D01*
X001900Y009820D01*
X001970Y009750D01*
X001720Y009610D02*
X001720Y009960D01*
X001440Y009960D02*
X001440Y009610D01*
X001510Y009540D01*
X001650Y009540D01*
X001720Y009610D01*
X001440Y008960D02*
X001440Y008610D01*
X001510Y008540D01*
X002361Y009540D02*
X002361Y009960D01*
X002571Y009960D01*
X002641Y009890D01*
X002641Y009820D01*
X002571Y009750D01*
X002571Y005960D02*
X002361Y005960D01*
X002361Y005540D01*
X002361Y005680D02*
X002571Y005680D01*
X002641Y005750D01*
X002641Y005890D01*
X002571Y005960D01*
X002821Y005960D02*
X003101Y005960D01*
X002961Y005960D02*
X002961Y005540D01*
X002641Y005540D02*
X002501Y005680D01*
X002181Y005750D02*
X001900Y005750D01*
X001900Y005820D02*
X002041Y005960D01*
X002181Y005820D01*
X002181Y005540D01*
X001900Y005540D02*
X001900Y005820D01*
X001720Y005960D02*
X001720Y005610D01*
X001650Y005540D01*
X001510Y005540D01*
X001440Y005610D01*
X001440Y005960D01*
X001440Y004960D02*
X001440Y004610D01*
X001510Y004540D01*
X001900Y004540D02*
X001900Y004820D01*
X001900Y004750D02*
X002181Y004750D01*
X003282Y005470D02*
X003562Y005470D01*
X002501Y002960D02*
X002361Y002960D01*
X002431Y002960D02*
X002431Y002540D01*
X002361Y002540D02*
X002501Y002540D01*
X002181Y002750D02*
X002181Y002890D01*
X002111Y002960D01*
X001900Y002960D01*
X001900Y002540D01*
X001900Y002680D02*
X002111Y002680D01*
X002181Y002750D01*
X001720Y002750D02*
X001720Y002610D01*
X001650Y002540D01*
X001510Y002540D01*
X001440Y002610D01*
X001440Y002890D01*
X001510Y002960D01*
X001650Y002960D01*
X001720Y002890D01*
X001720Y002750D02*
X001580Y002750D01*
X001650Y001960D02*
X001440Y001960D01*
X001440Y001540D01*
X001440Y001680D02*
X001650Y001680D01*
X001720Y001750D01*
X001720Y001890D01*
X001650Y001960D01*
X001900Y001960D02*
X001900Y001540D01*
X002041Y001680D01*
X002181Y001540D01*
X002181Y001960D01*
X008440Y010690D02*
X008580Y010690D01*
X008510Y010690D02*
X008510Y011110D01*
X008440Y011110D02*
X008580Y011110D01*
X008747Y011040D02*
X008747Y010760D01*
X008817Y010690D01*
X008957Y010690D01*
X009027Y010760D01*
X009207Y010690D02*
X009488Y010690D01*
X009347Y010690D02*
X009347Y011110D01*
X009207Y010970D01*
X009027Y011040D02*
X008957Y011110D01*
X008817Y011110D01*
X008747Y011040D01*
X011207Y013610D02*
X011207Y013890D01*
X011277Y013960D01*
X011418Y013960D01*
X011488Y013890D01*
X011207Y015610D02*
X011207Y015890D01*
X011277Y015960D01*
X011418Y015960D01*
X011488Y015890D01*
X012132Y017540D02*
X012132Y017960D01*
X012132Y019540D02*
X012132Y019960D01*
X012659Y011960D02*
X012588Y011890D01*
X012588Y011820D01*
X012659Y011750D01*
X012799Y011750D01*
X012869Y011680D01*
X012869Y011610D01*
X012799Y011540D01*
X012659Y011540D01*
X012588Y011610D01*
X012659Y011960D02*
X012799Y011960D01*
X012869Y011890D01*
X012781Y010960D02*
X012641Y010960D01*
X012571Y010890D01*
X012571Y010610D01*
X012851Y010890D01*
X012851Y010610D01*
X012781Y010540D01*
X012641Y010540D01*
X012571Y010610D01*
X012851Y010890D02*
X012781Y010960D01*
X012799Y005960D02*
X012659Y005960D01*
X012588Y005890D01*
X012588Y005820D01*
X012659Y005750D01*
X012799Y005750D01*
X012869Y005680D01*
X012869Y005610D01*
X012799Y005540D01*
X012659Y005540D01*
X012588Y005610D01*
X012869Y005890D02*
X012799Y005960D01*
X012408Y005890D02*
X012338Y005960D01*
X012198Y005960D01*
X012128Y005890D01*
X012128Y005820D01*
X012198Y005750D01*
X012338Y005750D01*
X012408Y005680D01*
X012408Y005610D01*
X012338Y005540D01*
X012198Y005540D01*
X012128Y005610D01*
X011948Y005470D02*
X011668Y005470D01*
X011501Y005540D02*
X011361Y005540D01*
X011431Y005540D02*
X011431Y005960D01*
X011361Y005960D02*
X011501Y005960D01*
X011181Y005890D02*
X011181Y005750D01*
X011111Y005680D01*
X010900Y005680D01*
X010900Y005540D02*
X010900Y005960D01*
X011111Y005960D01*
X011181Y005890D01*
X010720Y005890D02*
X010650Y005960D01*
X010510Y005960D01*
X010440Y005890D01*
X010440Y005820D01*
X010510Y005750D01*
X010650Y005750D01*
X010720Y005680D01*
X010720Y005610D01*
X010650Y005540D01*
X010510Y005540D01*
X010440Y005610D01*
X010461Y004960D02*
X010320Y004960D01*
X010250Y004890D01*
X010250Y004610D01*
X010320Y004540D01*
X010461Y004540D01*
X010531Y004610D01*
X010711Y004540D02*
X010711Y004960D01*
X010851Y004820D01*
X010991Y004960D01*
X010991Y004540D01*
X011171Y004470D02*
X011451Y004470D01*
X011632Y004610D02*
X011702Y004540D01*
X011842Y004540D01*
X011912Y004610D01*
X012092Y004540D02*
X012372Y004540D01*
X012552Y004540D02*
X012552Y004960D01*
X012622Y004750D02*
X012833Y004540D01*
X012552Y004680D02*
X012833Y004960D01*
X012773Y003960D02*
X012633Y003960D01*
X012563Y003890D01*
X012563Y003610D01*
X012633Y003540D01*
X012773Y003540D01*
X012843Y003610D01*
X012843Y003890D02*
X012773Y003960D01*
X012383Y003960D02*
X012383Y003540D01*
X012102Y003960D01*
X012102Y003540D01*
X011782Y003750D02*
X011922Y003890D01*
X011922Y003960D01*
X011782Y003750D02*
X011782Y003540D01*
X011782Y003750D02*
X011642Y003890D01*
X011642Y003960D01*
X011462Y003890D02*
X011392Y003960D01*
X011252Y003960D01*
X011182Y003890D01*
X011182Y003820D01*
X011252Y003750D01*
X011392Y003750D01*
X011462Y003680D01*
X011462Y003610D01*
X011392Y003540D01*
X011252Y003540D01*
X011182Y003610D01*
X011001Y003470D02*
X010721Y003470D01*
X010541Y003540D02*
X010541Y003960D01*
X010401Y003820D01*
X010261Y003960D01*
X010261Y003540D01*
X010081Y003610D02*
X010011Y003540D01*
X009870Y003540D01*
X009800Y003610D01*
X009800Y003890D01*
X009870Y003960D01*
X010011Y003960D01*
X010081Y003890D01*
X009620Y003890D02*
X009620Y003750D01*
X009550Y003680D01*
X009340Y003680D01*
X009340Y003540D02*
X009340Y003960D01*
X009550Y003960D01*
X009620Y003890D01*
X009790Y004540D02*
X009790Y004960D01*
X010000Y004960D01*
X010070Y004890D01*
X010070Y004750D01*
X010000Y004680D01*
X009790Y004680D01*
X010461Y004960D02*
X010531Y004890D01*
X011632Y004890D02*
X011632Y004610D01*
X011632Y004890D02*
X011702Y004960D01*
X011842Y004960D01*
X011912Y004890D01*
X012092Y004960D02*
X012092Y004540D01*
X012142Y002960D02*
X012142Y002610D01*
X012212Y002540D01*
X012352Y002540D01*
X012422Y002610D01*
X012422Y002960D01*
X012602Y002960D02*
X012883Y002960D01*
X012742Y002960D02*
X012742Y002540D01*
X012869Y001960D02*
X012869Y001540D01*
X012588Y001960D01*
X012588Y001540D01*
X012422Y001540D02*
X012282Y001540D01*
X012352Y001540D02*
X012352Y001960D01*
X012282Y001960D02*
X012422Y001960D01*
X012101Y001470D02*
X011821Y001470D01*
X011641Y001540D02*
X011641Y001960D01*
X011501Y001820D01*
X011361Y001960D01*
X011361Y001540D01*
X011181Y001610D02*
X011111Y001540D01*
X010970Y001540D01*
X010900Y001610D01*
X010900Y001890D01*
X010970Y001960D01*
X011111Y001960D01*
X011181Y001890D01*
X011221Y002470D02*
X011501Y002470D01*
X011682Y002610D02*
X011752Y002540D01*
X011892Y002540D01*
X011962Y002610D01*
X011962Y002890D01*
X011892Y002960D01*
X011752Y002960D01*
X011682Y002890D01*
X011682Y002610D01*
X011041Y002540D02*
X011041Y002960D01*
X010901Y002820D01*
X010761Y002960D01*
X010761Y002540D01*
X010581Y002610D02*
X010511Y002540D01*
X010370Y002540D01*
X010300Y002610D01*
X010300Y002890D01*
X010370Y002960D01*
X010511Y002960D01*
X010581Y002890D01*
X010120Y002890D02*
X010120Y002750D01*
X010050Y002680D01*
X009840Y002680D01*
X009840Y002540D02*
X009840Y002960D01*
X010050Y002960D01*
X010120Y002890D01*
X010440Y001960D02*
X010650Y001960D01*
X010720Y001890D01*
X010720Y001750D01*
X010650Y001680D01*
X010440Y001680D01*
X010440Y001540D02*
X010440Y001960D01*
X011640Y000890D02*
X011640Y000610D01*
X011710Y000540D01*
X011850Y000540D01*
X011920Y000610D01*
X011920Y000750D01*
X011780Y000750D01*
X011640Y000890D02*
X011710Y000960D01*
X011850Y000960D01*
X011920Y000890D01*
X012100Y000960D02*
X012381Y000540D01*
X012381Y000960D01*
X012561Y000960D02*
X012771Y000960D01*
X012841Y000890D01*
X012841Y000610D01*
X012771Y000540D01*
X012561Y000540D01*
X012561Y000960D01*
X012100Y000960D02*
X012100Y000540D01*
X003799Y013540D02*
X003659Y013540D01*
X003588Y013610D01*
X003729Y013750D02*
X003799Y013750D01*
X003869Y013680D01*
X003869Y013610D01*
X003799Y013540D01*
X003799Y013750D02*
X003869Y013820D01*
X003869Y013890D01*
X003799Y013960D01*
X003659Y013960D01*
X003588Y013890D01*
X003588Y014540D02*
X003869Y014820D01*
X003869Y014890D01*
X003799Y014960D01*
X003659Y014960D01*
X003588Y014890D01*
X003588Y014540D02*
X003869Y014540D01*
D13*
X005650Y008150D03*
X008650Y008150D03*
D14*
X006511Y002955D03*
D15*
X007745Y002955D03*
D16*
X006511Y002956D03*
D17*
X007744Y002956D03*
X007744Y003460D03*
D18*
X006511Y002957D03*
D19*
X007745Y002957D03*
X007745Y003459D03*
D20*
X006511Y002958D03*
D21*
X007745Y002958D03*
X007745Y003458D03*
D22*
X007744Y003457D03*
X007744Y002959D03*
X006511Y002959D03*
D23*
X006511Y002960D03*
D24*
X007744Y002960D03*
X007744Y003456D03*
D25*
X007744Y003455D03*
X007744Y002961D03*
X006511Y002961D03*
D26*
X006511Y002962D03*
D27*
X007744Y002962D03*
X007744Y003454D03*
D28*
X007745Y003453D03*
X007745Y002963D03*
X006511Y002963D03*
D29*
X006511Y002964D03*
X007744Y002964D03*
X007744Y003452D03*
D30*
X007745Y003451D03*
X006511Y002965D03*
D31*
X007744Y002965D03*
D32*
X006511Y002966D03*
X006511Y003443D03*
D33*
X007745Y003450D03*
X007745Y002966D03*
D34*
X007744Y002967D03*
X006511Y002967D03*
D35*
X006511Y002968D03*
X007744Y002968D03*
X007744Y003448D03*
D36*
X007744Y003447D03*
X007744Y002969D03*
X006511Y002969D03*
D37*
X006511Y002970D03*
D38*
X007744Y002970D03*
X007744Y003446D03*
D39*
X007744Y003445D03*
X007744Y002971D03*
X006511Y002971D03*
D40*
X006511Y002972D03*
X007744Y002972D03*
X007744Y003444D03*
D41*
X007744Y002973D03*
X006511Y002973D03*
X006511Y003436D03*
D42*
X006511Y003435D03*
X006511Y002974D03*
D43*
X007745Y002974D03*
X007745Y003442D03*
D44*
X007745Y003441D03*
X007745Y002975D03*
X006511Y002975D03*
D45*
X006511Y002976D03*
X006511Y003433D03*
D46*
X007744Y003440D03*
X007744Y002976D03*
D47*
X007744Y002977D03*
X007744Y003439D03*
X006511Y003432D03*
X006511Y002977D03*
D48*
X006511Y002978D03*
X006511Y002979D03*
X006511Y003431D03*
X007744Y003437D03*
X007744Y002979D03*
D49*
X007745Y002978D03*
X007745Y003438D03*
D50*
X007744Y003435D03*
X007744Y002981D03*
X007744Y002980D03*
X006511Y002980D03*
X006511Y003429D03*
D51*
X006511Y003428D03*
X006511Y002981D03*
D52*
X006511Y002982D03*
X006511Y003427D03*
X007744Y003434D03*
X007744Y002982D03*
D53*
X007745Y002983D03*
X007745Y003433D03*
X006511Y003426D03*
X006511Y002983D03*
D54*
X006511Y002984D03*
X006511Y003425D03*
D55*
X007744Y003431D03*
X007744Y003432D03*
X007744Y002985D03*
X007744Y002984D03*
D56*
X006511Y002985D03*
X006511Y003424D03*
D57*
X006511Y003423D03*
X006511Y002987D03*
X006511Y002986D03*
X007744Y002987D03*
X007744Y002986D03*
X007744Y003429D03*
X007744Y003430D03*
D58*
X007744Y003427D03*
X007744Y003426D03*
X007744Y002990D03*
X007744Y002989D03*
X006511Y002990D03*
X006511Y002989D03*
X006511Y002988D03*
X006511Y003420D03*
X006511Y003421D03*
D59*
X006511Y003422D03*
X007745Y003428D03*
X007745Y002988D03*
D60*
X007745Y002991D03*
X007745Y003425D03*
X006511Y003419D03*
X006511Y002991D03*
D61*
X006511Y002992D03*
X006511Y002993D03*
X006511Y003416D03*
X006511Y003417D03*
X006511Y003418D03*
X007744Y003422D03*
X007744Y003423D03*
X007744Y003424D03*
X007744Y002994D03*
X007744Y002993D03*
X007744Y002992D03*
D62*
X006511Y002994D03*
X006511Y002995D03*
X006511Y003415D03*
D63*
X007745Y003421D03*
X007745Y002995D03*
D64*
X007744Y002996D03*
X007744Y002997D03*
X007744Y002998D03*
X007744Y002999D03*
X007744Y003000D03*
X007744Y003416D03*
X007744Y003417D03*
X007744Y003418D03*
X007744Y003419D03*
X007744Y003420D03*
X006511Y003414D03*
X006511Y003413D03*
X006511Y003412D03*
X006511Y003411D03*
X006511Y003410D03*
X006511Y002999D03*
X006511Y002998D03*
X006511Y002997D03*
X006511Y002996D03*
D65*
X006511Y003000D03*
X006511Y003001D03*
X006511Y003002D03*
X006511Y003003D03*
X006511Y003004D03*
X006511Y003005D03*
X006511Y003006D03*
X006511Y003007D03*
X006511Y003008D03*
X006511Y003009D03*
X006511Y003010D03*
X006511Y003011D03*
X006511Y003012D03*
X006511Y003013D03*
X006511Y003014D03*
X006511Y003015D03*
X006511Y003016D03*
X006511Y003017D03*
X006511Y003018D03*
X006511Y003019D03*
X006511Y003020D03*
X006511Y003021D03*
X006511Y003022D03*
X006511Y003023D03*
X006511Y003024D03*
X006511Y003025D03*
X006511Y003026D03*
X006511Y003027D03*
X006511Y003028D03*
X006511Y003029D03*
X006511Y003030D03*
X006511Y003031D03*
X006511Y003032D03*
X006511Y003033D03*
X006511Y003034D03*
X006511Y003035D03*
X006511Y003036D03*
X006511Y003037D03*
X006511Y003038D03*
X006511Y003039D03*
X006511Y003040D03*
X006511Y003041D03*
X006511Y003042D03*
X006511Y003043D03*
X006511Y003044D03*
X006511Y003045D03*
X006511Y003046D03*
X006511Y003047D03*
X006511Y003048D03*
X006511Y003049D03*
X006511Y003050D03*
X006511Y003051D03*
X006511Y003052D03*
X006511Y003053D03*
X006511Y003054D03*
X006511Y003055D03*
X006511Y003056D03*
X006511Y003057D03*
X006511Y003058D03*
X006511Y003059D03*
X006511Y003060D03*
X006511Y003061D03*
X006511Y003062D03*
X006511Y003063D03*
X006511Y003064D03*
X006511Y003065D03*
X006511Y003066D03*
X006511Y003067D03*
X006511Y003068D03*
X006511Y003069D03*
X006511Y003070D03*
X006511Y003071D03*
X006511Y003072D03*
X006511Y003073D03*
X006511Y003074D03*
X006511Y003075D03*
X006511Y003076D03*
X006511Y003077D03*
X006511Y003078D03*
X006511Y003079D03*
X006511Y003080D03*
X006511Y003081D03*
X006511Y003082D03*
X006511Y003083D03*
X006511Y003084D03*
X006511Y003085D03*
X006511Y003086D03*
X006511Y003087D03*
X006511Y003088D03*
X006511Y003089D03*
X006511Y003090D03*
X006511Y003091D03*
X006511Y003092D03*
X006511Y003093D03*
X006511Y003094D03*
X006511Y003095D03*
X006511Y003096D03*
X006511Y003097D03*
X006511Y003098D03*
X006511Y003099D03*
X006511Y003100D03*
X006511Y003101D03*
X006511Y003102D03*
X006511Y003103D03*
X006511Y003104D03*
X006511Y003105D03*
X006511Y003106D03*
X006511Y003107D03*
X006511Y003108D03*
X006511Y003109D03*
X006511Y003110D03*
X006511Y003111D03*
X006511Y003112D03*
X006511Y003113D03*
X006511Y003114D03*
X006511Y003115D03*
X006511Y003116D03*
X006511Y003117D03*
X006511Y003118D03*
X006511Y003119D03*
X006511Y003120D03*
X006511Y003121D03*
X006511Y003122D03*
X006511Y003123D03*
X006511Y003124D03*
X006511Y003125D03*
X006511Y003126D03*
X006511Y003127D03*
X006511Y003128D03*
X006511Y003129D03*
X006511Y003130D03*
X006511Y003131D03*
X006511Y003132D03*
X006511Y003133D03*
X006511Y003134D03*
X006511Y003135D03*
X006511Y003136D03*
X006511Y003137D03*
X006511Y003138D03*
X006511Y003139D03*
X006511Y003140D03*
X006511Y003141D03*
X006511Y003142D03*
X006511Y003143D03*
X006511Y003144D03*
X006511Y003145D03*
X006511Y003146D03*
X006511Y003147D03*
X006511Y003148D03*
X006511Y003149D03*
X006511Y003150D03*
X006511Y003151D03*
X006511Y003152D03*
X006511Y003153D03*
X006511Y003154D03*
X006511Y003155D03*
X006511Y003156D03*
X006511Y003157D03*
X006511Y003158D03*
X006511Y003159D03*
X006511Y003160D03*
X006511Y003161D03*
X006511Y003162D03*
X006511Y003163D03*
X006511Y003164D03*
X006511Y003165D03*
X006511Y003166D03*
X006511Y003167D03*
X006511Y003168D03*
X006511Y003169D03*
X006511Y003170D03*
X006511Y003171D03*
X006511Y003172D03*
X006511Y003173D03*
X006511Y003174D03*
X006511Y003175D03*
X006511Y003176D03*
X006511Y003177D03*
X006511Y003178D03*
X006511Y003179D03*
X006511Y003180D03*
X006511Y003181D03*
X006511Y003182D03*
X006511Y003183D03*
X006511Y003184D03*
X006511Y003185D03*
X006511Y003186D03*
X006511Y003187D03*
X006511Y003188D03*
X006511Y003189D03*
X006511Y003190D03*
X006511Y003191D03*
X006511Y003192D03*
X006511Y003193D03*
X006511Y003194D03*
X006511Y003195D03*
X006511Y003196D03*
X006511Y003197D03*
X006511Y003198D03*
X006511Y003199D03*
X006511Y003200D03*
X006511Y003201D03*
X006511Y003202D03*
X006511Y003203D03*
X006511Y003204D03*
X006511Y003205D03*
X006511Y003206D03*
X006511Y003207D03*
X006511Y003208D03*
X006511Y003209D03*
X006511Y003210D03*
X006511Y003211D03*
X006511Y003212D03*
X006511Y003213D03*
X006511Y003214D03*
X006511Y003215D03*
X006511Y003216D03*
X006511Y003217D03*
X006511Y003218D03*
X006511Y003219D03*
X006511Y003220D03*
X006511Y003221D03*
X006511Y003222D03*
X006511Y003223D03*
X006511Y003224D03*
X006511Y003225D03*
X006511Y003226D03*
X006511Y003227D03*
X006511Y003228D03*
X006511Y003229D03*
X006511Y003230D03*
X006511Y003231D03*
X006511Y003232D03*
X006511Y003233D03*
X006511Y003234D03*
X006511Y003235D03*
X006511Y003236D03*
X006511Y003237D03*
X006511Y003238D03*
X006511Y003239D03*
X006511Y003240D03*
X006511Y003241D03*
X006511Y003242D03*
X006511Y003243D03*
X006511Y003244D03*
X006511Y003245D03*
X006511Y003246D03*
X006511Y003247D03*
X006511Y003248D03*
X006511Y003249D03*
X006511Y003250D03*
X006511Y003251D03*
X006511Y003252D03*
X006511Y003253D03*
X006511Y003254D03*
X006511Y003255D03*
X006511Y003256D03*
X006511Y003257D03*
X006511Y003258D03*
X006511Y003259D03*
X006511Y003260D03*
X006511Y003261D03*
X006511Y003262D03*
X006511Y003263D03*
X006511Y003264D03*
X006511Y003265D03*
X006511Y003266D03*
X006511Y003267D03*
X006511Y003268D03*
X006511Y003269D03*
X006511Y003270D03*
X006511Y003271D03*
X006511Y003272D03*
X006511Y003273D03*
X006511Y003274D03*
X006511Y003275D03*
X006511Y003276D03*
X006511Y003277D03*
X006511Y003278D03*
X006511Y003279D03*
X006511Y003280D03*
X006511Y003281D03*
X006511Y003282D03*
X006511Y003283D03*
X006511Y003284D03*
X006511Y003285D03*
X006511Y003286D03*
X006511Y003287D03*
X006511Y003288D03*
X006511Y003289D03*
X006511Y003290D03*
X006511Y003291D03*
X006511Y003292D03*
X006511Y003293D03*
X006511Y003294D03*
X006511Y003295D03*
X006511Y003296D03*
X006511Y003297D03*
X006511Y003298D03*
X006511Y003299D03*
X006511Y003300D03*
X006511Y003301D03*
X006511Y003302D03*
X006511Y003303D03*
X006511Y003304D03*
X006511Y003305D03*
X006511Y003306D03*
X006511Y003307D03*
X006511Y003308D03*
X006511Y003309D03*
X006511Y003310D03*
X006511Y003311D03*
X006511Y003312D03*
X006511Y003313D03*
X006511Y003314D03*
X006511Y003315D03*
X006511Y003316D03*
X006511Y003317D03*
X006511Y003318D03*
X006511Y003319D03*
X006511Y003320D03*
X006511Y003321D03*
X006511Y003322D03*
X006511Y003323D03*
X006511Y003324D03*
X006511Y003325D03*
X006511Y003326D03*
X006511Y003327D03*
X006511Y003328D03*
X006511Y003329D03*
X006511Y003330D03*
X006511Y003331D03*
X006511Y003332D03*
X006511Y003333D03*
X006511Y003334D03*
X006511Y003335D03*
X006511Y003336D03*
X006511Y003337D03*
X006511Y003338D03*
X006511Y003339D03*
X006511Y003340D03*
X006511Y003341D03*
X006511Y003342D03*
X006511Y003343D03*
X006511Y003344D03*
X006511Y003345D03*
X006511Y003346D03*
X006511Y003347D03*
X006511Y003348D03*
X006511Y003349D03*
X006511Y003350D03*
X006511Y003351D03*
X006511Y003352D03*
X006511Y003353D03*
X006511Y003354D03*
X006511Y003355D03*
X006511Y003356D03*
X006511Y003357D03*
X006511Y003358D03*
X006511Y003359D03*
X006511Y003360D03*
X006511Y003361D03*
X006511Y003362D03*
X006511Y003363D03*
X006511Y003364D03*
X006511Y003365D03*
X006511Y003366D03*
X006511Y003367D03*
X006511Y003368D03*
X006511Y003369D03*
X006511Y003370D03*
X006511Y003371D03*
X006511Y003372D03*
X006511Y003373D03*
X006511Y003374D03*
X006511Y003375D03*
X006511Y003376D03*
X006511Y003377D03*
X006511Y003378D03*
X006511Y003379D03*
X006511Y003380D03*
X006511Y003381D03*
X006511Y003382D03*
X006511Y003383D03*
X006511Y003384D03*
X006511Y003385D03*
X006511Y003386D03*
X006511Y003387D03*
X006511Y003388D03*
X006511Y003389D03*
X006511Y003390D03*
X006511Y003391D03*
X006511Y003392D03*
X006511Y003393D03*
X006511Y003394D03*
X006511Y003395D03*
X006511Y003396D03*
X006511Y003397D03*
X006511Y003398D03*
X006511Y003399D03*
X006511Y003400D03*
X006511Y003401D03*
X006511Y003402D03*
X006511Y003403D03*
X006511Y003404D03*
X006511Y003405D03*
X006511Y003406D03*
X006511Y003407D03*
X006511Y003408D03*
X006511Y003409D03*
X007745Y003410D03*
X007745Y003411D03*
X007745Y003412D03*
X007745Y003413D03*
X007745Y003414D03*
X007745Y003415D03*
X007745Y003409D03*
X007745Y003408D03*
X007745Y003407D03*
X007745Y003406D03*
X007745Y003405D03*
X007745Y003404D03*
X007745Y003403D03*
X007745Y003402D03*
X007745Y003401D03*
X007745Y003400D03*
X007745Y003399D03*
X007745Y003398D03*
X007745Y003397D03*
X007745Y003396D03*
X007745Y003395D03*
X007745Y003394D03*
X007745Y003393D03*
X007745Y003392D03*
X007745Y003391D03*
X007745Y003390D03*
X007745Y003389D03*
X007745Y003388D03*
X007745Y003387D03*
X007745Y003386D03*
X007745Y003385D03*
X007745Y003384D03*
X007745Y003383D03*
X007745Y003382D03*
X007745Y003381D03*
X007745Y003380D03*
X007745Y003379D03*
X007745Y003378D03*
X007745Y003377D03*
X007745Y003376D03*
X007745Y003375D03*
X007745Y003374D03*
X007745Y003373D03*
X007745Y003372D03*
X007745Y003371D03*
X007745Y003370D03*
X007745Y003369D03*
X007745Y003368D03*
X007745Y003367D03*
X007745Y003366D03*
X007745Y003365D03*
X007745Y003364D03*
X007745Y003363D03*
X007745Y003362D03*
X007745Y003361D03*
X007745Y003360D03*
X007745Y003359D03*
X007745Y003358D03*
X007745Y003357D03*
X007745Y003356D03*
X007745Y003355D03*
X007745Y003354D03*
X007745Y003353D03*
X007745Y003352D03*
X007745Y003351D03*
X007745Y003350D03*
X007745Y003349D03*
X007745Y003348D03*
X007745Y003347D03*
X007745Y003346D03*
X007745Y003345D03*
X007745Y003344D03*
X007745Y003343D03*
X007745Y003342D03*
X007745Y003341D03*
X007745Y003340D03*
X007745Y003339D03*
X007745Y003338D03*
X007745Y003337D03*
X007745Y003336D03*
X007745Y003335D03*
X007745Y003334D03*
X007745Y003333D03*
X007745Y003332D03*
X007745Y003331D03*
X007745Y003330D03*
X007745Y003329D03*
X007745Y003328D03*
X007745Y003327D03*
X007745Y003326D03*
X007745Y003325D03*
X007745Y003324D03*
X007745Y003323D03*
X007745Y003322D03*
X007745Y003321D03*
X007745Y003320D03*
X007745Y003319D03*
X007745Y003318D03*
X007745Y003317D03*
X007745Y003316D03*
X007745Y003315D03*
X007745Y003314D03*
X007745Y003313D03*
X007745Y003312D03*
X007745Y003311D03*
X007745Y003310D03*
X007745Y003309D03*
X007745Y003308D03*
X007745Y003307D03*
X007745Y003306D03*
X007745Y003305D03*
X007745Y003304D03*
X007745Y003303D03*
X007745Y003302D03*
X007745Y003301D03*
X007745Y003300D03*
X007745Y003299D03*
X007745Y003298D03*
X007745Y003297D03*
X007745Y003296D03*
X007745Y003295D03*
X007745Y003294D03*
X007745Y003293D03*
X007745Y003292D03*
X007745Y003291D03*
X007745Y003290D03*
X007745Y003289D03*
X007745Y003288D03*
X007745Y003287D03*
X007745Y003286D03*
X007745Y003285D03*
X007745Y003284D03*
X007745Y003283D03*
X007745Y003282D03*
X007745Y003281D03*
X007745Y003280D03*
X007745Y003279D03*
X007745Y003278D03*
X007745Y003277D03*
X007745Y003276D03*
X007745Y003275D03*
X007745Y003274D03*
X007745Y003273D03*
X007745Y003272D03*
X007745Y003271D03*
X007745Y003270D03*
X007745Y003269D03*
X007745Y003268D03*
X007745Y003267D03*
X007745Y003266D03*
X007745Y003265D03*
X007745Y003264D03*
X007745Y003263D03*
X007745Y003262D03*
X007745Y003261D03*
X007745Y003260D03*
X007745Y003259D03*
X007745Y003258D03*
X007745Y003257D03*
X007745Y003256D03*
X007745Y003255D03*
X007745Y003254D03*
X007745Y003253D03*
X007745Y003252D03*
X007745Y003251D03*
X007745Y003250D03*
X007745Y003249D03*
X007745Y003248D03*
X007745Y003247D03*
X007745Y003246D03*
X007745Y003245D03*
X007745Y003244D03*
X007745Y003243D03*
X007745Y003242D03*
X007745Y003241D03*
X007745Y003240D03*
X007745Y003239D03*
X007745Y003238D03*
X007745Y003237D03*
X007745Y003236D03*
X007745Y003235D03*
X007745Y003234D03*
X007745Y003233D03*
X007745Y003232D03*
X007745Y003231D03*
X007745Y003230D03*
X007745Y003229D03*
X007745Y003228D03*
X007745Y003227D03*
X007745Y003226D03*
X007745Y003225D03*
X007745Y003224D03*
X007745Y003223D03*
X007745Y003222D03*
X007745Y003221D03*
X007745Y003220D03*
X007745Y003219D03*
X007745Y003218D03*
X007745Y003217D03*
X007745Y003216D03*
X007745Y003215D03*
X007745Y003214D03*
X007745Y003213D03*
X007745Y003212D03*
X007745Y003211D03*
X007745Y003210D03*
X007745Y003209D03*
X007745Y003208D03*
X007745Y003207D03*
X007745Y003206D03*
X007745Y003205D03*
X007745Y003204D03*
X007745Y003203D03*
X007745Y003202D03*
X007745Y003201D03*
X007745Y003200D03*
X007745Y003199D03*
X007745Y003198D03*
X007745Y003197D03*
X007745Y003196D03*
X007745Y003195D03*
X007745Y003194D03*
X007745Y003193D03*
X007745Y003192D03*
X007745Y003191D03*
X007745Y003190D03*
X007745Y003189D03*
X007745Y003188D03*
X007745Y003187D03*
X007745Y003186D03*
X007745Y003185D03*
X007745Y003184D03*
X007745Y003183D03*
X007745Y003182D03*
X007745Y003181D03*
X007745Y003180D03*
X007745Y003179D03*
X007745Y003178D03*
X007745Y003177D03*
X007745Y003176D03*
X007745Y003175D03*
X007745Y003174D03*
X007745Y003173D03*
X007745Y003172D03*
X007745Y003171D03*
X007745Y003170D03*
X007745Y003169D03*
X007745Y003168D03*
X007745Y003167D03*
X007745Y003166D03*
X007745Y003165D03*
X007745Y003164D03*
X007745Y003163D03*
X007745Y003162D03*
X007745Y003161D03*
X007745Y003160D03*
X007745Y003159D03*
X007745Y003158D03*
X007745Y003157D03*
X007745Y003156D03*
X007745Y003155D03*
X007745Y003154D03*
X007745Y003153D03*
X007745Y003152D03*
X007745Y003151D03*
X007745Y003150D03*
X007745Y003149D03*
X007745Y003148D03*
X007745Y003147D03*
X007745Y003146D03*
X007745Y003145D03*
X007745Y003144D03*
X007745Y003143D03*
X007745Y003142D03*
X007745Y003141D03*
X007745Y003140D03*
X007745Y003139D03*
X007745Y003138D03*
X007745Y003137D03*
X007745Y003136D03*
X007745Y003135D03*
X007745Y003134D03*
X007745Y003133D03*
X007745Y003132D03*
X007745Y003131D03*
X007745Y003130D03*
X007745Y003129D03*
X007745Y003128D03*
X007745Y003127D03*
X007745Y003126D03*
X007745Y003125D03*
X007745Y003124D03*
X007745Y003123D03*
X007745Y003122D03*
X007745Y003121D03*
X007745Y003120D03*
X007745Y003119D03*
X007745Y003118D03*
X007745Y003117D03*
X007745Y003116D03*
X007745Y003115D03*
X007745Y003114D03*
X007745Y003113D03*
X007745Y003112D03*
X007745Y003111D03*
X007745Y003110D03*
X007745Y003109D03*
X007745Y003108D03*
X007745Y003107D03*
X007745Y003106D03*
X007745Y003105D03*
X007745Y003104D03*
X007745Y003103D03*
X007745Y003102D03*
X007745Y003101D03*
X007745Y003100D03*
X007745Y003099D03*
X007745Y003098D03*
X007745Y003097D03*
X007745Y003096D03*
X007745Y003095D03*
X007745Y003094D03*
X007745Y003093D03*
X007745Y003092D03*
X007745Y003091D03*
X007745Y003090D03*
X007745Y003089D03*
X007745Y003088D03*
X007745Y003087D03*
X007745Y003086D03*
X007745Y003085D03*
X007745Y003084D03*
X007745Y003083D03*
X007745Y003082D03*
X007745Y003081D03*
X007745Y003080D03*
X007745Y003079D03*
X007745Y003078D03*
X007745Y003077D03*
X007745Y003076D03*
X007745Y003075D03*
X007745Y003074D03*
X007745Y003073D03*
X007745Y003072D03*
X007745Y003071D03*
X007745Y003070D03*
X007745Y003069D03*
X007745Y003068D03*
X007745Y003067D03*
X007745Y003066D03*
X007745Y003065D03*
X007745Y003064D03*
X007745Y003063D03*
X007745Y003062D03*
X007745Y003061D03*
X007745Y003060D03*
X007745Y003059D03*
X007745Y003058D03*
X007745Y003057D03*
X007745Y003056D03*
X007745Y003055D03*
X007745Y003054D03*
X007745Y003053D03*
X007745Y003052D03*
X007745Y003051D03*
X007745Y003050D03*
X007745Y003049D03*
X007745Y003048D03*
X007745Y003047D03*
X007745Y003046D03*
X007745Y003045D03*
X007745Y003044D03*
X007745Y003043D03*
X007745Y003042D03*
X007745Y003041D03*
X007745Y003040D03*
X007745Y003039D03*
X007745Y003038D03*
X007745Y003037D03*
X007745Y003036D03*
X007745Y003035D03*
X007745Y003034D03*
X007745Y003033D03*
X007745Y003032D03*
X007745Y003031D03*
X007745Y003030D03*
X007745Y003029D03*
X007745Y003028D03*
X007745Y003027D03*
X007745Y003026D03*
X007745Y003025D03*
X007745Y003024D03*
X007745Y003023D03*
X007745Y003022D03*
X007745Y003021D03*
X007745Y003020D03*
X007745Y003019D03*
X007745Y003018D03*
X007745Y003017D03*
X007745Y003016D03*
X007745Y003015D03*
X007745Y003014D03*
X007745Y003013D03*
X007745Y003012D03*
X007745Y003011D03*
X007745Y003010D03*
X007745Y003009D03*
X007745Y003008D03*
X007745Y003007D03*
X007745Y003006D03*
X007745Y003005D03*
X007745Y003004D03*
X007745Y003003D03*
X007745Y003002D03*
X007745Y003001D03*
D66*
X007745Y003436D03*
X006511Y003430D03*
D67*
X006511Y003434D03*
D68*
X006511Y003437D03*
X007745Y003443D03*
D69*
X006511Y003438D03*
D70*
X006511Y003439D03*
D71*
X006511Y003440D03*
D72*
X006511Y003441D03*
D73*
X006511Y003442D03*
D74*
X006511Y003444D03*
D75*
X006511Y003445D03*
D76*
X006511Y003446D03*
D77*
X006511Y003447D03*
D78*
X006511Y003448D03*
D79*
X006511Y003449D03*
D80*
X007745Y003449D03*
D81*
X006511Y003450D03*
D82*
X006511Y003451D03*
D83*
X006511Y003452D03*
D84*
X006511Y003453D03*
D85*
X006511Y003454D03*
D86*
X006514Y003455D03*
D87*
X006513Y003456D03*
X006513Y003457D03*
X006513Y003458D03*
X006513Y003459D03*
D88*
X006513Y003460D03*
X006513Y003461D03*
X006513Y003462D03*
D89*
X007744Y003461D03*
D90*
X007752Y003462D03*
X007752Y003463D03*
X007752Y003464D03*
X007752Y003465D03*
X006495Y003579D03*
X006495Y003580D03*
X006495Y003581D03*
D91*
X006512Y003466D03*
X006512Y003465D03*
X006512Y003464D03*
X006512Y003463D03*
D92*
X006495Y003582D03*
X006495Y003583D03*
X006495Y003584D03*
X006495Y003585D03*
X007753Y003469D03*
X007753Y003468D03*
X007753Y003467D03*
X007753Y003466D03*
D93*
X006512Y003467D03*
X006512Y003468D03*
X006512Y003469D03*
D94*
X006511Y003470D03*
X006511Y003471D03*
X006511Y003472D03*
D95*
X006494Y003586D03*
X006494Y003587D03*
X006494Y003588D03*
X007753Y003473D03*
X007753Y003472D03*
X007753Y003471D03*
X007753Y003470D03*
D96*
X006511Y003473D03*
X006511Y003474D03*
X006511Y003475D03*
X006511Y003476D03*
D97*
X006494Y003589D03*
X006494Y003590D03*
X006494Y003591D03*
X007754Y003477D03*
X007754Y003476D03*
X007754Y003475D03*
X007754Y003474D03*
D98*
X006510Y003477D03*
X006510Y003478D03*
X006510Y003479D03*
D99*
X006493Y003592D03*
X006493Y003593D03*
X006493Y003594D03*
X006493Y003595D03*
X007754Y003482D03*
X007754Y003481D03*
X007754Y003480D03*
X007754Y003479D03*
X007754Y003478D03*
D100*
X006510Y003480D03*
X006510Y003481D03*
X006510Y003482D03*
X006510Y003483D03*
D101*
X006493Y003596D03*
X006493Y003597D03*
X006493Y003598D03*
X007755Y003486D03*
X007755Y003485D03*
X007755Y003484D03*
X007755Y003483D03*
D102*
X006509Y003484D03*
X006509Y003485D03*
X006509Y003486D03*
D103*
X006509Y003487D03*
X006509Y003488D03*
X006509Y003489D03*
D104*
X006492Y003599D03*
X006492Y003600D03*
X006492Y003601D03*
X006492Y003602D03*
X007755Y003490D03*
X007755Y003489D03*
X007755Y003488D03*
X007755Y003487D03*
D105*
X006508Y003490D03*
X006508Y003491D03*
X006508Y003492D03*
X006508Y003493D03*
D106*
X006492Y003603D03*
X006492Y003604D03*
X006492Y003605D03*
X007756Y003494D03*
X007756Y003493D03*
X007756Y003492D03*
X007756Y003491D03*
D107*
X006508Y003494D03*
X006508Y003495D03*
X006508Y003496D03*
D108*
X006491Y003606D03*
X006491Y003607D03*
X006491Y003608D03*
X007756Y003498D03*
X007756Y003497D03*
X007756Y003496D03*
X007756Y003495D03*
D109*
X006507Y003497D03*
X006507Y003498D03*
X006507Y003499D03*
X006507Y003500D03*
D110*
X006491Y003609D03*
X006491Y003610D03*
X006491Y003611D03*
X006491Y003612D03*
X007757Y003502D03*
X007757Y003501D03*
X007757Y003500D03*
X007757Y003499D03*
D111*
X006507Y003501D03*
X006507Y003502D03*
X006507Y003503D03*
D112*
X006490Y003613D03*
X006490Y003614D03*
X006490Y003615D03*
X007757Y003507D03*
X007757Y003506D03*
X007757Y003505D03*
X007757Y003504D03*
X007757Y003503D03*
D113*
X006506Y003504D03*
X006506Y003505D03*
X006506Y003506D03*
D114*
X006506Y003507D03*
X006506Y003508D03*
X006506Y003509D03*
X006506Y003510D03*
D115*
X006490Y003616D03*
X006490Y003617D03*
X006490Y003618D03*
X006490Y003619D03*
X007758Y003511D03*
X007758Y003510D03*
X007758Y003509D03*
X007758Y003508D03*
D116*
X006505Y003511D03*
X006505Y003512D03*
X006505Y003513D03*
D117*
X006489Y003620D03*
X006489Y003621D03*
X006489Y003622D03*
X007758Y003515D03*
X007758Y003514D03*
X007758Y003513D03*
X007758Y003512D03*
D118*
X006505Y003514D03*
X006505Y003515D03*
X006505Y003516D03*
X006505Y003517D03*
D119*
X006489Y003623D03*
X006489Y003624D03*
X006489Y003625D03*
X007759Y003519D03*
X007759Y003518D03*
X007759Y003517D03*
X007759Y003516D03*
D120*
X006504Y003518D03*
X006504Y003519D03*
X006504Y003520D03*
D121*
X006488Y003626D03*
X006488Y003627D03*
X006488Y003628D03*
X006488Y003629D03*
X007759Y003523D03*
X007759Y003522D03*
X007759Y003521D03*
X007759Y003520D03*
D122*
X006504Y003521D03*
X006504Y003522D03*
X006504Y003523D03*
D123*
X006503Y003524D03*
X006503Y003525D03*
X006503Y003526D03*
X006503Y003527D03*
D124*
X006488Y003630D03*
X006488Y003631D03*
X006488Y003632D03*
X007760Y003527D03*
X007760Y003526D03*
X007760Y003525D03*
X007760Y003524D03*
D125*
X006503Y003528D03*
X006503Y003529D03*
X006503Y003530D03*
D126*
X006487Y003633D03*
X006487Y003634D03*
X006487Y003635D03*
X006487Y003636D03*
X007760Y003532D03*
X007760Y003531D03*
X007760Y003530D03*
X007760Y003529D03*
X007760Y003528D03*
D127*
X006502Y003531D03*
X006502Y003532D03*
X006502Y003533D03*
X006502Y003534D03*
D128*
X006487Y003637D03*
X006487Y003638D03*
X006487Y003639D03*
X007761Y003536D03*
X007761Y003535D03*
X007761Y003534D03*
X007761Y003533D03*
D129*
X006502Y003535D03*
X006502Y003536D03*
X006502Y003537D03*
D130*
X006486Y003640D03*
X006486Y003641D03*
X006486Y003642D03*
X007761Y003540D03*
X007761Y003539D03*
X007761Y003538D03*
X007761Y003537D03*
D131*
X006501Y003538D03*
X006501Y003539D03*
X006501Y003540D03*
D132*
X006501Y003541D03*
X006501Y003542D03*
X006501Y003543D03*
X006501Y003544D03*
D133*
X006486Y003643D03*
X006486Y003644D03*
X006486Y003645D03*
X006486Y003646D03*
X007762Y003544D03*
X007762Y003543D03*
X007762Y003542D03*
X007762Y003541D03*
D134*
X006500Y003545D03*
X006500Y003546D03*
X006500Y003547D03*
D135*
X006485Y003647D03*
X006485Y003648D03*
X006485Y003649D03*
X007762Y003548D03*
X007762Y003547D03*
X007762Y003546D03*
X007762Y003545D03*
D136*
X006500Y003548D03*
X006500Y003549D03*
X006500Y003550D03*
X006500Y003551D03*
D137*
X006485Y003650D03*
X006485Y003651D03*
X006485Y003652D03*
X006485Y003653D03*
X007763Y003552D03*
X007763Y003551D03*
X007763Y003550D03*
X007763Y003549D03*
D138*
X006499Y003552D03*
X006499Y003553D03*
X006499Y003554D03*
D139*
X006484Y003654D03*
X006484Y003655D03*
X006484Y003656D03*
X007763Y003557D03*
X007763Y003556D03*
X007763Y003555D03*
X007763Y003554D03*
X007763Y003553D03*
D140*
X006499Y003555D03*
X006499Y003556D03*
X006499Y003557D03*
D141*
X006498Y003558D03*
X006498Y003559D03*
X006498Y003560D03*
X006498Y003561D03*
D142*
X006484Y003657D03*
X006484Y003658D03*
X006484Y003659D03*
X007764Y003561D03*
X007764Y003560D03*
X007764Y003559D03*
X007764Y003558D03*
D143*
X006498Y003562D03*
X006498Y003563D03*
X006498Y003564D03*
D144*
X006483Y003660D03*
X006483Y003661D03*
X006483Y003662D03*
X006483Y003663D03*
X007764Y003565D03*
X007764Y003564D03*
X007764Y003563D03*
X007764Y003562D03*
D145*
X006497Y003565D03*
X006497Y003566D03*
X006497Y003567D03*
X006497Y003568D03*
D146*
X006483Y003664D03*
X006483Y003665D03*
X006483Y003666D03*
X007765Y003569D03*
X007765Y003568D03*
X007765Y003567D03*
X007765Y003566D03*
D147*
X006497Y003569D03*
X006497Y003570D03*
X006497Y003571D03*
D148*
X006482Y003667D03*
X006482Y003668D03*
X006482Y003669D03*
X006482Y003670D03*
X007765Y003573D03*
X007765Y003572D03*
X007765Y003571D03*
X007765Y003570D03*
D149*
X006496Y003572D03*
X006496Y003573D03*
X006496Y003574D03*
D150*
X006482Y003671D03*
X006482Y003672D03*
X006482Y003673D03*
X007766Y003577D03*
X007766Y003576D03*
X007766Y003575D03*
X007766Y003574D03*
D151*
X006496Y003575D03*
X006496Y003576D03*
X006496Y003577D03*
X006496Y003578D03*
D152*
X006481Y003674D03*
X006481Y003675D03*
X006481Y003676D03*
X006481Y003677D03*
X007766Y003582D03*
X007766Y003581D03*
X007766Y003580D03*
X007766Y003579D03*
X007766Y003578D03*
D153*
X007767Y003583D03*
X007767Y003584D03*
X007767Y003585D03*
X007767Y003586D03*
X006481Y003678D03*
X006481Y003679D03*
X006481Y003680D03*
D154*
X006480Y003681D03*
X006480Y003682D03*
X006480Y003683D03*
X007767Y003590D03*
X007767Y003589D03*
X007767Y003588D03*
X007767Y003587D03*
D155*
X007768Y003591D03*
X007768Y003592D03*
X007768Y003593D03*
X007768Y003594D03*
X006480Y003684D03*
X006480Y003685D03*
X006480Y003686D03*
X006480Y003687D03*
D156*
X006479Y003688D03*
X006479Y003689D03*
X006479Y003690D03*
X007768Y003598D03*
X007768Y003597D03*
X007768Y003596D03*
X007768Y003595D03*
D157*
X007769Y003599D03*
X007769Y003600D03*
X007769Y003601D03*
X007769Y003602D03*
X006479Y003691D03*
X006479Y003692D03*
X006479Y003693D03*
X006479Y003694D03*
D158*
X006478Y003695D03*
X006478Y003696D03*
X006478Y003697D03*
X007769Y003607D03*
X007769Y003606D03*
X007769Y003605D03*
X007769Y003604D03*
X007769Y003603D03*
D159*
X007770Y003608D03*
X007770Y003609D03*
X007770Y003610D03*
X007770Y003611D03*
X006478Y003698D03*
X006478Y003699D03*
X006478Y003700D03*
D160*
X006477Y003701D03*
X006477Y003702D03*
X006477Y003703D03*
X006477Y003704D03*
X007770Y003615D03*
X007770Y003614D03*
X007770Y003613D03*
X007770Y003612D03*
D161*
X007771Y003616D03*
X007771Y003617D03*
X007771Y003618D03*
X007771Y003619D03*
X006477Y003705D03*
X006477Y003706D03*
X006477Y003707D03*
D162*
X006476Y003708D03*
X006476Y003709D03*
X006476Y003710D03*
X006476Y003711D03*
X007771Y003623D03*
X007771Y003622D03*
X007771Y003621D03*
X007771Y003620D03*
D163*
X007772Y003624D03*
X007772Y003625D03*
X007772Y003626D03*
X007772Y003627D03*
X006476Y003712D03*
X006476Y003713D03*
X006476Y003714D03*
D164*
X006475Y003715D03*
X006475Y003716D03*
X006475Y003717D03*
X007772Y003632D03*
X007772Y003631D03*
X007772Y003630D03*
X007772Y003629D03*
X007772Y003628D03*
D165*
X007773Y003633D03*
X007773Y003634D03*
X007773Y003635D03*
X007773Y003636D03*
X006475Y003718D03*
X006475Y003719D03*
X006475Y003720D03*
X006475Y003721D03*
D166*
X006474Y003722D03*
X006474Y003723D03*
X006474Y003724D03*
X007773Y003640D03*
X007773Y003639D03*
X007773Y003638D03*
X007773Y003637D03*
D167*
X007774Y003641D03*
X007774Y003642D03*
X007774Y003643D03*
X007774Y003644D03*
X006474Y003725D03*
X006474Y003726D03*
X006474Y003727D03*
X006474Y003728D03*
D168*
X006473Y003729D03*
X006473Y003730D03*
X006473Y003731D03*
X007774Y003648D03*
X007774Y003647D03*
X007774Y003646D03*
X007774Y003645D03*
D169*
X007775Y003649D03*
X007775Y003650D03*
X007775Y003651D03*
X007775Y003652D03*
X006473Y003732D03*
X006473Y003733D03*
X006473Y003734D03*
D170*
X006472Y003735D03*
X006472Y003736D03*
X006472Y003737D03*
X006472Y003738D03*
X007775Y003657D03*
X007775Y003656D03*
X007775Y003655D03*
X007775Y003654D03*
X007775Y003653D03*
D171*
X007776Y003658D03*
X007776Y003659D03*
X007776Y003660D03*
X007776Y003661D03*
X006472Y003739D03*
X006472Y003740D03*
X006472Y003741D03*
D172*
X006471Y003742D03*
X006471Y003743D03*
X006471Y003744D03*
X006471Y003745D03*
X007776Y003665D03*
X007776Y003664D03*
X007776Y003663D03*
X007776Y003662D03*
D173*
X007777Y003666D03*
X007777Y003667D03*
X007777Y003668D03*
X007777Y003669D03*
X006471Y003746D03*
X006471Y003747D03*
X006471Y003748D03*
D174*
X006470Y003749D03*
X006470Y003750D03*
X006470Y003751D03*
X007777Y003673D03*
X007777Y003672D03*
X007777Y003671D03*
X007777Y003670D03*
D175*
X007778Y003674D03*
X007778Y003675D03*
X007778Y003676D03*
X007778Y003677D03*
X006470Y003752D03*
X006470Y003753D03*
X006470Y003754D03*
X006470Y003755D03*
D176*
X006469Y003756D03*
X006469Y003757D03*
X006469Y003758D03*
X007778Y003682D03*
X007778Y003681D03*
X007778Y003680D03*
X007778Y003679D03*
X007778Y003678D03*
D177*
X007779Y003683D03*
X007779Y003684D03*
X007779Y003685D03*
X007779Y003686D03*
X006469Y003759D03*
X006469Y003760D03*
X006469Y003761D03*
X006469Y003762D03*
D178*
X006468Y003763D03*
X006468Y003764D03*
X006468Y003765D03*
X007779Y003690D03*
X007779Y003689D03*
X007779Y003688D03*
X007779Y003687D03*
D179*
X007780Y003691D03*
X007780Y003692D03*
X007780Y003693D03*
X007780Y003694D03*
X006468Y003766D03*
X006468Y003767D03*
X006468Y003768D03*
D180*
X006467Y003769D03*
X006467Y003770D03*
X006467Y003771D03*
X006467Y003772D03*
X007780Y003698D03*
X007780Y003697D03*
X007780Y003696D03*
X007780Y003695D03*
D181*
X007781Y003699D03*
X007781Y003700D03*
X007781Y003701D03*
X007781Y003702D03*
X006467Y003773D03*
X006467Y003774D03*
X006467Y003775D03*
D182*
X006466Y003776D03*
X006466Y003777D03*
X006466Y003778D03*
X006466Y003779D03*
X007781Y003707D03*
X007781Y003706D03*
X007781Y003705D03*
X007781Y003704D03*
X007781Y003703D03*
D183*
X007782Y003708D03*
X007782Y003709D03*
X007782Y003710D03*
X007782Y003711D03*
X006466Y003780D03*
X006466Y003781D03*
X006466Y003782D03*
D184*
X006465Y003783D03*
X006465Y003784D03*
X006465Y003785D03*
X007782Y003715D03*
X007782Y003714D03*
X007782Y003713D03*
X007782Y003712D03*
D185*
X007783Y003716D03*
X007783Y003717D03*
X007783Y003718D03*
X007783Y003719D03*
X006465Y003786D03*
X006465Y003787D03*
X006465Y003788D03*
X006465Y003789D03*
D186*
X006464Y003790D03*
X006464Y003791D03*
X006464Y003792D03*
X007783Y003723D03*
X007783Y003722D03*
X007783Y003721D03*
X007783Y003720D03*
D187*
X007784Y003724D03*
X007784Y003725D03*
X007784Y003726D03*
X007784Y003727D03*
X006464Y003793D03*
X006464Y003794D03*
X006464Y003795D03*
X006464Y003796D03*
D188*
X006463Y003797D03*
X006463Y003798D03*
X006463Y003799D03*
X007784Y003732D03*
X007784Y003731D03*
X007784Y003730D03*
X007784Y003729D03*
X007784Y003728D03*
D189*
X007785Y003733D03*
X007785Y003734D03*
X007785Y003735D03*
X007785Y003736D03*
X006463Y003800D03*
X006463Y003801D03*
X006463Y003802D03*
D190*
X006462Y003803D03*
X006462Y003804D03*
X006462Y003805D03*
X006462Y003806D03*
X007785Y003740D03*
X007785Y003739D03*
X007785Y003738D03*
X007785Y003737D03*
D191*
X007786Y003741D03*
X007786Y003742D03*
X007786Y003743D03*
X007786Y003744D03*
X006462Y003807D03*
X006462Y003808D03*
X006462Y003809D03*
D192*
X006461Y003810D03*
X006461Y003811D03*
X006461Y003812D03*
X006461Y003813D03*
X007786Y003748D03*
X007786Y003747D03*
X007786Y003746D03*
X007786Y003745D03*
D193*
X007787Y003749D03*
X007787Y003750D03*
X007787Y003751D03*
X007787Y003752D03*
X006461Y003814D03*
X006461Y003815D03*
X006461Y003816D03*
D194*
X006460Y003817D03*
X006460Y003818D03*
X006460Y003819D03*
X007787Y003757D03*
X007787Y003756D03*
X007787Y003755D03*
X007787Y003754D03*
X007787Y003753D03*
D195*
X007788Y003758D03*
X007788Y003759D03*
X007788Y003760D03*
X007788Y003761D03*
X006460Y003820D03*
X006460Y003821D03*
X006460Y003822D03*
X006460Y003823D03*
D196*
X006459Y003824D03*
X006459Y003825D03*
X006459Y003826D03*
X007788Y003765D03*
X007788Y003764D03*
X007788Y003763D03*
X007788Y003762D03*
D197*
X007789Y003766D03*
X007789Y003767D03*
X007789Y003768D03*
X007789Y003769D03*
X006459Y003827D03*
X006459Y003828D03*
X006459Y003829D03*
X006459Y003830D03*
D198*
X006458Y003831D03*
X006458Y003832D03*
X006458Y003833D03*
X007789Y003773D03*
X007789Y003772D03*
X007789Y003771D03*
X007789Y003770D03*
D199*
X007790Y003774D03*
X007790Y003775D03*
X007790Y003776D03*
X007790Y003777D03*
X006458Y003834D03*
X006458Y003835D03*
X006458Y003836D03*
D200*
X006457Y003837D03*
X006457Y003838D03*
X006457Y003839D03*
X006457Y003840D03*
X007790Y003782D03*
X007790Y003781D03*
X007790Y003780D03*
X007790Y003779D03*
X007790Y003778D03*
D201*
X007791Y003783D03*
X007791Y003784D03*
X007791Y003785D03*
X007791Y003786D03*
X006457Y003841D03*
X006457Y003842D03*
X006457Y003843D03*
D202*
X006456Y003844D03*
X006456Y003845D03*
X006456Y003846D03*
X006456Y003847D03*
X007791Y003790D03*
X007791Y003789D03*
X007791Y003788D03*
X007791Y003787D03*
D203*
X007792Y003791D03*
X007792Y003792D03*
X007792Y003793D03*
X007792Y003794D03*
X006456Y003848D03*
X006456Y003849D03*
X006456Y003850D03*
D204*
X006455Y003851D03*
X006455Y003852D03*
X006455Y003853D03*
X007792Y003798D03*
X007792Y003797D03*
X007792Y003796D03*
X007792Y003795D03*
D205*
X007793Y003799D03*
X007793Y003800D03*
X007793Y003801D03*
X007793Y003802D03*
X006455Y003854D03*
X006455Y003855D03*
X006455Y003856D03*
X006455Y003857D03*
D206*
X006454Y003858D03*
X006454Y003859D03*
X006454Y003860D03*
X007793Y003807D03*
X007793Y003806D03*
X007793Y003805D03*
X007793Y003804D03*
X007793Y003803D03*
D207*
X007794Y003808D03*
X007794Y003809D03*
X007794Y003810D03*
X007794Y003811D03*
X006454Y003861D03*
X006454Y003862D03*
X006454Y003863D03*
X006454Y003864D03*
D208*
X006453Y003865D03*
X006453Y003866D03*
X006453Y003867D03*
X007794Y003815D03*
X007794Y003814D03*
X007794Y003813D03*
X007794Y003812D03*
D209*
X007795Y003816D03*
X007795Y003817D03*
X007795Y003818D03*
X007795Y003819D03*
X006453Y003868D03*
X006453Y003869D03*
X006453Y003870D03*
D210*
X006452Y003871D03*
X006452Y003872D03*
X006452Y003873D03*
X006452Y003874D03*
X007795Y003823D03*
X007795Y003822D03*
X007795Y003821D03*
X007795Y003820D03*
D211*
X007796Y003824D03*
X007796Y003825D03*
X007796Y003826D03*
X007796Y003827D03*
X006452Y003875D03*
X006452Y003876D03*
X006452Y003877D03*
D212*
X006451Y003878D03*
X006451Y003879D03*
X006451Y003880D03*
X006451Y003881D03*
X007796Y003832D03*
X007796Y003831D03*
X007796Y003830D03*
X007796Y003829D03*
X007796Y003828D03*
D213*
X007797Y003833D03*
X007797Y003834D03*
X007797Y003835D03*
X007797Y003836D03*
X006451Y003882D03*
X006451Y003883D03*
X006451Y003884D03*
D214*
X006450Y003885D03*
X006450Y003886D03*
X006450Y003887D03*
X007797Y003840D03*
X007797Y003839D03*
X007797Y003838D03*
X007797Y003837D03*
D215*
X007798Y003841D03*
X007798Y003842D03*
X007798Y003843D03*
X007798Y003844D03*
X006450Y003888D03*
X006450Y003889D03*
X006450Y003890D03*
X006450Y003891D03*
D216*
X006449Y003892D03*
X006449Y003893D03*
X006449Y003894D03*
X007798Y003848D03*
X007798Y003847D03*
X007798Y003846D03*
X007798Y003845D03*
D217*
X007799Y003849D03*
X007799Y003850D03*
X007799Y003851D03*
X007799Y003852D03*
X006449Y003895D03*
X006449Y003896D03*
X006449Y003897D03*
X006449Y003898D03*
D218*
X006448Y003899D03*
X006448Y003900D03*
X006448Y003901D03*
X007799Y003857D03*
X007799Y003856D03*
X007799Y003855D03*
X007799Y003854D03*
X007799Y003853D03*
D219*
X007800Y003858D03*
X007800Y003859D03*
X007800Y003860D03*
X007800Y003861D03*
X006448Y003902D03*
X006448Y003903D03*
X006448Y003904D03*
D220*
X006447Y003905D03*
X006447Y003906D03*
X006447Y003907D03*
X006447Y003908D03*
X007800Y003865D03*
X007800Y003864D03*
X007800Y003863D03*
X007800Y003862D03*
D221*
X007801Y003866D03*
X007801Y003867D03*
X007801Y003868D03*
X007801Y003869D03*
X006447Y003909D03*
X006447Y003910D03*
X006447Y003911D03*
D222*
X006446Y003912D03*
X006446Y003913D03*
X006446Y003914D03*
X006446Y003915D03*
X007801Y003873D03*
X007801Y003872D03*
X007801Y003871D03*
X007801Y003870D03*
D223*
X007802Y003874D03*
X007802Y003875D03*
X007802Y003876D03*
X007802Y003877D03*
X006446Y003916D03*
X006446Y003917D03*
X006446Y003918D03*
D224*
X006445Y003919D03*
X006445Y003920D03*
X006445Y003921D03*
X007802Y003882D03*
X007802Y003881D03*
X007802Y003880D03*
X007802Y003879D03*
X007802Y003878D03*
D225*
X007803Y003883D03*
X007803Y003884D03*
X007803Y003885D03*
X007803Y003886D03*
X006445Y003922D03*
X006445Y003923D03*
X006445Y003924D03*
X006445Y003925D03*
D226*
X006444Y003926D03*
X006444Y003927D03*
X006444Y003928D03*
X007803Y003890D03*
X007803Y003889D03*
X007803Y003888D03*
X007803Y003887D03*
D227*
X007804Y003891D03*
X007804Y003892D03*
X007804Y003893D03*
X007804Y003894D03*
X006444Y003929D03*
X006444Y003930D03*
X006444Y003931D03*
X006444Y003932D03*
D228*
X006443Y003933D03*
X006443Y003934D03*
X006443Y003935D03*
X007804Y003898D03*
X007804Y003897D03*
X007804Y003896D03*
X007804Y003895D03*
D229*
X007805Y003899D03*
X007805Y003900D03*
X007805Y003901D03*
X007805Y003902D03*
X006443Y003936D03*
X006443Y003937D03*
X006443Y003938D03*
D230*
X006442Y003939D03*
X006442Y003940D03*
X006442Y003941D03*
X006442Y003942D03*
X007805Y003907D03*
X007805Y003906D03*
X007805Y003905D03*
X007805Y003904D03*
X007805Y003903D03*
D231*
X007806Y003908D03*
X007806Y003909D03*
X007806Y003910D03*
X007806Y003911D03*
X006442Y003943D03*
X006442Y003944D03*
X006442Y003945D03*
D232*
X006441Y003946D03*
X006441Y003947D03*
X006441Y003948D03*
X006441Y003949D03*
X007806Y003915D03*
X007806Y003914D03*
X007806Y003913D03*
X007806Y003912D03*
D233*
X007807Y003916D03*
X007807Y003917D03*
X007807Y003918D03*
X007807Y003919D03*
X006441Y003950D03*
X006441Y003951D03*
X006441Y003952D03*
D234*
X006440Y003953D03*
X006440Y003954D03*
X006440Y003955D03*
X007807Y003923D03*
X007807Y003922D03*
X007807Y003921D03*
X007807Y003920D03*
D235*
X007808Y003924D03*
X007808Y003925D03*
X007808Y003926D03*
X007808Y003927D03*
X006440Y003956D03*
X006440Y003957D03*
X006440Y003958D03*
X006440Y003959D03*
D236*
X006439Y003960D03*
X006439Y003961D03*
X006439Y003962D03*
X007808Y003932D03*
X007808Y003931D03*
X007808Y003930D03*
X007808Y003929D03*
X007808Y003928D03*
D237*
X007809Y003933D03*
X007809Y003934D03*
X007809Y003935D03*
X007809Y003936D03*
X006439Y003963D03*
X006439Y003964D03*
X006439Y003965D03*
X006439Y003966D03*
D238*
X006438Y003967D03*
X006438Y003968D03*
X006438Y003969D03*
X007809Y003940D03*
X007809Y003939D03*
X007809Y003938D03*
X007809Y003937D03*
D239*
X007810Y003941D03*
X007810Y003942D03*
X007810Y003943D03*
X007810Y003944D03*
X006438Y003970D03*
X006438Y003971D03*
X006438Y003972D03*
D240*
X006437Y003973D03*
X006437Y003974D03*
X006437Y003975D03*
X006437Y003976D03*
X007810Y003948D03*
X007810Y003947D03*
X007810Y003946D03*
X007810Y003945D03*
D241*
X007811Y003949D03*
X007811Y003950D03*
X007811Y003951D03*
X007811Y003952D03*
X006437Y003977D03*
X006437Y003978D03*
X006437Y003979D03*
D242*
X006436Y003980D03*
X006436Y003981D03*
X006436Y003982D03*
X006436Y003983D03*
X007811Y003957D03*
X007811Y003956D03*
X007811Y003955D03*
X007811Y003954D03*
X007811Y003953D03*
D243*
X007812Y003958D03*
X007812Y003959D03*
X007812Y003960D03*
X007812Y003961D03*
X006436Y003984D03*
X006436Y003985D03*
X006436Y003986D03*
D244*
X006435Y003987D03*
X006435Y003988D03*
X006435Y003989D03*
X007812Y003965D03*
X007812Y003964D03*
X007812Y003963D03*
X007812Y003962D03*
D245*
X007813Y003966D03*
X007813Y003967D03*
X007813Y003968D03*
X007813Y003969D03*
X006435Y003990D03*
X006435Y003991D03*
X006435Y003992D03*
X006435Y003993D03*
D246*
X006434Y003994D03*
X006434Y003995D03*
X006434Y003996D03*
X007813Y003973D03*
X007813Y003972D03*
X007813Y003971D03*
X007813Y003970D03*
D247*
X007814Y003974D03*
X007814Y003975D03*
X007814Y003976D03*
X007814Y003977D03*
X006434Y003997D03*
X006434Y003998D03*
X006434Y003999D03*
X006434Y004000D03*
D248*
X006433Y004001D03*
X006433Y004002D03*
X006433Y004003D03*
X007814Y003982D03*
X007814Y003981D03*
X007814Y003980D03*
X007814Y003979D03*
X007814Y003978D03*
D249*
X007815Y003983D03*
X007815Y003984D03*
X007815Y003985D03*
X007815Y003986D03*
X006433Y004004D03*
X006433Y004005D03*
X006433Y004006D03*
D250*
X006432Y004007D03*
X006432Y004008D03*
X006432Y004009D03*
X006432Y004010D03*
X007815Y003990D03*
X007815Y003989D03*
X007815Y003988D03*
X007815Y003987D03*
D251*
X007816Y003991D03*
X007816Y003992D03*
X007816Y003993D03*
X007816Y003994D03*
X006432Y004011D03*
X006432Y004012D03*
X006432Y004013D03*
D252*
X006431Y004014D03*
X006431Y004015D03*
X006431Y004016D03*
X006431Y004017D03*
X007816Y003998D03*
X007816Y003997D03*
X007816Y003996D03*
X007816Y003995D03*
D253*
X007817Y003999D03*
X007817Y004000D03*
X007817Y004001D03*
X007817Y004002D03*
X006431Y004018D03*
X006431Y004019D03*
X006431Y004020D03*
D254*
X006430Y004021D03*
X006430Y004022D03*
X006430Y004023D03*
X007817Y004007D03*
X007817Y004006D03*
X007817Y004005D03*
X007817Y004004D03*
X007817Y004003D03*
D255*
X007818Y004008D03*
X007818Y004009D03*
X007818Y004010D03*
X007818Y004011D03*
X006430Y004024D03*
X006430Y004025D03*
X006430Y004026D03*
X006430Y004027D03*
D256*
X006429Y004028D03*
X006429Y004029D03*
X006429Y004030D03*
X007818Y004015D03*
X007818Y004014D03*
X007818Y004013D03*
X007818Y004012D03*
D257*
X007819Y004016D03*
X007819Y004017D03*
X007819Y004018D03*
X007819Y004019D03*
X006429Y004031D03*
X006429Y004032D03*
X006429Y004033D03*
X006429Y004034D03*
D258*
X006428Y004035D03*
X006428Y004036D03*
X006428Y004037D03*
X007819Y004023D03*
X007819Y004022D03*
X007819Y004021D03*
X007819Y004020D03*
D259*
X007820Y004024D03*
X007820Y004025D03*
X007820Y004026D03*
X007820Y004027D03*
X006428Y004038D03*
X006428Y004039D03*
X006428Y004040D03*
D260*
X006427Y004041D03*
X006427Y004042D03*
X006427Y004043D03*
X006427Y004044D03*
X007820Y004032D03*
X007820Y004031D03*
X007820Y004030D03*
X007820Y004029D03*
X007820Y004028D03*
D261*
X007821Y004033D03*
X007821Y004034D03*
X007821Y004035D03*
X007821Y004036D03*
X006427Y004045D03*
X006427Y004046D03*
X006427Y004047D03*
D262*
X006426Y004048D03*
X006426Y004049D03*
X006426Y004050D03*
X006426Y004051D03*
X007821Y004040D03*
X007821Y004039D03*
X007821Y004038D03*
X007821Y004037D03*
D263*
X007822Y004041D03*
X007822Y004042D03*
X007822Y004043D03*
X007822Y004044D03*
X006426Y004052D03*
X006426Y004053D03*
X006426Y004054D03*
D264*
X006425Y004055D03*
X006425Y004056D03*
X006425Y004057D03*
X007822Y004048D03*
X007822Y004047D03*
X007822Y004046D03*
X007822Y004045D03*
D265*
X007823Y004049D03*
X007823Y004050D03*
X007823Y004051D03*
X007823Y004052D03*
X006425Y004058D03*
X006425Y004059D03*
X006425Y004060D03*
X006425Y004061D03*
D266*
X006424Y004062D03*
X006424Y004063D03*
X006424Y004064D03*
X007823Y004057D03*
X007823Y004056D03*
X007823Y004055D03*
X007823Y004054D03*
X007823Y004053D03*
D267*
X007824Y004058D03*
X007824Y004059D03*
X007824Y004060D03*
X007824Y004061D03*
X006424Y004065D03*
X006424Y004066D03*
X006424Y004067D03*
X006424Y004068D03*
D268*
X006423Y004069D03*
X006423Y004070D03*
X006423Y004071D03*
X007824Y004065D03*
X007824Y004064D03*
X007824Y004063D03*
X007824Y004062D03*
D269*
X007825Y004066D03*
X007825Y004067D03*
X007825Y004068D03*
X007825Y004069D03*
X006423Y004072D03*
X006423Y004073D03*
X006423Y004074D03*
D270*
X006422Y004075D03*
X006422Y004076D03*
X006422Y004077D03*
X006422Y004078D03*
X007825Y004073D03*
X007825Y004072D03*
X007825Y004071D03*
X007825Y004070D03*
D271*
X007826Y004074D03*
X007826Y004075D03*
X007826Y004076D03*
X007826Y004077D03*
X006422Y004079D03*
X006422Y004080D03*
X006422Y004081D03*
D272*
X006421Y004082D03*
X006421Y004083D03*
X006421Y004084D03*
X006421Y004085D03*
X007826Y004082D03*
X007826Y004081D03*
X007826Y004080D03*
X007826Y004079D03*
X007826Y004078D03*
D273*
X007827Y004083D03*
X007827Y004084D03*
X007827Y004085D03*
X007827Y004086D03*
X006421Y004087D03*
X006421Y004088D03*
X006421Y004086D03*
D274*
X006420Y004089D03*
X006420Y004090D03*
X006420Y004091D03*
X007827Y004090D03*
X007827Y004089D03*
X007827Y004088D03*
X007827Y004087D03*
D275*
X007828Y004091D03*
X007828Y004092D03*
X007828Y004093D03*
X007828Y004094D03*
X006420Y004095D03*
X006420Y004094D03*
X006420Y004093D03*
X006420Y004092D03*
D276*
X006419Y004096D03*
X006419Y004097D03*
X006419Y004098D03*
X007828Y004098D03*
X007828Y004097D03*
X007828Y004096D03*
X007828Y004095D03*
D277*
X007829Y004099D03*
X007829Y004100D03*
X007829Y004101D03*
X007829Y004102D03*
X006419Y004102D03*
X006419Y004101D03*
X006419Y004100D03*
X006419Y004099D03*
D278*
X006418Y004103D03*
X006418Y004104D03*
X006418Y004105D03*
X007829Y004106D03*
X007829Y004107D03*
X007829Y004105D03*
X007829Y004104D03*
X007829Y004103D03*
D279*
X007830Y004108D03*
X007830Y004109D03*
X007830Y004110D03*
X007830Y004111D03*
X006418Y004108D03*
X006418Y004107D03*
X006418Y004106D03*
D280*
X006417Y004109D03*
X006417Y004110D03*
X006417Y004111D03*
X006417Y004112D03*
X007830Y004113D03*
X007830Y004114D03*
X007830Y004115D03*
X007830Y004112D03*
D281*
X007831Y004116D03*
X007831Y004117D03*
X007831Y004118D03*
X007831Y004119D03*
X006417Y004115D03*
X006417Y004114D03*
X006417Y004113D03*
D282*
X006416Y004116D03*
X006416Y004117D03*
X006416Y004118D03*
X006416Y004119D03*
X007831Y004120D03*
X007831Y004121D03*
X007831Y004122D03*
X007831Y004123D03*
D283*
X007832Y004124D03*
X007832Y004125D03*
X007832Y004126D03*
X007832Y004127D03*
X006416Y004122D03*
X006416Y004121D03*
X006416Y004120D03*
D284*
X006415Y004123D03*
X006415Y004124D03*
X006415Y004125D03*
X007832Y004128D03*
X007832Y004129D03*
X007832Y004130D03*
X007832Y004131D03*
X007832Y004132D03*
D285*
X007833Y004133D03*
X007833Y004134D03*
X007833Y004135D03*
X007833Y004136D03*
X006415Y004129D03*
X006415Y004128D03*
X006415Y004127D03*
X006415Y004126D03*
D286*
X006414Y004130D03*
X006414Y004131D03*
X006414Y004132D03*
X007833Y004137D03*
X007833Y004138D03*
X007833Y004139D03*
X007833Y004140D03*
D287*
X007834Y004141D03*
X007834Y004142D03*
X007834Y004143D03*
X007834Y004144D03*
X006414Y004136D03*
X006414Y004135D03*
X006414Y004134D03*
X006414Y004133D03*
D288*
X006413Y004137D03*
X006413Y004138D03*
X006413Y004139D03*
X007834Y004145D03*
X007834Y004146D03*
X007834Y004147D03*
X007834Y004148D03*
D289*
X007835Y004149D03*
X007835Y004150D03*
X007835Y004151D03*
X007835Y004152D03*
X006413Y004142D03*
X006413Y004141D03*
X006413Y004140D03*
D290*
X006412Y004143D03*
X006412Y004144D03*
X006412Y004145D03*
X006412Y004146D03*
X007835Y004153D03*
X007835Y004154D03*
X007835Y004155D03*
X007835Y004156D03*
X007835Y004157D03*
D291*
X007836Y004158D03*
X007836Y004159D03*
X007836Y004160D03*
X007836Y004161D03*
X006412Y004149D03*
X006412Y004148D03*
X006412Y004147D03*
D292*
X006411Y004150D03*
X006411Y004151D03*
X006411Y004152D03*
X006411Y004153D03*
X007836Y004162D03*
X007836Y004163D03*
X007836Y004164D03*
X007836Y004165D03*
D293*
X007837Y004166D03*
X007837Y004167D03*
X007837Y004168D03*
X007837Y004169D03*
X006411Y004156D03*
X006411Y004155D03*
X006411Y004154D03*
D294*
X006410Y004157D03*
X006410Y004158D03*
X006410Y004159D03*
X007837Y004170D03*
X007837Y004171D03*
X007837Y004172D03*
X007837Y004173D03*
D295*
X007838Y004174D03*
X007838Y004175D03*
X007838Y004176D03*
X007838Y004177D03*
X006410Y004163D03*
X006410Y004162D03*
X006410Y004161D03*
X006410Y004160D03*
D296*
X006409Y004164D03*
X006409Y004165D03*
X006409Y004166D03*
X007838Y004178D03*
X007838Y004179D03*
X007838Y004180D03*
X007838Y004181D03*
X007838Y004182D03*
D297*
X007839Y004183D03*
X007839Y004184D03*
X007839Y004185D03*
X007839Y004186D03*
X006409Y004170D03*
X006409Y004169D03*
X006409Y004168D03*
X006409Y004167D03*
D298*
X006408Y004171D03*
X006408Y004172D03*
X006408Y004173D03*
X007839Y004187D03*
X007839Y004188D03*
X007839Y004189D03*
X007839Y004190D03*
D299*
X007840Y004191D03*
X007840Y004192D03*
X007840Y004193D03*
X007840Y004194D03*
X006408Y004176D03*
X006408Y004175D03*
X006408Y004174D03*
D300*
X006407Y004177D03*
X006407Y004178D03*
X006407Y004179D03*
X006407Y004180D03*
X007840Y004195D03*
X007840Y004196D03*
X007840Y004197D03*
X007840Y004198D03*
D301*
X007841Y004199D03*
X007841Y004200D03*
X007841Y004201D03*
X007841Y004202D03*
X006407Y004183D03*
X006407Y004182D03*
X006407Y004181D03*
D302*
X006406Y004184D03*
X006406Y004185D03*
X006406Y004186D03*
X006406Y004187D03*
X007841Y004203D03*
X007841Y004204D03*
D303*
X006406Y004190D03*
X006406Y004189D03*
X006406Y004188D03*
D304*
X006405Y004191D03*
X006405Y004192D03*
X006405Y004193D03*
X006405Y004194D03*
D305*
X006405Y004195D03*
X006405Y004196D03*
X006405Y004197D03*
D306*
X006404Y004198D03*
X006404Y004199D03*
X006404Y004200D03*
D307*
X006404Y004201D03*
X006404Y004202D03*
X006404Y004203D03*
X006404Y004204D03*
D308*
X006515Y004205D03*
X006515Y004206D03*
X006515Y004207D03*
X006515Y004208D03*
X006515Y004209D03*
X006515Y004210D03*
X006515Y004211D03*
X006515Y004212D03*
X006515Y004213D03*
X006515Y004214D03*
X006515Y004215D03*
X006515Y004216D03*
X006515Y004217D03*
X006515Y004218D03*
X006515Y004219D03*
X006515Y004220D03*
X006515Y004221D03*
X006515Y004222D03*
X006515Y004223D03*
X006515Y004224D03*
X006515Y004225D03*
X006515Y004226D03*
X006515Y004227D03*
X006515Y004228D03*
X006515Y004229D03*
X006515Y004230D03*
X006515Y004231D03*
X006515Y004232D03*
X006515Y004233D03*
X006515Y004234D03*
X006515Y004235D03*
X006515Y004236D03*
X006515Y004237D03*
X006515Y004238D03*
X006515Y004239D03*
X006515Y004240D03*
X006515Y004241D03*
X006515Y004242D03*
X006515Y004243D03*
X006515Y004244D03*
X006515Y004245D03*
X006515Y004246D03*
X006515Y004247D03*
X006515Y004248D03*
X006515Y004249D03*
X006515Y004250D03*
X006515Y004251D03*
X006515Y004252D03*
X006515Y004253D03*
X006515Y004254D03*
X006515Y004255D03*
X006515Y004256D03*
X007732Y004256D03*
X007732Y004255D03*
X007732Y004254D03*
X007732Y004253D03*
X007732Y004252D03*
X007732Y004251D03*
X007732Y004250D03*
X007732Y004249D03*
X007732Y004248D03*
X007732Y004247D03*
X007732Y004246D03*
X007732Y004245D03*
X007732Y004244D03*
X007732Y004243D03*
X007732Y004242D03*
X007732Y004241D03*
X007732Y004240D03*
X007732Y004239D03*
X007732Y004238D03*
X007732Y004237D03*
X007732Y004236D03*
X007732Y004235D03*
X007732Y004234D03*
X007732Y004233D03*
X007732Y004232D03*
X007732Y004231D03*
X007732Y004230D03*
X007732Y004229D03*
X007732Y004228D03*
X007732Y004227D03*
X007732Y004226D03*
X007732Y004225D03*
X007732Y004224D03*
X007732Y004223D03*
X007732Y004222D03*
X007732Y004221D03*
X007732Y004220D03*
X007732Y004219D03*
X007732Y004218D03*
X007732Y004217D03*
X007732Y004216D03*
X007732Y004215D03*
X007732Y004214D03*
X007732Y004213D03*
X007732Y004212D03*
X007732Y004211D03*
X007732Y004210D03*
X007732Y004209D03*
X007732Y004208D03*
X007732Y004207D03*
X007732Y004206D03*
X007732Y004205D03*
D309*
X007124Y004257D03*
X007124Y004258D03*
X007124Y004259D03*
X007124Y004260D03*
X007124Y004261D03*
X007124Y004262D03*
X007124Y004263D03*
X007124Y004264D03*
X007124Y004265D03*
X007124Y004266D03*
X007124Y004267D03*
X007124Y004268D03*
X007124Y004269D03*
X007124Y004270D03*
X007124Y004271D03*
X007124Y004272D03*
X007124Y004273D03*
X007124Y004274D03*
X007124Y004275D03*
X007124Y004276D03*
X007124Y004277D03*
X007124Y004278D03*
X007124Y004279D03*
X007124Y004280D03*
X007124Y004281D03*
X007124Y004282D03*
X007124Y004283D03*
X007124Y004284D03*
X007124Y004285D03*
X007124Y004286D03*
X007124Y004287D03*
X007124Y004288D03*
X007124Y004289D03*
X007124Y004290D03*
X007124Y004291D03*
X007124Y004292D03*
X007124Y004293D03*
X007124Y004294D03*
X007124Y004295D03*
X007124Y004296D03*
X007124Y004297D03*
X007124Y004555D03*
X007124Y004556D03*
X007124Y004557D03*
X007124Y004558D03*
X007124Y004559D03*
X007124Y004560D03*
X007124Y004561D03*
X007124Y004562D03*
X007124Y004563D03*
X007124Y004564D03*
X007124Y004565D03*
X007124Y004566D03*
X007124Y004567D03*
X007124Y004568D03*
X007124Y004569D03*
X007124Y004570D03*
X007124Y004571D03*
X007124Y004572D03*
X007124Y004573D03*
X007124Y004574D03*
X007124Y004575D03*
X007124Y004576D03*
X007124Y004577D03*
X007124Y004578D03*
X007124Y004579D03*
X007124Y004580D03*
X007124Y004581D03*
X007124Y004582D03*
X007124Y004583D03*
X007124Y004584D03*
X007124Y004585D03*
X007124Y004586D03*
X007124Y004587D03*
X007124Y004588D03*
X007124Y004589D03*
X007124Y004590D03*
X007124Y004591D03*
X007124Y004592D03*
X007124Y004593D03*
X007124Y004594D03*
X007124Y004595D03*
X007124Y004596D03*
X007124Y004597D03*
X007124Y004598D03*
X007124Y004599D03*
X007124Y004600D03*
X007124Y004601D03*
X007124Y004602D03*
X007124Y004603D03*
X007124Y004604D03*
X007124Y004605D03*
X007124Y004606D03*
X007124Y004607D03*
X007124Y004608D03*
X007124Y004609D03*
X007124Y004610D03*
X007124Y004611D03*
X007124Y004612D03*
X007124Y004613D03*
X007124Y004614D03*
X007124Y004615D03*
X007124Y004616D03*
X007124Y004617D03*
X007124Y004618D03*
X007124Y004619D03*
X007124Y004620D03*
X007124Y004621D03*
X007124Y004622D03*
X007124Y004623D03*
X007124Y004624D03*
X007124Y004625D03*
X007124Y004626D03*
X007124Y004627D03*
D310*
X006577Y004554D03*
X006577Y004553D03*
X006577Y004552D03*
X006577Y004551D03*
X006577Y004550D03*
X006577Y004549D03*
X006577Y004548D03*
X006577Y004547D03*
X006577Y004546D03*
X006577Y004545D03*
X006577Y004544D03*
X006577Y004543D03*
X006577Y004542D03*
X006577Y004541D03*
X006577Y004540D03*
X006577Y004539D03*
X006577Y004538D03*
X006577Y004537D03*
X006577Y004536D03*
X006577Y004535D03*
X006577Y004534D03*
X006577Y004533D03*
X006577Y004532D03*
X006577Y004531D03*
X006577Y004530D03*
X006577Y004529D03*
X006577Y004528D03*
X006577Y004527D03*
X006577Y004526D03*
X006577Y004525D03*
X006577Y004524D03*
X006577Y004523D03*
X006577Y004522D03*
X006577Y004521D03*
X006577Y004520D03*
X006577Y004519D03*
X006577Y004518D03*
X006577Y004517D03*
X006577Y004516D03*
X006577Y004515D03*
X006577Y004514D03*
X006577Y004513D03*
X006577Y004512D03*
X006577Y004511D03*
X006577Y004510D03*
X006577Y004509D03*
X006577Y004508D03*
X006577Y004507D03*
X006577Y004506D03*
X006577Y004505D03*
X006577Y004504D03*
X006577Y004503D03*
X006577Y004502D03*
X006577Y004501D03*
X006577Y004500D03*
X006577Y004499D03*
X006577Y004498D03*
X006577Y004497D03*
X006577Y004496D03*
X006577Y004495D03*
X006577Y004494D03*
X006577Y004493D03*
X006577Y004492D03*
X006577Y004491D03*
X006577Y004490D03*
X006577Y004489D03*
X006577Y004488D03*
X006577Y004487D03*
X006577Y004486D03*
X006577Y004485D03*
X006577Y004484D03*
X006577Y004483D03*
X006577Y004482D03*
X006577Y004481D03*
X006577Y004480D03*
X006577Y004479D03*
X006577Y004478D03*
X006577Y004477D03*
X006577Y004476D03*
X006577Y004475D03*
X006577Y004474D03*
X006577Y004473D03*
X006577Y004472D03*
X006577Y004471D03*
X006577Y004470D03*
X006577Y004469D03*
X006577Y004468D03*
X006577Y004467D03*
X006577Y004466D03*
X006577Y004465D03*
X006577Y004464D03*
X006577Y004463D03*
X006577Y004462D03*
X006577Y004461D03*
X006577Y004460D03*
X006577Y004459D03*
X006577Y004458D03*
X006577Y004457D03*
X006577Y004456D03*
X006577Y004455D03*
X006577Y004454D03*
X006577Y004453D03*
X006577Y004452D03*
X006577Y004451D03*
X006577Y004450D03*
X006577Y004449D03*
X006577Y004448D03*
X006577Y004447D03*
X006577Y004446D03*
X006577Y004445D03*
X006577Y004444D03*
X006577Y004443D03*
X006577Y004442D03*
X006577Y004441D03*
X006577Y004440D03*
X006577Y004439D03*
X006577Y004438D03*
X006577Y004437D03*
X006577Y004436D03*
X006577Y004435D03*
X006577Y004434D03*
X006577Y004433D03*
X006577Y004432D03*
X006577Y004431D03*
X006577Y004430D03*
X006577Y004429D03*
X006577Y004428D03*
X006577Y004427D03*
X006577Y004426D03*
X006577Y004425D03*
X006577Y004424D03*
X006577Y004423D03*
X006577Y004422D03*
X006577Y004421D03*
X006577Y004420D03*
X006577Y004419D03*
X006577Y004418D03*
X006577Y004417D03*
X006577Y004416D03*
X006577Y004415D03*
X006577Y004414D03*
X006577Y004413D03*
X006577Y004412D03*
X006577Y004411D03*
X006577Y004410D03*
X006577Y004409D03*
X006577Y004408D03*
X006577Y004407D03*
X006577Y004406D03*
X006577Y004405D03*
X006577Y004404D03*
X006577Y004403D03*
X006577Y004402D03*
X006577Y004401D03*
X006577Y004400D03*
X006577Y004399D03*
X006577Y004398D03*
X006577Y004397D03*
X006577Y004396D03*
X006577Y004395D03*
X006577Y004394D03*
X006577Y004393D03*
X006577Y004392D03*
X006577Y004391D03*
X006577Y004390D03*
X006577Y004389D03*
X006577Y004388D03*
X006577Y004387D03*
X006577Y004386D03*
X006577Y004385D03*
X006577Y004384D03*
X006577Y004383D03*
X006577Y004382D03*
X006577Y004381D03*
X006577Y004380D03*
X006577Y004379D03*
X006577Y004378D03*
X006577Y004377D03*
X006577Y004376D03*
X006577Y004375D03*
X006577Y004374D03*
X006577Y004373D03*
X006577Y004372D03*
X006577Y004371D03*
X006577Y004370D03*
X006577Y004369D03*
X006577Y004368D03*
X006577Y004367D03*
X006577Y004366D03*
X006577Y004365D03*
X006577Y004364D03*
X006577Y004363D03*
X006577Y004362D03*
X006577Y004361D03*
X006577Y004360D03*
X006577Y004359D03*
X006577Y004358D03*
X006577Y004357D03*
X006577Y004356D03*
X006577Y004355D03*
X006577Y004354D03*
X006577Y004353D03*
X006577Y004352D03*
X006577Y004351D03*
X006577Y004350D03*
X006577Y004349D03*
X006577Y004348D03*
X006577Y004347D03*
X006577Y004346D03*
X006577Y004345D03*
X006577Y004344D03*
X006577Y004343D03*
X006577Y004342D03*
X006577Y004341D03*
X006577Y004340D03*
X006577Y004339D03*
X006577Y004338D03*
X006577Y004337D03*
X006577Y004336D03*
X006577Y004335D03*
X006577Y004334D03*
X006577Y004333D03*
X006577Y004332D03*
X006577Y004331D03*
X006577Y004330D03*
X006577Y004329D03*
X006577Y004328D03*
X006577Y004327D03*
X006577Y004326D03*
X006577Y004325D03*
X006577Y004324D03*
X006577Y004323D03*
X006577Y004322D03*
X006577Y004321D03*
X006577Y004320D03*
X006577Y004319D03*
X006577Y004318D03*
X006577Y004317D03*
X006577Y004316D03*
X006577Y004315D03*
X006577Y004314D03*
X006577Y004313D03*
X006577Y004312D03*
X006577Y004311D03*
X006577Y004310D03*
X006577Y004309D03*
X006577Y004308D03*
X006577Y004307D03*
X006577Y004306D03*
X006577Y004305D03*
X006577Y004304D03*
X006577Y004303D03*
X006577Y004302D03*
X006577Y004301D03*
X006577Y004300D03*
X006577Y004299D03*
X006577Y004298D03*
D311*
X007686Y004299D03*
X007686Y004300D03*
X007686Y004301D03*
X007686Y004302D03*
X007686Y004303D03*
X007686Y004304D03*
X007686Y004305D03*
X007686Y004306D03*
X007686Y004307D03*
X007686Y004308D03*
X007686Y004309D03*
X007686Y004310D03*
X007686Y004311D03*
X007686Y004312D03*
X007686Y004313D03*
X007686Y004314D03*
X007686Y004315D03*
X007686Y004316D03*
X007686Y004317D03*
X007686Y004318D03*
X007686Y004319D03*
X007686Y004320D03*
X007686Y004321D03*
X007686Y004322D03*
X007686Y004323D03*
X007686Y004324D03*
X007686Y004325D03*
X007686Y004326D03*
X007686Y004327D03*
X007686Y004328D03*
X007686Y004329D03*
X007686Y004330D03*
X007686Y004331D03*
X007686Y004332D03*
X007686Y004333D03*
X007686Y004334D03*
X007686Y004335D03*
X007686Y004336D03*
X007686Y004337D03*
X007686Y004338D03*
X007686Y004339D03*
X007686Y004340D03*
X007686Y004341D03*
X007686Y004342D03*
X007686Y004343D03*
X007686Y004344D03*
X007686Y004345D03*
X007686Y004346D03*
X007686Y004347D03*
X007686Y004348D03*
X007686Y004349D03*
X007686Y004350D03*
X007686Y004351D03*
X007686Y004352D03*
X007686Y004353D03*
X007686Y004354D03*
X007686Y004355D03*
X007686Y004356D03*
X007686Y004357D03*
X007686Y004358D03*
X007686Y004359D03*
X007686Y004360D03*
X007686Y004361D03*
X007686Y004362D03*
X007686Y004363D03*
X007686Y004364D03*
X007686Y004365D03*
X007686Y004366D03*
X007686Y004367D03*
X007686Y004368D03*
X007686Y004369D03*
X007686Y004370D03*
X007686Y004371D03*
X007686Y004372D03*
X007686Y004373D03*
X007686Y004374D03*
X007686Y004375D03*
X007686Y004376D03*
X007686Y004377D03*
X007686Y004378D03*
X007686Y004379D03*
X007686Y004380D03*
X007686Y004381D03*
X007686Y004382D03*
X007686Y004383D03*
X007686Y004384D03*
X007686Y004385D03*
X007686Y004386D03*
X007686Y004387D03*
X007686Y004388D03*
X007686Y004389D03*
X007686Y004390D03*
X007686Y004391D03*
X007686Y004392D03*
X007686Y004393D03*
X007686Y004394D03*
X007686Y004395D03*
X007686Y004396D03*
X007686Y004397D03*
X007686Y004398D03*
X007686Y004399D03*
X007686Y004400D03*
X007686Y004401D03*
X007686Y004402D03*
X007686Y004403D03*
X007686Y004404D03*
X007686Y004405D03*
X007686Y004406D03*
X007686Y004407D03*
X007686Y004408D03*
X007686Y004409D03*
X007686Y004410D03*
X007686Y004411D03*
X007686Y004412D03*
X007686Y004413D03*
X007686Y004414D03*
X007686Y004415D03*
X007686Y004416D03*
X007686Y004417D03*
X007686Y004418D03*
X007686Y004419D03*
X007686Y004420D03*
X007686Y004421D03*
X007686Y004422D03*
X007686Y004423D03*
X007686Y004424D03*
X007686Y004425D03*
X007686Y004426D03*
X007686Y004427D03*
X007686Y004428D03*
X007686Y004429D03*
X007686Y004430D03*
X007686Y004431D03*
X007686Y004432D03*
X007686Y004433D03*
X007686Y004434D03*
X007686Y004435D03*
X007686Y004436D03*
X007686Y004437D03*
X007686Y004438D03*
X007686Y004439D03*
X007686Y004440D03*
X007686Y004441D03*
X007686Y004442D03*
X007686Y004443D03*
X007686Y004444D03*
X007686Y004445D03*
X007686Y004446D03*
X007686Y004447D03*
X007686Y004448D03*
X007686Y004449D03*
X007686Y004450D03*
X007686Y004451D03*
X007686Y004452D03*
X007686Y004453D03*
X007686Y004454D03*
X007686Y004455D03*
X007686Y004456D03*
X007686Y004457D03*
X007686Y004458D03*
X007686Y004459D03*
X007686Y004460D03*
X007686Y004461D03*
X007686Y004462D03*
X007686Y004463D03*
X007686Y004464D03*
X007686Y004465D03*
X007686Y004466D03*
X007686Y004467D03*
X007686Y004468D03*
X007686Y004469D03*
X007686Y004470D03*
X007686Y004471D03*
X007686Y004472D03*
X007686Y004473D03*
X007686Y004474D03*
X007686Y004475D03*
X007686Y004476D03*
X007686Y004477D03*
X007686Y004478D03*
X007686Y004479D03*
X007686Y004480D03*
X007686Y004481D03*
X007686Y004482D03*
X007686Y004483D03*
X007686Y004484D03*
X007686Y004485D03*
X007686Y004486D03*
X007686Y004487D03*
X007686Y004488D03*
X007686Y004489D03*
X007686Y004490D03*
X007686Y004491D03*
X007686Y004492D03*
X007686Y004493D03*
X007686Y004494D03*
X007686Y004495D03*
X007686Y004496D03*
X007686Y004497D03*
X007686Y004498D03*
X007686Y004499D03*
X007686Y004500D03*
X007686Y004501D03*
X007686Y004502D03*
X007686Y004503D03*
X007686Y004504D03*
X007686Y004505D03*
X007686Y004506D03*
X007686Y004507D03*
X007686Y004508D03*
X007686Y004509D03*
X007686Y004510D03*
X007686Y004511D03*
X007686Y004512D03*
X007686Y004513D03*
X007686Y004514D03*
X007686Y004515D03*
X007686Y004516D03*
X007686Y004517D03*
X007686Y004518D03*
X007686Y004519D03*
X007686Y004520D03*
X007686Y004521D03*
X007686Y004522D03*
X007686Y004523D03*
X007686Y004524D03*
X007686Y004525D03*
X007686Y004526D03*
X007686Y004527D03*
X007686Y004528D03*
X007686Y004529D03*
X007686Y004530D03*
X007686Y004531D03*
X007686Y004532D03*
X007686Y004533D03*
X007686Y004534D03*
X007686Y004535D03*
X007686Y004536D03*
X007686Y004537D03*
X007686Y004538D03*
X007686Y004539D03*
X007686Y004540D03*
X007686Y004541D03*
X007686Y004542D03*
X007686Y004543D03*
X007686Y004544D03*
X007686Y004545D03*
X007686Y004546D03*
X007686Y004547D03*
X007686Y004548D03*
X007686Y004549D03*
X007686Y004550D03*
X007686Y004551D03*
X007686Y004552D03*
X007686Y004553D03*
X007686Y004554D03*
X007686Y004298D03*
D312*
X007123Y004628D03*
X007123Y004629D03*
D313*
X007124Y004630D03*
X007124Y004631D03*
X007124Y004632D03*
X007124Y004633D03*
X007124Y004634D03*
X007124Y004635D03*
X007124Y004636D03*
D314*
X007124Y004637D03*
D315*
X007124Y004638D03*
X007124Y004639D03*
X007124Y004640D03*
X007124Y004641D03*
X007124Y004642D03*
D316*
X007124Y004643D03*
X007124Y004644D03*
D317*
X007124Y004645D03*
X007124Y004646D03*
X007124Y004647D03*
X007124Y004648D03*
D318*
X007124Y004649D03*
X007124Y004650D03*
D319*
X007124Y004651D03*
X007124Y004652D03*
X007124Y004653D03*
D320*
X007124Y004654D03*
X007124Y004655D03*
D321*
X007124Y004656D03*
X007124Y004657D03*
X007124Y004658D03*
D322*
X007124Y004659D03*
X007124Y004660D03*
D323*
X007124Y004661D03*
X007124Y004662D03*
X007124Y004663D03*
D324*
X007124Y004664D03*
D325*
X007124Y004665D03*
X007124Y004666D03*
X007124Y004667D03*
X007124Y004668D03*
D326*
X007124Y004669D03*
X007124Y004670D03*
X007124Y004671D03*
X007124Y004672D03*
D327*
X007124Y004673D03*
X007124Y004674D03*
X007124Y004675D03*
X007124Y004676D03*
D328*
X007124Y004677D03*
X007124Y004678D03*
X007124Y004679D03*
X007124Y004680D03*
D329*
X007124Y004681D03*
X007124Y004682D03*
X007124Y004683D03*
X007124Y004684D03*
D330*
X007124Y004685D03*
X007124Y004686D03*
X007124Y004687D03*
D331*
X007123Y004688D03*
D332*
X007124Y004689D03*
X007124Y004690D03*
D333*
X007123Y004691D03*
D334*
X007124Y004692D03*
X007124Y004693D03*
X007124Y004694D03*
D335*
X007123Y004695D03*
D336*
X007124Y004696D03*
X007124Y004697D03*
D337*
X007123Y004698D03*
D338*
X007124Y004699D03*
X007124Y004700D03*
D339*
X007123Y004701D03*
D340*
X007124Y004702D03*
X007124Y004703D03*
D341*
X007123Y004704D03*
D342*
X007124Y004705D03*
D343*
X007123Y004706D03*
D344*
X007124Y004707D03*
X007124Y004708D03*
D345*
X007123Y004709D03*
D346*
X007124Y004710D03*
X007124Y004711D03*
D347*
X007123Y004712D03*
D348*
X007124Y004713D03*
D349*
X007123Y004714D03*
D350*
X007124Y004715D03*
X007124Y004716D03*
D351*
X007123Y004717D03*
D352*
X007124Y004718D03*
D353*
X007123Y004719D03*
D354*
X007123Y004720D03*
D355*
X007123Y004721D03*
D356*
X007124Y004722D03*
D357*
X007124Y004723D03*
D358*
X007124Y004724D03*
D359*
X007124Y004725D03*
D360*
X007124Y004726D03*
D361*
X007124Y004727D03*
D362*
X007124Y004728D03*
D363*
X007124Y004729D03*
D364*
X007124Y004730D03*
D365*
X007124Y004731D03*
D366*
X007124Y004732D03*
D367*
X007124Y004733D03*
D368*
X007124Y004734D03*
D369*
X007124Y004735D03*
D370*
X007124Y004736D03*
D371*
X007124Y004737D03*
D372*
X007124Y004738D03*
D373*
X007124Y004739D03*
D374*
X007124Y004740D03*
D375*
X007124Y004741D03*
D376*
X007124Y004742D03*
D377*
X007124Y004743D03*
D378*
X007124Y004744D03*
D379*
X007124Y004745D03*
D380*
X007124Y004746D03*
D381*
X007124Y004747D03*
D382*
X007124Y004748D03*
D383*
X007124Y004749D03*
D384*
X007124Y004750D03*
D385*
X007124Y004751D03*
D386*
X007124Y004752D03*
D387*
X007124Y004753D03*
D388*
X007123Y004754D03*
D389*
X007123Y004755D03*
D390*
X007123Y004756D03*
D391*
X007123Y004757D03*
D392*
X007123Y004758D03*
D393*
X007123Y004759D03*
D394*
X007123Y004760D03*
D395*
X007123Y004761D03*
D396*
X007123Y004762D03*
D397*
X007123Y004763D03*
D398*
X007123Y004764D03*
D399*
X007123Y004765D03*
D400*
X007123Y004766D03*
D401*
X007123Y004767D03*
D402*
X007123Y004768D03*
D403*
X007123Y004769D03*
D404*
X007123Y004770D03*
D405*
X007124Y004771D03*
D406*
X007124Y004772D03*
D407*
X007124Y004773D03*
D408*
X007124Y004774D03*
D409*
X007124Y004775D03*
D410*
X007124Y004776D03*
D411*
X007124Y004777D03*
D412*
X007124Y004778D03*
D413*
X007124Y004779D03*
D414*
X007124Y004780D03*
D415*
X007124Y004781D03*
D416*
X007124Y004782D03*
D417*
X007124Y004783D03*
D418*
X007124Y004784D03*
D419*
X007124Y004785D03*
D420*
X007124Y004786D03*
D421*
X007124Y004787D03*
D422*
X007124Y004788D03*
D423*
X007124Y004789D03*
D424*
X007124Y004790D03*
D425*
X007124Y004791D03*
D426*
X007124Y004792D03*
D427*
X007124Y004793D03*
D428*
X007124Y004794D03*
D429*
X007124Y004795D03*
D430*
X007124Y004796D03*
D431*
X007124Y004797D03*
D432*
X007124Y004798D03*
D433*
X007124Y004799D03*
D434*
X007124Y004800D03*
D435*
X007124Y004801D03*
D436*
X007124Y004802D03*
D437*
X007123Y004803D03*
D438*
X007123Y004804D03*
D439*
X007123Y004805D03*
D440*
X007123Y004806D03*
D441*
X007123Y004807D03*
D442*
X007123Y004808D03*
D443*
X007123Y004809D03*
D444*
X007123Y004810D03*
D445*
X007123Y004811D03*
D446*
X007123Y004812D03*
D447*
X007123Y004813D03*
D448*
X007123Y004814D03*
D449*
X007123Y004815D03*
D450*
X007123Y004816D03*
D451*
X007123Y004817D03*
D452*
X007123Y004818D03*
D453*
X007123Y004819D03*
D454*
X007124Y004820D03*
D455*
X007124Y004821D03*
D456*
X007124Y004822D03*
D457*
X007124Y004823D03*
D458*
X007124Y004824D03*
D459*
X007124Y004825D03*
D460*
X007124Y004826D03*
D461*
X007124Y004827D03*
D462*
X007124Y004828D03*
D463*
X007124Y004829D03*
D464*
X007124Y004830D03*
D465*
X007124Y004831D03*
D466*
X007124Y004832D03*
D467*
X007124Y004833D03*
D468*
X007124Y004834D03*
D469*
X007124Y004835D03*
D470*
X007124Y004836D03*
D471*
X007124Y004837D03*
D472*
X007124Y004838D03*
D473*
X007124Y004839D03*
D474*
X007124Y004840D03*
D475*
X007124Y004841D03*
D476*
X007124Y004842D03*
D477*
X007124Y004843D03*
D478*
X007124Y004844D03*
D479*
X007124Y004845D03*
D480*
X007124Y004846D03*
D481*
X007124Y004847D03*
D482*
X007124Y004848D03*
D483*
X007124Y004849D03*
D484*
X007124Y004850D03*
D485*
X007124Y004851D03*
D486*
X007124Y004852D03*
D487*
X007123Y004853D03*
D488*
X007123Y004854D03*
D489*
X007123Y004855D03*
D490*
X007123Y004856D03*
D491*
X007123Y004857D03*
D492*
X007123Y004858D03*
D493*
X007123Y004859D03*
D494*
X007123Y004860D03*
D495*
X007123Y004861D03*
D496*
X007123Y004862D03*
D497*
X007123Y004863D03*
D498*
X007123Y004864D03*
D499*
X007123Y004865D03*
D500*
X007123Y004866D03*
D501*
X007123Y004867D03*
D502*
X007124Y004868D03*
D503*
X007124Y004869D03*
D504*
X007124Y004870D03*
D505*
X007124Y004871D03*
D506*
X007124Y004872D03*
D507*
X007124Y004873D03*
D508*
X007124Y004874D03*
D509*
X007124Y004875D03*
D510*
X007124Y004876D03*
D511*
X007124Y004877D03*
D512*
X007124Y004878D03*
D513*
X007124Y004879D03*
D514*
X007124Y004880D03*
D515*
X007124Y004881D03*
D516*
X007124Y004882D03*
D517*
X007124Y004883D03*
D518*
X007124Y004884D03*
D519*
X007124Y004885D03*
D520*
X007124Y004886D03*
D521*
X007124Y004887D03*
D522*
X007124Y004888D03*
D523*
X007124Y004889D03*
D524*
X007124Y004890D03*
D525*
X007124Y004891D03*
D526*
X007124Y004892D03*
D527*
X007124Y004893D03*
D528*
X007124Y004894D03*
D529*
X007124Y004895D03*
D530*
X007124Y004896D03*
D531*
X007124Y004897D03*
D532*
X007124Y004898D03*
D533*
X007124Y004899D03*
D534*
X007124Y004900D03*
D535*
X007124Y004901D03*
D536*
X007123Y004902D03*
D537*
X007123Y004903D03*
D538*
X007123Y004904D03*
D539*
X007123Y004905D03*
D540*
X007123Y004906D03*
D541*
X007123Y004907D03*
D542*
X007123Y004908D03*
D543*
X007123Y004909D03*
D544*
X007123Y004910D03*
D545*
X007123Y004911D03*
D546*
X007123Y004912D03*
D547*
X007123Y004913D03*
D548*
X007123Y004914D03*
D549*
X007123Y004915D03*
D550*
X007123Y004916D03*
D551*
X007124Y004917D03*
D552*
X007124Y004918D03*
D553*
X007124Y004919D03*
D554*
X007124Y004920D03*
D555*
X007124Y004921D03*
D556*
X007124Y004922D03*
D557*
X007124Y004923D03*
D558*
X007124Y004924D03*
D559*
X007124Y004925D03*
D560*
X007124Y004926D03*
D561*
X007124Y004927D03*
D562*
X007124Y004928D03*
D563*
X007124Y004929D03*
D564*
X007124Y004930D03*
D565*
X007124Y004931D03*
D566*
X007124Y004932D03*
D567*
X007124Y004933D03*
D568*
X007124Y004934D03*
D569*
X007124Y004935D03*
D570*
X007124Y004936D03*
D571*
X007124Y004937D03*
D572*
X007124Y004938D03*
D573*
X007124Y004939D03*
D574*
X007124Y004940D03*
D575*
X007124Y004941D03*
D576*
X007124Y004942D03*
D577*
X007124Y004943D03*
D578*
X007124Y004944D03*
D579*
X007124Y004945D03*
D580*
X007124Y004946D03*
D581*
X007124Y004947D03*
D582*
X007124Y004948D03*
D583*
X007124Y004949D03*
D584*
X007124Y004950D03*
D585*
X007123Y004951D03*
D586*
X007123Y004952D03*
D587*
X007123Y004953D03*
D588*
X007123Y004954D03*
D589*
X007123Y004955D03*
D590*
X007123Y004956D03*
D591*
X007123Y004957D03*
D592*
X007123Y004958D03*
D593*
X007123Y004959D03*
D594*
X007123Y004960D03*
D595*
X007123Y004961D03*
D596*
X007123Y004962D03*
D597*
X007123Y004963D03*
D598*
X007123Y004964D03*
D599*
X007123Y004965D03*
D600*
X007124Y004966D03*
D601*
X007124Y004967D03*
D602*
X007124Y004968D03*
D603*
X007124Y004969D03*
D604*
X007124Y004970D03*
D605*
X007124Y004971D03*
D606*
X007124Y004972D03*
D607*
X007124Y004973D03*
D608*
X007124Y004974D03*
D609*
X007124Y004975D03*
D610*
X007124Y004976D03*
D611*
X007124Y004977D03*
D612*
X007124Y004978D03*
D613*
X007124Y004979D03*
D614*
X007124Y004980D03*
D615*
X007124Y004981D03*
D616*
X007124Y004982D03*
D617*
X007124Y004983D03*
D618*
X007124Y004984D03*
D619*
X007124Y004985D03*
D620*
X007124Y004986D03*
D621*
X007124Y004987D03*
D622*
X007123Y004988D03*
D623*
X007124Y004989D03*
D624*
X007124Y004990D03*
D625*
X007124Y004991D03*
D626*
X007124Y004992D03*
D627*
X007124Y004993D03*
D628*
X007123Y004994D03*
D629*
X007123Y004995D03*
D630*
X007123Y004996D03*
D631*
X007123Y004997D03*
D632*
X007123Y004998D03*
D633*
X007123Y004999D03*
D634*
X007123Y005000D03*
D635*
X007123Y005001D03*
D636*
X007123Y005002D03*
D637*
X007123Y005003D03*
D638*
X007123Y005004D03*
D639*
X007122Y005005D03*
D640*
X007122Y005006D03*
D641*
X007122Y005007D03*
D642*
X007121Y005008D03*
D643*
X006117Y002901D02*
X006117Y002901D01*
X006117Y002900D01*
X006116Y002900D01*
X006116Y002899D02*
X006116Y002901D01*
X006117Y002901D01*
X006117Y002900D02*
X006117Y002900D01*
X006115Y002901D02*
X006115Y002900D01*
X006115Y002901D01*
X006115Y002901D01*
X006115Y002901D01*
X006114Y002901D01*
X006114Y002901D01*
X006114Y002900D01*
X006113Y002900D02*
X006113Y002901D01*
X006112Y002901D01*
X006111Y002900D02*
X006111Y002900D01*
X006111Y002900D01*
X006111Y002900D01*
X006111Y002900D01*
X006111Y002901D01*
X006110Y002901D01*
X006110Y002901D01*
X006109Y002901D01*
X006109Y002900D01*
X006108Y002900D01*
X006107Y002900D01*
X006107Y002901D01*
X006107Y002901D01*
X006107Y002900D01*
X006107Y002900D01*
X006106Y002900D01*
X006106Y002900D01*
X006106Y002901D01*
X006106Y002901D01*
X006107Y002901D01*
X006108Y002901D01*
X006109Y002901D01*
X006109Y002900D01*
X006108Y002899D01*
X006108Y002899D01*
X006109Y002900D02*
X006110Y002900D01*
X006111Y002900D01*
X006110Y002900D02*
X006110Y002900D01*
X006112Y002900D02*
X006113Y002900D01*
X006113Y002900D01*
X006112Y002900D02*
X006112Y002902D01*
X006113Y002901D02*
X006113Y002901D01*
X006105Y002900D02*
X006104Y002900D01*
X006103Y002900D01*
X006102Y002900D02*
X006101Y002900D01*
X006100Y002900D01*
X006099Y002900D01*
X006100Y002901D01*
X006101Y002901D01*
X006101Y002900D01*
X006102Y002901D02*
X006102Y002900D01*
X006101Y002901D02*
X006102Y002901D01*
X006102Y002902D02*
X006102Y002902D01*
X006101Y002901D02*
X006100Y002901D01*
X006100Y002901D01*
X006099Y002902D02*
X006098Y002900D01*
X006097Y002900D02*
X006097Y002901D01*
X006097Y002901D01*
X006096Y002901D01*
X006096Y002900D01*
X006096Y002900D01*
X006097Y002900D01*
X006097Y002900D01*
X006096Y002901D02*
X006096Y002901D01*
X006095Y002901D02*
X006094Y002901D01*
X006094Y002900D01*
X006095Y002900D01*
X006094Y002900D02*
X006094Y002900D01*
X006093Y002900D02*
X006093Y002901D01*
X006092Y002901D01*
X006092Y002901D01*
X006092Y002901D01*
X006093Y002901D01*
X006093Y002900D02*
X006093Y002900D01*
X006092Y002900D01*
X006091Y002900D01*
X006091Y002901D01*
X006091Y002901D01*
X006090Y002901D02*
X006089Y002900D01*
X006089Y002901D02*
X006090Y002900D01*
X006091Y002902D02*
X006091Y002902D01*
X006089Y002902D02*
X006087Y002900D01*
X006086Y002900D02*
X006086Y002900D01*
X006085Y002900D01*
X006085Y002901D01*
X006085Y002901D01*
X006086Y002901D01*
X006086Y002901D01*
X006087Y002901D01*
X006087Y002901D01*
X006085Y002901D01*
X006085Y002900D01*
X006084Y002901D02*
X006084Y002900D01*
X006084Y002901D01*
X006085Y002901D01*
X006084Y002901D02*
X006084Y002901D01*
X006084Y002901D01*
X006083Y002901D02*
X006083Y002901D01*
X006083Y002900D01*
X006083Y002900D01*
X006082Y002900D01*
X006082Y002900D01*
X006082Y002901D01*
X006082Y002901D01*
X006083Y002901D01*
X006081Y002901D02*
X006081Y002900D01*
X006081Y002901D02*
X006081Y002901D01*
X006080Y002901D01*
X006080Y002901D01*
X006080Y002902D02*
X006080Y002900D01*
X006078Y002900D02*
X006079Y002902D01*
X006094Y002901D02*
X006094Y002901D01*
X006104Y002902D02*
X006105Y002902D01*
X006105Y002900D01*
M02*
