G75*
%MOIN*%
%OFA0B0*%
%FSLAX24Y24*%
%IPPOS*%
%LPD*%
%AMOC8*
5,1,8,0,0,1.08239X$1,22.5*
%
%ADD10C,0.0100*%
%ADD11C,0.0050*%
%ADD12C,0.0080*%
%ADD13R,0.0300X0.0180*%
%ADD14R,0.0674X0.0001*%
%ADD15R,0.0674X0.0001*%
%ADD16R,0.0687X0.0001*%
%ADD17R,0.0687X0.0001*%
%ADD18R,0.0695X0.0001*%
%ADD19R,0.0694X0.0001*%
%ADD20R,0.0701X0.0001*%
%ADD21R,0.0700X0.0001*%
%ADD22R,0.0705X0.0001*%
%ADD23R,0.0710X0.0001*%
%ADD24R,0.0709X0.0001*%
%ADD25R,0.0713X0.0001*%
%ADD26R,0.0717X0.0001*%
%ADD27R,0.0717X0.0001*%
%ADD28R,0.0720X0.0001*%
%ADD29R,0.0723X0.0001*%
%ADD30R,0.0726X0.0001*%
%ADD31R,0.0725X0.0001*%
%ADD32R,0.0729X0.0001*%
%ADD33R,0.0728X0.0001*%
%ADD34R,0.0731X0.0001*%
%ADD35R,0.0733X0.0001*%
%ADD36R,0.0735X0.0001*%
%ADD37R,0.0737X0.0001*%
%ADD38R,0.0737X0.0001*%
%ADD39R,0.0739X0.0001*%
%ADD40R,0.0741X0.0001*%
%ADD41R,0.0743X0.0001*%
%ADD42R,0.0745X0.0001*%
%ADD43R,0.0744X0.0001*%
%ADD44R,0.0746X0.0001*%
%ADD45R,0.0748X0.0001*%
%ADD46R,0.0747X0.0001*%
%ADD47R,0.0749X0.0001*%
%ADD48R,0.0751X0.0001*%
%ADD49R,0.0750X0.0001*%
%ADD50R,0.0753X0.0001*%
%ADD51R,0.0754X0.0001*%
%ADD52R,0.0755X0.0001*%
%ADD53R,0.0756X0.0001*%
%ADD54R,0.0757X0.0001*%
%ADD55R,0.0757X0.0001*%
%ADD56R,0.0758X0.0001*%
%ADD57R,0.0759X0.0001*%
%ADD58R,0.0761X0.0001*%
%ADD59R,0.0760X0.0001*%
%ADD60R,0.0762X0.0001*%
%ADD61R,0.0763X0.0001*%
%ADD62R,0.0764X0.0001*%
%ADD63R,0.0764X0.0001*%
%ADD64R,0.0765X0.0001*%
%ADD65R,0.0766X0.0001*%
%ADD66R,0.0752X0.0001*%
%ADD67R,0.0747X0.0001*%
%ADD68R,0.0742X0.0001*%
%ADD69R,0.0740X0.0001*%
%ADD70R,0.0738X0.0001*%
%ADD71R,0.0736X0.0001*%
%ADD72R,0.0734X0.0001*%
%ADD73R,0.0732X0.0001*%
%ADD74R,0.0727X0.0001*%
%ADD75R,0.0724X0.0001*%
%ADD76R,0.0721X0.0001*%
%ADD77R,0.0718X0.0001*%
%ADD78R,0.0714X0.0001*%
%ADD79R,0.0711X0.0001*%
%ADD80R,0.0730X0.0001*%
%ADD81R,0.0707X0.0001*%
%ADD82R,0.0702X0.0001*%
%ADD83R,0.0696X0.0001*%
%ADD84R,0.0690X0.0001*%
%ADD85R,0.0680X0.0001*%
%ADD86R,0.0516X0.0001*%
%ADD87R,0.0515X0.0001*%
%ADD88R,0.0514X0.0001*%
%ADD89R,0.0675X0.0001*%
%ADD90R,0.0479X0.0001*%
%ADD91R,0.0513X0.0001*%
%ADD92R,0.0478X0.0001*%
%ADD93R,0.0512X0.0001*%
%ADD94R,0.0511X0.0001*%
%ADD95R,0.0477X0.0001*%
%ADD96R,0.0510X0.0001*%
%ADD97R,0.0476X0.0001*%
%ADD98R,0.0509X0.0001*%
%ADD99R,0.0475X0.0001*%
%ADD100R,0.0508X0.0001*%
%ADD101R,0.0474X0.0001*%
%ADD102R,0.0507X0.0001*%
%ADD103R,0.0506X0.0001*%
%ADD104R,0.0473X0.0001*%
%ADD105R,0.0505X0.0001*%
%ADD106R,0.0472X0.0001*%
%ADD107R,0.0504X0.0001*%
%ADD108R,0.0471X0.0001*%
%ADD109R,0.0503X0.0001*%
%ADD110R,0.0470X0.0001*%
%ADD111R,0.0502X0.0001*%
%ADD112R,0.0469X0.0001*%
%ADD113R,0.0501X0.0001*%
%ADD114R,0.0500X0.0001*%
%ADD115R,0.0468X0.0001*%
%ADD116R,0.0499X0.0001*%
%ADD117R,0.0467X0.0001*%
%ADD118R,0.0498X0.0001*%
%ADD119R,0.0466X0.0001*%
%ADD120R,0.0497X0.0001*%
%ADD121R,0.0465X0.0001*%
%ADD122R,0.0496X0.0001*%
%ADD123R,0.0495X0.0001*%
%ADD124R,0.0464X0.0001*%
%ADD125R,0.0494X0.0001*%
%ADD126R,0.0463X0.0001*%
%ADD127R,0.0493X0.0001*%
%ADD128R,0.0462X0.0001*%
%ADD129R,0.0492X0.0001*%
%ADD130R,0.0461X0.0001*%
%ADD131R,0.0491X0.0001*%
%ADD132R,0.0490X0.0001*%
%ADD133R,0.0460X0.0001*%
%ADD134R,0.0489X0.0001*%
%ADD135R,0.0459X0.0001*%
%ADD136R,0.0488X0.0001*%
%ADD137R,0.0458X0.0001*%
%ADD138R,0.0487X0.0001*%
%ADD139R,0.0457X0.0001*%
%ADD140R,0.0486X0.0001*%
%ADD141R,0.0485X0.0001*%
%ADD142R,0.0456X0.0001*%
%ADD143R,0.0484X0.0001*%
%ADD144R,0.0455X0.0001*%
%ADD145R,0.0483X0.0001*%
%ADD146R,0.0454X0.0001*%
%ADD147R,0.0482X0.0001*%
%ADD148R,0.0453X0.0001*%
%ADD149R,0.0481X0.0001*%
%ADD150R,0.0452X0.0001*%
%ADD151R,0.0480X0.0001*%
%ADD152R,0.0451X0.0001*%
%ADD153R,0.0450X0.0001*%
%ADD154R,0.0449X0.0001*%
%ADD155R,0.0448X0.0001*%
%ADD156R,0.0447X0.0001*%
%ADD157R,0.0446X0.0001*%
%ADD158R,0.0445X0.0001*%
%ADD159R,0.0444X0.0001*%
%ADD160R,0.0443X0.0001*%
%ADD161R,0.0442X0.0001*%
%ADD162R,0.0441X0.0001*%
%ADD163R,0.0440X0.0001*%
%ADD164R,0.0439X0.0001*%
%ADD165R,0.0438X0.0001*%
%ADD166R,0.0437X0.0001*%
%ADD167R,0.0436X0.0001*%
%ADD168R,0.0435X0.0001*%
%ADD169R,0.0434X0.0001*%
%ADD170R,0.0433X0.0001*%
%ADD171R,0.0432X0.0001*%
%ADD172R,0.0431X0.0001*%
%ADD173R,0.0430X0.0001*%
%ADD174R,0.0429X0.0001*%
%ADD175R,0.0428X0.0001*%
%ADD176R,0.0427X0.0001*%
%ADD177R,0.0426X0.0001*%
%ADD178R,0.0425X0.0001*%
%ADD179R,0.0424X0.0001*%
%ADD180R,0.0423X0.0001*%
%ADD181R,0.0422X0.0001*%
%ADD182R,0.0421X0.0001*%
%ADD183R,0.0420X0.0001*%
%ADD184R,0.0419X0.0001*%
%ADD185R,0.0418X0.0001*%
%ADD186R,0.0417X0.0001*%
%ADD187R,0.0416X0.0001*%
%ADD188R,0.0415X0.0001*%
%ADD189R,0.0414X0.0001*%
%ADD190R,0.0413X0.0001*%
%ADD191R,0.0412X0.0001*%
%ADD192R,0.0411X0.0001*%
%ADD193R,0.0410X0.0001*%
%ADD194R,0.0409X0.0001*%
%ADD195R,0.0408X0.0001*%
%ADD196R,0.0407X0.0001*%
%ADD197R,0.0406X0.0001*%
%ADD198R,0.0405X0.0001*%
%ADD199R,0.0404X0.0001*%
%ADD200R,0.0403X0.0001*%
%ADD201R,0.0402X0.0001*%
%ADD202R,0.0401X0.0001*%
%ADD203R,0.0400X0.0001*%
%ADD204R,0.0399X0.0001*%
%ADD205R,0.0398X0.0001*%
%ADD206R,0.0397X0.0001*%
%ADD207R,0.0396X0.0001*%
%ADD208R,0.0395X0.0001*%
%ADD209R,0.0394X0.0001*%
%ADD210R,0.0393X0.0001*%
%ADD211R,0.0392X0.0001*%
%ADD212R,0.0391X0.0001*%
%ADD213R,0.0390X0.0001*%
%ADD214R,0.0389X0.0001*%
%ADD215R,0.0388X0.0001*%
%ADD216R,0.0387X0.0001*%
%ADD217R,0.0386X0.0001*%
%ADD218R,0.0385X0.0001*%
%ADD219R,0.0384X0.0001*%
%ADD220R,0.0383X0.0001*%
%ADD221R,0.0382X0.0001*%
%ADD222R,0.0381X0.0001*%
%ADD223R,0.0380X0.0001*%
%ADD224R,0.0379X0.0001*%
%ADD225R,0.0378X0.0001*%
%ADD226R,0.0377X0.0001*%
%ADD227R,0.0376X0.0001*%
%ADD228R,0.0375X0.0001*%
%ADD229R,0.0374X0.0001*%
%ADD230R,0.0373X0.0001*%
%ADD231R,0.0372X0.0001*%
%ADD232R,0.0371X0.0001*%
%ADD233R,0.0370X0.0001*%
%ADD234R,0.0369X0.0001*%
%ADD235R,0.0368X0.0001*%
%ADD236R,0.0367X0.0001*%
%ADD237R,0.0366X0.0001*%
%ADD238R,0.0365X0.0001*%
%ADD239R,0.0364X0.0001*%
%ADD240R,0.0363X0.0001*%
%ADD241R,0.0362X0.0001*%
%ADD242R,0.0361X0.0001*%
%ADD243R,0.0360X0.0001*%
%ADD244R,0.0359X0.0001*%
%ADD245R,0.0358X0.0001*%
%ADD246R,0.0357X0.0001*%
%ADD247R,0.0356X0.0001*%
%ADD248R,0.0355X0.0001*%
%ADD249R,0.0354X0.0001*%
%ADD250R,0.0353X0.0001*%
%ADD251R,0.0352X0.0001*%
%ADD252R,0.0351X0.0001*%
%ADD253R,0.0350X0.0001*%
%ADD254R,0.0349X0.0001*%
%ADD255R,0.0348X0.0001*%
%ADD256R,0.0347X0.0001*%
%ADD257R,0.0346X0.0001*%
%ADD258R,0.0345X0.0001*%
%ADD259R,0.0344X0.0001*%
%ADD260R,0.0343X0.0001*%
%ADD261R,0.0342X0.0001*%
%ADD262R,0.0341X0.0001*%
%ADD263R,0.0340X0.0001*%
%ADD264R,0.0339X0.0001*%
%ADD265R,0.0338X0.0001*%
%ADD266R,0.0337X0.0001*%
%ADD267R,0.0336X0.0001*%
%ADD268R,0.0335X0.0001*%
%ADD269R,0.0334X0.0001*%
%ADD270R,0.0333X0.0001*%
%ADD271R,0.0332X0.0001*%
%ADD272R,0.0331X0.0001*%
%ADD273R,0.0330X0.0001*%
%ADD274R,0.0329X0.0001*%
%ADD275R,0.0328X0.0001*%
%ADD276R,0.0327X0.0001*%
%ADD277R,0.0326X0.0001*%
%ADD278R,0.0325X0.0001*%
%ADD279R,0.0324X0.0001*%
%ADD280R,0.0323X0.0001*%
%ADD281R,0.0322X0.0001*%
%ADD282R,0.0321X0.0001*%
%ADD283R,0.0320X0.0001*%
%ADD284R,0.0319X0.0001*%
%ADD285R,0.0318X0.0001*%
%ADD286R,0.0317X0.0001*%
%ADD287R,0.0316X0.0001*%
%ADD288R,0.0315X0.0001*%
%ADD289R,0.0314X0.0001*%
%ADD290R,0.0313X0.0001*%
%ADD291R,0.0312X0.0001*%
%ADD292R,0.0311X0.0001*%
%ADD293R,0.0310X0.0001*%
%ADD294R,0.0309X0.0001*%
%ADD295R,0.0308X0.0001*%
%ADD296R,0.0307X0.0001*%
%ADD297R,0.0306X0.0001*%
%ADD298R,0.0305X0.0001*%
%ADD299R,0.0304X0.0001*%
%ADD300R,0.0303X0.0001*%
%ADD301R,0.0302X0.0001*%
%ADD302R,0.0301X0.0001*%
%ADD303R,0.0300X0.0001*%
%ADD304R,0.0299X0.0001*%
%ADD305R,0.0298X0.0001*%
%ADD306R,0.0297X0.0001*%
%ADD307R,0.0296X0.0001*%
%ADD308R,0.0519X0.0001*%
%ADD309R,0.1736X0.0001*%
%ADD310R,0.0643X0.0001*%
%ADD311R,0.0611X0.0001*%
%ADD312R,0.1735X0.0001*%
%ADD313R,0.1734X0.0001*%
%ADD314R,0.1733X0.0001*%
%ADD315R,0.1732X0.0001*%
%ADD316R,0.1731X0.0001*%
%ADD317R,0.1730X0.0001*%
%ADD318R,0.1729X0.0001*%
%ADD319R,0.1728X0.0001*%
%ADD320R,0.1727X0.0001*%
%ADD321R,0.1726X0.0001*%
%ADD322R,0.1725X0.0001*%
%ADD323R,0.1724X0.0001*%
%ADD324R,0.1723X0.0001*%
%ADD325R,0.1722X0.0001*%
%ADD326R,0.1720X0.0001*%
%ADD327R,0.1718X0.0001*%
%ADD328R,0.1716X0.0001*%
%ADD329R,0.1714X0.0001*%
%ADD330R,0.1712X0.0001*%
%ADD331R,0.1711X0.0001*%
%ADD332R,0.1710X0.0001*%
%ADD333R,0.1709X0.0001*%
%ADD334R,0.1708X0.0001*%
%ADD335R,0.1707X0.0001*%
%ADD336R,0.1706X0.0001*%
%ADD337R,0.1705X0.0001*%
%ADD338R,0.1704X0.0001*%
%ADD339R,0.1703X0.0001*%
%ADD340R,0.1702X0.0001*%
%ADD341R,0.1701X0.0001*%
%ADD342R,0.1700X0.0001*%
%ADD343R,0.1699X0.0001*%
%ADD344R,0.1698X0.0001*%
%ADD345R,0.1697X0.0001*%
%ADD346R,0.1696X0.0001*%
%ADD347R,0.1695X0.0001*%
%ADD348R,0.1694X0.0001*%
%ADD349R,0.1693X0.0001*%
%ADD350R,0.1692X0.0001*%
%ADD351R,0.1691X0.0001*%
%ADD352R,0.1690X0.0001*%
%ADD353R,0.1689X0.0001*%
%ADD354R,0.1687X0.0001*%
%ADD355R,0.1685X0.0001*%
%ADD356R,0.1682X0.0001*%
%ADD357R,0.1680X0.0001*%
%ADD358R,0.1678X0.0001*%
%ADD359R,0.1676X0.0001*%
%ADD360R,0.1674X0.0001*%
%ADD361R,0.1672X0.0001*%
%ADD362R,0.1670X0.0001*%
%ADD363R,0.1668X0.0001*%
%ADD364R,0.1666X0.0001*%
%ADD365R,0.1664X0.0001*%
%ADD366R,0.1662X0.0001*%
%ADD367R,0.1660X0.0001*%
%ADD368R,0.1658X0.0001*%
%ADD369R,0.1656X0.0001*%
%ADD370R,0.1654X0.0001*%
%ADD371R,0.1652X0.0001*%
%ADD372R,0.1650X0.0001*%
%ADD373R,0.1648X0.0001*%
%ADD374R,0.1646X0.0001*%
%ADD375R,0.1644X0.0001*%
%ADD376R,0.1642X0.0001*%
%ADD377R,0.1640X0.0001*%
%ADD378R,0.1638X0.0001*%
%ADD379R,0.1636X0.0001*%
%ADD380R,0.1634X0.0001*%
%ADD381R,0.1632X0.0001*%
%ADD382R,0.1630X0.0001*%
%ADD383R,0.1628X0.0001*%
%ADD384R,0.1626X0.0001*%
%ADD385R,0.1624X0.0001*%
%ADD386R,0.1622X0.0001*%
%ADD387R,0.1620X0.0001*%
%ADD388R,0.1617X0.0001*%
%ADD389R,0.1615X0.0001*%
%ADD390R,0.1613X0.0001*%
%ADD391R,0.1611X0.0001*%
%ADD392R,0.1609X0.0001*%
%ADD393R,0.1607X0.0001*%
%ADD394R,0.1605X0.0001*%
%ADD395R,0.1603X0.0001*%
%ADD396R,0.1601X0.0001*%
%ADD397R,0.1599X0.0001*%
%ADD398R,0.1597X0.0001*%
%ADD399R,0.1595X0.0001*%
%ADD400R,0.1593X0.0001*%
%ADD401R,0.1591X0.0001*%
%ADD402R,0.1589X0.0001*%
%ADD403R,0.1587X0.0001*%
%ADD404R,0.1585X0.0001*%
%ADD405R,0.1582X0.0001*%
%ADD406R,0.1580X0.0001*%
%ADD407R,0.1578X0.0001*%
%ADD408R,0.1576X0.0001*%
%ADD409R,0.1574X0.0001*%
%ADD410R,0.1572X0.0001*%
%ADD411R,0.1570X0.0001*%
%ADD412R,0.1568X0.0001*%
%ADD413R,0.1566X0.0001*%
%ADD414R,0.1564X0.0001*%
%ADD415R,0.1562X0.0001*%
%ADD416R,0.1560X0.0001*%
%ADD417R,0.1558X0.0001*%
%ADD418R,0.1556X0.0001*%
%ADD419R,0.1554X0.0001*%
%ADD420R,0.1552X0.0001*%
%ADD421R,0.1550X0.0001*%
%ADD422R,0.1548X0.0001*%
%ADD423R,0.1546X0.0001*%
%ADD424R,0.1544X0.0001*%
%ADD425R,0.1542X0.0001*%
%ADD426R,0.1540X0.0001*%
%ADD427R,0.1538X0.0001*%
%ADD428R,0.1536X0.0001*%
%ADD429R,0.1534X0.0001*%
%ADD430R,0.1532X0.0001*%
%ADD431R,0.1530X0.0001*%
%ADD432R,0.1528X0.0001*%
%ADD433R,0.1526X0.0001*%
%ADD434R,0.1524X0.0001*%
%ADD435R,0.1522X0.0001*%
%ADD436R,0.1520X0.0001*%
%ADD437R,0.1517X0.0001*%
%ADD438R,0.1515X0.0001*%
%ADD439R,0.1513X0.0001*%
%ADD440R,0.1511X0.0001*%
%ADD441R,0.1509X0.0001*%
%ADD442R,0.1507X0.0001*%
%ADD443R,0.1505X0.0001*%
%ADD444R,0.1503X0.0001*%
%ADD445R,0.1501X0.0001*%
%ADD446R,0.1499X0.0001*%
%ADD447R,0.1497X0.0001*%
%ADD448R,0.1495X0.0001*%
%ADD449R,0.1493X0.0001*%
%ADD450R,0.1491X0.0001*%
%ADD451R,0.1489X0.0001*%
%ADD452R,0.1487X0.0001*%
%ADD453R,0.1485X0.0001*%
%ADD454R,0.1482X0.0001*%
%ADD455R,0.1480X0.0001*%
%ADD456R,0.1478X0.0001*%
%ADD457R,0.1476X0.0001*%
%ADD458R,0.1474X0.0001*%
%ADD459R,0.1472X0.0001*%
%ADD460R,0.1470X0.0001*%
%ADD461R,0.1468X0.0001*%
%ADD462R,0.1466X0.0001*%
%ADD463R,0.1464X0.0001*%
%ADD464R,0.1462X0.0001*%
%ADD465R,0.1460X0.0001*%
%ADD466R,0.1458X0.0001*%
%ADD467R,0.1456X0.0001*%
%ADD468R,0.1454X0.0001*%
%ADD469R,0.1452X0.0001*%
%ADD470R,0.1450X0.0001*%
%ADD471R,0.1448X0.0001*%
%ADD472R,0.1446X0.0001*%
%ADD473R,0.1444X0.0001*%
%ADD474R,0.1442X0.0001*%
%ADD475R,0.1440X0.0001*%
%ADD476R,0.1438X0.0001*%
%ADD477R,0.1436X0.0001*%
%ADD478R,0.1434X0.0001*%
%ADD479R,0.1432X0.0001*%
%ADD480R,0.1430X0.0001*%
%ADD481R,0.1428X0.0001*%
%ADD482R,0.1426X0.0001*%
%ADD483R,0.1424X0.0001*%
%ADD484R,0.1422X0.0001*%
%ADD485R,0.1420X0.0001*%
%ADD486R,0.1418X0.0001*%
%ADD487R,0.1415X0.0001*%
%ADD488R,0.1413X0.0001*%
%ADD489R,0.1411X0.0001*%
%ADD490R,0.1409X0.0001*%
%ADD491R,0.1407X0.0001*%
%ADD492R,0.1405X0.0001*%
%ADD493R,0.1403X0.0001*%
%ADD494R,0.1401X0.0001*%
%ADD495R,0.1399X0.0001*%
%ADD496R,0.1397X0.0001*%
%ADD497R,0.1395X0.0001*%
%ADD498R,0.1393X0.0001*%
%ADD499R,0.1391X0.0001*%
%ADD500R,0.1389X0.0001*%
%ADD501R,0.1387X0.0001*%
%ADD502R,0.1384X0.0001*%
%ADD503R,0.1382X0.0001*%
%ADD504R,0.1380X0.0001*%
%ADD505R,0.1378X0.0001*%
%ADD506R,0.1376X0.0001*%
%ADD507R,0.1374X0.0001*%
%ADD508R,0.1372X0.0001*%
%ADD509R,0.1370X0.0001*%
%ADD510R,0.1368X0.0001*%
%ADD511R,0.1366X0.0001*%
%ADD512R,0.1364X0.0001*%
%ADD513R,0.1362X0.0001*%
%ADD514R,0.1360X0.0001*%
%ADD515R,0.1358X0.0001*%
%ADD516R,0.1356X0.0001*%
%ADD517R,0.1354X0.0001*%
%ADD518R,0.1352X0.0001*%
%ADD519R,0.1350X0.0001*%
%ADD520R,0.1348X0.0001*%
%ADD521R,0.1346X0.0001*%
%ADD522R,0.1344X0.0001*%
%ADD523R,0.1342X0.0001*%
%ADD524R,0.1340X0.0001*%
%ADD525R,0.1338X0.0001*%
%ADD526R,0.1336X0.0001*%
%ADD527R,0.1334X0.0001*%
%ADD528R,0.1332X0.0001*%
%ADD529R,0.1330X0.0001*%
%ADD530R,0.1328X0.0001*%
%ADD531R,0.1326X0.0001*%
%ADD532R,0.1324X0.0001*%
%ADD533R,0.1322X0.0001*%
%ADD534R,0.1320X0.0001*%
%ADD535R,0.1318X0.0001*%
%ADD536R,0.1315X0.0001*%
%ADD537R,0.1313X0.0001*%
%ADD538R,0.1311X0.0001*%
%ADD539R,0.1309X0.0001*%
%ADD540R,0.1307X0.0001*%
%ADD541R,0.1305X0.0001*%
%ADD542R,0.1303X0.0001*%
%ADD543R,0.1301X0.0001*%
%ADD544R,0.1299X0.0001*%
%ADD545R,0.1297X0.0001*%
%ADD546R,0.1295X0.0001*%
%ADD547R,0.1293X0.0001*%
%ADD548R,0.1291X0.0001*%
%ADD549R,0.1289X0.0001*%
%ADD550R,0.1287X0.0001*%
%ADD551R,0.1284X0.0001*%
%ADD552R,0.1282X0.0001*%
%ADD553R,0.1280X0.0001*%
%ADD554R,0.1278X0.0001*%
%ADD555R,0.1276X0.0001*%
%ADD556R,0.1274X0.0001*%
%ADD557R,0.1272X0.0001*%
%ADD558R,0.1270X0.0001*%
%ADD559R,0.1268X0.0001*%
%ADD560R,0.1266X0.0001*%
%ADD561R,0.1264X0.0001*%
%ADD562R,0.1262X0.0001*%
%ADD563R,0.1260X0.0001*%
%ADD564R,0.1258X0.0001*%
%ADD565R,0.1256X0.0001*%
%ADD566R,0.1254X0.0001*%
%ADD567R,0.1252X0.0001*%
%ADD568R,0.1250X0.0001*%
%ADD569R,0.1248X0.0001*%
%ADD570R,0.1246X0.0001*%
%ADD571R,0.1244X0.0001*%
%ADD572R,0.1242X0.0001*%
%ADD573R,0.1240X0.0001*%
%ADD574R,0.1238X0.0001*%
%ADD575R,0.1236X0.0001*%
%ADD576R,0.1234X0.0001*%
%ADD577R,0.1232X0.0001*%
%ADD578R,0.1230X0.0001*%
%ADD579R,0.1228X0.0001*%
%ADD580R,0.1226X0.0001*%
%ADD581R,0.1224X0.0001*%
%ADD582R,0.1222X0.0001*%
%ADD583R,0.1220X0.0001*%
%ADD584R,0.1218X0.0001*%
%ADD585R,0.1215X0.0001*%
%ADD586R,0.1213X0.0001*%
%ADD587R,0.1211X0.0001*%
%ADD588R,0.1209X0.0001*%
%ADD589R,0.1207X0.0001*%
%ADD590R,0.1205X0.0001*%
%ADD591R,0.1203X0.0001*%
%ADD592R,0.1201X0.0001*%
%ADD593R,0.1199X0.0001*%
%ADD594R,0.1197X0.0001*%
%ADD595R,0.1195X0.0001*%
%ADD596R,0.1193X0.0001*%
%ADD597R,0.1191X0.0001*%
%ADD598R,0.1189X0.0001*%
%ADD599R,0.1187X0.0001*%
%ADD600R,0.1184X0.0001*%
%ADD601R,0.1182X0.0001*%
%ADD602R,0.1180X0.0001*%
%ADD603R,0.1178X0.0001*%
%ADD604R,0.1176X0.0001*%
%ADD605R,0.1174X0.0001*%
%ADD606R,0.1172X0.0001*%
%ADD607R,0.1170X0.0001*%
%ADD608R,0.1168X0.0001*%
%ADD609R,0.1166X0.0001*%
%ADD610R,0.1164X0.0001*%
%ADD611R,0.1162X0.0001*%
%ADD612R,0.1160X0.0001*%
%ADD613R,0.1158X0.0001*%
%ADD614R,0.1156X0.0001*%
%ADD615R,0.1154X0.0001*%
%ADD616R,0.1152X0.0001*%
%ADD617R,0.1150X0.0001*%
%ADD618R,0.1148X0.0001*%
%ADD619R,0.1146X0.0001*%
%ADD620R,0.1142X0.0001*%
%ADD621R,0.1136X0.0001*%
%ADD622R,0.1131X0.0001*%
%ADD623R,0.1126X0.0001*%
%ADD624R,0.1120X0.0001*%
%ADD625R,0.1114X0.0001*%
%ADD626R,0.1108X0.0001*%
%ADD627R,0.1102X0.0001*%
%ADD628R,0.1095X0.0001*%
%ADD629R,0.1089X0.0001*%
%ADD630R,0.1083X0.0001*%
%ADD631R,0.1075X0.0001*%
%ADD632R,0.1067X0.0001*%
%ADD633R,0.1060X0.0001*%
%ADD634R,0.1052X0.0001*%
%ADD635R,0.1044X0.0001*%
%ADD636R,0.1036X0.0001*%
%ADD637R,0.1026X0.0001*%
%ADD638R,0.1016X0.0001*%
%ADD639R,0.1005X0.0001*%
%ADD640R,0.0993X0.0001*%
%ADD641R,0.0977X0.0001*%
%ADD642R,0.0954X0.0001*%
%ADD643C,0.0000*%
D10*
X003016Y001038D02*
X003291Y001038D01*
X003383Y001129D01*
X003383Y001221D01*
X003291Y001313D01*
X003016Y001313D01*
X003016Y001588D02*
X003291Y001588D01*
X003383Y001496D01*
X003383Y001404D01*
X003291Y001313D01*
X003016Y001038D02*
X003016Y001588D01*
X003116Y002013D02*
X003116Y002379D01*
X003299Y002563D01*
X003483Y002379D01*
X003483Y002013D01*
X003483Y002288D02*
X003116Y002288D01*
X003714Y002379D02*
X003806Y002379D01*
X003806Y002013D01*
X003714Y002013D02*
X003898Y002013D01*
X003890Y001588D02*
X003614Y001588D01*
X003614Y001038D01*
X003614Y001221D02*
X003890Y001221D01*
X003981Y001313D01*
X003981Y001496D01*
X003890Y001588D01*
X003798Y001221D02*
X003981Y001038D01*
X004213Y001038D02*
X004580Y001038D01*
X004811Y001038D02*
X004811Y001404D01*
X004995Y001588D01*
X005178Y001404D01*
X005178Y001038D01*
X005178Y001313D02*
X004811Y001313D01*
X004580Y001588D02*
X004213Y001588D01*
X004213Y001038D01*
X004213Y001313D02*
X004396Y001313D01*
X004712Y002013D02*
X004712Y002563D01*
X004987Y002563D01*
X005079Y002471D01*
X005079Y002288D01*
X004987Y002196D01*
X004712Y002196D01*
X004895Y002196D02*
X005079Y002013D01*
X005310Y002013D02*
X005310Y002563D01*
X005677Y002013D01*
X005677Y002563D01*
X005909Y002288D02*
X006276Y002288D01*
X006507Y002288D02*
X006691Y002379D01*
X006783Y002379D01*
X006874Y002288D01*
X006874Y002104D01*
X006783Y002013D01*
X006599Y002013D01*
X006507Y002104D01*
X006507Y002288D02*
X006507Y002563D01*
X006874Y002563D01*
X007106Y002471D02*
X007198Y002563D01*
X007381Y002563D01*
X007473Y002471D01*
X007473Y002379D01*
X007106Y002013D01*
X007473Y002013D01*
X007389Y001588D02*
X007389Y001038D01*
X007206Y001588D02*
X007573Y001588D01*
X006974Y001588D02*
X006974Y001129D01*
X006882Y001038D01*
X006699Y001038D01*
X006607Y001129D01*
X006607Y001588D01*
X006375Y001496D02*
X006375Y001129D01*
X006284Y001038D01*
X006100Y001038D01*
X006009Y001129D01*
X006009Y001496D01*
X006100Y001588D01*
X006284Y001588D01*
X006375Y001496D01*
X005777Y001588D02*
X005410Y001221D01*
X005502Y001313D02*
X005777Y001038D01*
X005410Y001038D02*
X005410Y001588D01*
X003806Y002563D02*
X003806Y002655D01*
D11*
X004885Y000675D02*
X004985Y000475D01*
X005085Y000675D01*
X005207Y000675D02*
X005307Y000775D01*
X005307Y000475D01*
X005207Y000475D02*
X005407Y000475D01*
X005530Y000475D02*
X005580Y000475D01*
X005580Y000525D01*
X005530Y000525D01*
X005530Y000475D01*
X005691Y000475D02*
X005891Y000475D01*
X005791Y000475D02*
X005791Y000775D01*
X005691Y000675D01*
D12*
X000410Y000200D02*
X000160Y000450D01*
X000160Y000950D01*
X000410Y001200D01*
X000160Y001450D01*
X000160Y001950D01*
X000410Y002200D01*
X000160Y002450D01*
X000160Y002950D01*
X000410Y003200D01*
X000160Y003450D01*
X000160Y003950D01*
X000410Y004200D01*
X000160Y004450D01*
X000160Y004950D01*
X000410Y005200D01*
X000160Y005450D01*
X000160Y005950D01*
X000410Y006200D01*
X000160Y006450D01*
X000160Y006950D01*
X000410Y007200D01*
X000160Y007450D01*
X000160Y007950D01*
X000410Y008200D01*
X000160Y008450D01*
X000160Y008950D01*
X000410Y009200D01*
X000160Y009450D01*
X000160Y009950D01*
X000410Y010200D01*
X000160Y010450D01*
X000160Y010950D01*
X000410Y011200D01*
X000160Y011450D01*
X000160Y011950D01*
X000410Y012200D01*
X000160Y012450D01*
X000160Y012950D01*
X000410Y013200D01*
X000160Y013450D01*
X000160Y013950D01*
X000410Y014200D01*
X000160Y014450D01*
X000160Y014950D01*
X000410Y015200D01*
X000160Y015450D01*
X000160Y015950D01*
X000410Y016200D01*
X000160Y016450D01*
X000160Y016950D01*
X000410Y017200D01*
X000160Y017450D01*
X000160Y017950D01*
X000410Y018200D01*
X000160Y018450D01*
X000160Y018950D01*
X000410Y019200D01*
X000160Y019450D01*
X000160Y019950D01*
X000410Y020200D01*
X000910Y020200D01*
X001160Y019950D01*
X001160Y019450D01*
X000910Y019200D01*
X001160Y018950D01*
X001160Y018450D01*
X000910Y018200D01*
X001160Y017950D01*
X001160Y017450D01*
X000910Y017200D01*
X001160Y016950D01*
X001160Y016450D01*
X000910Y016200D01*
X001160Y015950D01*
X001160Y015450D01*
X000910Y015200D01*
X001160Y014950D01*
X001160Y014450D01*
X000910Y014200D01*
X001160Y013950D01*
X001160Y013450D01*
X000910Y013200D01*
X001160Y012950D01*
X001160Y012450D01*
X000910Y012200D01*
X001160Y011950D01*
X001160Y011450D01*
X000910Y011200D01*
X001160Y010950D01*
X001160Y010450D01*
X000910Y010200D01*
X001160Y009950D01*
X001160Y009450D01*
X000910Y009200D01*
X001160Y008950D01*
X001160Y008450D01*
X000910Y008200D01*
X001160Y007950D01*
X001160Y007450D01*
X000910Y007200D01*
X001160Y006950D01*
X001160Y006450D01*
X000910Y006200D01*
X001160Y005950D01*
X001160Y005450D01*
X000910Y005200D01*
X001160Y004950D01*
X001160Y004450D01*
X000910Y004200D01*
X001160Y003950D01*
X001160Y003450D01*
X000910Y003200D01*
X001160Y002950D01*
X001160Y002450D01*
X000910Y002200D01*
X001160Y001950D01*
X001160Y001450D01*
X000910Y001200D01*
X001160Y000950D01*
X001160Y000450D01*
X000910Y000200D01*
X000410Y000200D01*
X001350Y000410D02*
X001420Y000340D01*
X001560Y000340D01*
X001630Y000410D01*
X001630Y000480D01*
X001560Y000550D01*
X001490Y000550D01*
X001560Y000550D02*
X001630Y000620D01*
X001630Y000690D01*
X001560Y000760D01*
X001420Y000760D01*
X001350Y000690D01*
X001810Y000760D02*
X001810Y000480D01*
X001951Y000340D01*
X002091Y000480D01*
X002091Y000760D01*
X002271Y000690D02*
X002341Y000760D01*
X002481Y000760D01*
X002551Y000690D01*
X002551Y000620D01*
X002481Y000550D01*
X002551Y000480D01*
X002551Y000410D01*
X002481Y000340D01*
X002341Y000340D01*
X002271Y000410D01*
X002411Y000550D02*
X002481Y000550D01*
X003900Y005650D02*
X004320Y005650D01*
X004320Y005930D01*
X004320Y006110D02*
X004320Y006391D01*
X004320Y006571D02*
X004320Y006781D01*
X004250Y006851D01*
X003970Y006851D01*
X003900Y006781D01*
X003900Y006571D01*
X004320Y006571D01*
X004110Y006251D02*
X004110Y006110D01*
X003900Y006110D02*
X004320Y006110D01*
X003900Y006110D02*
X003900Y006391D01*
X003970Y007031D02*
X003900Y007101D01*
X003900Y007241D01*
X003970Y007311D01*
X004250Y007031D01*
X004320Y007101D01*
X004320Y007241D01*
X004250Y007311D01*
X003970Y007311D01*
X003970Y007031D02*
X004250Y007031D01*
X004252Y008045D02*
X004160Y008167D01*
X003979Y008167D01*
X004074Y008045D02*
X004150Y008161D01*
X004160Y008167D02*
X004341Y008167D01*
X003850Y008609D02*
X003430Y008609D01*
X003430Y008819D01*
X003500Y008889D01*
X003640Y008889D01*
X003710Y008819D01*
X003710Y008609D01*
X003710Y008749D02*
X003850Y008889D01*
X003850Y009070D02*
X003850Y009350D01*
X003850Y009210D02*
X003430Y009210D01*
X003570Y009070D01*
X004250Y010590D02*
X004250Y011010D01*
X004460Y011010D01*
X004530Y010940D01*
X004530Y010800D01*
X004460Y010730D01*
X004250Y010730D01*
X004390Y010730D02*
X004530Y010590D01*
X004710Y010590D02*
X004710Y011010D01*
X004991Y010590D01*
X004991Y011010D01*
X005171Y010800D02*
X005451Y010800D01*
X005631Y010800D02*
X005771Y010870D01*
X005841Y010870D01*
X005911Y010800D01*
X005911Y010660D01*
X005841Y010590D01*
X005701Y010590D01*
X005631Y010660D01*
X005631Y010800D02*
X005631Y011010D01*
X005911Y011010D01*
X006092Y010940D02*
X006162Y011010D01*
X006302Y011010D01*
X006372Y010940D01*
X006372Y010870D01*
X006092Y010590D01*
X006372Y010590D01*
X006530Y009320D02*
X006460Y009250D01*
X006460Y009110D01*
X006530Y009040D01*
X006530Y008859D02*
X006460Y008789D01*
X006460Y008579D01*
X006880Y008579D01*
X006740Y008579D02*
X006740Y008789D01*
X006670Y008859D01*
X006530Y008859D01*
X006740Y008719D02*
X006880Y008859D01*
X006880Y009040D02*
X006600Y009320D01*
X006530Y009320D01*
X006880Y009320D02*
X006880Y009040D01*
X006341Y008167D02*
X006160Y008167D01*
X006252Y008045D01*
X006160Y008167D02*
X005979Y008167D01*
X006074Y008045D02*
X006150Y008161D01*
X006340Y007331D02*
X006340Y007051D01*
X006340Y007191D02*
X005920Y007191D01*
X006060Y007051D01*
X005990Y006871D02*
X005920Y006801D01*
X005920Y006591D01*
X006340Y006591D01*
X006340Y006801D01*
X006270Y006871D01*
X005990Y006871D01*
X005920Y006411D02*
X005920Y006130D01*
X006340Y006130D01*
X006340Y006411D01*
X006130Y006271D02*
X006130Y006130D01*
X006340Y005950D02*
X006340Y005670D01*
X005920Y005670D01*
X007870Y000760D02*
X007800Y000690D01*
X007800Y000410D01*
X007870Y000340D01*
X008010Y000340D01*
X008080Y000410D01*
X008080Y000550D01*
X007940Y000550D01*
X008080Y000690D02*
X008010Y000760D01*
X007870Y000760D01*
X008260Y000760D02*
X008260Y000340D01*
X008541Y000340D02*
X008260Y000760D01*
X008541Y000760D02*
X008541Y000340D01*
X008721Y000340D02*
X008721Y000760D01*
X008931Y000760D01*
X009001Y000690D01*
X009001Y000410D01*
X008931Y000340D01*
X008721Y000340D01*
X009160Y000450D02*
X009410Y000200D01*
X009910Y000200D01*
X010160Y000450D01*
X010160Y000950D01*
X009910Y001200D01*
X010160Y001450D01*
X010160Y001950D01*
X009910Y002200D01*
X010160Y002450D01*
X010160Y002950D01*
X009910Y003200D01*
X010160Y003450D01*
X010160Y003950D01*
X009910Y004200D01*
X010160Y004450D01*
X010160Y004950D01*
X009910Y005200D01*
X010160Y005450D01*
X010160Y005950D01*
X009910Y006200D01*
X010160Y006450D01*
X010160Y006950D01*
X009910Y007200D01*
X010160Y007450D01*
X010160Y007950D01*
X009910Y008200D01*
X010160Y008450D01*
X010160Y008950D01*
X009910Y009200D01*
X010160Y009450D01*
X010160Y009950D01*
X009910Y010200D01*
X010160Y010450D01*
X010160Y010950D01*
X009910Y011200D01*
X010160Y011450D01*
X010160Y011950D01*
X009910Y012200D01*
X010160Y012450D01*
X010160Y012950D01*
X009910Y013200D01*
X010160Y013450D01*
X010160Y013950D01*
X009910Y014200D01*
X010160Y014450D01*
X010160Y014950D01*
X009910Y015200D01*
X010160Y015450D01*
X010160Y015950D01*
X009910Y016200D01*
X010160Y016450D01*
X010160Y016950D01*
X009910Y017200D01*
X010160Y017450D01*
X010160Y017950D01*
X009910Y018200D01*
X010160Y018450D01*
X010160Y018950D01*
X009910Y019200D01*
X010160Y019450D01*
X010160Y019950D01*
X009910Y020200D01*
X009410Y020200D01*
X009160Y019950D01*
X009160Y019450D01*
X009410Y019200D01*
X009160Y018950D01*
X009160Y018450D01*
X009410Y018200D01*
X009160Y017950D01*
X009160Y017450D01*
X009410Y017200D01*
X009160Y016950D01*
X009160Y016450D01*
X009410Y016200D01*
X009160Y015950D01*
X009160Y015450D01*
X009410Y015200D01*
X009160Y014950D01*
X009160Y014450D01*
X009410Y014200D01*
X009160Y013950D01*
X009160Y013450D01*
X009410Y013200D01*
X009160Y012950D01*
X009160Y012450D01*
X009410Y012200D01*
X009160Y011950D01*
X009160Y011450D01*
X009410Y011200D01*
X009160Y010950D01*
X009160Y010450D01*
X009410Y010200D01*
X009160Y009950D01*
X009160Y009450D01*
X009410Y009200D01*
X009160Y008950D01*
X009160Y008450D01*
X009410Y008200D01*
X009160Y007950D01*
X009160Y007450D01*
X009410Y007200D01*
X009160Y006950D01*
X009160Y006450D01*
X009410Y006200D01*
X009160Y005950D01*
X009160Y005450D01*
X009410Y005200D01*
X009160Y004950D01*
X009160Y004450D01*
X009410Y004200D01*
X009160Y003950D01*
X009160Y003450D01*
X009410Y003200D01*
X009160Y002950D01*
X009160Y002450D01*
X009410Y002200D01*
X009160Y001950D01*
X009160Y001450D01*
X009410Y001200D01*
X009160Y000950D01*
X009160Y000450D01*
D13*
X006660Y007950D03*
X003660Y007950D03*
D14*
X004521Y002905D03*
D15*
X005755Y002905D03*
D16*
X004521Y002906D03*
D17*
X005754Y002906D03*
X005754Y003410D03*
D18*
X004521Y002907D03*
D19*
X005755Y002907D03*
X005755Y003409D03*
D20*
X004521Y002908D03*
D21*
X005755Y002908D03*
X005755Y003408D03*
D22*
X005754Y003407D03*
X005754Y002909D03*
X004521Y002909D03*
D23*
X004521Y002910D03*
D24*
X005754Y002910D03*
X005754Y003406D03*
D25*
X005754Y003405D03*
X005754Y002911D03*
X004521Y002911D03*
D26*
X004521Y002912D03*
D27*
X005754Y002912D03*
X005754Y003404D03*
D28*
X005755Y003403D03*
X005755Y002913D03*
X004521Y002913D03*
D29*
X004521Y002914D03*
X005754Y002914D03*
X005754Y003402D03*
D30*
X005755Y003401D03*
X004521Y002915D03*
D31*
X005754Y002915D03*
D32*
X004521Y002916D03*
X004521Y003393D03*
D33*
X005755Y003400D03*
X005755Y002916D03*
D34*
X005754Y002917D03*
X004521Y002917D03*
D35*
X004521Y002918D03*
X005754Y002918D03*
X005754Y003398D03*
D36*
X005754Y003397D03*
X005754Y002919D03*
X004521Y002919D03*
D37*
X004521Y002920D03*
D38*
X005754Y002920D03*
X005754Y003396D03*
D39*
X005754Y003395D03*
X005754Y002921D03*
X004521Y002921D03*
D40*
X004521Y002922D03*
X005754Y002922D03*
X005754Y003394D03*
D41*
X005754Y002923D03*
X004521Y002923D03*
X004521Y003386D03*
D42*
X004521Y003385D03*
X004521Y002924D03*
D43*
X005755Y002924D03*
X005755Y003392D03*
D44*
X005755Y003391D03*
X005755Y002925D03*
X004521Y002925D03*
D45*
X004521Y002926D03*
X004521Y003383D03*
D46*
X005754Y003390D03*
X005754Y002926D03*
D47*
X005754Y002927D03*
X005754Y003389D03*
X004521Y003382D03*
X004521Y002927D03*
D48*
X004521Y002928D03*
X004521Y002929D03*
X004521Y003381D03*
X005754Y003387D03*
X005754Y002929D03*
D49*
X005755Y002928D03*
X005755Y003388D03*
D50*
X005754Y003385D03*
X005754Y002931D03*
X005754Y002930D03*
X004521Y002930D03*
X004521Y003379D03*
D51*
X004521Y003378D03*
X004521Y002931D03*
D52*
X004521Y002932D03*
X004521Y003377D03*
X005754Y003384D03*
X005754Y002932D03*
D53*
X005755Y002933D03*
X005755Y003383D03*
X004521Y003376D03*
X004521Y002933D03*
D54*
X004521Y002934D03*
X004521Y003375D03*
D55*
X005754Y003381D03*
X005754Y003382D03*
X005754Y002935D03*
X005754Y002934D03*
D56*
X004521Y002935D03*
X004521Y003374D03*
D57*
X004521Y003373D03*
X004521Y002937D03*
X004521Y002936D03*
X005754Y002937D03*
X005754Y002936D03*
X005754Y003379D03*
X005754Y003380D03*
D58*
X005754Y003377D03*
X005754Y003376D03*
X005754Y002940D03*
X005754Y002939D03*
X004521Y002940D03*
X004521Y002939D03*
X004521Y002938D03*
X004521Y003370D03*
X004521Y003371D03*
D59*
X004521Y003372D03*
X005755Y003378D03*
X005755Y002938D03*
D60*
X005755Y002941D03*
X005755Y003375D03*
X004521Y003369D03*
X004521Y002941D03*
D61*
X004521Y002942D03*
X004521Y002943D03*
X004521Y003366D03*
X004521Y003367D03*
X004521Y003368D03*
X005754Y003372D03*
X005754Y003373D03*
X005754Y003374D03*
X005754Y002944D03*
X005754Y002943D03*
X005754Y002942D03*
D62*
X004521Y002944D03*
X004521Y002945D03*
X004521Y003365D03*
D63*
X005755Y003371D03*
X005755Y002945D03*
D64*
X005754Y002946D03*
X005754Y002947D03*
X005754Y002948D03*
X005754Y002949D03*
X005754Y002950D03*
X005754Y003366D03*
X005754Y003367D03*
X005754Y003368D03*
X005754Y003369D03*
X005754Y003370D03*
X004521Y003364D03*
X004521Y003363D03*
X004521Y003362D03*
X004521Y003361D03*
X004521Y003360D03*
X004521Y002949D03*
X004521Y002948D03*
X004521Y002947D03*
X004521Y002946D03*
D65*
X004521Y002950D03*
X004521Y002951D03*
X004521Y002952D03*
X004521Y002953D03*
X004521Y002954D03*
X004521Y002955D03*
X004521Y002956D03*
X004521Y002957D03*
X004521Y002958D03*
X004521Y002959D03*
X004521Y002960D03*
X004521Y002961D03*
X004521Y002962D03*
X004521Y002963D03*
X004521Y002964D03*
X004521Y002965D03*
X004521Y002966D03*
X004521Y002967D03*
X004521Y002968D03*
X004521Y002969D03*
X004521Y002970D03*
X004521Y002971D03*
X004521Y002972D03*
X004521Y002973D03*
X004521Y002974D03*
X004521Y002975D03*
X004521Y002976D03*
X004521Y002977D03*
X004521Y002978D03*
X004521Y002979D03*
X004521Y002980D03*
X004521Y002981D03*
X004521Y002982D03*
X004521Y002983D03*
X004521Y002984D03*
X004521Y002985D03*
X004521Y002986D03*
X004521Y002987D03*
X004521Y002988D03*
X004521Y002989D03*
X004521Y002990D03*
X004521Y002991D03*
X004521Y002992D03*
X004521Y002993D03*
X004521Y002994D03*
X004521Y002995D03*
X004521Y002996D03*
X004521Y002997D03*
X004521Y002998D03*
X004521Y002999D03*
X004521Y003000D03*
X004521Y003001D03*
X004521Y003002D03*
X004521Y003003D03*
X004521Y003004D03*
X004521Y003005D03*
X004521Y003006D03*
X004521Y003007D03*
X004521Y003008D03*
X004521Y003009D03*
X004521Y003010D03*
X004521Y003011D03*
X004521Y003012D03*
X004521Y003013D03*
X004521Y003014D03*
X004521Y003015D03*
X004521Y003016D03*
X004521Y003017D03*
X004521Y003018D03*
X004521Y003019D03*
X004521Y003020D03*
X004521Y003021D03*
X004521Y003022D03*
X004521Y003023D03*
X004521Y003024D03*
X004521Y003025D03*
X004521Y003026D03*
X004521Y003027D03*
X004521Y003028D03*
X004521Y003029D03*
X004521Y003030D03*
X004521Y003031D03*
X004521Y003032D03*
X004521Y003033D03*
X004521Y003034D03*
X004521Y003035D03*
X004521Y003036D03*
X004521Y003037D03*
X004521Y003038D03*
X004521Y003039D03*
X004521Y003040D03*
X004521Y003041D03*
X004521Y003042D03*
X004521Y003043D03*
X004521Y003044D03*
X004521Y003045D03*
X004521Y003046D03*
X004521Y003047D03*
X004521Y003048D03*
X004521Y003049D03*
X004521Y003050D03*
X004521Y003051D03*
X004521Y003052D03*
X004521Y003053D03*
X004521Y003054D03*
X004521Y003055D03*
X004521Y003056D03*
X004521Y003057D03*
X004521Y003058D03*
X004521Y003059D03*
X004521Y003060D03*
X004521Y003061D03*
X004521Y003062D03*
X004521Y003063D03*
X004521Y003064D03*
X004521Y003065D03*
X004521Y003066D03*
X004521Y003067D03*
X004521Y003068D03*
X004521Y003069D03*
X004521Y003070D03*
X004521Y003071D03*
X004521Y003072D03*
X004521Y003073D03*
X004521Y003074D03*
X004521Y003075D03*
X004521Y003076D03*
X004521Y003077D03*
X004521Y003078D03*
X004521Y003079D03*
X004521Y003080D03*
X004521Y003081D03*
X004521Y003082D03*
X004521Y003083D03*
X004521Y003084D03*
X004521Y003085D03*
X004521Y003086D03*
X004521Y003087D03*
X004521Y003088D03*
X004521Y003089D03*
X004521Y003090D03*
X004521Y003091D03*
X004521Y003092D03*
X004521Y003093D03*
X004521Y003094D03*
X004521Y003095D03*
X004521Y003096D03*
X004521Y003097D03*
X004521Y003098D03*
X004521Y003099D03*
X004521Y003100D03*
X004521Y003101D03*
X004521Y003102D03*
X004521Y003103D03*
X004521Y003104D03*
X004521Y003105D03*
X004521Y003106D03*
X004521Y003107D03*
X004521Y003108D03*
X004521Y003109D03*
X004521Y003110D03*
X004521Y003111D03*
X004521Y003112D03*
X004521Y003113D03*
X004521Y003114D03*
X004521Y003115D03*
X004521Y003116D03*
X004521Y003117D03*
X004521Y003118D03*
X004521Y003119D03*
X004521Y003120D03*
X004521Y003121D03*
X004521Y003122D03*
X004521Y003123D03*
X004521Y003124D03*
X004521Y003125D03*
X004521Y003126D03*
X004521Y003127D03*
X004521Y003128D03*
X004521Y003129D03*
X004521Y003130D03*
X004521Y003131D03*
X004521Y003132D03*
X004521Y003133D03*
X004521Y003134D03*
X004521Y003135D03*
X004521Y003136D03*
X004521Y003137D03*
X004521Y003138D03*
X004521Y003139D03*
X004521Y003140D03*
X004521Y003141D03*
X004521Y003142D03*
X004521Y003143D03*
X004521Y003144D03*
X004521Y003145D03*
X004521Y003146D03*
X004521Y003147D03*
X004521Y003148D03*
X004521Y003149D03*
X004521Y003150D03*
X004521Y003151D03*
X004521Y003152D03*
X004521Y003153D03*
X004521Y003154D03*
X004521Y003155D03*
X004521Y003156D03*
X004521Y003157D03*
X004521Y003158D03*
X004521Y003159D03*
X004521Y003160D03*
X004521Y003161D03*
X004521Y003162D03*
X004521Y003163D03*
X004521Y003164D03*
X004521Y003165D03*
X004521Y003166D03*
X004521Y003167D03*
X004521Y003168D03*
X004521Y003169D03*
X004521Y003170D03*
X004521Y003171D03*
X004521Y003172D03*
X004521Y003173D03*
X004521Y003174D03*
X004521Y003175D03*
X004521Y003176D03*
X004521Y003177D03*
X004521Y003178D03*
X004521Y003179D03*
X004521Y003180D03*
X004521Y003181D03*
X004521Y003182D03*
X004521Y003183D03*
X004521Y003184D03*
X004521Y003185D03*
X004521Y003186D03*
X004521Y003187D03*
X004521Y003188D03*
X004521Y003189D03*
X004521Y003190D03*
X004521Y003191D03*
X004521Y003192D03*
X004521Y003193D03*
X004521Y003194D03*
X004521Y003195D03*
X004521Y003196D03*
X004521Y003197D03*
X004521Y003198D03*
X004521Y003199D03*
X004521Y003200D03*
X004521Y003201D03*
X004521Y003202D03*
X004521Y003203D03*
X004521Y003204D03*
X004521Y003205D03*
X004521Y003206D03*
X004521Y003207D03*
X004521Y003208D03*
X004521Y003209D03*
X004521Y003210D03*
X004521Y003211D03*
X004521Y003212D03*
X004521Y003213D03*
X004521Y003214D03*
X004521Y003215D03*
X004521Y003216D03*
X004521Y003217D03*
X004521Y003218D03*
X004521Y003219D03*
X004521Y003220D03*
X004521Y003221D03*
X004521Y003222D03*
X004521Y003223D03*
X004521Y003224D03*
X004521Y003225D03*
X004521Y003226D03*
X004521Y003227D03*
X004521Y003228D03*
X004521Y003229D03*
X004521Y003230D03*
X004521Y003231D03*
X004521Y003232D03*
X004521Y003233D03*
X004521Y003234D03*
X004521Y003235D03*
X004521Y003236D03*
X004521Y003237D03*
X004521Y003238D03*
X004521Y003239D03*
X004521Y003240D03*
X004521Y003241D03*
X004521Y003242D03*
X004521Y003243D03*
X004521Y003244D03*
X004521Y003245D03*
X004521Y003246D03*
X004521Y003247D03*
X004521Y003248D03*
X004521Y003249D03*
X004521Y003250D03*
X004521Y003251D03*
X004521Y003252D03*
X004521Y003253D03*
X004521Y003254D03*
X004521Y003255D03*
X004521Y003256D03*
X004521Y003257D03*
X004521Y003258D03*
X004521Y003259D03*
X004521Y003260D03*
X004521Y003261D03*
X004521Y003262D03*
X004521Y003263D03*
X004521Y003264D03*
X004521Y003265D03*
X004521Y003266D03*
X004521Y003267D03*
X004521Y003268D03*
X004521Y003269D03*
X004521Y003270D03*
X004521Y003271D03*
X004521Y003272D03*
X004521Y003273D03*
X004521Y003274D03*
X004521Y003275D03*
X004521Y003276D03*
X004521Y003277D03*
X004521Y003278D03*
X004521Y003279D03*
X004521Y003280D03*
X004521Y003281D03*
X004521Y003282D03*
X004521Y003283D03*
X004521Y003284D03*
X004521Y003285D03*
X004521Y003286D03*
X004521Y003287D03*
X004521Y003288D03*
X004521Y003289D03*
X004521Y003290D03*
X004521Y003291D03*
X004521Y003292D03*
X004521Y003293D03*
X004521Y003294D03*
X004521Y003295D03*
X004521Y003296D03*
X004521Y003297D03*
X004521Y003298D03*
X004521Y003299D03*
X004521Y003300D03*
X004521Y003301D03*
X004521Y003302D03*
X004521Y003303D03*
X004521Y003304D03*
X004521Y003305D03*
X004521Y003306D03*
X004521Y003307D03*
X004521Y003308D03*
X004521Y003309D03*
X004521Y003310D03*
X004521Y003311D03*
X004521Y003312D03*
X004521Y003313D03*
X004521Y003314D03*
X004521Y003315D03*
X004521Y003316D03*
X004521Y003317D03*
X004521Y003318D03*
X004521Y003319D03*
X004521Y003320D03*
X004521Y003321D03*
X004521Y003322D03*
X004521Y003323D03*
X004521Y003324D03*
X004521Y003325D03*
X004521Y003326D03*
X004521Y003327D03*
X004521Y003328D03*
X004521Y003329D03*
X004521Y003330D03*
X004521Y003331D03*
X004521Y003332D03*
X004521Y003333D03*
X004521Y003334D03*
X004521Y003335D03*
X004521Y003336D03*
X004521Y003337D03*
X004521Y003338D03*
X004521Y003339D03*
X004521Y003340D03*
X004521Y003341D03*
X004521Y003342D03*
X004521Y003343D03*
X004521Y003344D03*
X004521Y003345D03*
X004521Y003346D03*
X004521Y003347D03*
X004521Y003348D03*
X004521Y003349D03*
X004521Y003350D03*
X004521Y003351D03*
X004521Y003352D03*
X004521Y003353D03*
X004521Y003354D03*
X004521Y003355D03*
X004521Y003356D03*
X004521Y003357D03*
X004521Y003358D03*
X004521Y003359D03*
X005755Y003360D03*
X005755Y003361D03*
X005755Y003362D03*
X005755Y003363D03*
X005755Y003364D03*
X005755Y003365D03*
X005755Y003359D03*
X005755Y003358D03*
X005755Y003357D03*
X005755Y003356D03*
X005755Y003355D03*
X005755Y003354D03*
X005755Y003353D03*
X005755Y003352D03*
X005755Y003351D03*
X005755Y003350D03*
X005755Y003349D03*
X005755Y003348D03*
X005755Y003347D03*
X005755Y003346D03*
X005755Y003345D03*
X005755Y003344D03*
X005755Y003343D03*
X005755Y003342D03*
X005755Y003341D03*
X005755Y003340D03*
X005755Y003339D03*
X005755Y003338D03*
X005755Y003337D03*
X005755Y003336D03*
X005755Y003335D03*
X005755Y003334D03*
X005755Y003333D03*
X005755Y003332D03*
X005755Y003331D03*
X005755Y003330D03*
X005755Y003329D03*
X005755Y003328D03*
X005755Y003327D03*
X005755Y003326D03*
X005755Y003325D03*
X005755Y003324D03*
X005755Y003323D03*
X005755Y003322D03*
X005755Y003321D03*
X005755Y003320D03*
X005755Y003319D03*
X005755Y003318D03*
X005755Y003317D03*
X005755Y003316D03*
X005755Y003315D03*
X005755Y003314D03*
X005755Y003313D03*
X005755Y003312D03*
X005755Y003311D03*
X005755Y003310D03*
X005755Y003309D03*
X005755Y003308D03*
X005755Y003307D03*
X005755Y003306D03*
X005755Y003305D03*
X005755Y003304D03*
X005755Y003303D03*
X005755Y003302D03*
X005755Y003301D03*
X005755Y003300D03*
X005755Y003299D03*
X005755Y003298D03*
X005755Y003297D03*
X005755Y003296D03*
X005755Y003295D03*
X005755Y003294D03*
X005755Y003293D03*
X005755Y003292D03*
X005755Y003291D03*
X005755Y003290D03*
X005755Y003289D03*
X005755Y003288D03*
X005755Y003287D03*
X005755Y003286D03*
X005755Y003285D03*
X005755Y003284D03*
X005755Y003283D03*
X005755Y003282D03*
X005755Y003281D03*
X005755Y003280D03*
X005755Y003279D03*
X005755Y003278D03*
X005755Y003277D03*
X005755Y003276D03*
X005755Y003275D03*
X005755Y003274D03*
X005755Y003273D03*
X005755Y003272D03*
X005755Y003271D03*
X005755Y003270D03*
X005755Y003269D03*
X005755Y003268D03*
X005755Y003267D03*
X005755Y003266D03*
X005755Y003265D03*
X005755Y003264D03*
X005755Y003263D03*
X005755Y003262D03*
X005755Y003261D03*
X005755Y003260D03*
X005755Y003259D03*
X005755Y003258D03*
X005755Y003257D03*
X005755Y003256D03*
X005755Y003255D03*
X005755Y003254D03*
X005755Y003253D03*
X005755Y003252D03*
X005755Y003251D03*
X005755Y003250D03*
X005755Y003249D03*
X005755Y003248D03*
X005755Y003247D03*
X005755Y003246D03*
X005755Y003245D03*
X005755Y003244D03*
X005755Y003243D03*
X005755Y003242D03*
X005755Y003241D03*
X005755Y003240D03*
X005755Y003239D03*
X005755Y003238D03*
X005755Y003237D03*
X005755Y003236D03*
X005755Y003235D03*
X005755Y003234D03*
X005755Y003233D03*
X005755Y003232D03*
X005755Y003231D03*
X005755Y003230D03*
X005755Y003229D03*
X005755Y003228D03*
X005755Y003227D03*
X005755Y003226D03*
X005755Y003225D03*
X005755Y003224D03*
X005755Y003223D03*
X005755Y003222D03*
X005755Y003221D03*
X005755Y003220D03*
X005755Y003219D03*
X005755Y003218D03*
X005755Y003217D03*
X005755Y003216D03*
X005755Y003215D03*
X005755Y003214D03*
X005755Y003213D03*
X005755Y003212D03*
X005755Y003211D03*
X005755Y003210D03*
X005755Y003209D03*
X005755Y003208D03*
X005755Y003207D03*
X005755Y003206D03*
X005755Y003205D03*
X005755Y003204D03*
X005755Y003203D03*
X005755Y003202D03*
X005755Y003201D03*
X005755Y003200D03*
X005755Y003199D03*
X005755Y003198D03*
X005755Y003197D03*
X005755Y003196D03*
X005755Y003195D03*
X005755Y003194D03*
X005755Y003193D03*
X005755Y003192D03*
X005755Y003191D03*
X005755Y003190D03*
X005755Y003189D03*
X005755Y003188D03*
X005755Y003187D03*
X005755Y003186D03*
X005755Y003185D03*
X005755Y003184D03*
X005755Y003183D03*
X005755Y003182D03*
X005755Y003181D03*
X005755Y003180D03*
X005755Y003179D03*
X005755Y003178D03*
X005755Y003177D03*
X005755Y003176D03*
X005755Y003175D03*
X005755Y003174D03*
X005755Y003173D03*
X005755Y003172D03*
X005755Y003171D03*
X005755Y003170D03*
X005755Y003169D03*
X005755Y003168D03*
X005755Y003167D03*
X005755Y003166D03*
X005755Y003165D03*
X005755Y003164D03*
X005755Y003163D03*
X005755Y003162D03*
X005755Y003161D03*
X005755Y003160D03*
X005755Y003159D03*
X005755Y003158D03*
X005755Y003157D03*
X005755Y003156D03*
X005755Y003155D03*
X005755Y003154D03*
X005755Y003153D03*
X005755Y003152D03*
X005755Y003151D03*
X005755Y003150D03*
X005755Y003149D03*
X005755Y003148D03*
X005755Y003147D03*
X005755Y003146D03*
X005755Y003145D03*
X005755Y003144D03*
X005755Y003143D03*
X005755Y003142D03*
X005755Y003141D03*
X005755Y003140D03*
X005755Y003139D03*
X005755Y003138D03*
X005755Y003137D03*
X005755Y003136D03*
X005755Y003135D03*
X005755Y003134D03*
X005755Y003133D03*
X005755Y003132D03*
X005755Y003131D03*
X005755Y003130D03*
X005755Y003129D03*
X005755Y003128D03*
X005755Y003127D03*
X005755Y003126D03*
X005755Y003125D03*
X005755Y003124D03*
X005755Y003123D03*
X005755Y003122D03*
X005755Y003121D03*
X005755Y003120D03*
X005755Y003119D03*
X005755Y003118D03*
X005755Y003117D03*
X005755Y003116D03*
X005755Y003115D03*
X005755Y003114D03*
X005755Y003113D03*
X005755Y003112D03*
X005755Y003111D03*
X005755Y003110D03*
X005755Y003109D03*
X005755Y003108D03*
X005755Y003107D03*
X005755Y003106D03*
X005755Y003105D03*
X005755Y003104D03*
X005755Y003103D03*
X005755Y003102D03*
X005755Y003101D03*
X005755Y003100D03*
X005755Y003099D03*
X005755Y003098D03*
X005755Y003097D03*
X005755Y003096D03*
X005755Y003095D03*
X005755Y003094D03*
X005755Y003093D03*
X005755Y003092D03*
X005755Y003091D03*
X005755Y003090D03*
X005755Y003089D03*
X005755Y003088D03*
X005755Y003087D03*
X005755Y003086D03*
X005755Y003085D03*
X005755Y003084D03*
X005755Y003083D03*
X005755Y003082D03*
X005755Y003081D03*
X005755Y003080D03*
X005755Y003079D03*
X005755Y003078D03*
X005755Y003077D03*
X005755Y003076D03*
X005755Y003075D03*
X005755Y003074D03*
X005755Y003073D03*
X005755Y003072D03*
X005755Y003071D03*
X005755Y003070D03*
X005755Y003069D03*
X005755Y003068D03*
X005755Y003067D03*
X005755Y003066D03*
X005755Y003065D03*
X005755Y003064D03*
X005755Y003063D03*
X005755Y003062D03*
X005755Y003061D03*
X005755Y003060D03*
X005755Y003059D03*
X005755Y003058D03*
X005755Y003057D03*
X005755Y003056D03*
X005755Y003055D03*
X005755Y003054D03*
X005755Y003053D03*
X005755Y003052D03*
X005755Y003051D03*
X005755Y003050D03*
X005755Y003049D03*
X005755Y003048D03*
X005755Y003047D03*
X005755Y003046D03*
X005755Y003045D03*
X005755Y003044D03*
X005755Y003043D03*
X005755Y003042D03*
X005755Y003041D03*
X005755Y003040D03*
X005755Y003039D03*
X005755Y003038D03*
X005755Y003037D03*
X005755Y003036D03*
X005755Y003035D03*
X005755Y003034D03*
X005755Y003033D03*
X005755Y003032D03*
X005755Y003031D03*
X005755Y003030D03*
X005755Y003029D03*
X005755Y003028D03*
X005755Y003027D03*
X005755Y003026D03*
X005755Y003025D03*
X005755Y003024D03*
X005755Y003023D03*
X005755Y003022D03*
X005755Y003021D03*
X005755Y003020D03*
X005755Y003019D03*
X005755Y003018D03*
X005755Y003017D03*
X005755Y003016D03*
X005755Y003015D03*
X005755Y003014D03*
X005755Y003013D03*
X005755Y003012D03*
X005755Y003011D03*
X005755Y003010D03*
X005755Y003009D03*
X005755Y003008D03*
X005755Y003007D03*
X005755Y003006D03*
X005755Y003005D03*
X005755Y003004D03*
X005755Y003003D03*
X005755Y003002D03*
X005755Y003001D03*
X005755Y003000D03*
X005755Y002999D03*
X005755Y002998D03*
X005755Y002997D03*
X005755Y002996D03*
X005755Y002995D03*
X005755Y002994D03*
X005755Y002993D03*
X005755Y002992D03*
X005755Y002991D03*
X005755Y002990D03*
X005755Y002989D03*
X005755Y002988D03*
X005755Y002987D03*
X005755Y002986D03*
X005755Y002985D03*
X005755Y002984D03*
X005755Y002983D03*
X005755Y002982D03*
X005755Y002981D03*
X005755Y002980D03*
X005755Y002979D03*
X005755Y002978D03*
X005755Y002977D03*
X005755Y002976D03*
X005755Y002975D03*
X005755Y002974D03*
X005755Y002973D03*
X005755Y002972D03*
X005755Y002971D03*
X005755Y002970D03*
X005755Y002969D03*
X005755Y002968D03*
X005755Y002967D03*
X005755Y002966D03*
X005755Y002965D03*
X005755Y002964D03*
X005755Y002963D03*
X005755Y002962D03*
X005755Y002961D03*
X005755Y002960D03*
X005755Y002959D03*
X005755Y002958D03*
X005755Y002957D03*
X005755Y002956D03*
X005755Y002955D03*
X005755Y002954D03*
X005755Y002953D03*
X005755Y002952D03*
X005755Y002951D03*
D66*
X005755Y003386D03*
X004521Y003380D03*
D67*
X004521Y003384D03*
D68*
X004521Y003387D03*
X005755Y003393D03*
D69*
X004521Y003388D03*
D70*
X004521Y003389D03*
D71*
X004521Y003390D03*
D72*
X004521Y003391D03*
D73*
X004521Y003392D03*
D74*
X004521Y003394D03*
D75*
X004521Y003395D03*
D76*
X004521Y003396D03*
D77*
X004521Y003397D03*
D78*
X004521Y003398D03*
D79*
X004521Y003399D03*
D80*
X005755Y003399D03*
D81*
X004521Y003400D03*
D82*
X004521Y003401D03*
D83*
X004521Y003402D03*
D84*
X004521Y003403D03*
D85*
X004521Y003404D03*
D86*
X004524Y003405D03*
D87*
X004523Y003406D03*
X004523Y003407D03*
X004523Y003408D03*
X004523Y003409D03*
D88*
X004523Y003410D03*
X004523Y003411D03*
X004523Y003412D03*
D89*
X005754Y003411D03*
D90*
X005762Y003412D03*
X005762Y003413D03*
X005762Y003414D03*
X005762Y003415D03*
X004505Y003529D03*
X004505Y003530D03*
X004505Y003531D03*
D91*
X004522Y003416D03*
X004522Y003415D03*
X004522Y003414D03*
X004522Y003413D03*
D92*
X004505Y003532D03*
X004505Y003533D03*
X004505Y003534D03*
X004505Y003535D03*
X005763Y003419D03*
X005763Y003418D03*
X005763Y003417D03*
X005763Y003416D03*
D93*
X004522Y003417D03*
X004522Y003418D03*
X004522Y003419D03*
D94*
X004521Y003420D03*
X004521Y003421D03*
X004521Y003422D03*
D95*
X004504Y003536D03*
X004504Y003537D03*
X004504Y003538D03*
X005763Y003423D03*
X005763Y003422D03*
X005763Y003421D03*
X005763Y003420D03*
D96*
X004521Y003423D03*
X004521Y003424D03*
X004521Y003425D03*
X004521Y003426D03*
D97*
X004504Y003539D03*
X004504Y003540D03*
X004504Y003541D03*
X005764Y003427D03*
X005764Y003426D03*
X005764Y003425D03*
X005764Y003424D03*
D98*
X004520Y003427D03*
X004520Y003428D03*
X004520Y003429D03*
D99*
X004503Y003542D03*
X004503Y003543D03*
X004503Y003544D03*
X004503Y003545D03*
X005764Y003432D03*
X005764Y003431D03*
X005764Y003430D03*
X005764Y003429D03*
X005764Y003428D03*
D100*
X004520Y003430D03*
X004520Y003431D03*
X004520Y003432D03*
X004520Y003433D03*
D101*
X004503Y003546D03*
X004503Y003547D03*
X004503Y003548D03*
X005765Y003436D03*
X005765Y003435D03*
X005765Y003434D03*
X005765Y003433D03*
D102*
X004519Y003434D03*
X004519Y003435D03*
X004519Y003436D03*
D103*
X004519Y003437D03*
X004519Y003438D03*
X004519Y003439D03*
D104*
X004502Y003549D03*
X004502Y003550D03*
X004502Y003551D03*
X004502Y003552D03*
X005765Y003440D03*
X005765Y003439D03*
X005765Y003438D03*
X005765Y003437D03*
D105*
X004518Y003440D03*
X004518Y003441D03*
X004518Y003442D03*
X004518Y003443D03*
D106*
X004502Y003553D03*
X004502Y003554D03*
X004502Y003555D03*
X005766Y003444D03*
X005766Y003443D03*
X005766Y003442D03*
X005766Y003441D03*
D107*
X004518Y003444D03*
X004518Y003445D03*
X004518Y003446D03*
D108*
X004501Y003556D03*
X004501Y003557D03*
X004501Y003558D03*
X005766Y003448D03*
X005766Y003447D03*
X005766Y003446D03*
X005766Y003445D03*
D109*
X004517Y003447D03*
X004517Y003448D03*
X004517Y003449D03*
X004517Y003450D03*
D110*
X004501Y003559D03*
X004501Y003560D03*
X004501Y003561D03*
X004501Y003562D03*
X005767Y003452D03*
X005767Y003451D03*
X005767Y003450D03*
X005767Y003449D03*
D111*
X004517Y003451D03*
X004517Y003452D03*
X004517Y003453D03*
D112*
X004500Y003563D03*
X004500Y003564D03*
X004500Y003565D03*
X005767Y003457D03*
X005767Y003456D03*
X005767Y003455D03*
X005767Y003454D03*
X005767Y003453D03*
D113*
X004516Y003454D03*
X004516Y003455D03*
X004516Y003456D03*
D114*
X004516Y003457D03*
X004516Y003458D03*
X004516Y003459D03*
X004516Y003460D03*
D115*
X004500Y003566D03*
X004500Y003567D03*
X004500Y003568D03*
X004500Y003569D03*
X005768Y003461D03*
X005768Y003460D03*
X005768Y003459D03*
X005768Y003458D03*
D116*
X004515Y003461D03*
X004515Y003462D03*
X004515Y003463D03*
D117*
X004499Y003570D03*
X004499Y003571D03*
X004499Y003572D03*
X005768Y003465D03*
X005768Y003464D03*
X005768Y003463D03*
X005768Y003462D03*
D118*
X004515Y003464D03*
X004515Y003465D03*
X004515Y003466D03*
X004515Y003467D03*
D119*
X004499Y003573D03*
X004499Y003574D03*
X004499Y003575D03*
X005769Y003469D03*
X005769Y003468D03*
X005769Y003467D03*
X005769Y003466D03*
D120*
X004514Y003468D03*
X004514Y003469D03*
X004514Y003470D03*
D121*
X004498Y003576D03*
X004498Y003577D03*
X004498Y003578D03*
X004498Y003579D03*
X005769Y003473D03*
X005769Y003472D03*
X005769Y003471D03*
X005769Y003470D03*
D122*
X004514Y003471D03*
X004514Y003472D03*
X004514Y003473D03*
D123*
X004513Y003474D03*
X004513Y003475D03*
X004513Y003476D03*
X004513Y003477D03*
D124*
X004498Y003580D03*
X004498Y003581D03*
X004498Y003582D03*
X005770Y003477D03*
X005770Y003476D03*
X005770Y003475D03*
X005770Y003474D03*
D125*
X004513Y003478D03*
X004513Y003479D03*
X004513Y003480D03*
D126*
X004497Y003583D03*
X004497Y003584D03*
X004497Y003585D03*
X004497Y003586D03*
X005770Y003482D03*
X005770Y003481D03*
X005770Y003480D03*
X005770Y003479D03*
X005770Y003478D03*
D127*
X004512Y003481D03*
X004512Y003482D03*
X004512Y003483D03*
X004512Y003484D03*
D128*
X004497Y003587D03*
X004497Y003588D03*
X004497Y003589D03*
X005771Y003486D03*
X005771Y003485D03*
X005771Y003484D03*
X005771Y003483D03*
D129*
X004512Y003485D03*
X004512Y003486D03*
X004512Y003487D03*
D130*
X004496Y003590D03*
X004496Y003591D03*
X004496Y003592D03*
X005771Y003490D03*
X005771Y003489D03*
X005771Y003488D03*
X005771Y003487D03*
D131*
X004511Y003488D03*
X004511Y003489D03*
X004511Y003490D03*
D132*
X004511Y003491D03*
X004511Y003492D03*
X004511Y003493D03*
X004511Y003494D03*
D133*
X004496Y003593D03*
X004496Y003594D03*
X004496Y003595D03*
X004496Y003596D03*
X005772Y003494D03*
X005772Y003493D03*
X005772Y003492D03*
X005772Y003491D03*
D134*
X004510Y003495D03*
X004510Y003496D03*
X004510Y003497D03*
D135*
X004495Y003597D03*
X004495Y003598D03*
X004495Y003599D03*
X005772Y003498D03*
X005772Y003497D03*
X005772Y003496D03*
X005772Y003495D03*
D136*
X004510Y003498D03*
X004510Y003499D03*
X004510Y003500D03*
X004510Y003501D03*
D137*
X004495Y003600D03*
X004495Y003601D03*
X004495Y003602D03*
X004495Y003603D03*
X005773Y003502D03*
X005773Y003501D03*
X005773Y003500D03*
X005773Y003499D03*
D138*
X004509Y003502D03*
X004509Y003503D03*
X004509Y003504D03*
D139*
X004494Y003604D03*
X004494Y003605D03*
X004494Y003606D03*
X005773Y003507D03*
X005773Y003506D03*
X005773Y003505D03*
X005773Y003504D03*
X005773Y003503D03*
D140*
X004509Y003505D03*
X004509Y003506D03*
X004509Y003507D03*
D141*
X004508Y003508D03*
X004508Y003509D03*
X004508Y003510D03*
X004508Y003511D03*
D142*
X004494Y003607D03*
X004494Y003608D03*
X004494Y003609D03*
X005774Y003511D03*
X005774Y003510D03*
X005774Y003509D03*
X005774Y003508D03*
D143*
X004508Y003512D03*
X004508Y003513D03*
X004508Y003514D03*
D144*
X004493Y003610D03*
X004493Y003611D03*
X004493Y003612D03*
X004493Y003613D03*
X005774Y003515D03*
X005774Y003514D03*
X005774Y003513D03*
X005774Y003512D03*
D145*
X004507Y003515D03*
X004507Y003516D03*
X004507Y003517D03*
X004507Y003518D03*
D146*
X004493Y003614D03*
X004493Y003615D03*
X004493Y003616D03*
X005775Y003519D03*
X005775Y003518D03*
X005775Y003517D03*
X005775Y003516D03*
D147*
X004507Y003519D03*
X004507Y003520D03*
X004507Y003521D03*
D148*
X004492Y003617D03*
X004492Y003618D03*
X004492Y003619D03*
X004492Y003620D03*
X005775Y003523D03*
X005775Y003522D03*
X005775Y003521D03*
X005775Y003520D03*
D149*
X004506Y003522D03*
X004506Y003523D03*
X004506Y003524D03*
D150*
X004492Y003621D03*
X004492Y003622D03*
X004492Y003623D03*
X005776Y003527D03*
X005776Y003526D03*
X005776Y003525D03*
X005776Y003524D03*
D151*
X004506Y003525D03*
X004506Y003526D03*
X004506Y003527D03*
X004506Y003528D03*
D152*
X004491Y003624D03*
X004491Y003625D03*
X004491Y003626D03*
X004491Y003627D03*
X005776Y003532D03*
X005776Y003531D03*
X005776Y003530D03*
X005776Y003529D03*
X005776Y003528D03*
D153*
X005777Y003533D03*
X005777Y003534D03*
X005777Y003535D03*
X005777Y003536D03*
X004491Y003628D03*
X004491Y003629D03*
X004491Y003630D03*
D154*
X004490Y003631D03*
X004490Y003632D03*
X004490Y003633D03*
X005777Y003540D03*
X005777Y003539D03*
X005777Y003538D03*
X005777Y003537D03*
D155*
X005778Y003541D03*
X005778Y003542D03*
X005778Y003543D03*
X005778Y003544D03*
X004490Y003634D03*
X004490Y003635D03*
X004490Y003636D03*
X004490Y003637D03*
D156*
X004489Y003638D03*
X004489Y003639D03*
X004489Y003640D03*
X005778Y003548D03*
X005778Y003547D03*
X005778Y003546D03*
X005778Y003545D03*
D157*
X005779Y003549D03*
X005779Y003550D03*
X005779Y003551D03*
X005779Y003552D03*
X004489Y003641D03*
X004489Y003642D03*
X004489Y003643D03*
X004489Y003644D03*
D158*
X004488Y003645D03*
X004488Y003646D03*
X004488Y003647D03*
X005779Y003557D03*
X005779Y003556D03*
X005779Y003555D03*
X005779Y003554D03*
X005779Y003553D03*
D159*
X005780Y003558D03*
X005780Y003559D03*
X005780Y003560D03*
X005780Y003561D03*
X004488Y003648D03*
X004488Y003649D03*
X004488Y003650D03*
D160*
X004487Y003651D03*
X004487Y003652D03*
X004487Y003653D03*
X004487Y003654D03*
X005780Y003565D03*
X005780Y003564D03*
X005780Y003563D03*
X005780Y003562D03*
D161*
X005781Y003566D03*
X005781Y003567D03*
X005781Y003568D03*
X005781Y003569D03*
X004487Y003655D03*
X004487Y003656D03*
X004487Y003657D03*
D162*
X004486Y003658D03*
X004486Y003659D03*
X004486Y003660D03*
X004486Y003661D03*
X005781Y003573D03*
X005781Y003572D03*
X005781Y003571D03*
X005781Y003570D03*
D163*
X005782Y003574D03*
X005782Y003575D03*
X005782Y003576D03*
X005782Y003577D03*
X004486Y003662D03*
X004486Y003663D03*
X004486Y003664D03*
D164*
X004485Y003665D03*
X004485Y003666D03*
X004485Y003667D03*
X005782Y003582D03*
X005782Y003581D03*
X005782Y003580D03*
X005782Y003579D03*
X005782Y003578D03*
D165*
X005783Y003583D03*
X005783Y003584D03*
X005783Y003585D03*
X005783Y003586D03*
X004485Y003668D03*
X004485Y003669D03*
X004485Y003670D03*
X004485Y003671D03*
D166*
X004484Y003672D03*
X004484Y003673D03*
X004484Y003674D03*
X005783Y003590D03*
X005783Y003589D03*
X005783Y003588D03*
X005783Y003587D03*
D167*
X005784Y003591D03*
X005784Y003592D03*
X005784Y003593D03*
X005784Y003594D03*
X004484Y003675D03*
X004484Y003676D03*
X004484Y003677D03*
X004484Y003678D03*
D168*
X004483Y003679D03*
X004483Y003680D03*
X004483Y003681D03*
X005784Y003598D03*
X005784Y003597D03*
X005784Y003596D03*
X005784Y003595D03*
D169*
X005785Y003599D03*
X005785Y003600D03*
X005785Y003601D03*
X005785Y003602D03*
X004483Y003682D03*
X004483Y003683D03*
X004483Y003684D03*
D170*
X004482Y003685D03*
X004482Y003686D03*
X004482Y003687D03*
X004482Y003688D03*
X005785Y003607D03*
X005785Y003606D03*
X005785Y003605D03*
X005785Y003604D03*
X005785Y003603D03*
D171*
X005786Y003608D03*
X005786Y003609D03*
X005786Y003610D03*
X005786Y003611D03*
X004482Y003689D03*
X004482Y003690D03*
X004482Y003691D03*
D172*
X004481Y003692D03*
X004481Y003693D03*
X004481Y003694D03*
X004481Y003695D03*
X005786Y003615D03*
X005786Y003614D03*
X005786Y003613D03*
X005786Y003612D03*
D173*
X005787Y003616D03*
X005787Y003617D03*
X005787Y003618D03*
X005787Y003619D03*
X004481Y003696D03*
X004481Y003697D03*
X004481Y003698D03*
D174*
X004480Y003699D03*
X004480Y003700D03*
X004480Y003701D03*
X005787Y003623D03*
X005787Y003622D03*
X005787Y003621D03*
X005787Y003620D03*
D175*
X005788Y003624D03*
X005788Y003625D03*
X005788Y003626D03*
X005788Y003627D03*
X004480Y003702D03*
X004480Y003703D03*
X004480Y003704D03*
X004480Y003705D03*
D176*
X004479Y003706D03*
X004479Y003707D03*
X004479Y003708D03*
X005788Y003632D03*
X005788Y003631D03*
X005788Y003630D03*
X005788Y003629D03*
X005788Y003628D03*
D177*
X005789Y003633D03*
X005789Y003634D03*
X005789Y003635D03*
X005789Y003636D03*
X004479Y003709D03*
X004479Y003710D03*
X004479Y003711D03*
X004479Y003712D03*
D178*
X004478Y003713D03*
X004478Y003714D03*
X004478Y003715D03*
X005789Y003640D03*
X005789Y003639D03*
X005789Y003638D03*
X005789Y003637D03*
D179*
X005790Y003641D03*
X005790Y003642D03*
X005790Y003643D03*
X005790Y003644D03*
X004478Y003716D03*
X004478Y003717D03*
X004478Y003718D03*
D180*
X004477Y003719D03*
X004477Y003720D03*
X004477Y003721D03*
X004477Y003722D03*
X005790Y003648D03*
X005790Y003647D03*
X005790Y003646D03*
X005790Y003645D03*
D181*
X005791Y003649D03*
X005791Y003650D03*
X005791Y003651D03*
X005791Y003652D03*
X004477Y003723D03*
X004477Y003724D03*
X004477Y003725D03*
D182*
X004476Y003726D03*
X004476Y003727D03*
X004476Y003728D03*
X004476Y003729D03*
X005791Y003657D03*
X005791Y003656D03*
X005791Y003655D03*
X005791Y003654D03*
X005791Y003653D03*
D183*
X005792Y003658D03*
X005792Y003659D03*
X005792Y003660D03*
X005792Y003661D03*
X004476Y003730D03*
X004476Y003731D03*
X004476Y003732D03*
D184*
X004475Y003733D03*
X004475Y003734D03*
X004475Y003735D03*
X005792Y003665D03*
X005792Y003664D03*
X005792Y003663D03*
X005792Y003662D03*
D185*
X005793Y003666D03*
X005793Y003667D03*
X005793Y003668D03*
X005793Y003669D03*
X004475Y003736D03*
X004475Y003737D03*
X004475Y003738D03*
X004475Y003739D03*
D186*
X004474Y003740D03*
X004474Y003741D03*
X004474Y003742D03*
X005793Y003673D03*
X005793Y003672D03*
X005793Y003671D03*
X005793Y003670D03*
D187*
X005794Y003674D03*
X005794Y003675D03*
X005794Y003676D03*
X005794Y003677D03*
X004474Y003743D03*
X004474Y003744D03*
X004474Y003745D03*
X004474Y003746D03*
D188*
X004473Y003747D03*
X004473Y003748D03*
X004473Y003749D03*
X005794Y003682D03*
X005794Y003681D03*
X005794Y003680D03*
X005794Y003679D03*
X005794Y003678D03*
D189*
X005795Y003683D03*
X005795Y003684D03*
X005795Y003685D03*
X005795Y003686D03*
X004473Y003750D03*
X004473Y003751D03*
X004473Y003752D03*
D190*
X004472Y003753D03*
X004472Y003754D03*
X004472Y003755D03*
X004472Y003756D03*
X005795Y003690D03*
X005795Y003689D03*
X005795Y003688D03*
X005795Y003687D03*
D191*
X005796Y003691D03*
X005796Y003692D03*
X005796Y003693D03*
X005796Y003694D03*
X004472Y003757D03*
X004472Y003758D03*
X004472Y003759D03*
D192*
X004471Y003760D03*
X004471Y003761D03*
X004471Y003762D03*
X004471Y003763D03*
X005796Y003698D03*
X005796Y003697D03*
X005796Y003696D03*
X005796Y003695D03*
D193*
X005797Y003699D03*
X005797Y003700D03*
X005797Y003701D03*
X005797Y003702D03*
X004471Y003764D03*
X004471Y003765D03*
X004471Y003766D03*
D194*
X004470Y003767D03*
X004470Y003768D03*
X004470Y003769D03*
X005797Y003707D03*
X005797Y003706D03*
X005797Y003705D03*
X005797Y003704D03*
X005797Y003703D03*
D195*
X005798Y003708D03*
X005798Y003709D03*
X005798Y003710D03*
X005798Y003711D03*
X004470Y003770D03*
X004470Y003771D03*
X004470Y003772D03*
X004470Y003773D03*
D196*
X004469Y003774D03*
X004469Y003775D03*
X004469Y003776D03*
X005798Y003715D03*
X005798Y003714D03*
X005798Y003713D03*
X005798Y003712D03*
D197*
X005799Y003716D03*
X005799Y003717D03*
X005799Y003718D03*
X005799Y003719D03*
X004469Y003777D03*
X004469Y003778D03*
X004469Y003779D03*
X004469Y003780D03*
D198*
X004468Y003781D03*
X004468Y003782D03*
X004468Y003783D03*
X005799Y003723D03*
X005799Y003722D03*
X005799Y003721D03*
X005799Y003720D03*
D199*
X005800Y003724D03*
X005800Y003725D03*
X005800Y003726D03*
X005800Y003727D03*
X004468Y003784D03*
X004468Y003785D03*
X004468Y003786D03*
D200*
X004467Y003787D03*
X004467Y003788D03*
X004467Y003789D03*
X004467Y003790D03*
X005800Y003732D03*
X005800Y003731D03*
X005800Y003730D03*
X005800Y003729D03*
X005800Y003728D03*
D201*
X005801Y003733D03*
X005801Y003734D03*
X005801Y003735D03*
X005801Y003736D03*
X004467Y003791D03*
X004467Y003792D03*
X004467Y003793D03*
D202*
X004466Y003794D03*
X004466Y003795D03*
X004466Y003796D03*
X004466Y003797D03*
X005801Y003740D03*
X005801Y003739D03*
X005801Y003738D03*
X005801Y003737D03*
D203*
X005802Y003741D03*
X005802Y003742D03*
X005802Y003743D03*
X005802Y003744D03*
X004466Y003798D03*
X004466Y003799D03*
X004466Y003800D03*
D204*
X004465Y003801D03*
X004465Y003802D03*
X004465Y003803D03*
X005802Y003748D03*
X005802Y003747D03*
X005802Y003746D03*
X005802Y003745D03*
D205*
X005803Y003749D03*
X005803Y003750D03*
X005803Y003751D03*
X005803Y003752D03*
X004465Y003804D03*
X004465Y003805D03*
X004465Y003806D03*
X004465Y003807D03*
D206*
X004464Y003808D03*
X004464Y003809D03*
X004464Y003810D03*
X005803Y003757D03*
X005803Y003756D03*
X005803Y003755D03*
X005803Y003754D03*
X005803Y003753D03*
D207*
X005804Y003758D03*
X005804Y003759D03*
X005804Y003760D03*
X005804Y003761D03*
X004464Y003811D03*
X004464Y003812D03*
X004464Y003813D03*
X004464Y003814D03*
D208*
X004463Y003815D03*
X004463Y003816D03*
X004463Y003817D03*
X005804Y003765D03*
X005804Y003764D03*
X005804Y003763D03*
X005804Y003762D03*
D209*
X005805Y003766D03*
X005805Y003767D03*
X005805Y003768D03*
X005805Y003769D03*
X004463Y003818D03*
X004463Y003819D03*
X004463Y003820D03*
D210*
X004462Y003821D03*
X004462Y003822D03*
X004462Y003823D03*
X004462Y003824D03*
X005805Y003773D03*
X005805Y003772D03*
X005805Y003771D03*
X005805Y003770D03*
D211*
X005806Y003774D03*
X005806Y003775D03*
X005806Y003776D03*
X005806Y003777D03*
X004462Y003825D03*
X004462Y003826D03*
X004462Y003827D03*
D212*
X004461Y003828D03*
X004461Y003829D03*
X004461Y003830D03*
X004461Y003831D03*
X005806Y003782D03*
X005806Y003781D03*
X005806Y003780D03*
X005806Y003779D03*
X005806Y003778D03*
D213*
X005807Y003783D03*
X005807Y003784D03*
X005807Y003785D03*
X005807Y003786D03*
X004461Y003832D03*
X004461Y003833D03*
X004461Y003834D03*
D214*
X004460Y003835D03*
X004460Y003836D03*
X004460Y003837D03*
X005807Y003790D03*
X005807Y003789D03*
X005807Y003788D03*
X005807Y003787D03*
D215*
X005808Y003791D03*
X005808Y003792D03*
X005808Y003793D03*
X005808Y003794D03*
X004460Y003838D03*
X004460Y003839D03*
X004460Y003840D03*
X004460Y003841D03*
D216*
X004459Y003842D03*
X004459Y003843D03*
X004459Y003844D03*
X005808Y003798D03*
X005808Y003797D03*
X005808Y003796D03*
X005808Y003795D03*
D217*
X005809Y003799D03*
X005809Y003800D03*
X005809Y003801D03*
X005809Y003802D03*
X004459Y003845D03*
X004459Y003846D03*
X004459Y003847D03*
X004459Y003848D03*
D218*
X004458Y003849D03*
X004458Y003850D03*
X004458Y003851D03*
X005809Y003807D03*
X005809Y003806D03*
X005809Y003805D03*
X005809Y003804D03*
X005809Y003803D03*
D219*
X005810Y003808D03*
X005810Y003809D03*
X005810Y003810D03*
X005810Y003811D03*
X004458Y003852D03*
X004458Y003853D03*
X004458Y003854D03*
D220*
X004457Y003855D03*
X004457Y003856D03*
X004457Y003857D03*
X004457Y003858D03*
X005810Y003815D03*
X005810Y003814D03*
X005810Y003813D03*
X005810Y003812D03*
D221*
X005811Y003816D03*
X005811Y003817D03*
X005811Y003818D03*
X005811Y003819D03*
X004457Y003859D03*
X004457Y003860D03*
X004457Y003861D03*
D222*
X004456Y003862D03*
X004456Y003863D03*
X004456Y003864D03*
X004456Y003865D03*
X005811Y003823D03*
X005811Y003822D03*
X005811Y003821D03*
X005811Y003820D03*
D223*
X005812Y003824D03*
X005812Y003825D03*
X005812Y003826D03*
X005812Y003827D03*
X004456Y003866D03*
X004456Y003867D03*
X004456Y003868D03*
D224*
X004455Y003869D03*
X004455Y003870D03*
X004455Y003871D03*
X005812Y003832D03*
X005812Y003831D03*
X005812Y003830D03*
X005812Y003829D03*
X005812Y003828D03*
D225*
X005813Y003833D03*
X005813Y003834D03*
X005813Y003835D03*
X005813Y003836D03*
X004455Y003872D03*
X004455Y003873D03*
X004455Y003874D03*
X004455Y003875D03*
D226*
X004454Y003876D03*
X004454Y003877D03*
X004454Y003878D03*
X005813Y003840D03*
X005813Y003839D03*
X005813Y003838D03*
X005813Y003837D03*
D227*
X005814Y003841D03*
X005814Y003842D03*
X005814Y003843D03*
X005814Y003844D03*
X004454Y003879D03*
X004454Y003880D03*
X004454Y003881D03*
X004454Y003882D03*
D228*
X004453Y003883D03*
X004453Y003884D03*
X004453Y003885D03*
X005814Y003848D03*
X005814Y003847D03*
X005814Y003846D03*
X005814Y003845D03*
D229*
X005815Y003849D03*
X005815Y003850D03*
X005815Y003851D03*
X005815Y003852D03*
X004453Y003886D03*
X004453Y003887D03*
X004453Y003888D03*
D230*
X004452Y003889D03*
X004452Y003890D03*
X004452Y003891D03*
X004452Y003892D03*
X005815Y003857D03*
X005815Y003856D03*
X005815Y003855D03*
X005815Y003854D03*
X005815Y003853D03*
D231*
X005816Y003858D03*
X005816Y003859D03*
X005816Y003860D03*
X005816Y003861D03*
X004452Y003893D03*
X004452Y003894D03*
X004452Y003895D03*
D232*
X004451Y003896D03*
X004451Y003897D03*
X004451Y003898D03*
X004451Y003899D03*
X005816Y003865D03*
X005816Y003864D03*
X005816Y003863D03*
X005816Y003862D03*
D233*
X005817Y003866D03*
X005817Y003867D03*
X005817Y003868D03*
X005817Y003869D03*
X004451Y003900D03*
X004451Y003901D03*
X004451Y003902D03*
D234*
X004450Y003903D03*
X004450Y003904D03*
X004450Y003905D03*
X005817Y003873D03*
X005817Y003872D03*
X005817Y003871D03*
X005817Y003870D03*
D235*
X005818Y003874D03*
X005818Y003875D03*
X005818Y003876D03*
X005818Y003877D03*
X004450Y003906D03*
X004450Y003907D03*
X004450Y003908D03*
X004450Y003909D03*
D236*
X004449Y003910D03*
X004449Y003911D03*
X004449Y003912D03*
X005818Y003882D03*
X005818Y003881D03*
X005818Y003880D03*
X005818Y003879D03*
X005818Y003878D03*
D237*
X005819Y003883D03*
X005819Y003884D03*
X005819Y003885D03*
X005819Y003886D03*
X004449Y003913D03*
X004449Y003914D03*
X004449Y003915D03*
X004449Y003916D03*
D238*
X004448Y003917D03*
X004448Y003918D03*
X004448Y003919D03*
X005819Y003890D03*
X005819Y003889D03*
X005819Y003888D03*
X005819Y003887D03*
D239*
X005820Y003891D03*
X005820Y003892D03*
X005820Y003893D03*
X005820Y003894D03*
X004448Y003920D03*
X004448Y003921D03*
X004448Y003922D03*
D240*
X004447Y003923D03*
X004447Y003924D03*
X004447Y003925D03*
X004447Y003926D03*
X005820Y003898D03*
X005820Y003897D03*
X005820Y003896D03*
X005820Y003895D03*
D241*
X005821Y003899D03*
X005821Y003900D03*
X005821Y003901D03*
X005821Y003902D03*
X004447Y003927D03*
X004447Y003928D03*
X004447Y003929D03*
D242*
X004446Y003930D03*
X004446Y003931D03*
X004446Y003932D03*
X004446Y003933D03*
X005821Y003907D03*
X005821Y003906D03*
X005821Y003905D03*
X005821Y003904D03*
X005821Y003903D03*
D243*
X005822Y003908D03*
X005822Y003909D03*
X005822Y003910D03*
X005822Y003911D03*
X004446Y003934D03*
X004446Y003935D03*
X004446Y003936D03*
D244*
X004445Y003937D03*
X004445Y003938D03*
X004445Y003939D03*
X005822Y003915D03*
X005822Y003914D03*
X005822Y003913D03*
X005822Y003912D03*
D245*
X005823Y003916D03*
X005823Y003917D03*
X005823Y003918D03*
X005823Y003919D03*
X004445Y003940D03*
X004445Y003941D03*
X004445Y003942D03*
X004445Y003943D03*
D246*
X004444Y003944D03*
X004444Y003945D03*
X004444Y003946D03*
X005823Y003923D03*
X005823Y003922D03*
X005823Y003921D03*
X005823Y003920D03*
D247*
X005824Y003924D03*
X005824Y003925D03*
X005824Y003926D03*
X005824Y003927D03*
X004444Y003947D03*
X004444Y003948D03*
X004444Y003949D03*
X004444Y003950D03*
D248*
X004443Y003951D03*
X004443Y003952D03*
X004443Y003953D03*
X005824Y003932D03*
X005824Y003931D03*
X005824Y003930D03*
X005824Y003929D03*
X005824Y003928D03*
D249*
X005825Y003933D03*
X005825Y003934D03*
X005825Y003935D03*
X005825Y003936D03*
X004443Y003954D03*
X004443Y003955D03*
X004443Y003956D03*
D250*
X004442Y003957D03*
X004442Y003958D03*
X004442Y003959D03*
X004442Y003960D03*
X005825Y003940D03*
X005825Y003939D03*
X005825Y003938D03*
X005825Y003937D03*
D251*
X005826Y003941D03*
X005826Y003942D03*
X005826Y003943D03*
X005826Y003944D03*
X004442Y003961D03*
X004442Y003962D03*
X004442Y003963D03*
D252*
X004441Y003964D03*
X004441Y003965D03*
X004441Y003966D03*
X004441Y003967D03*
X005826Y003948D03*
X005826Y003947D03*
X005826Y003946D03*
X005826Y003945D03*
D253*
X005827Y003949D03*
X005827Y003950D03*
X005827Y003951D03*
X005827Y003952D03*
X004441Y003968D03*
X004441Y003969D03*
X004441Y003970D03*
D254*
X004440Y003971D03*
X004440Y003972D03*
X004440Y003973D03*
X005827Y003957D03*
X005827Y003956D03*
X005827Y003955D03*
X005827Y003954D03*
X005827Y003953D03*
D255*
X005828Y003958D03*
X005828Y003959D03*
X005828Y003960D03*
X005828Y003961D03*
X004440Y003974D03*
X004440Y003975D03*
X004440Y003976D03*
X004440Y003977D03*
D256*
X004439Y003978D03*
X004439Y003979D03*
X004439Y003980D03*
X005828Y003965D03*
X005828Y003964D03*
X005828Y003963D03*
X005828Y003962D03*
D257*
X005829Y003966D03*
X005829Y003967D03*
X005829Y003968D03*
X005829Y003969D03*
X004439Y003981D03*
X004439Y003982D03*
X004439Y003983D03*
X004439Y003984D03*
D258*
X004438Y003985D03*
X004438Y003986D03*
X004438Y003987D03*
X005829Y003973D03*
X005829Y003972D03*
X005829Y003971D03*
X005829Y003970D03*
D259*
X005830Y003974D03*
X005830Y003975D03*
X005830Y003976D03*
X005830Y003977D03*
X004438Y003988D03*
X004438Y003989D03*
X004438Y003990D03*
D260*
X004437Y003991D03*
X004437Y003992D03*
X004437Y003993D03*
X004437Y003994D03*
X005830Y003982D03*
X005830Y003981D03*
X005830Y003980D03*
X005830Y003979D03*
X005830Y003978D03*
D261*
X005831Y003983D03*
X005831Y003984D03*
X005831Y003985D03*
X005831Y003986D03*
X004437Y003995D03*
X004437Y003996D03*
X004437Y003997D03*
D262*
X004436Y003998D03*
X004436Y003999D03*
X004436Y004000D03*
X004436Y004001D03*
X005831Y003990D03*
X005831Y003989D03*
X005831Y003988D03*
X005831Y003987D03*
D263*
X005832Y003991D03*
X005832Y003992D03*
X005832Y003993D03*
X005832Y003994D03*
X004436Y004002D03*
X004436Y004003D03*
X004436Y004004D03*
D264*
X004435Y004005D03*
X004435Y004006D03*
X004435Y004007D03*
X005832Y003998D03*
X005832Y003997D03*
X005832Y003996D03*
X005832Y003995D03*
D265*
X005833Y003999D03*
X005833Y004000D03*
X005833Y004001D03*
X005833Y004002D03*
X004435Y004008D03*
X004435Y004009D03*
X004435Y004010D03*
X004435Y004011D03*
D266*
X004434Y004012D03*
X004434Y004013D03*
X004434Y004014D03*
X005833Y004007D03*
X005833Y004006D03*
X005833Y004005D03*
X005833Y004004D03*
X005833Y004003D03*
D267*
X005834Y004008D03*
X005834Y004009D03*
X005834Y004010D03*
X005834Y004011D03*
X004434Y004015D03*
X004434Y004016D03*
X004434Y004017D03*
X004434Y004018D03*
D268*
X004433Y004019D03*
X004433Y004020D03*
X004433Y004021D03*
X005834Y004015D03*
X005834Y004014D03*
X005834Y004013D03*
X005834Y004012D03*
D269*
X005835Y004016D03*
X005835Y004017D03*
X005835Y004018D03*
X005835Y004019D03*
X004433Y004022D03*
X004433Y004023D03*
X004433Y004024D03*
D270*
X004432Y004025D03*
X004432Y004026D03*
X004432Y004027D03*
X004432Y004028D03*
X005835Y004023D03*
X005835Y004022D03*
X005835Y004021D03*
X005835Y004020D03*
D271*
X005836Y004024D03*
X005836Y004025D03*
X005836Y004026D03*
X005836Y004027D03*
X004432Y004029D03*
X004432Y004030D03*
X004432Y004031D03*
D272*
X004431Y004032D03*
X004431Y004033D03*
X004431Y004034D03*
X004431Y004035D03*
X005836Y004032D03*
X005836Y004031D03*
X005836Y004030D03*
X005836Y004029D03*
X005836Y004028D03*
D273*
X005837Y004033D03*
X005837Y004034D03*
X005837Y004035D03*
X005837Y004036D03*
X004431Y004037D03*
X004431Y004038D03*
X004431Y004036D03*
D274*
X004430Y004039D03*
X004430Y004040D03*
X004430Y004041D03*
X005837Y004040D03*
X005837Y004039D03*
X005837Y004038D03*
X005837Y004037D03*
D275*
X005838Y004041D03*
X005838Y004042D03*
X005838Y004043D03*
X005838Y004044D03*
X004430Y004045D03*
X004430Y004044D03*
X004430Y004043D03*
X004430Y004042D03*
D276*
X004429Y004046D03*
X004429Y004047D03*
X004429Y004048D03*
X005838Y004048D03*
X005838Y004047D03*
X005838Y004046D03*
X005838Y004045D03*
D277*
X005839Y004049D03*
X005839Y004050D03*
X005839Y004051D03*
X005839Y004052D03*
X004429Y004052D03*
X004429Y004051D03*
X004429Y004050D03*
X004429Y004049D03*
D278*
X004428Y004053D03*
X004428Y004054D03*
X004428Y004055D03*
X005839Y004056D03*
X005839Y004057D03*
X005839Y004055D03*
X005839Y004054D03*
X005839Y004053D03*
D279*
X005840Y004058D03*
X005840Y004059D03*
X005840Y004060D03*
X005840Y004061D03*
X004428Y004058D03*
X004428Y004057D03*
X004428Y004056D03*
D280*
X004427Y004059D03*
X004427Y004060D03*
X004427Y004061D03*
X004427Y004062D03*
X005840Y004063D03*
X005840Y004064D03*
X005840Y004065D03*
X005840Y004062D03*
D281*
X005841Y004066D03*
X005841Y004067D03*
X005841Y004068D03*
X005841Y004069D03*
X004427Y004065D03*
X004427Y004064D03*
X004427Y004063D03*
D282*
X004426Y004066D03*
X004426Y004067D03*
X004426Y004068D03*
X004426Y004069D03*
X005841Y004070D03*
X005841Y004071D03*
X005841Y004072D03*
X005841Y004073D03*
D283*
X005842Y004074D03*
X005842Y004075D03*
X005842Y004076D03*
X005842Y004077D03*
X004426Y004072D03*
X004426Y004071D03*
X004426Y004070D03*
D284*
X004425Y004073D03*
X004425Y004074D03*
X004425Y004075D03*
X005842Y004078D03*
X005842Y004079D03*
X005842Y004080D03*
X005842Y004081D03*
X005842Y004082D03*
D285*
X005843Y004083D03*
X005843Y004084D03*
X005843Y004085D03*
X005843Y004086D03*
X004425Y004079D03*
X004425Y004078D03*
X004425Y004077D03*
X004425Y004076D03*
D286*
X004424Y004080D03*
X004424Y004081D03*
X004424Y004082D03*
X005843Y004087D03*
X005843Y004088D03*
X005843Y004089D03*
X005843Y004090D03*
D287*
X005844Y004091D03*
X005844Y004092D03*
X005844Y004093D03*
X005844Y004094D03*
X004424Y004086D03*
X004424Y004085D03*
X004424Y004084D03*
X004424Y004083D03*
D288*
X004423Y004087D03*
X004423Y004088D03*
X004423Y004089D03*
X005844Y004095D03*
X005844Y004096D03*
X005844Y004097D03*
X005844Y004098D03*
D289*
X005845Y004099D03*
X005845Y004100D03*
X005845Y004101D03*
X005845Y004102D03*
X004423Y004092D03*
X004423Y004091D03*
X004423Y004090D03*
D290*
X004422Y004093D03*
X004422Y004094D03*
X004422Y004095D03*
X004422Y004096D03*
X005845Y004103D03*
X005845Y004104D03*
X005845Y004105D03*
X005845Y004106D03*
X005845Y004107D03*
D291*
X005846Y004108D03*
X005846Y004109D03*
X005846Y004110D03*
X005846Y004111D03*
X004422Y004099D03*
X004422Y004098D03*
X004422Y004097D03*
D292*
X004421Y004100D03*
X004421Y004101D03*
X004421Y004102D03*
X004421Y004103D03*
X005846Y004112D03*
X005846Y004113D03*
X005846Y004114D03*
X005846Y004115D03*
D293*
X005847Y004116D03*
X005847Y004117D03*
X005847Y004118D03*
X005847Y004119D03*
X004421Y004106D03*
X004421Y004105D03*
X004421Y004104D03*
D294*
X004420Y004107D03*
X004420Y004108D03*
X004420Y004109D03*
X005847Y004120D03*
X005847Y004121D03*
X005847Y004122D03*
X005847Y004123D03*
D295*
X005848Y004124D03*
X005848Y004125D03*
X005848Y004126D03*
X005848Y004127D03*
X004420Y004113D03*
X004420Y004112D03*
X004420Y004111D03*
X004420Y004110D03*
D296*
X004419Y004114D03*
X004419Y004115D03*
X004419Y004116D03*
X005848Y004128D03*
X005848Y004129D03*
X005848Y004130D03*
X005848Y004131D03*
X005848Y004132D03*
D297*
X005849Y004133D03*
X005849Y004134D03*
X005849Y004135D03*
X005849Y004136D03*
X004419Y004120D03*
X004419Y004119D03*
X004419Y004118D03*
X004419Y004117D03*
D298*
X004418Y004121D03*
X004418Y004122D03*
X004418Y004123D03*
X005849Y004137D03*
X005849Y004138D03*
X005849Y004139D03*
X005849Y004140D03*
D299*
X005850Y004141D03*
X005850Y004142D03*
X005850Y004143D03*
X005850Y004144D03*
X004418Y004126D03*
X004418Y004125D03*
X004418Y004124D03*
D300*
X004417Y004127D03*
X004417Y004128D03*
X004417Y004129D03*
X004417Y004130D03*
X005850Y004145D03*
X005850Y004146D03*
X005850Y004147D03*
X005850Y004148D03*
D301*
X005851Y004149D03*
X005851Y004150D03*
X005851Y004151D03*
X005851Y004152D03*
X004417Y004133D03*
X004417Y004132D03*
X004417Y004131D03*
D302*
X004416Y004134D03*
X004416Y004135D03*
X004416Y004136D03*
X004416Y004137D03*
X005851Y004153D03*
X005851Y004154D03*
D303*
X004416Y004140D03*
X004416Y004139D03*
X004416Y004138D03*
D304*
X004415Y004141D03*
X004415Y004142D03*
X004415Y004143D03*
X004415Y004144D03*
D305*
X004415Y004145D03*
X004415Y004146D03*
X004415Y004147D03*
D306*
X004414Y004148D03*
X004414Y004149D03*
X004414Y004150D03*
D307*
X004414Y004151D03*
X004414Y004152D03*
X004414Y004153D03*
X004414Y004154D03*
D308*
X004525Y004155D03*
X004525Y004156D03*
X004525Y004157D03*
X004525Y004158D03*
X004525Y004159D03*
X004525Y004160D03*
X004525Y004161D03*
X004525Y004162D03*
X004525Y004163D03*
X004525Y004164D03*
X004525Y004165D03*
X004525Y004166D03*
X004525Y004167D03*
X004525Y004168D03*
X004525Y004169D03*
X004525Y004170D03*
X004525Y004171D03*
X004525Y004172D03*
X004525Y004173D03*
X004525Y004174D03*
X004525Y004175D03*
X004525Y004176D03*
X004525Y004177D03*
X004525Y004178D03*
X004525Y004179D03*
X004525Y004180D03*
X004525Y004181D03*
X004525Y004182D03*
X004525Y004183D03*
X004525Y004184D03*
X004525Y004185D03*
X004525Y004186D03*
X004525Y004187D03*
X004525Y004188D03*
X004525Y004189D03*
X004525Y004190D03*
X004525Y004191D03*
X004525Y004192D03*
X004525Y004193D03*
X004525Y004194D03*
X004525Y004195D03*
X004525Y004196D03*
X004525Y004197D03*
X004525Y004198D03*
X004525Y004199D03*
X004525Y004200D03*
X004525Y004201D03*
X004525Y004202D03*
X004525Y004203D03*
X004525Y004204D03*
X004525Y004205D03*
X004525Y004206D03*
X005742Y004206D03*
X005742Y004205D03*
X005742Y004204D03*
X005742Y004203D03*
X005742Y004202D03*
X005742Y004201D03*
X005742Y004200D03*
X005742Y004199D03*
X005742Y004198D03*
X005742Y004197D03*
X005742Y004196D03*
X005742Y004195D03*
X005742Y004194D03*
X005742Y004193D03*
X005742Y004192D03*
X005742Y004191D03*
X005742Y004190D03*
X005742Y004189D03*
X005742Y004188D03*
X005742Y004187D03*
X005742Y004186D03*
X005742Y004185D03*
X005742Y004184D03*
X005742Y004183D03*
X005742Y004182D03*
X005742Y004181D03*
X005742Y004180D03*
X005742Y004179D03*
X005742Y004178D03*
X005742Y004177D03*
X005742Y004176D03*
X005742Y004175D03*
X005742Y004174D03*
X005742Y004173D03*
X005742Y004172D03*
X005742Y004171D03*
X005742Y004170D03*
X005742Y004169D03*
X005742Y004168D03*
X005742Y004167D03*
X005742Y004166D03*
X005742Y004165D03*
X005742Y004164D03*
X005742Y004163D03*
X005742Y004162D03*
X005742Y004161D03*
X005742Y004160D03*
X005742Y004159D03*
X005742Y004158D03*
X005742Y004157D03*
X005742Y004156D03*
X005742Y004155D03*
D309*
X005134Y004207D03*
X005134Y004208D03*
X005134Y004209D03*
X005134Y004210D03*
X005134Y004211D03*
X005134Y004212D03*
X005134Y004213D03*
X005134Y004214D03*
X005134Y004215D03*
X005134Y004216D03*
X005134Y004217D03*
X005134Y004218D03*
X005134Y004219D03*
X005134Y004220D03*
X005134Y004221D03*
X005134Y004222D03*
X005134Y004223D03*
X005134Y004224D03*
X005134Y004225D03*
X005134Y004226D03*
X005134Y004227D03*
X005134Y004228D03*
X005134Y004229D03*
X005134Y004230D03*
X005134Y004231D03*
X005134Y004232D03*
X005134Y004233D03*
X005134Y004234D03*
X005134Y004235D03*
X005134Y004236D03*
X005134Y004237D03*
X005134Y004238D03*
X005134Y004239D03*
X005134Y004240D03*
X005134Y004241D03*
X005134Y004242D03*
X005134Y004243D03*
X005134Y004244D03*
X005134Y004245D03*
X005134Y004246D03*
X005134Y004247D03*
X005134Y004505D03*
X005134Y004506D03*
X005134Y004507D03*
X005134Y004508D03*
X005134Y004509D03*
X005134Y004510D03*
X005134Y004511D03*
X005134Y004512D03*
X005134Y004513D03*
X005134Y004514D03*
X005134Y004515D03*
X005134Y004516D03*
X005134Y004517D03*
X005134Y004518D03*
X005134Y004519D03*
X005134Y004520D03*
X005134Y004521D03*
X005134Y004522D03*
X005134Y004523D03*
X005134Y004524D03*
X005134Y004525D03*
X005134Y004526D03*
X005134Y004527D03*
X005134Y004528D03*
X005134Y004529D03*
X005134Y004530D03*
X005134Y004531D03*
X005134Y004532D03*
X005134Y004533D03*
X005134Y004534D03*
X005134Y004535D03*
X005134Y004536D03*
X005134Y004537D03*
X005134Y004538D03*
X005134Y004539D03*
X005134Y004540D03*
X005134Y004541D03*
X005134Y004542D03*
X005134Y004543D03*
X005134Y004544D03*
X005134Y004545D03*
X005134Y004546D03*
X005134Y004547D03*
X005134Y004548D03*
X005134Y004549D03*
X005134Y004550D03*
X005134Y004551D03*
X005134Y004552D03*
X005134Y004553D03*
X005134Y004554D03*
X005134Y004555D03*
X005134Y004556D03*
X005134Y004557D03*
X005134Y004558D03*
X005134Y004559D03*
X005134Y004560D03*
X005134Y004561D03*
X005134Y004562D03*
X005134Y004563D03*
X005134Y004564D03*
X005134Y004565D03*
X005134Y004566D03*
X005134Y004567D03*
X005134Y004568D03*
X005134Y004569D03*
X005134Y004570D03*
X005134Y004571D03*
X005134Y004572D03*
X005134Y004573D03*
X005134Y004574D03*
X005134Y004575D03*
X005134Y004576D03*
X005134Y004577D03*
D310*
X004587Y004504D03*
X004587Y004503D03*
X004587Y004502D03*
X004587Y004501D03*
X004587Y004500D03*
X004587Y004499D03*
X004587Y004498D03*
X004587Y004497D03*
X004587Y004496D03*
X004587Y004495D03*
X004587Y004494D03*
X004587Y004493D03*
X004587Y004492D03*
X004587Y004491D03*
X004587Y004490D03*
X004587Y004489D03*
X004587Y004488D03*
X004587Y004487D03*
X004587Y004486D03*
X004587Y004485D03*
X004587Y004484D03*
X004587Y004483D03*
X004587Y004482D03*
X004587Y004481D03*
X004587Y004480D03*
X004587Y004479D03*
X004587Y004478D03*
X004587Y004477D03*
X004587Y004476D03*
X004587Y004475D03*
X004587Y004474D03*
X004587Y004473D03*
X004587Y004472D03*
X004587Y004471D03*
X004587Y004470D03*
X004587Y004469D03*
X004587Y004468D03*
X004587Y004467D03*
X004587Y004466D03*
X004587Y004465D03*
X004587Y004464D03*
X004587Y004463D03*
X004587Y004462D03*
X004587Y004461D03*
X004587Y004460D03*
X004587Y004459D03*
X004587Y004458D03*
X004587Y004457D03*
X004587Y004456D03*
X004587Y004455D03*
X004587Y004454D03*
X004587Y004453D03*
X004587Y004452D03*
X004587Y004451D03*
X004587Y004450D03*
X004587Y004449D03*
X004587Y004448D03*
X004587Y004447D03*
X004587Y004446D03*
X004587Y004445D03*
X004587Y004444D03*
X004587Y004443D03*
X004587Y004442D03*
X004587Y004441D03*
X004587Y004440D03*
X004587Y004439D03*
X004587Y004438D03*
X004587Y004437D03*
X004587Y004436D03*
X004587Y004435D03*
X004587Y004434D03*
X004587Y004433D03*
X004587Y004432D03*
X004587Y004431D03*
X004587Y004430D03*
X004587Y004429D03*
X004587Y004428D03*
X004587Y004427D03*
X004587Y004426D03*
X004587Y004425D03*
X004587Y004424D03*
X004587Y004423D03*
X004587Y004422D03*
X004587Y004421D03*
X004587Y004420D03*
X004587Y004419D03*
X004587Y004418D03*
X004587Y004417D03*
X004587Y004416D03*
X004587Y004415D03*
X004587Y004414D03*
X004587Y004413D03*
X004587Y004412D03*
X004587Y004411D03*
X004587Y004410D03*
X004587Y004409D03*
X004587Y004408D03*
X004587Y004407D03*
X004587Y004406D03*
X004587Y004405D03*
X004587Y004404D03*
X004587Y004403D03*
X004587Y004402D03*
X004587Y004401D03*
X004587Y004400D03*
X004587Y004399D03*
X004587Y004398D03*
X004587Y004397D03*
X004587Y004396D03*
X004587Y004395D03*
X004587Y004394D03*
X004587Y004393D03*
X004587Y004392D03*
X004587Y004391D03*
X004587Y004390D03*
X004587Y004389D03*
X004587Y004388D03*
X004587Y004387D03*
X004587Y004386D03*
X004587Y004385D03*
X004587Y004384D03*
X004587Y004383D03*
X004587Y004382D03*
X004587Y004381D03*
X004587Y004380D03*
X004587Y004379D03*
X004587Y004378D03*
X004587Y004377D03*
X004587Y004376D03*
X004587Y004375D03*
X004587Y004374D03*
X004587Y004373D03*
X004587Y004372D03*
X004587Y004371D03*
X004587Y004370D03*
X004587Y004369D03*
X004587Y004368D03*
X004587Y004367D03*
X004587Y004366D03*
X004587Y004365D03*
X004587Y004364D03*
X004587Y004363D03*
X004587Y004362D03*
X004587Y004361D03*
X004587Y004360D03*
X004587Y004359D03*
X004587Y004358D03*
X004587Y004357D03*
X004587Y004356D03*
X004587Y004355D03*
X004587Y004354D03*
X004587Y004353D03*
X004587Y004352D03*
X004587Y004351D03*
X004587Y004350D03*
X004587Y004349D03*
X004587Y004348D03*
X004587Y004347D03*
X004587Y004346D03*
X004587Y004345D03*
X004587Y004344D03*
X004587Y004343D03*
X004587Y004342D03*
X004587Y004341D03*
X004587Y004340D03*
X004587Y004339D03*
X004587Y004338D03*
X004587Y004337D03*
X004587Y004336D03*
X004587Y004335D03*
X004587Y004334D03*
X004587Y004333D03*
X004587Y004332D03*
X004587Y004331D03*
X004587Y004330D03*
X004587Y004329D03*
X004587Y004328D03*
X004587Y004327D03*
X004587Y004326D03*
X004587Y004325D03*
X004587Y004324D03*
X004587Y004323D03*
X004587Y004322D03*
X004587Y004321D03*
X004587Y004320D03*
X004587Y004319D03*
X004587Y004318D03*
X004587Y004317D03*
X004587Y004316D03*
X004587Y004315D03*
X004587Y004314D03*
X004587Y004313D03*
X004587Y004312D03*
X004587Y004311D03*
X004587Y004310D03*
X004587Y004309D03*
X004587Y004308D03*
X004587Y004307D03*
X004587Y004306D03*
X004587Y004305D03*
X004587Y004304D03*
X004587Y004303D03*
X004587Y004302D03*
X004587Y004301D03*
X004587Y004300D03*
X004587Y004299D03*
X004587Y004298D03*
X004587Y004297D03*
X004587Y004296D03*
X004587Y004295D03*
X004587Y004294D03*
X004587Y004293D03*
X004587Y004292D03*
X004587Y004291D03*
X004587Y004290D03*
X004587Y004289D03*
X004587Y004288D03*
X004587Y004287D03*
X004587Y004286D03*
X004587Y004285D03*
X004587Y004284D03*
X004587Y004283D03*
X004587Y004282D03*
X004587Y004281D03*
X004587Y004280D03*
X004587Y004279D03*
X004587Y004278D03*
X004587Y004277D03*
X004587Y004276D03*
X004587Y004275D03*
X004587Y004274D03*
X004587Y004273D03*
X004587Y004272D03*
X004587Y004271D03*
X004587Y004270D03*
X004587Y004269D03*
X004587Y004268D03*
X004587Y004267D03*
X004587Y004266D03*
X004587Y004265D03*
X004587Y004264D03*
X004587Y004263D03*
X004587Y004262D03*
X004587Y004261D03*
X004587Y004260D03*
X004587Y004259D03*
X004587Y004258D03*
X004587Y004257D03*
X004587Y004256D03*
X004587Y004255D03*
X004587Y004254D03*
X004587Y004253D03*
X004587Y004252D03*
X004587Y004251D03*
X004587Y004250D03*
X004587Y004249D03*
X004587Y004248D03*
D311*
X005696Y004249D03*
X005696Y004250D03*
X005696Y004251D03*
X005696Y004252D03*
X005696Y004253D03*
X005696Y004254D03*
X005696Y004255D03*
X005696Y004256D03*
X005696Y004257D03*
X005696Y004258D03*
X005696Y004259D03*
X005696Y004260D03*
X005696Y004261D03*
X005696Y004262D03*
X005696Y004263D03*
X005696Y004264D03*
X005696Y004265D03*
X005696Y004266D03*
X005696Y004267D03*
X005696Y004268D03*
X005696Y004269D03*
X005696Y004270D03*
X005696Y004271D03*
X005696Y004272D03*
X005696Y004273D03*
X005696Y004274D03*
X005696Y004275D03*
X005696Y004276D03*
X005696Y004277D03*
X005696Y004278D03*
X005696Y004279D03*
X005696Y004280D03*
X005696Y004281D03*
X005696Y004282D03*
X005696Y004283D03*
X005696Y004284D03*
X005696Y004285D03*
X005696Y004286D03*
X005696Y004287D03*
X005696Y004288D03*
X005696Y004289D03*
X005696Y004290D03*
X005696Y004291D03*
X005696Y004292D03*
X005696Y004293D03*
X005696Y004294D03*
X005696Y004295D03*
X005696Y004296D03*
X005696Y004297D03*
X005696Y004298D03*
X005696Y004299D03*
X005696Y004300D03*
X005696Y004301D03*
X005696Y004302D03*
X005696Y004303D03*
X005696Y004304D03*
X005696Y004305D03*
X005696Y004306D03*
X005696Y004307D03*
X005696Y004308D03*
X005696Y004309D03*
X005696Y004310D03*
X005696Y004311D03*
X005696Y004312D03*
X005696Y004313D03*
X005696Y004314D03*
X005696Y004315D03*
X005696Y004316D03*
X005696Y004317D03*
X005696Y004318D03*
X005696Y004319D03*
X005696Y004320D03*
X005696Y004321D03*
X005696Y004322D03*
X005696Y004323D03*
X005696Y004324D03*
X005696Y004325D03*
X005696Y004326D03*
X005696Y004327D03*
X005696Y004328D03*
X005696Y004329D03*
X005696Y004330D03*
X005696Y004331D03*
X005696Y004332D03*
X005696Y004333D03*
X005696Y004334D03*
X005696Y004335D03*
X005696Y004336D03*
X005696Y004337D03*
X005696Y004338D03*
X005696Y004339D03*
X005696Y004340D03*
X005696Y004341D03*
X005696Y004342D03*
X005696Y004343D03*
X005696Y004344D03*
X005696Y004345D03*
X005696Y004346D03*
X005696Y004347D03*
X005696Y004348D03*
X005696Y004349D03*
X005696Y004350D03*
X005696Y004351D03*
X005696Y004352D03*
X005696Y004353D03*
X005696Y004354D03*
X005696Y004355D03*
X005696Y004356D03*
X005696Y004357D03*
X005696Y004358D03*
X005696Y004359D03*
X005696Y004360D03*
X005696Y004361D03*
X005696Y004362D03*
X005696Y004363D03*
X005696Y004364D03*
X005696Y004365D03*
X005696Y004366D03*
X005696Y004367D03*
X005696Y004368D03*
X005696Y004369D03*
X005696Y004370D03*
X005696Y004371D03*
X005696Y004372D03*
X005696Y004373D03*
X005696Y004374D03*
X005696Y004375D03*
X005696Y004376D03*
X005696Y004377D03*
X005696Y004378D03*
X005696Y004379D03*
X005696Y004380D03*
X005696Y004381D03*
X005696Y004382D03*
X005696Y004383D03*
X005696Y004384D03*
X005696Y004385D03*
X005696Y004386D03*
X005696Y004387D03*
X005696Y004388D03*
X005696Y004389D03*
X005696Y004390D03*
X005696Y004391D03*
X005696Y004392D03*
X005696Y004393D03*
X005696Y004394D03*
X005696Y004395D03*
X005696Y004396D03*
X005696Y004397D03*
X005696Y004398D03*
X005696Y004399D03*
X005696Y004400D03*
X005696Y004401D03*
X005696Y004402D03*
X005696Y004403D03*
X005696Y004404D03*
X005696Y004405D03*
X005696Y004406D03*
X005696Y004407D03*
X005696Y004408D03*
X005696Y004409D03*
X005696Y004410D03*
X005696Y004411D03*
X005696Y004412D03*
X005696Y004413D03*
X005696Y004414D03*
X005696Y004415D03*
X005696Y004416D03*
X005696Y004417D03*
X005696Y004418D03*
X005696Y004419D03*
X005696Y004420D03*
X005696Y004421D03*
X005696Y004422D03*
X005696Y004423D03*
X005696Y004424D03*
X005696Y004425D03*
X005696Y004426D03*
X005696Y004427D03*
X005696Y004428D03*
X005696Y004429D03*
X005696Y004430D03*
X005696Y004431D03*
X005696Y004432D03*
X005696Y004433D03*
X005696Y004434D03*
X005696Y004435D03*
X005696Y004436D03*
X005696Y004437D03*
X005696Y004438D03*
X005696Y004439D03*
X005696Y004440D03*
X005696Y004441D03*
X005696Y004442D03*
X005696Y004443D03*
X005696Y004444D03*
X005696Y004445D03*
X005696Y004446D03*
X005696Y004447D03*
X005696Y004448D03*
X005696Y004449D03*
X005696Y004450D03*
X005696Y004451D03*
X005696Y004452D03*
X005696Y004453D03*
X005696Y004454D03*
X005696Y004455D03*
X005696Y004456D03*
X005696Y004457D03*
X005696Y004458D03*
X005696Y004459D03*
X005696Y004460D03*
X005696Y004461D03*
X005696Y004462D03*
X005696Y004463D03*
X005696Y004464D03*
X005696Y004465D03*
X005696Y004466D03*
X005696Y004467D03*
X005696Y004468D03*
X005696Y004469D03*
X005696Y004470D03*
X005696Y004471D03*
X005696Y004472D03*
X005696Y004473D03*
X005696Y004474D03*
X005696Y004475D03*
X005696Y004476D03*
X005696Y004477D03*
X005696Y004478D03*
X005696Y004479D03*
X005696Y004480D03*
X005696Y004481D03*
X005696Y004482D03*
X005696Y004483D03*
X005696Y004484D03*
X005696Y004485D03*
X005696Y004486D03*
X005696Y004487D03*
X005696Y004488D03*
X005696Y004489D03*
X005696Y004490D03*
X005696Y004491D03*
X005696Y004492D03*
X005696Y004493D03*
X005696Y004494D03*
X005696Y004495D03*
X005696Y004496D03*
X005696Y004497D03*
X005696Y004498D03*
X005696Y004499D03*
X005696Y004500D03*
X005696Y004501D03*
X005696Y004502D03*
X005696Y004503D03*
X005696Y004504D03*
X005696Y004248D03*
D312*
X005133Y004578D03*
X005133Y004579D03*
D313*
X005134Y004580D03*
X005134Y004581D03*
X005134Y004582D03*
X005134Y004583D03*
X005134Y004584D03*
X005134Y004585D03*
X005134Y004586D03*
D314*
X005134Y004587D03*
D315*
X005134Y004588D03*
X005134Y004589D03*
X005134Y004590D03*
X005134Y004591D03*
X005134Y004592D03*
D316*
X005134Y004593D03*
X005134Y004594D03*
D317*
X005134Y004595D03*
X005134Y004596D03*
X005134Y004597D03*
X005134Y004598D03*
D318*
X005134Y004599D03*
X005134Y004600D03*
D319*
X005134Y004601D03*
X005134Y004602D03*
X005134Y004603D03*
D320*
X005134Y004604D03*
X005134Y004605D03*
D321*
X005134Y004606D03*
X005134Y004607D03*
X005134Y004608D03*
D322*
X005134Y004609D03*
X005134Y004610D03*
D323*
X005134Y004611D03*
X005134Y004612D03*
X005134Y004613D03*
D324*
X005134Y004614D03*
D325*
X005134Y004615D03*
X005134Y004616D03*
X005134Y004617D03*
X005134Y004618D03*
D326*
X005134Y004619D03*
X005134Y004620D03*
X005134Y004621D03*
X005134Y004622D03*
D327*
X005134Y004623D03*
X005134Y004624D03*
X005134Y004625D03*
X005134Y004626D03*
D328*
X005134Y004627D03*
X005134Y004628D03*
X005134Y004629D03*
X005134Y004630D03*
D329*
X005134Y004631D03*
X005134Y004632D03*
X005134Y004633D03*
X005134Y004634D03*
D330*
X005134Y004635D03*
X005134Y004636D03*
X005134Y004637D03*
D331*
X005133Y004638D03*
D332*
X005134Y004639D03*
X005134Y004640D03*
D333*
X005133Y004641D03*
D334*
X005134Y004642D03*
X005134Y004643D03*
X005134Y004644D03*
D335*
X005133Y004645D03*
D336*
X005134Y004646D03*
X005134Y004647D03*
D337*
X005133Y004648D03*
D338*
X005134Y004649D03*
X005134Y004650D03*
D339*
X005133Y004651D03*
D340*
X005134Y004652D03*
X005134Y004653D03*
D341*
X005133Y004654D03*
D342*
X005134Y004655D03*
D343*
X005133Y004656D03*
D344*
X005134Y004657D03*
X005134Y004658D03*
D345*
X005133Y004659D03*
D346*
X005134Y004660D03*
X005134Y004661D03*
D347*
X005133Y004662D03*
D348*
X005134Y004663D03*
D349*
X005133Y004664D03*
D350*
X005134Y004665D03*
X005134Y004666D03*
D351*
X005133Y004667D03*
D352*
X005134Y004668D03*
D353*
X005133Y004669D03*
D354*
X005133Y004670D03*
D355*
X005133Y004671D03*
D356*
X005134Y004672D03*
D357*
X005134Y004673D03*
D358*
X005134Y004674D03*
D359*
X005134Y004675D03*
D360*
X005134Y004676D03*
D361*
X005134Y004677D03*
D362*
X005134Y004678D03*
D363*
X005134Y004679D03*
D364*
X005134Y004680D03*
D365*
X005134Y004681D03*
D366*
X005134Y004682D03*
D367*
X005134Y004683D03*
D368*
X005134Y004684D03*
D369*
X005134Y004685D03*
D370*
X005134Y004686D03*
D371*
X005134Y004687D03*
D372*
X005134Y004688D03*
D373*
X005134Y004689D03*
D374*
X005134Y004690D03*
D375*
X005134Y004691D03*
D376*
X005134Y004692D03*
D377*
X005134Y004693D03*
D378*
X005134Y004694D03*
D379*
X005134Y004695D03*
D380*
X005134Y004696D03*
D381*
X005134Y004697D03*
D382*
X005134Y004698D03*
D383*
X005134Y004699D03*
D384*
X005134Y004700D03*
D385*
X005134Y004701D03*
D386*
X005134Y004702D03*
D387*
X005134Y004703D03*
D388*
X005133Y004704D03*
D389*
X005133Y004705D03*
D390*
X005133Y004706D03*
D391*
X005133Y004707D03*
D392*
X005133Y004708D03*
D393*
X005133Y004709D03*
D394*
X005133Y004710D03*
D395*
X005133Y004711D03*
D396*
X005133Y004712D03*
D397*
X005133Y004713D03*
D398*
X005133Y004714D03*
D399*
X005133Y004715D03*
D400*
X005133Y004716D03*
D401*
X005133Y004717D03*
D402*
X005133Y004718D03*
D403*
X005133Y004719D03*
D404*
X005133Y004720D03*
D405*
X005134Y004721D03*
D406*
X005134Y004722D03*
D407*
X005134Y004723D03*
D408*
X005134Y004724D03*
D409*
X005134Y004725D03*
D410*
X005134Y004726D03*
D411*
X005134Y004727D03*
D412*
X005134Y004728D03*
D413*
X005134Y004729D03*
D414*
X005134Y004730D03*
D415*
X005134Y004731D03*
D416*
X005134Y004732D03*
D417*
X005134Y004733D03*
D418*
X005134Y004734D03*
D419*
X005134Y004735D03*
D420*
X005134Y004736D03*
D421*
X005134Y004737D03*
D422*
X005134Y004738D03*
D423*
X005134Y004739D03*
D424*
X005134Y004740D03*
D425*
X005134Y004741D03*
D426*
X005134Y004742D03*
D427*
X005134Y004743D03*
D428*
X005134Y004744D03*
D429*
X005134Y004745D03*
D430*
X005134Y004746D03*
D431*
X005134Y004747D03*
D432*
X005134Y004748D03*
D433*
X005134Y004749D03*
D434*
X005134Y004750D03*
D435*
X005134Y004751D03*
D436*
X005134Y004752D03*
D437*
X005133Y004753D03*
D438*
X005133Y004754D03*
D439*
X005133Y004755D03*
D440*
X005133Y004756D03*
D441*
X005133Y004757D03*
D442*
X005133Y004758D03*
D443*
X005133Y004759D03*
D444*
X005133Y004760D03*
D445*
X005133Y004761D03*
D446*
X005133Y004762D03*
D447*
X005133Y004763D03*
D448*
X005133Y004764D03*
D449*
X005133Y004765D03*
D450*
X005133Y004766D03*
D451*
X005133Y004767D03*
D452*
X005133Y004768D03*
D453*
X005133Y004769D03*
D454*
X005134Y004770D03*
D455*
X005134Y004771D03*
D456*
X005134Y004772D03*
D457*
X005134Y004773D03*
D458*
X005134Y004774D03*
D459*
X005134Y004775D03*
D460*
X005134Y004776D03*
D461*
X005134Y004777D03*
D462*
X005134Y004778D03*
D463*
X005134Y004779D03*
D464*
X005134Y004780D03*
D465*
X005134Y004781D03*
D466*
X005134Y004782D03*
D467*
X005134Y004783D03*
D468*
X005134Y004784D03*
D469*
X005134Y004785D03*
D470*
X005134Y004786D03*
D471*
X005134Y004787D03*
D472*
X005134Y004788D03*
D473*
X005134Y004789D03*
D474*
X005134Y004790D03*
D475*
X005134Y004791D03*
D476*
X005134Y004792D03*
D477*
X005134Y004793D03*
D478*
X005134Y004794D03*
D479*
X005134Y004795D03*
D480*
X005134Y004796D03*
D481*
X005134Y004797D03*
D482*
X005134Y004798D03*
D483*
X005134Y004799D03*
D484*
X005134Y004800D03*
D485*
X005134Y004801D03*
D486*
X005134Y004802D03*
D487*
X005133Y004803D03*
D488*
X005133Y004804D03*
D489*
X005133Y004805D03*
D490*
X005133Y004806D03*
D491*
X005133Y004807D03*
D492*
X005133Y004808D03*
D493*
X005133Y004809D03*
D494*
X005133Y004810D03*
D495*
X005133Y004811D03*
D496*
X005133Y004812D03*
D497*
X005133Y004813D03*
D498*
X005133Y004814D03*
D499*
X005133Y004815D03*
D500*
X005133Y004816D03*
D501*
X005133Y004817D03*
D502*
X005134Y004818D03*
D503*
X005134Y004819D03*
D504*
X005134Y004820D03*
D505*
X005134Y004821D03*
D506*
X005134Y004822D03*
D507*
X005134Y004823D03*
D508*
X005134Y004824D03*
D509*
X005134Y004825D03*
D510*
X005134Y004826D03*
D511*
X005134Y004827D03*
D512*
X005134Y004828D03*
D513*
X005134Y004829D03*
D514*
X005134Y004830D03*
D515*
X005134Y004831D03*
D516*
X005134Y004832D03*
D517*
X005134Y004833D03*
D518*
X005134Y004834D03*
D519*
X005134Y004835D03*
D520*
X005134Y004836D03*
D521*
X005134Y004837D03*
D522*
X005134Y004838D03*
D523*
X005134Y004839D03*
D524*
X005134Y004840D03*
D525*
X005134Y004841D03*
D526*
X005134Y004842D03*
D527*
X005134Y004843D03*
D528*
X005134Y004844D03*
D529*
X005134Y004845D03*
D530*
X005134Y004846D03*
D531*
X005134Y004847D03*
D532*
X005134Y004848D03*
D533*
X005134Y004849D03*
D534*
X005134Y004850D03*
D535*
X005134Y004851D03*
D536*
X005133Y004852D03*
D537*
X005133Y004853D03*
D538*
X005133Y004854D03*
D539*
X005133Y004855D03*
D540*
X005133Y004856D03*
D541*
X005133Y004857D03*
D542*
X005133Y004858D03*
D543*
X005133Y004859D03*
D544*
X005133Y004860D03*
D545*
X005133Y004861D03*
D546*
X005133Y004862D03*
D547*
X005133Y004863D03*
D548*
X005133Y004864D03*
D549*
X005133Y004865D03*
D550*
X005133Y004866D03*
D551*
X005134Y004867D03*
D552*
X005134Y004868D03*
D553*
X005134Y004869D03*
D554*
X005134Y004870D03*
D555*
X005134Y004871D03*
D556*
X005134Y004872D03*
D557*
X005134Y004873D03*
D558*
X005134Y004874D03*
D559*
X005134Y004875D03*
D560*
X005134Y004876D03*
D561*
X005134Y004877D03*
D562*
X005134Y004878D03*
D563*
X005134Y004879D03*
D564*
X005134Y004880D03*
D565*
X005134Y004881D03*
D566*
X005134Y004882D03*
D567*
X005134Y004883D03*
D568*
X005134Y004884D03*
D569*
X005134Y004885D03*
D570*
X005134Y004886D03*
D571*
X005134Y004887D03*
D572*
X005134Y004888D03*
D573*
X005134Y004889D03*
D574*
X005134Y004890D03*
D575*
X005134Y004891D03*
D576*
X005134Y004892D03*
D577*
X005134Y004893D03*
D578*
X005134Y004894D03*
D579*
X005134Y004895D03*
D580*
X005134Y004896D03*
D581*
X005134Y004897D03*
D582*
X005134Y004898D03*
D583*
X005134Y004899D03*
D584*
X005134Y004900D03*
D585*
X005133Y004901D03*
D586*
X005133Y004902D03*
D587*
X005133Y004903D03*
D588*
X005133Y004904D03*
D589*
X005133Y004905D03*
D590*
X005133Y004906D03*
D591*
X005133Y004907D03*
D592*
X005133Y004908D03*
D593*
X005133Y004909D03*
D594*
X005133Y004910D03*
D595*
X005133Y004911D03*
D596*
X005133Y004912D03*
D597*
X005133Y004913D03*
D598*
X005133Y004914D03*
D599*
X005133Y004915D03*
D600*
X005134Y004916D03*
D601*
X005134Y004917D03*
D602*
X005134Y004918D03*
D603*
X005134Y004919D03*
D604*
X005134Y004920D03*
D605*
X005134Y004921D03*
D606*
X005134Y004922D03*
D607*
X005134Y004923D03*
D608*
X005134Y004924D03*
D609*
X005134Y004925D03*
D610*
X005134Y004926D03*
D611*
X005134Y004927D03*
D612*
X005134Y004928D03*
D613*
X005134Y004929D03*
D614*
X005134Y004930D03*
D615*
X005134Y004931D03*
D616*
X005134Y004932D03*
D617*
X005134Y004933D03*
D618*
X005134Y004934D03*
D619*
X005134Y004935D03*
D620*
X005134Y004936D03*
D621*
X005134Y004937D03*
D622*
X005133Y004938D03*
D623*
X005134Y004939D03*
D624*
X005134Y004940D03*
D625*
X005134Y004941D03*
D626*
X005134Y004942D03*
D627*
X005134Y004943D03*
D628*
X005133Y004944D03*
D629*
X005133Y004945D03*
D630*
X005133Y004946D03*
D631*
X005133Y004947D03*
D632*
X005133Y004948D03*
D633*
X005133Y004949D03*
D634*
X005133Y004950D03*
D635*
X005133Y004951D03*
D636*
X005133Y004952D03*
D637*
X005133Y004953D03*
D638*
X005133Y004954D03*
D639*
X005132Y004955D03*
D640*
X005132Y004956D03*
D641*
X005132Y004957D03*
D642*
X005131Y004958D03*
D643*
X004127Y002851D02*
X004127Y002851D01*
X004127Y002850D01*
X004126Y002850D01*
X004126Y002849D02*
X004126Y002851D01*
X004127Y002851D01*
X004127Y002850D02*
X004127Y002850D01*
X004125Y002851D02*
X004125Y002850D01*
X004125Y002851D01*
X004125Y002851D01*
X004125Y002851D01*
X004124Y002851D01*
X004124Y002851D01*
X004124Y002850D01*
X004123Y002850D02*
X004123Y002851D01*
X004122Y002851D01*
X004121Y002850D02*
X004121Y002850D01*
X004121Y002850D01*
X004121Y002850D01*
X004121Y002850D01*
X004121Y002851D01*
X004120Y002851D01*
X004120Y002851D01*
X004119Y002851D01*
X004119Y002850D01*
X004118Y002850D01*
X004117Y002850D01*
X004117Y002851D01*
X004117Y002851D01*
X004117Y002850D01*
X004117Y002850D01*
X004116Y002850D01*
X004116Y002850D01*
X004116Y002851D01*
X004116Y002851D01*
X004117Y002851D01*
X004118Y002851D01*
X004119Y002851D01*
X004119Y002850D01*
X004118Y002849D01*
X004118Y002849D01*
X004119Y002850D02*
X004120Y002850D01*
X004121Y002850D01*
X004120Y002850D02*
X004120Y002850D01*
X004122Y002850D02*
X004123Y002850D01*
X004123Y002850D01*
X004122Y002850D02*
X004122Y002852D01*
X004123Y002851D02*
X004123Y002851D01*
X004115Y002850D02*
X004114Y002850D01*
X004113Y002850D01*
X004112Y002850D02*
X004111Y002850D01*
X004110Y002850D01*
X004109Y002850D01*
X004110Y002851D01*
X004111Y002851D01*
X004111Y002850D01*
X004112Y002851D02*
X004112Y002850D01*
X004111Y002851D02*
X004112Y002851D01*
X004112Y002852D02*
X004112Y002852D01*
X004111Y002851D02*
X004110Y002851D01*
X004110Y002851D01*
X004109Y002852D02*
X004108Y002850D01*
X004107Y002850D02*
X004107Y002851D01*
X004107Y002851D01*
X004106Y002851D01*
X004106Y002850D01*
X004106Y002850D01*
X004107Y002850D01*
X004107Y002850D01*
X004106Y002851D02*
X004106Y002851D01*
X004105Y002851D02*
X004104Y002851D01*
X004104Y002850D01*
X004105Y002850D01*
X004104Y002850D02*
X004104Y002850D01*
X004103Y002850D02*
X004103Y002851D01*
X004102Y002851D01*
X004102Y002851D01*
X004102Y002851D01*
X004103Y002851D01*
X004103Y002850D02*
X004103Y002850D01*
X004102Y002850D01*
X004101Y002850D01*
X004101Y002851D01*
X004101Y002851D01*
X004100Y002851D02*
X004099Y002850D01*
X004099Y002851D02*
X004100Y002850D01*
X004101Y002852D02*
X004101Y002852D01*
X004099Y002852D02*
X004097Y002850D01*
X004096Y002850D02*
X004096Y002850D01*
X004095Y002850D01*
X004095Y002851D01*
X004095Y002851D01*
X004096Y002851D01*
X004096Y002851D01*
X004097Y002851D01*
X004097Y002851D01*
X004095Y002851D01*
X004095Y002850D01*
X004094Y002851D02*
X004094Y002850D01*
X004094Y002851D01*
X004095Y002851D01*
X004094Y002851D02*
X004094Y002851D01*
X004094Y002851D01*
X004093Y002851D02*
X004093Y002851D01*
X004093Y002850D01*
X004093Y002850D01*
X004092Y002850D01*
X004092Y002850D01*
X004092Y002851D01*
X004092Y002851D01*
X004093Y002851D01*
X004091Y002851D02*
X004091Y002850D01*
X004091Y002851D02*
X004091Y002851D01*
X004090Y002851D01*
X004090Y002851D01*
X004090Y002852D02*
X004090Y002850D01*
X004088Y002850D02*
X004089Y002852D01*
X004104Y002851D02*
X004104Y002851D01*
X004114Y002852D02*
X004115Y002852D01*
X004115Y002850D01*
M02*
