G75*
%MOIN*%
%OFA0B0*%
%FSLAX24Y24*%
%IPPOS*%
%LPD*%
%AMOC8*
5,1,8,0,0,1.08239X$1,22.5*
%
%ADD10R,0.0315X0.0315*%
%ADD11R,0.0394X0.0433*%
%ADD12R,0.0472X0.0315*%
%ADD13R,0.0315X0.0472*%
%ADD14C,0.0236*%
D10*
X006400Y007855D03*
X006400Y008445D03*
X007900Y008445D03*
X007900Y007855D03*
D11*
X005650Y007815D03*
X005650Y008485D03*
X008650Y008485D03*
X008650Y007815D03*
D12*
X009748Y012343D03*
X009748Y012815D03*
X009748Y013288D03*
X009748Y013760D03*
X009748Y014233D03*
X009748Y014705D03*
X009748Y015178D03*
X009748Y015650D03*
X009748Y016122D03*
X009748Y016595D03*
X009748Y017067D03*
X009748Y017540D03*
X009748Y018012D03*
X009748Y018485D03*
X009748Y018957D03*
X009748Y019430D03*
X009748Y019902D03*
X004552Y019902D03*
X004552Y019430D03*
X004552Y018957D03*
X004552Y018485D03*
X004552Y018012D03*
X004552Y017540D03*
X004552Y017067D03*
X004552Y016595D03*
X004552Y016122D03*
X004552Y015650D03*
X004552Y015178D03*
X004552Y014705D03*
X004552Y014233D03*
X004552Y013760D03*
X004552Y013288D03*
X004552Y012815D03*
X004552Y012343D03*
D13*
X004827Y011634D03*
X005496Y011634D03*
X005969Y011634D03*
X006441Y011634D03*
X006914Y011634D03*
X007386Y011634D03*
X007859Y011634D03*
X008331Y011634D03*
X008804Y011634D03*
X009473Y011638D03*
D14*
X008567Y019587D02*
X008567Y019823D01*
X008567Y019587D02*
X008489Y019587D01*
X008489Y019823D01*
X008567Y019823D01*
X008567Y019822D02*
X008489Y019822D01*
X008016Y019823D02*
X008016Y019587D01*
X007938Y019587D01*
X007938Y019823D01*
X008016Y019823D01*
X008016Y019822D02*
X007938Y019822D01*
X007465Y019823D02*
X007465Y019587D01*
X007387Y019587D01*
X007387Y019823D01*
X007465Y019823D01*
X007465Y019822D02*
X007387Y019822D01*
X006913Y019823D02*
X006913Y019587D01*
X006835Y019587D01*
X006835Y019823D01*
X006913Y019823D01*
X006913Y019822D02*
X006835Y019822D01*
X006362Y019823D02*
X006362Y019587D01*
X006284Y019587D01*
X006284Y019823D01*
X006362Y019823D01*
X006362Y019822D02*
X006284Y019822D01*
X005811Y019823D02*
X005811Y019587D01*
X005733Y019587D01*
X005733Y019823D01*
X005811Y019823D01*
X005811Y019822D02*
X005733Y019822D01*
M02*
